<?xml version="1.0" encoding="UTF-8"?>
<svg width="64px" height="63px" viewBox="0 0 64 63" version="1.1" xmlns="http://www.w3.org/2000/svg" xmlns:xlink="http://www.w3.org/1999/xlink">
    <!-- Generator: Sketch 45.1 (43504) - http://www.bohemiancoding.com/sketch -->
    <title>facebook</title>
    <desc>Created with Sketch.</desc>
    <defs>
        <polygon id="path-1" points="5.37232788e-15 63 5.37232788e-15 1.28818028e-14 64 0 64 63"></polygon>
    </defs>
    <g id="Symbols" stroke="none" stroke-width="1" fill="none" fill-rule="evenodd">
        <g id="footer" transform="translate(-732.000000, -123.000000)">
            <g id="social" transform="translate(730.000000, 85.000000)">
                <g id="Stacked-Group-7" transform="translate(2.000000, 38.000000)">
                    <g id="facebook">
                        <g id="Page-1-Copy">
                            <mask id="mask-2" fill="white">
                                <use xlink:href="#path-1"></use>
                            </mask>
                            <g id="Clip-2"></g>
                            <path d="M11.2082413,56.9090795 C-2.68925494,45.3506004 -3.8244577,25.5205251 8.70770874,10.6030981 C20.6684157,-3.62404725 41.6540072,-3.52478809 54.4812084,10.846487 C64.0630278,21.2696046 68.6859946,41.1250611 57.3303358,52.2076402 C46.4108745,63.4701549 24.4834413,67.3294777 11.2082413,56.9090795" id="Fill-1" fill="#3DB1C8" mask="url(#mask-2)"></path>
                        </g>
                        <path d="M34.3743213,47.0506329 L27.9912264,47.0506329 L27.9912264,31.1006023 L24.8,31.1006023 L24.8,25.6029942 L27.9912264,25.6029942 L27.9912264,22.3031023 C27.9912264,17.8187529 29.7925906,15.1518987 34.9084392,15.1518987 L39.1691855,15.1518987 L39.1691855,20.6495068 L36.5075833,20.6495068 C34.5149124,20.6495068 34.3826668,21.4179111 34.3826668,22.8512042 L34.3743213,25.6023307 L39.2,25.6023307 L38.6350675,31.0999387 L34.3743213,31.0999387 L34.3743213,47.0506329 L34.3743213,47.0506329 Z" id="Path" fill="#FFFFFF"></path>
                    </g>
                </g>
            </g>
        </g>
    </g>
</svg>