<?xml version="1.0" encoding="UTF-8"?>
<svg width="159px" height="117px" viewBox="0 0 159 117" version="1.1" xmlns="http://www.w3.org/2000/svg" xmlns:xlink="http://www.w3.org/1999/xlink">
    <!-- Generator: Sketch 45.1 (43504) - http://www.bohemiancoding.com/sketch -->
    <title>Group 57</title>
    <desc>Created with Sketch.</desc>
    <defs></defs>
    <g id="Desktop" stroke="none" stroke-width="1" fill="none" fill-rule="evenodd" opacity="0.3">
        <g id="Contact" transform="translate(-215.000000, -1546.000000)">
            <g id="Group-57" transform="translate(215.000000, 1546.000000)">
                <path d="M139.421767,76.3384719 C140.456186,75.4329562 141.202233,74.2429562 140.919442,72.8409875 C140.898977,72.7350031 140.863628,72.6364562 140.83014,72.5379094 C143.395721,71.8945656 145.03293,69.6670344 145.51107,67.0918 C146.19014,63.4344094 144.417116,59.6617375 143.970605,56.069425 C143.460837,51.9695031 142.463628,48.4887531 140.437581,44.8499562 C138.305488,41.0215031 135.624558,37.5798 132.545488,34.4523312 C121.062698,22.79405 106.346419,13.7779406 91.127814,7.73869062 C88.807814,6.8183 86.432,5.9853 84.324093,4.62981562 C82.9138605,3.7243 81.6171163,2.6533 80.167814,1.80356562 C78.4059535,0.769753125 74.4710698,-0.8200125 73.7566512,2.34650313 C73.4459535,3.72058125 74.3594419,5.08908125 74.8896744,6.27908125 C75.5613023,7.78145625 76.1268837,9.32845625 76.6124651,10.8996281 C77.6952558,14.3989719 78.3631628,18.0061594 78.9826977,21.6077687 C80.1417674,28.3498625 81.1854884,35.2016594 84.0022326,41.5049406 C86.8450233,47.8695812 91.3008372,53.3751906 96.3706047,58.1500656 C102.173395,63.6166281 108.889674,68.8061437 115.844093,72.7535969 C121.806884,76.1376594 128.768744,77.9710031 135.472,75.8940812 C135.578047,76.4611906 135.771535,76.983675 136.368744,77.3239406 C137.486884,77.9598469 138.605023,77.0543312 139.421767,76.3384719 M82.456186,28.9801906 C83.5092093,31.2133 84.7110698,33.3497219 86.0264186,35.3020656 C87.9687442,38.1859562 90.5585116,40.3000656 92.7892093,42.919925 C95.0626977,45.5918469 96.4003721,48.8848 98.5510698,51.6403937 C100.657116,54.3402062 103.440372,56.4617531 106.104558,58.5907375 C109.259907,61.11205 112.482233,63.5478312 115.769674,65.8980812 C118.584558,67.909925 121.451535,70.1653469 124.672,71.52455 C127.685953,72.7945031 131.163163,73.264925 134.450605,73.1719562 C134.567814,73.3616125 134.698047,73.5568469 134.839442,73.770675 C127.068279,76.091175 119.23386,72.4784094 112.912,68.1497844 C106.722233,63.9104094 100.543628,59.2954406 95.3082791,53.9218469 C90.912,49.4091437 87.1315349,44.1415344 84.9324651,38.2343 C85.1985116,38.665675 85.4850233,39.0877531 85.712,39.5209875 C86.3966512,40.8281281 87.0143256,42.1687375 87.7064186,43.4703 C88.7966512,45.5193312 91.2394419,46.5717375 92.0933953,48.661675 C92.3464186,49.2808469 93.4050233,49.0651594 93.2710698,48.3753312 C93.0757209,47.3619719 92.6515349,46.6963156 91.9259535,45.9525656 C90.7464186,44.7458312 89.7492093,43.79755 88.9808372,42.25055 C88.1603721,40.6012844 86.9436279,36.2838156 84.616186,36.1425031 C84.4785116,36.1332062 84.3408372,36.1927062 84.2664186,36.2986906 C83.5036279,33.8982375 82.936186,31.4494406 82.456186,28.9801906 M111.200372,34.0358312 C109.507349,30.9641437 106.251535,29.3557844 103.334326,27.6209875 C101.486884,26.5239562 99.7306047,25.3506906 98.3352558,23.7070031 C97.1222326,22.2752844 96.1845581,20.6650656 94.8747907,19.3077219 C91.9538605,16.2788 88.1882791,14.2818312 84.9975814,11.5690031 C83.9910698,10.7118312 83.047814,9.51439375 82.0580465,8.34670625 C83.2226977,9.0867375 84.3854884,9.81375312 85.5017674,10.5537844 C88.9659535,12.8501125 92.4375814,15.1352844 95.9147907,17.4130187 C99.3473488,19.6628625 102.761302,21.9443156 106.23107,24.1365187 C109.369674,26.1204719 112.685023,27.8385344 115.47386,30.3077844 C120.91014,35.1198469 126.184558,40.5733937 130.612465,46.3095656 C134.740837,51.6534094 139.818047,59.2619719 137.723163,66.3201594 C137.245023,66.392675 136.779907,66.5730344 136.333395,66.8017375 C136.104558,66.7775656 135.858977,66.82405 135.615256,66.9690812 C135.499907,67.0397375 135.395721,67.1159719 135.297116,67.195925 C133.462698,64.3529406 131.125953,61.8372062 128.528744,59.6580187 C127.014326,58.3880656 125.501767,57.2129406 124.255256,55.6678 C123.066419,54.195175 122.065488,52.60355 120.774326,51.2108781 C118.441302,48.691425 115.609674,46.7223469 113.03293,44.4687844 C110.138047,41.938175 108.491535,38.7177375 105.961302,35.9212375 C104.954791,34.8074719 103.810605,34.0023625 102.497116,33.2846437 C100.584558,32.239675 98.8822326,31.0255031 97.207814,29.6421281 C94.376186,27.3067531 91.7380465,24.7445344 89.336186,21.9777844 C86.2738605,18.4486906 83.604093,14.6853156 81.3473488,10.6746437 C82.2664186,11.6973 83.2338605,12.6623156 84.3147907,13.5399406 C87.4664186,16.0947219 91.287814,17.8927375 94.0264186,20.934675 C95.2654884,22.3124719 96.1715349,23.9505812 97.4422326,25.3004875 C98.5287442,26.4551594 99.8292093,27.360675 101.181767,28.1788 C104.456186,30.157175 107.890605,31.5963312 110.264558,34.7033469 C110.725953,35.3095031 111.546419,34.6624406 111.200372,34.0358312 M78.4208372,9.53484687 C80.7557209,14.1256437 83.5836279,18.4988937 86.884093,22.4333312 C89.1315349,25.1108312 91.579907,27.6321437 94.2068837,29.9470656 C95.6524651,31.2225969 97.1445581,32.4888312 98.7352558,33.5877219 C100.236651,34.6271125 102.026419,35.2853312 103.410605,36.4716125 C106.087814,38.7679406 107.538977,42.2319562 110.056186,44.7253781 C112.761302,47.4028781 116.011535,49.4742219 118.683163,52.1851906 C121.278512,54.8180656 123.006884,57.9641281 125.924093,60.3255344 C129.094326,62.8896125 131.845953,65.5206281 134.309209,68.7317687 C134.221767,69.0013781 134.15293,69.2840031 134.089674,69.5703469 C131.684093,67.8913312 128.461767,67.076925 125.916651,65.7028469 C124.093395,64.7192375 123.998512,63.3005344 123.051535,61.7442375 C122.400372,60.6750969 121.384558,60.0373312 120.363163,59.3400656 C117.445953,57.3468156 114.735256,55.0616437 112.329674,52.4826906 C110.500837,50.52105 109.034791,47.5497687 106.662698,46.2296125 C106.39107,46.0790031 106.085953,46.3579094 106.112,46.6293781 C106.387349,49.4872375 109.455256,52.2688625 111.343628,54.2472375 C113.697116,56.7109094 116.298047,58.9161281 119.114791,60.8461594 C119.888744,61.3760812 120.800372,61.8669562 121.328744,62.6683469 C121.844093,63.4492844 121.974326,64.4254562 122.461767,65.2287062 C123.036651,66.16955 123.877581,66.8054562 124.843163,67.3316594 C126.394791,68.177675 128.067349,68.8526281 129.680372,69.5740656 C131.021767,70.1765031 132.378047,70.9351281 133.819907,71.271675 C133.818047,71.3999719 133.825488,71.52455 133.838512,71.6416906 C130.407814,71.1787062 127.239442,70.8681906 124.059907,69.08505 C120.908279,67.314925 118.000372,65.0520656 115.11107,62.8989094 C112.305488,60.8089719 109.548279,58.6520969 106.843163,56.4338625 C104.169674,54.2435187 101.43293,52.0847844 99.4645581,49.2194875 C97.6245581,46.5438469 96.247814,43.5837219 94.0301395,41.1702531 C91.9464186,38.9018156 89.6729302,36.9383156 87.9017674,34.3928312 C84.4022326,29.3595031 82.9343256,23.6028781 80.539907,18.1121437 C80.1492093,16.07055 79.7082791,14.0382531 79.1668837,12.0301281 C78.939907,11.19155 78.6887442,10.3604094 78.4208372,9.53484687 M140.056186,70.7584875 C140.046884,70.7603469 140.039442,70.7640656 140.03014,70.765925 C139.892465,70.1151437 140.242233,69.6763312 140.405953,68.90655 C140.619907,67.9024875 140.11386,66.94305 139.174326,66.5098156 C141.224558,61.0637062 138.658977,55.2922062 135.866419,50.5396437 C132.882233,45.4598312 129.008744,40.9341125 124.923163,36.6891594 C120.629209,32.2266594 116.409674,27.8329562 111.049674,24.6255344 C105.055256,21.0388 99.284093,17.0839094 93.4403721,13.2628937 C90.4282791,11.2919562 87.4143256,9.3247375 84.407814,7.34450312 C82.1808372,5.87745625 79.9389767,4.21145625 77.5780465,2.8987375 C77.5650233,2.8838625 77.552,2.8689875 77.5389767,2.8541125 L77.9166512,3.0103 C78.3073488,3.0921125 78.8450233,3.49931562 79.1650233,3.69083125 C80.0282791,4.20587812 80.8301395,4.80645625 81.6543256,5.3828625 C82.832,6.208425 84.0245581,6.9893625 85.3175814,7.6289875 C88.5994419,9.2503625 92.139907,10.3697062 95.4850233,11.8665031 C108.571535,17.721675 121.157581,25.8601594 131.209674,36.0662687 C135.963163,40.8932062 140.647814,47.2262375 141.611535,54.0538625 C142.039442,57.0995187 142.698047,60.0224562 143.27293,63.0365031 C143.797581,65.7846594 143.576186,70.081675 140.056186,70.7584875 M137.496186,74.2652687 C137.429209,73.8785187 137.285953,73.4973469 137.105488,73.1496437 C136.675721,72.3259406 136.063628,72.0953781 136.084093,70.9946281 C136.093395,70.4275187 136.424558,69.0943469 136.928744,68.7689562 C137.146419,68.6257844 137.282233,68.4528625 137.35293,68.2687844 C137.698977,68.2427531 138.050605,68.4342687 138.404093,68.8507687 C138.229209,69.1464094 138.102698,69.4587844 138.022698,69.7916125 C137.916651,70.2322844 137.91293,70.617175 138.015256,71.0597062 C138.359442,72.5472062 139.600372,73.2928156 138.104558,74.7580031 C137.252465,75.5910031 137.620837,74.9736906 137.496186,74.2652687" id="Fill-30" fill="#00BBD9"></path>
                <path d="M134.75107,45.3932656 C133.164093,44.3148281 131.939907,42.4926406 130.488744,41.1892187 C129.013395,39.861625 127.71293,38.5024219 126.652465,36.8215469 C125.368744,34.7818125 123.897116,33.1771719 122.098047,31.5650937 C121.126884,30.6930469 120.144558,29.8321562 119.087814,29.0642344 C118.185488,28.407875 117.258977,27.9634844 116.598512,27.05425 C116.408744,26.7957969 116.563163,26.325375 116.925953,26.3235156 C119.154791,26.3123594 121.061767,28.30375 122.635721,29.687125 C124.436651,31.2713125 126.23386,32.8666562 127.528744,34.8970937 C128.916651,37.0725625 130.436651,38.7348437 132.321302,40.5031094 C133.595721,41.6968281 135.411535,43.1545781 135.459907,45.0120937 C135.469209,45.3988437 135.07293,45.6126719 134.75107,45.3932656" id="Fill-32" fill="#00BBD9"></path>
                <path d="M127.393488,47.8863156 C128.530233,48.6263469 129.908837,50.0543469 130.675349,51.2015812 C131.012093,51.7073312 131.214884,52.2260969 131.332093,52.8173781 C131.592558,54.1300969 131.711628,54.8868625 132.792558,55.8946437 C133.951628,56.9749406 135.017674,57.9511125 135.823256,59.341925 C136.253023,60.0838156 136.59907,60.8647531 136.848372,61.6828781 C137.116279,62.554925 137.084651,63.8509094 137.622326,64.5890812 C138.050233,65.1803625 137.274419,65.8683312 136.703256,65.4443937 C135.454884,64.5240031 135.627907,62.4080344 135.013953,61.0655656 C134.024186,58.895675 132.310698,57.8934719 130.777674,56.2218937 C129.562791,54.8998781 130.163721,53.0609562 129.082791,51.6552687 C128.180465,50.4820031 126.647442,49.762425 126.755349,48.1298937 C126.775814,47.8045031 127.168372,47.739425 127.393488,47.8863156" id="Fill-34" fill="#00BBD9"></path>
                <path d="M43.1259535,71.5522547 C45.0180465,71.2026922 46.8859535,70.0257078 48.7445581,69.4139734 C50.6385116,68.7910828 52.3836279,68.0715047 54.0413023,66.9577391 C56.0524651,65.6078328 58.0543256,64.7283484 60.3613023,63.9753016 C61.604093,63.5680984 62.856186,63.1720516 64.1380465,62.8931453 C65.2301395,62.6551453 66.2608372,62.6198172 67.2357209,62.0527078 C67.5147907,61.8909422 67.5687442,61.4000672 67.2357209,61.2531766 C65.204093,60.3513797 62.644093,61.4075047 60.6385116,62.0434109 C58.3426977,62.7704266 56.0450233,63.5085984 54.0301395,64.8473484 C51.8701395,66.2809266 49.7975814,67.1920203 47.3510698,68.0529109 C45.6971163,68.6348953 43.4385116,69.2410516 42.6347907,70.9200672 C42.4673488,71.2696297 42.7408372,71.6229109 43.1259535,71.5522547" id="Fill-36" fill="#00BBD9"></path>
                <path d="M48.8314419,76.7776562 C47.488186,76.9989219 45.6426047,77.7519687 44.4723721,78.4957187 C43.9570233,78.8211094 43.5588837,79.2152969 43.2109767,79.7098906 C42.4351628,80.8050625 42.0165581,81.4484062 40.6137674,81.9374219 C39.1105116,82.4617656 37.7374884,82.9266094 36.4295814,83.87675 C35.7337674,84.3825 35.0974884,84.9570469 34.5337674,85.6059687 C33.9328372,86.2976562 33.4286512,87.4950937 32.636093,87.9543594 C32.0035349,88.3225156 32.4295814,89.2615 33.1272558,89.1034531 C34.6435349,88.7613281 35.3523721,86.7569219 36.4649302,85.7751719 C38.2584186,84.189125 40.236093,83.9585625 42.3216744,83.04375 C43.9737674,82.3223125 44.1784186,80.3997187 45.7430698,79.5462656 C47.0472558,78.834125 48.744,78.7913594 49.3151628,77.2555156 C49.4286512,76.9487187 49.0974884,76.7330312 48.8314419,76.7776562" id="Fill-38" fill="#00BBD9"></path>
                <path d="M61.5508837,100.799666 C62.1499535,99.8011812 63.0783256,98.6725406 64.1573953,97.6238531 C62.8606512,98.5237906 61.6346047,99.5724781 61.5508837,100.799666" id="Fill-40" fill="#00BBD9"></path>
                <path d="M83.5250233,112.357169 C83.9045581,112.364606 84.2822326,112.370184 84.659907,112.375762 C83.9901395,111.652466 83.4189767,110.741372 82.9501395,109.755903 C83.247814,110.609356 83.4357209,111.496278 83.5250233,112.357169" id="Fill-42" fill="#00BBD9"></path>
                <path d="M152.261581,84.8454844 C149.971349,84.8622187 147.794605,85.0834844 145.504372,84.7618125 C143.128558,84.427125 140.816,83.7782031 138.527628,83.0809375 C130.012279,80.4815312 121.508093,77.7129219 112.568558,76.9970625 C107.993674,76.6289062 103.53414,77.0825937 98.9778605,77.3949687 C94.5350698,77.6980469 90.016,76.8129844 85.6122791,77.4544687 C81.7573953,78.016 77.9043721,79.7098906 74.3192558,81.1787969 C71.0708837,82.5119687 67.8727442,84.0366562 65.0262326,86.0987031 C63.5304186,87.1845781 62.1257674,88.3913125 60.9071628,89.7765469 C59.6829767,91.1692187 58.8866977,92.7645625 57.8336744,94.2613594 C56.9425116,95.5257344 54.8848372,96.1393281 54.6076279,97.8239219 C54.4066977,99.0529687 55.2215814,99.7502344 56.2764651,100.099797 C57.2699535,101.174516 56.7453023,103.348125 56.9629767,104.644109 C57.2197209,106.187391 58.0420465,107.436891 59.1043721,108.567391 C61.3871628,110.993875 64.3285581,112.669172 67.4429767,113.823844 C74.4141395,116.410234 82.2132093,116.585016 89.5713488,116.798844 C97.8783256,117.040562 106.315535,116.744922 114.430884,114.842781 C118.17414,113.965156 121.986233,112.780734 125.424372,111.049656 C129.163907,109.169828 131.954605,106.226437 134.89414,103.340687 C141.158326,97.189875 148.667163,90.7657344 157.842977,90.0405781 C158.492279,89.990375 158.869953,89.4883437 158.754605,88.8580156 C158.200186,85.84025 154.996465,84.8268906 152.261581,84.8454844 M115.794605,88.4991562 C113.204837,89.9569062 110.613209,91.9780469 109.999256,94.8749531 C109.749953,94.7224844 109.487628,94.5774531 109.216,94.4417187 C111.744372,91.5392344 113.37414,84.1909844 108.391814,83.3468281 C106.168558,82.969375 104.071814,84.9105625 102.979721,86.6267656 C101.729488,88.5958437 101.361116,90.942375 101.932279,93.1699062 C100.669023,93.3446875 99.5304186,93.7667656 98.680186,94.4863437 C99.376,92.9412031 99.2755349,90.9646875 99.1173953,89.2856719 C98.9555349,87.5545937 98.5666977,85.5892344 97.5025116,84.1556562 C98.8606512,84.2430469 100.218791,84.2095781 101.619721,83.9250937 C104.410419,83.3617031 107.05414,82.8076094 109.928558,82.8912812 C111.327628,82.9321875 112.724837,83.0511875 114.120186,83.2036562 C113.634605,85.2564062 114.453209,87.0432656 115.794605,88.4991562 M128.384372,100.480969 C128.125767,99.4415781 127.563907,97.7383906 126.45507,97.6305469 C126.793674,96.7361875 127.152744,95.8195156 127.441116,94.8879687 C128.520186,96.8087031 130.161116,98.5862656 131.418791,99.5642969 C130.53507,100.741281 129.606698,101.882937 128.607628,102.966953 C128.656,102.137672 128.587163,101.299094 128.384372,100.480969 M96.8904186,112.446047 C96.4699535,112.451625 96.0513488,112.457203 95.6346047,112.460922 C94.9108837,112.470219 94.1890233,112.473937 93.4653023,112.475797 C93.8578605,110.752156 93.5769302,108.8965 92.9276279,107.174719 C94.7266977,107.046422 95.9787907,104.794719 96.7471628,103.093391 C97.271814,101.936859 97.8746047,100.425187 98.096,98.9562812 C99.0932093,100.200203 100.877395,101.129891 102.248558,101.555687 C102.641116,101.676547 103.091349,101.812281 103.57693,101.944297 C103.403907,102.186016 103.275535,102.451906 103.197395,102.736391 C99.1192558,102.901875 96.6969302,108.792375 96.8904186,112.446047 M84.1815814,107.661875 C83.5862326,106.471875 83.1043721,105.283734 82.9146047,103.961719 C82.8346047,103.400187 82.8922791,102.981828 82.7787907,102.609953 C83.348093,102.360797 83.9043721,101.921984 84.3862326,101.274922 C84.4513488,101.187531 84.5146047,101.096422 84.5778605,101.007172 C86.9592558,101.8755 88.5462326,103.175203 89.8969302,105.417609 C91.1248372,107.461062 92.1164651,110.118109 91.3704186,112.472078 C90.4755349,112.468359 89.5806512,112.459062 88.6857674,112.447906 C87.7648372,111.854766 86.8122791,111.516359 86.0476279,110.661047 C85.2643721,109.785281 84.7025116,108.703125 84.1815814,107.661875 M84.6597209,112.37725 C84.2820465,112.371672 83.9043721,112.364234 83.5248372,112.356797 C83.4355349,111.497766 83.2476279,110.608984 82.9499535,109.757391 C83.4187907,110.742859 83.9899535,111.652094 84.6597209,112.37725 M85.4132093,99.7520937 C85.8597209,99.0139219 86.2653023,98.2255469 86.5853023,97.4092812 C87.3834419,98.4784219 88.843907,99.2556406 90.0494884,99.6925937 C89.7964651,100.436344 89.616,101.196828 89.5266977,101.938719 C88.3657674,100.776609 86.9257674,99.7818437 85.4132093,99.7520937 M91.3443721,102.329187 C91.403907,102.076312 91.4634419,101.823437 91.5229767,101.572422 C91.6997209,100.852844 91.991814,100.118391 92.2653023,99.4322812 C92.8978605,97.844375 93.5508837,95.9961562 95.3257674,95.8436875 C95.3276279,95.8436875 95.3276279,95.8436875 95.3294884,95.8455469 C97.0187907,97.0336875 96.360186,99.3151406 95.7387907,100.979281 C95.4485581,101.758359 95.0727442,102.515125 94.6987907,103.257016 C94.5555349,103.548937 94.4048372,103.837141 94.2504186,104.123484 C93.963907,105.081062 93.3983256,105.2075 92.5499535,104.499078 C91.216,104.447016 90.8141395,103.721859 91.3443721,102.329187 M106.321116,95.0850625 C108.570419,95.6967969 111.041116,97.070875 110.693209,99.6609844 C109.05786,100.968125 106.97786,100.5665 104.994605,100.189047 C104.002977,99.9993906 103.011349,99.7465156 102.060651,99.4081094 C101.554605,99.2519219 101.074605,99.0399531 100.620651,98.7722031 C99.5434419,98.3240937 99.351814,97.6547187 100.045767,96.7603594 C100.05693,95.8269531 100.520186,95.2951719 101.439256,95.166875 C101.999256,94.9716406 102.576,94.8452031 103.169488,94.7875625 C104.224372,94.6834375 105.301581,94.8080156 106.321116,95.0850625 M106.484837,85.4367656 C109.470884,83.8693125 109.989953,87.5527344 109.53414,89.5720156 C109.184372,91.1283125 108.650419,92.6492812 107.398326,93.7147031 C106.114605,93.3093594 104.726698,93.0787969 103.396465,93.0750781 C102.793674,90.2841562 103.781581,86.8554687 106.484837,85.4367656 M119.602977,95.3714062 C118.953674,96.327125 118.155535,97.1917344 117.232744,97.8964375 C116.460651,98.484 115.573209,98.8726094 114.754605,99.3802187 C113.967628,99.16825 113.180651,99.0455312 112.509023,99.0269375 C112.717395,98.0898125 112.427163,97.1991719 111.800186,96.4070781 C111.824372,93.114125 114.33414,91.1692187 116.981581,89.603625 C117.850419,90.3101875 118.81414,90.9089062 119.740651,91.3923437 C119.57693,92.4856562 119.562047,93.6235937 119.569488,94.5886094 C119.569488,94.8303281 119.580651,95.0943594 119.602977,95.3714062 M111.932279,100.977422 C111.949023,100.975562 111.962047,100.977422 111.978791,100.975562 C113.249488,100.782187 115.232744,100.973703 116.138791,102.039125 C117.33693,103.444812 115.180651,104.380078 114.05507,104.923016 C113.037395,105.41575 111.991814,105.867578 110.955535,106.321266 C110.138791,106.678266 109.163907,107.139391 108.244837,107.163562 C107.863442,107.174719 107.491349,107.087328 107.113674,107.044562 C107.147163,106.810281 107.169488,106.574141 107.165767,106.339859 C107.141581,104.696172 106.079256,103.357422 104.562977,102.901875 C104.672744,102.73825 104.816,102.595078 104.979721,102.476078 C105.061581,102.416578 105.139721,102.371953 105.21786,102.334766 C107.740651,102.838656 110.622512,102.91675 111.932279,100.977422 M102.847628,104.354047 C103.783442,104.169969 104.946233,104.556719 105.296,105.523594 C105.684837,106.596453 104.910884,107.836656 104.410419,108.703125 C103.692279,109.948906 102.853209,111.138906 102.064372,112.343781 C100.802977,112.384687 99.5453023,112.408859 98.2987907,112.427453 C98.4866977,109.658844 99.883907,104.936031 102.847628,104.354047 M106.661581,108.612016 C107.483907,108.625031 108.231814,108.970875 109.126698,108.820266 C109.299721,108.792375 109.469023,108.755187 109.636465,108.714281 C110.207628,109.783422 111.067163,110.737281 112.101581,111.412234 C109.597395,111.854766 107.029953,112.098344 104.45693,112.239656 C105.251349,111.112875 106.127628,109.881969 106.661581,108.612016 M111.418791,108.091391 C111.681116,107.979828 111.943442,107.864547 112.203907,107.751125 C113.612279,107.137531 115.260651,106.566703 116.592744,105.657469 C117.225302,105.962406 117.790884,106.352875 118.278326,106.866062 C118.49414,107.091047 118.704372,107.342062 118.842047,107.624687 C118.927628,107.799469 118.985302,107.97425 119.076465,108.136016 C119.160186,108.559953 119.286698,108.967156 119.45786,109.348328 C118.190884,109.867094 116.886698,110.298469 115.552744,110.653609 C115.472744,110.595969 115.383442,110.545766 115.279256,110.512297 C113.673674,109.991672 112.423442,109.316719 111.418791,108.091391 M119.13414,104.904422 C118.823442,104.640391 118.492279,104.396812 118.140651,104.188562 C119.398326,102.431453 118.397395,101.057375 116.765767,100.168594 C117.988093,99.6368125 119.108093,98.7294375 120.023442,97.74025 C120.321116,98.7461719 120.786233,99.6907344 121.485767,100.289453 C120.350884,101.42925 119.498791,103.136156 119.13414,104.904422 M121.247628,104.830047 C121.487628,103.383453 122.176,102.171141 122.884837,100.921641 C123.269953,100.971844 123.696,100.945812 124.170419,100.821234 C125.069023,100.586953 125.511814,99.9696406 125.837395,99.2389062 C126.164837,99.7149062 126.347163,100.467953 126.45693,101.005312 C126.773209,102.55975 126.559256,104.037953 125.958326,105.491984 C125.956465,105.497562 125.954605,105.505 125.952744,105.510578 C124.523907,106.687562 122.996465,107.660016 121.394605,108.466984 C121.268093,107.256531 121.037395,106.088844 121.247628,104.830047 M128.425302,92.0598594 C127.926698,89.2949687 130.829023,89.7375 132.280186,90.8587031 C133.498791,91.7995469 134.298791,93.1029687 134.836465,94.5235312 C134.843907,94.5402656 134.853209,94.5532812 134.860651,94.5700156 C134.241116,95.6261406 133.513674,96.6116094 132.948093,97.4334531 C132.73786,97.74025 132.525767,98.0433281 132.309953,98.3445469 C131.102512,96.208125 128.871814,94.542125 128.425302,92.0598594 M132.951814,88.8728906 C131.437395,87.9915469 128.994605,87.3314687 127.513674,88.6181562 C127.394605,88.7204219 127.288558,88.8282656 127.188093,88.9379687 C126.45693,87.74425 125.25693,86.9224062 123.744372,86.8461719 C123.634605,86.1507656 123.264372,85.4163125 122.985302,84.94775 C122.834605,84.6930156 122.663442,84.4494375 122.481116,84.2151562 C124.291349,84.4252656 126.099721,84.6576875 127.880186,85.0091094 C130.486698,85.5241562 134.153674,86.3701719 135.61414,88.8040937 C136.226233,89.8230312 136.25414,90.9293594 135.971349,92.0338281 C135.229023,90.763875 134.261581,89.6352344 132.951814,88.8728906 M122.825302,88.8412812 C122.983442,88.8933437 123.160186,88.9137969 123.355535,88.8821875 C126.484837,88.3634219 126.042047,92.56375 125.591814,94.1312031 C125.383442,94.8582187 125.09507,95.5647812 124.834605,96.2750625 C124.462512,97.2977187 124.482977,98.3110781 123.33507,98.4523906 C121.318326,98.7034062 121.474605,95.152 121.469023,93.7872187 C121.461581,92.1063437 121.435535,89.9252969 122.825302,88.8412812 M122.075535,87.4820781 C121.178791,87.8967187 120.598326,88.6386094 120.226233,89.5348281 C117.880186,88.1514531 115.005767,86.4742969 115.632744,83.3784375 C116.847628,83.5271875 118.060651,83.6908125 119.269953,83.8395625 C119.320186,83.847 119.368558,83.8525781 119.41693,83.8581562 C120.332279,84.3471719 121.028093,85.0444375 121.602977,85.9183437 C121.822512,86.2548906 122.01414,86.7308906 122.242977,87.1678437 C122.162977,87.2589531 122.107163,87.3667969 122.075535,87.4820781 M96.6225116,94.6406719 C96.4885581,94.5514219 96.3471628,94.4658906 96.1908837,94.3877969 C95.9322791,94.2576406 95.6904186,94.2539219 95.4876279,94.3282969 C95.0653023,94.22975 94.6373953,94.2650781 94.2113488,94.4063906 C93.4020465,92.6288281 92.4848372,90.7880469 90.7713488,89.7040312 C90.5369302,89.5571406 90.2913488,89.4269844 90.0383256,89.3117031 C90.0346047,89.2856719 90.0346047,89.2596406 90.0271628,89.23175 C89.6029767,87.491375 88.7025116,84.4066719 91.0932093,83.5997031 C91.2308837,83.5513594 91.3425116,83.4825625 91.431814,83.3988906 C91.9862326,83.4639687 92.5387907,83.5309062 93.0894884,83.6108594 C93.9825116,83.7410156 94.8606512,83.87675 95.7332093,83.9864531 C96.6076279,85.3884219 97.2327442,86.7439062 97.456,88.4675469 C97.6941395,90.3064687 97.9899535,93.1494531 96.6225116,94.6406719 M92.600186,95.4439219 C91.8950698,96.118875 91.2513488,97.0355469 90.7322791,98.0619219 C89.9936744,97.8332187 89.2997209,97.5078281 88.6727442,97.0467031 C88.1369302,96.654375 87.6643721,96.118875 87.1062326,95.7395625 C87.4206512,94.3097031 87.3890233,92.8556719 86.8066977,91.4983281 C86.8085581,91.2194219 86.7936744,90.9386562 86.7564651,90.6653281 C89.7797209,90.079625 91.4615814,93.0434687 92.600186,95.4439219 M88.2541395,88.8468594 C87.5713488,88.8022344 86.8885581,88.9156562 86.2578605,89.2261719 C86.0885581,88.9658594 85.8746047,88.7315781 85.5973953,88.5363437 C84.9220465,88.056625 84.0662326,87.8744062 83.2699535,88.0175781 C83.1750698,87.372375 82.896,86.7234531 82.9648372,86.0001562 C83.0894884,84.7023125 83.7871628,83.9288125 84.496,82.969375 C84.548093,82.969375 84.6020465,82.9712344 84.656,82.9712344 C86.0141395,82.9805312 87.3741395,83.0363125 88.7322791,83.1367187 C87.5136744,84.6130625 87.6569302,86.8982344 88.2541395,88.8468594 M82.9871628,90.258125 C83.4076279,89.1945625 83.9266977,89.2354687 84.5462326,90.3827031 C85.9546047,91.6582344 85.2997209,91.0948437 85.4597209,91.7344687 C85.3648372,93.114125 85.7108837,94.4658906 85.3462326,95.8548437 C85.0783256,96.8812187 84.5555349,97.8648281 84.0011163,98.7684844 C83.2662326,99.9677812 81.5750698,102.297578 80.6485581,99.8394844 C79.8448372,97.7030625 81.0150698,94.8823906 81.7332093,92.8556719 C81.9043721,92.3722344 82.0420465,91.8423125 82.2653023,91.3811875 C82.3862326,90.942375 82.6262326,90.5667812 82.9871628,90.258125 M69.5899535,96.0128906 C71.9285581,95.5406094 71.2792558,96.9555937 70.3006512,98.2050937 C69.6773953,99.0027656 68.736,99.6944531 68.0029767,100.402875 C66.3099535,102.037266 64.8513488,104.201578 62.2876279,103.889203 C62.1257674,103.472703 61.9955349,103.043187 61.9006512,102.602516 C63.268093,99.8859687 66.5666977,96.624625 69.5899535,96.0128906 M61.5508837,100.798922 C61.6346047,99.5717344 62.8606512,98.5230469 64.1573953,97.6231094 C63.0783256,98.6717969 62.1499535,99.8004375 61.5508837,100.798922 M67.3704186,103.686531 C68.1834419,102.888859 69.028093,102.100484 69.856,101.297234 C70.4197209,103.017156 71.2141395,104.705469 72.4904186,105.973562 C71.9787907,107.217484 72.0346047,108.686391 72.4513488,109.950766 C72.4736744,110.019562 72.4978605,110.090219 72.523907,110.162734 C72.3378605,110.092078 72.151814,110.025141 71.963907,109.963781 C70.5090233,109.484062 68.9648372,109.359484 67.511814,108.889062 C65.8708837,108.359141 64.496,107.340203 63.4913488,106.034922 C64.8904186,105.813656 66.4941395,104.545562 67.3704186,103.686531 M71.0746047,100.077484 C71.4429767,99.6963125 71.803907,99.3114219 72.1499535,98.915375 C72.6094884,98.3873125 72.9425116,97.889 73.0764651,97.3349062 C75.2234419,98.7740625 75.0355349,102.091187 77.1062326,103.846437 C77.3815814,104.056547 77.6569302,104.266656 77.9341395,104.474906 C77.483907,105.055031 77.0355349,105.635156 76.5853023,106.213422 C75.6383256,106.5165 74.1183256,105.240969 73.536,104.651547 C72.2969302,103.402047 71.6606512,101.700719 71.0746047,100.077484 M79.2178605,106.996219 C80.3769302,108.669656 81.3332093,110.233391 81.5378605,112.295437 C79.6476279,112.209906 77.7648372,112.016531 75.9564651,111.494047 C75.8206512,111.455 75.6885581,111.410375 75.5564651,111.367609 C75.3332093,110.6815 74.8048372,110.160875 74.4885581,109.472906 C74.1090233,108.649203 73.9899535,107.916609 73.9843721,107.117078 C75.5583256,108.009578 77.880186,108.349844 79.2178605,106.996219 M79.9676279,105.726266 C80.520186,103.6605 77.7350698,102.334766 77.0746047,100.508859 C76.1629767,97.9894062 75.4020465,95.821375 72.5257674,95.0255625 C71.4690233,93.5566562 69.5341395,93.8857656 67.536,95.0218437 C68.5648372,93.887625 69.3741395,92.5693281 70.1648372,91.2584687 C70.6392558,92.4391719 71.671814,93.6180156 72.3583256,94.185125 C73.9899535,95.5331719 76.5592558,96.5818594 78.7434419,96.7994062 C78.5871628,97.8350781 78.5462326,98.8800469 78.7155349,99.8803906 C79.0206512,101.682125 80.1220465,102.715937 81.376,102.840516 C81.296,104.311281 81.6587907,106.497906 82.4364651,108.554375 C81.856,107.407141 81.0411163,106.401219 79.9676279,105.726266 M71.3834419,89.2949687 C71.6308837,88.9137969 71.8894884,88.5344844 72.1555349,88.16075 C72.5890233,88.0082812 73.0113488,87.8576719 73.5211163,87.8502344 C74.336,87.8409375 75.1787907,88.0454687 75.9471628,88.3039219 C77.6885581,88.8914844 79.0708837,90.0759062 80.071814,91.5801406 C80.1090233,91.6359219 80.1499535,91.6842656 80.1908837,91.7288906 C80.016,92.221625 79.8615814,92.7013437 79.7127442,93.1178437 C79.5006512,93.7128437 79.3015814,94.3394531 79.1304186,94.9790781 C77.5899535,94.3989531 75.9527442,94.17025 74.4811163,93.3446875 C73.6066977,92.8519531 72.7769302,92.2439375 72.2057674,91.4090781 C71.7611163,90.7564375 71.6941395,89.9662031 71.3834419,89.2949687 M81.7387907,88.8412812 C81.508093,89.0774219 81.3034419,89.3544687 81.1192558,89.6575469 C79.803907,88.0361719 77.9899535,86.8480312 75.8932093,86.4222344 C75.2755349,86.2976562 74.4457674,86.2381562 73.6420465,86.3274062 C74.2950698,85.632 75.0150698,85.0035312 75.8336744,84.4940625 C77.6271628,83.3747187 79.748093,83.0660625 81.8653023,82.9879687 C80.8587907,84.6911562 80.9871628,87.2124687 81.7387907,88.8412812 M138.816,97.3627969 C135.85786,99.8134531 133.208558,102.556031 130.440186,105.203781 C127.178791,108.325672 123.467163,110.421187 119.171349,111.847328 C111.225302,114.483922 102.564837,115.015703 94.2392558,114.807453 C86.6243721,114.615937 78.576,114.610359 71.1657674,112.680328 C67.3108837,111.676266 63.4392558,109.928453 60.6150698,107.076172 C58.9257674,105.369266 58.9908837,103.684672 58.6187907,101.509203 C58.440186,100.454937 58.1108837,99.599625 57.3666977,98.9469844 C57.2773953,98.7536094 57.111814,98.588125 56.8569302,98.4970156 C56.283907,98.2924844 58.0569302,96.7324687 58.2690233,96.5465312 C58.656,96.2099844 58.976,95.8455469 59.2736744,95.4290469 C60.176,94.1628125 60.8215814,92.7627031 61.8206512,91.5503906 C63.7666977,89.1889844 66.2541395,87.3351875 68.9108837,85.8197969 C71.1043721,84.5684375 73.4150698,83.5364844 75.7666977,82.6067969 C73.163907,83.9269531 71.3053023,86.3032344 69.7778605,88.7018281 C68.9015814,90.0814844 68.1350698,91.5336562 67.1713488,92.8593906 C66.0085581,94.4565937 64.5499535,95.4476406 62.9871628,96.60975 C61.2773953,97.8797031 59.588093,99.9194375 60.3564651,102.048422 C60.3583256,102.055859 60.3564651,102.063297 60.3583256,102.072594 C60.6950698,104.409828 61.7908837,106.633641 63.480186,108.316375 C65.5285581,110.35425 67.9973953,110.900906 70.7006512,111.653953 C73.6922791,112.488812 76.1871628,113.855453 79.3704186,114.04325 C82.9834419,114.257078 86.631814,114.262656 90.2485581,114.299844 C102.544372,114.43 117.275535,114.928312 127.260651,106.622484 C127.442977,106.557406 127.606698,106.432828 127.714605,106.232016 C129.800186,104.409828 131.578791,102.271547 133.21414,100.051453 C134.373209,98.4802812 135.709023,96.7808125 136.674605,94.9660625 C136.851349,94.8154531 136.968558,94.6127812 136.976,94.3654844 C137.325767,93.63475 137.608558,92.8835625 137.785302,92.1156406 C139.191814,86.0280469 131.958326,83.7967969 127.268093,83.0270156 C124.088558,82.5045312 120.869953,82.1940156 117.673674,81.8054062 C114.029023,81.3610156 110.341581,80.8348125 106.663442,81.1378906 C102.948093,81.4446875 99.7164651,82.7072031 95.9266977,82.1902969 C92.5611163,81.7291719 89.2532093,81.2234219 85.8448372,81.1918125 C83.243907,81.1676406 80.3304186,81.1174375 77.7425116,81.8481719 C77.7815814,81.8332969 77.8206512,81.8184219 77.8597209,81.8054062 C81.2532093,80.5428906 84.6485581,79.17625 88.3248372,79.1353437 C92.0290233,79.0925781 95.6643721,79.5388281 99.3778605,79.280375 C103.121116,79.0200625 106.825302,78.6481875 110.583442,78.8359844 C118.371349,79.2245937 125.960186,81.2643281 133.370419,83.5439219 C137.279256,84.7450781 141.169488,86.1414687 145.238326,86.7104375 C147.236465,86.9893437 149.180651,86.9670312 151.189953,86.85175 C153.091349,86.7439062 155.428093,86.7755156 156.503442,88.4080469 C149.882047,89.7430781 143.971349,93.0918125 138.816,97.3627969" id="Fill-44" fill="#00BBD9"></path>
                <polygon id="Fill-46" fill="#00244A" points="99.5337674 75.9480031 90.6537674 86.6078 79.3886512 94.7611594 51.3253953 101.657581 54.7505116 88.8037219 65.9337674 81.5912062 86.6891163 75.9480031"></polygon>
                <path d="M28.563907,100.099425 C29.2504186,100.028769 29.6411163,99.6271437 29.9685581,99.1511437 C35.2485581,103.734503 42.3629767,104.84455 49.2020465,104.137987 C57.1778605,103.314284 65.4457674,101.257816 72.9899535,98.5840344 C79.5815814,96.2486594 85.9108837,92.9984719 91.120186,88.3165656 C96.2773953,83.6811437 100.039256,77.8352687 103.860651,72.1362844 C105.901581,69.0887687 107.989023,66.0579875 110.41507,63.2930969 C111.501581,62.0510344 112.653209,60.8628937 113.882977,59.758425 C114.85414,58.8826594 116.251349,57.9957375 116.530419,56.6160812 C117.17414,53.43655 112.924837,53.3119719 110.889488,53.5518312 C109.21693,53.748925 107.592744,54.21005 105.933209,54.4722219 C103.449488,54.8682687 100.936,54.6786125 98.4373953,54.5912219 C82.0485581,54.0203937 64.8987907,56.3706437 49.6243721,62.4322062 C45.5294884,64.0591594 41.6653023,66.1323625 38.1490233,68.7782531 C34.8057674,71.2958469 32.4690233,74.0793312 30.323907,77.6214406 C28.4429767,80.7284562 25.2764651,83.4673156 24.3983256,87.0838 C23.7787907,89.6292844 24.3648372,92.3216594 26.4466977,93.9355969 C26.376,94.0136906 26.3034419,94.089925 26.240186,94.179175 C25.4085581,95.3468625 25.6020465,96.7339562 26.1769302,97.9760187 C26.6308837,98.9577687 27.2820465,100.2333 28.563907,100.099425 M93.0104186,83.4505812 C92.9843721,83.3241437 92.883907,83.2144406 92.7555349,83.1679562 C90.5694884,82.3647062 87.6857674,85.8250031 86.2606512,87.0057062 C84.9248372,88.1120344 83.6243721,88.5805969 82.0522791,89.210925 C81.0829767,89.5995344 80.4243721,90.0402062 79.8290233,90.8880812 C79.4253023,91.4644875 80.3034419,92.0855187 80.7890233,91.620675 C82.4262326,90.0513625 85.0904186,90.0680969 86.9266977,88.6308 C88.0932093,87.7178469 89.2057674,86.7398156 90.3666977,85.8175656 C90.7536744,85.5126281 91.1890233,85.2411594 91.6076279,84.9529562 C87.176,89.4749562 81.5629767,92.7772062 75.6950698,95.1423312 C68.7053023,97.9592844 61.1666977,99.7052375 53.7694884,101.103487 C46.2178605,102.529628 37.5722791,102.696972 31.4178605,97.4628312 C31.6355349,97.3233781 31.8346047,97.1969406 32.0206512,97.0723625 C34.9862326,98.4724719 38.3592558,99.4337687 41.6355349,99.4783937 C45.1350698,99.5267375 48.6811163,98.611925 52.080186,97.8997844 C56.0485581,97.0686437 59.9927442,96.1315187 63.9090233,95.0902687 C67.2187907,94.208925 70.6308837,93.3833625 73.6634419,91.7582687 C76.7592558,90.0997062 79.3304186,87.6248781 82.5043721,86.0927531 C85.6169302,84.5903781 88.8504186,83.6941594 91.8104186,81.8347844 C93.8122791,80.5759875 95.7862326,79.1052219 97.6634419,77.4838469 C96.2122791,79.5496125 94.6904186,81.5614562 93.0104186,83.4505812 M69.8941395,71.58405 C73.3378605,69.6930656 77.068093,69.7525656 80.8708837,69.2542531 C82.4448372,69.0478625 84.0020465,68.7410656 85.468093,68.1200344 C87.1853023,67.3930187 88.6829767,66.2588 90.3815814,65.4964562 C94.1322791,63.8118625 98.3611163,63.6984406 102.290419,62.6218625 C103.637395,62.2537062 104.917395,61.7591125 106.178791,61.1920031 C102.470884,63.9550344 98.4876279,66.3275969 94.2420465,68.326425 C90.9136744,69.8957375 87.4513488,71.182425 83.9053023,72.1846281 C81.8066977,72.7777687 79.7527442,73.205425 77.5778605,73.3950812 C76.080186,73.5270969 74.7053023,73.8041437 73.3285581,74.4195969 C69.8699535,75.9647375 67.0457674,78.2499094 63.3620465,79.4027219 C60.0820465,80.4309562 56.6866977,81.0984719 53.5220465,82.4669719 C51.7694884,83.2237375 50.2029767,84.2780031 48.5136744,85.1481906 C46.7406512,86.0630031 44.8764651,86.5315656 42.9694884,87.0875187 C39.7025116,88.0376594 36.536,89.4043 33.6932093,91.2673937 C33.6373953,91.1558312 33.5741395,91.0442687 33.496,90.9345656 C33.3341395,90.7021437 33.1276279,90.5626906 32.908093,90.4920344 C32.5936744,90.1052844 32.2420465,89.7538625 31.8346047,89.4972687 C32.8113488,82.2048 40.5694884,77.281175 46.5341395,74.0458625 C52.9322791,70.5762687 59.9890233,67.701675 66.9322791,65.4778625 C70.4932093,64.3380656 74.2290233,64.0944875 77.9090233,63.536675 C81.9815814,62.9212219 86.0373953,62.2016437 90.0969302,61.5192531 C94.2085581,60.829425 98.320186,60.1303 102.428093,59.4181594 C103.752744,59.1875969 105.114605,58.9886437 106.482047,58.7785344 C105.09786,59.4497687 103.745302,60.1674875 102.472744,60.5468 C98.4448372,61.7498156 94.1825116,62.0696281 90.271814,63.6686906 C88.5173953,64.38455 87.0011163,65.4815812 85.3043721,66.3052844 C83.3564651,67.2498469 81.2690233,67.6180031 79.1313488,67.8820344 C75.7527442,68.3003937 72.1173953,68.4677375 69.311814,70.5967219 C68.7387907,71.0318156 69.2225116,71.9522062 69.8941395,71.58405 M107.61507,63.3042531 C106.29786,64.9219094 105.062512,66.6046437 103.869953,68.3152687 C99.4308837,72.3780031 95.7285581,77.0524719 90.4671628,80.2524562 C87.8048372,81.8719719 84.9211163,82.7570344 82.0876279,83.9953781 C79.0699535,85.3155344 76.5992558,87.4686906 73.8215814,89.1793156 C70.8466977,91.0108 67.4606512,91.888425 64.1192558,92.8218312 C60.7369302,93.7663937 57.3322791,94.6347219 53.9108837,95.4212375 C50.3853023,96.2337844 46.800186,97.1393 43.1946047,97.4944406 C39.5573953,97.8533 36.5322791,96.8659719 33.2057674,95.9176906 C33.2653023,95.8135656 33.3229767,95.7038625 33.3750698,95.5848625 C34.8299535,95.8544719 36.3815814,95.7057219 37.8550698,95.6927062 C39.6262326,95.6778312 41.4327442,95.7298937 43.1964651,95.577425 C44.2941395,95.4825969 45.3248372,95.2390187 46.2346047,94.6086906 C47.0104186,94.0713312 47.5294884,93.2290344 48.320186,92.721425 C49.1332093,92.1989406 50.1657674,92.1171281 51.0904186,91.9423469 C54.4578605,91.3045812 57.7378605,90.3302687 60.9006512,89.0194094 C63.4364651,87.9670031 67.3825116,86.652425 68.803907,84.1497062 C68.9397209,83.9117062 68.7741395,83.5342531 68.4653023,83.5640031 C65.7546047,83.8205969 63.1964651,85.9514406 60.7220465,87.0112844 C57.4662326,88.4058156 54.0504186,89.4098781 50.5676279,90.0643781 C49.3471628,90.2930812 48.1564651,90.4697219 47.123907,91.1874406 C45.6206512,92.23055 44.9527442,93.4893469 42.8820465,93.65855 C39.9908837,93.8946906 36.7127442,93.3498937 33.8253023,93.9225812 C33.8848372,93.6362375 33.9369302,93.3498937 33.9666977,93.0672687 C37.5350698,91.1186437 41.1294884,89.8133625 45.0773953,88.7386437 C48.7146047,87.7475969 51.5815814,85.5646906 55.0327442,84.1961906 C58.5862326,82.7867844 62.4076279,82.1936437 65.9778605,80.8288625 C69.3025116,79.5589094 72.0466977,76.9706594 75.4364651,75.9442844 C77.1871628,75.4143625 79.0941395,75.5277844 80.8932093,75.1800812 C82.7964651,74.811925 84.6792558,74.2503937 86.5229767,73.6646906 C89.8736744,72.5974094 93.1462326,71.2753937 96.2978605,69.7265344 C100.926698,67.4506594 105.304372,64.5835031 109.319256,61.3221594 C108.73693,61.9692219 108.165767,62.6274406 107.61507,63.3042531 M28.1062326,84.2705656 C29.8662326,81.7455344 31.6653023,79.3376437 33.3062326,76.7252219 C36.9843721,70.8663312 43.8606512,66.9523469 50.1862326,64.4421906 C63.5573953,59.1355344 78.400186,56.7332219 92.7629767,56.6216594 C96.4336744,56.5919094 100.130419,56.9860969 103.793674,56.8168937 C105.239256,56.7499562 106.649488,56.5138156 108.065302,56.2311906 C109.053209,56.0322375 110.031814,55.8053937 111.034605,55.6808156 C111.404837,55.6343312 112.063442,55.4762844 112.456,55.5580969 C112.591814,55.5599562 112.727628,55.563675 112.863442,55.5655344 C112.844837,55.5748312 112.826233,55.5822687 112.809488,55.5915656 C110.113674,55.8463 107.380651,56.47105 104.742512,56.9210187 C101.183442,57.5290344 97.6225116,58.1203156 94.0615814,58.7153156 C87.151814,59.8699875 80.2550698,61.1752687 73.3043721,62.0547531 C67.0904186,62.8412687 61.4308837,65.1692062 55.6764651,67.5287531 C50.2029767,69.7748781 44.8076279,72.3631281 39.9964651,75.8122687 C35.496,79.0382844 30.7853023,83.2888156 30.431814,89.0882062 C29.3936744,89.1086594 28.5378605,89.7836125 28.3220465,90.7858156 C28.1564651,91.5574562 28.296,92.096675 27.9034419,92.6377531 C27.896,92.632175 27.8904186,92.6265969 27.8829767,92.6210187 C24.9415814,90.5905812 26.4987907,86.5743312 28.1062326,84.2705656 M28.0299535,97.0593469 C27.2615814,95.1181594 28.7015814,94.9340812 29.6262326,93.7124719 C29.9015814,93.3480344 30.0541395,92.9947531 30.1397209,92.5503625 C30.2011163,92.2138156 30.2141395,91.8772687 30.1750698,91.5370031 C30.668093,91.2990031 31.068093,91.263675 31.3750698,91.4273 C31.363907,91.6225344 31.416,91.8345031 31.5592558,92.0539094 C31.8848372,92.5522219 31.6411163,93.9039875 31.4178605,94.4264719 C30.9862326,95.4398312 30.3313488,95.4063625 29.6020465,95.9864875 C29.2932093,96.231925 29.0066977,96.5238469 28.7871628,96.8510969 C28.3834419,97.4498156 28.4653023,98.1600969 28.0299535,97.0593469" id="Fill-48" fill="#00BBD9"></path>
                <polygon id="Fill-50" fill="#00244A" points="48.7884651 62.7793516 42.4461395 66.5427266 32.9298605 73.7533828 27.8563721 82.2191172 25.3186977 88.8031641 30.3940465 90.9972266 48.7884651 88.8031641 58.3028837 70.9308516"></polygon>
                <g id="Group-54" transform="translate(0.000000, 66.937500)" fill="#00BBD9">
                    <path d="M0.818976744,11.2408234 C3.65618605,11.5736516 5.54827907,13.6431359 7.45525581,15.5396984 C9.03106977,17.1052922 10.7129302,18.5407297 12.6236279,19.6972609 C16.6273488,22.1181672 21.3064186,23.5312922 26.0059535,23.6205422 C31.5538605,23.7265266 36.9008372,22.1070109 42.1157209,20.4112609 C45.6115349,19.2733234 49.9129302,17.5868703 50.3854884,13.4590578 C50.456186,12.8491828 49.9780465,12.5293703 49.5017674,12.5405266 C46.4785116,9.37587031 42.8487442,6.96426094 38.9138605,5.03422969 C34.9324651,3.08188594 30.407814,1.05144844 25.9445581,0.590323437 C16.5585116,-0.380270313 8.98269767,6.84526094 0.525023256,9.53019844 C-0.382883721,9.81840156 -0.00148837209,11.1441359 0.818976744,11.2408234 M10.2887442,15.8371984 C8.61432558,14.4408078 7.12037209,12.7394797 5.39013953,11.4304797 C8.56223256,11.4341984 11.6859535,11.3059016 14.8896744,11.7242609 C16.9213023,11.9882922 18.9343256,12.3508703 20.9454884,12.7190266 C18.3557209,14.0763703 16.0785116,17.0030266 13.9222326,18.3752453 C12.6403721,17.6314953 11.4217674,16.7836203 10.2887442,15.8371984 M22.432,21.4673859 C20.0710698,21.0694797 17.7733953,20.3201516 15.6208372,19.2751828 C16.9045581,18.3492141 17.9985116,17.2298703 19.1706047,16.1309797 C20.619907,14.7699172 22.0282791,13.8644016 23.7808372,13.2322141 C24.7426977,13.4014172 25.7064186,13.5613234 26.6738605,13.7044953 C28.2068837,13.9294797 29.7882791,14.1693391 31.392,14.3775891 C30.3910698,14.8164016 29.4552558,15.3983859 28.6236279,16.1198234 C26.5436279,17.9271359 25.6933953,20.4689016 22.7854884,21.2721516 C22.6403721,21.3130578 22.5250233,21.3818547 22.432,21.4673859 M25.4366512,21.7797609 C26.3110698,21.2070734 27.0608372,20.4689016 27.7250233,19.5280578 C29.3994419,17.1554953 31.3157209,15.5731672 34.0766512,14.6862453 C35.6115349,14.8387141 37.1575814,14.9409797 38.6943256,14.9558547 C37.1054884,16.7278391 36.4282791,19.6005734 34.2608372,20.7719797 C34.2236279,20.7924328 34.192,20.8166047 34.1603721,20.8407766 C31.2896744,21.4989953 28.3743256,21.8987609 25.4366512,21.7797609 M48.404093,13.4423234 C48.4580465,13.4962453 48.512,13.5464484 48.564093,13.6003703 C48.567814,13.6040891 48.5715349,13.6059484 48.5752558,13.6096672 C47.6617674,17.7542141 40.9659535,18.9535109 37.5501395,19.9501359 C37.3603721,20.0059172 37.1706047,20.0598391 36.9808372,20.1137609 C38.2310698,18.2804172 38.9789767,16.0008234 40.8971163,14.9130891 C43.4775814,14.7847922 46.0115349,14.3534172 48.404093,13.4423234 M47.4887442,12.5628391 C45.7696744,12.9421516 44.0766512,13.2266359 42.3650233,13.3995578 C41.7473488,11.7688859 40.752,10.2627922 39.9036279,8.74554219 C39.5594419,8.12822969 39.2301395,7.48860469 38.8859535,6.85827656 C42.0096744,8.37180781 44.939907,10.2237453 47.4887442,12.5628391 M36.6664186,5.84491719 C37.2952558,7.28779219 38.2217674,8.64699531 38.9938605,10.0006203 C39.6636279,11.1738859 40.2775814,12.3992141 41.0589767,13.5055422 C39.7492093,13.5892141 38.4245581,13.6059484 37.0589767,13.5297141 C36.4003721,13.4925266 35.7492093,13.4348859 35.0980465,13.3698078 C33.9203721,12.4066516 32.9845581,11.4862609 32.2403721,10.0303703 C31.579907,8.73996406 31.1668837,7.35101094 30.5529302,6.04201094 C30.0301395,4.92638594 29.3752558,3.84422969 28.564093,2.91640156 C31.3492093,3.57462031 34.1064186,4.71441719 36.6664186,5.84491719 M25.1092093,2.37904219 C25.2413023,2.38647969 25.3752558,2.40135469 25.5073488,2.41251094 C28.2571163,4.06735469 29.1743256,7.05351094 30.5213023,9.85558906 C31.0347907,10.9265891 31.6933953,12.1221672 32.5603721,13.0611516 C30.1008372,12.7022922 27.6654884,12.2076984 25.2115349,11.7149641 C25.0571163,11.6852141 24.9026977,11.6536047 24.7464186,11.6219953 C24.219907,11.0176984 23.527814,10.4877766 23.0626977,9.85372969 C22.2887442,8.79760469 21.6673488,7.64107344 20.9175814,6.57007344 C20.0245581,5.29640156 18.992,4.23469844 17.6915349,3.54672969 C20.0747907,2.71001094 22.5287442,2.21727656 25.1092093,2.37904219 M15.6394419,4.34997969 C15.6692093,4.35927656 15.6952558,4.37043281 15.7268837,4.37601094 C18.4989767,4.92824531 19.8906047,7.57785469 21.339907,9.69568281 C21.6171163,10.1010266 21.9557209,10.6272297 22.3464186,11.1366984 C19.499907,10.5677297 16.647814,10.0322297 13.7566512,9.71613594 C11.1036279,9.42421406 8.17153488,9.13972969 5.42734884,9.49672969 C8.8264186,7.88837031 12.1733953,5.84119844 15.6394419,4.34997969" id="Fill-52"></path>
                </g>
                <path d="M6.78623256,45.78485 C9.31274419,47.6572406 9.96018605,50.6712875 10.7211163,53.5291469 C11.3499535,55.8886937 12.151814,58.1813031 13.3313488,60.3326 C15.8020465,64.8378656 19.483907,68.7537094 23.9248372,71.4126156 C29.1676279,74.5512406 35.188093,75.9308969 41.1211163,77.1655219 C45.1006512,77.9929437 50.1573953,78.7366938 52.923907,75.0495531 C53.3313488,74.5047562 53.0541395,73.9376469 52.5927442,73.6866312 C51.4746047,69.0065844 49.3573953,64.7151469 46.6764651,60.7137719 C43.9657674,56.6677719 40.7787907,52.2480375 36.7713488,49.3641469 C28.3434419,43.2951469 17.0522791,46.0544594 7.46530233,43.9886937 C6.43460465,43.7674281 6.05693023,45.2437719 6.78623256,45.78485 M13.2625116,55.36435 C12.443907,53.1107875 11.9694884,50.6675688 11.0504186,48.4697875 C14.0792558,50.2101625 17.1378605,51.7980688 19.9657674,53.951225 C21.7592558,55.3178656 23.480186,56.7663187 25.1973953,58.22035 C21.960186,58.0976312 18.1443721,59.6502094 15.3127442,59.7785063 C14.5034419,58.3672406 13.8150698,56.8890375 13.2625116,55.36435 M21.7146047,67.3963656 C19.6811163,65.7229281 17.9043721,63.7482719 16.4308837,61.5709438 C18.1778605,61.3868656 19.8522791,60.9183031 21.588093,60.5073813 C23.7369302,60.0016312 25.5899535,59.9068031 27.6178605,60.2619438 C28.443907,60.9517719 29.2755349,61.6323031 30.120186,62.2979594 C31.4578605,63.3540844 32.8364651,64.4473969 34.2522791,65.5258344 C33.0504186,65.3956781 31.828093,65.4403031 30.6299535,65.6745844 C27.6290233,66.2640063 25.3927442,68.2256469 22.1629767,67.4019438 C22.0011163,67.3610375 21.8522791,67.3647562 21.7146047,67.3963656 M24.4122791,69.3394125 C25.5694884,69.2706156 26.6987907,68.9768344 27.8615814,68.4413344 C30.791814,67.0895687 33.5099535,66.6284438 36.6448372,67.2903813 C38.0271628,68.27585 39.4466977,69.2204125 40.9090233,70.0775844 C38.3955349,70.9012875 36.1387907,73.2775688 33.4113488,73.2087719 C33.3629767,73.2087719 33.320186,73.21435 33.2773953,73.2199281 C30.1629767,72.277225 27.1546047,71.0630531 24.4122791,69.3394125 M51.0373953,73.9488031 C51.0597209,74.0287562 51.0820465,74.10685 51.1025116,74.1868031 C51.1043721,74.1923812 51.1062326,74.1961 51.108093,74.2016781 C47.911814,77.6638344 40.8383256,75.1425219 37.0169302,74.22585 C36.8048372,74.1756469 36.5927442,74.121725 36.3806512,74.0696625 C38.603907,73.0023812 40.5946047,71.2322563 43.0373953,71.2434125 C45.5769302,72.5338187 48.2392558,73.5081312 51.0373953,73.9488031 M50.656,72.6063344 C48.8011163,72.0280688 47.0225116,71.3717094 45.2904186,70.6000687 C45.6122791,68.7035062 45.5043721,66.7195531 45.5453023,64.8043969 C45.560186,64.0234594 45.6048372,63.233225 45.6290233,62.4429906 C47.7648372,65.6002094 49.5304186,68.974975 50.656,72.6063344 M44.0755349,60.258225 C43.8671628,61.9818656 43.991814,63.7873187 43.9713488,65.5053812 C43.9546047,66.9928813 43.8541395,68.5026937 43.9806512,69.986475 C42.683907,69.3505688 41.4057674,68.6402875 40.1443721,67.8184437 C39.536,67.4223969 38.9443721,67.011475 38.3583256,66.5931156 C37.7741395,65.0275219 37.3946047,63.6329906 37.4987907,61.834975 C37.5899535,60.2414906 37.9750698,58.6851937 38.1220465,57.0972875 C38.2466977,55.7455219 38.228093,54.35285 37.9713488,53.0215375 C40.2653023,55.1765531 42.2615814,57.7759594 44.0755349,60.258225 M34.9704186,50.6155063 C35.0932093,50.6973187 35.2122791,50.78285 35.3313488,50.8665219 C37.031814,53.9530844 36.2373953,57.3111156 35.9527442,60.7267875 C35.8448372,62.0302094 35.803907,63.5344437 36.1071628,64.9085219 C33.9564651,63.21835 31.9062326,61.4110375 29.8373953,59.5962875 C29.7053023,59.4828656 29.5750698,59.3675844 29.4448372,59.2523031 C29.2792558,58.3858344 28.9146047,57.5026312 28.8253023,56.6398812 C28.6783256,55.2063031 28.7322791,53.7615687 28.6150698,52.3261312 C28.4736744,50.619225 28.0848372,49.0406156 27.2253023,47.6702563 C29.9732093,48.1760063 32.5946047,49.0480531 34.9704186,50.6155063 M24.8141395,47.3151156 C24.8364651,47.3392875 24.8569302,47.3634594 24.8829767,47.3876312 C27.2234419,49.4329437 27.0690233,52.7277563 27.268093,55.5465687 C27.3053023,56.0857875 27.3332093,56.7737562 27.4225116,57.4747406 C25.0206512,55.3717875 22.5927442,53.296725 20.0085581,51.4113188 C17.6346047,49.6821 14.9927442,47.8041313 12.1685581,46.6420219 C16.3192558,46.9655531 20.6634419,46.8428344 24.8141395,47.3151156" id="Fill-55" fill="#00BBD9"></path>
            </g>
        </g>
    </g>
</svg>