<svg id="Layer_1" data-name="Layer 1" xmlns="http://www.w3.org/2000/svg" viewBox="0 0 482.94 535.49"><defs><style>.cls-1{fill:#fefefe;}</style></defs><title>2B</title><path class="cls-1" d="M237.75,33.42c4.82,4.51,9.74,8.93,14.44,13.56A106.56,106.56,0,0,1,272.14,74.6c2.35,4.6,4.29,9.42,6.43,14.13.35.78.8,1.51,1.2,2.27a129.38,129.38,0,0,1,5.32,16.83c1.9,7.3,2.66,14.77,3.8,22.18a61.55,61.55,0,0,1,.58,9.71c0,4.7,1.2,9.35.63,14-1.12,9.2-.44,18.5-1.91,27.68-.61,3.83-.61,7.82-1.39,11.58-1.34,6.39-1.87,12.93-3.79,19.22-.88,2.9-.69,6-1.58,9A86.16,86.16,0,0,0,278,235.1c-.29,2.34-.28,4.72-1.09,7-1.3,3.75-2.7,7.49-3.74,11.31-.94,3.46-2.75,6.59-3.15,10.3-.28,2.6-2.2,5-3.2,7.54-2.39,6.15-4.63,12.38-6.76,18.61-7,20.62-15.85,40.5-24.58,60.43-13.94,31.79-29,63.06-43.82,94.45-1.93,4.08-4.07,8-6.27,12-1.77,3.16-1.47,4,1.63,5.66,1.95,1,3.84,2.67,5.74,3.12a53.14,53.14,0,0,1,12.28,4.86c1.13.59,2.47.71,3.29,1.91a3.91,3.91,0,0,0,1.78,1.37c5.15,2.22,10.28,4.45,16,4.56a3.48,3.48,0,0,1,1.4.31c5,2.39,10.46,3.41,15.73,5a3.42,3.42,0,0,1,1.59,1.15c.21.2.4.52.64.56,4.26.84,8.11,3.16,12.82,3.64a18.21,18.21,0,0,0,9.42,3.64c1.34.09,2.45,1,3.68,1.56,4.13,1.77,8.2,3.76,11.55,6.77,2.13,1.92,3.26,4.69,4.37,7.31a43,43,0,0,1,3.6,20.56,22.69,22.69,0,0,1-10.74,15.81c-2.2.58-4.06,1.95-6.19,2.69-1.15.4-2.26,1-3.48.26-4.6.8-9.22,1.55-13.81,2.42s-9.34.25-14-.31c-15.87-1.9-30.48-7.83-45-14.14-1-.46-2.14-.81-3.21-1.21-5.34-1.65-10.3-4.32-15.62-6-3.27-1-6.68-1.64-9.88-3-3.9-2.73-9.11-2.88-12.48-6.93-1.42-1.7-4.16-2.61-6.56-3.3s-4.17.71-5.86,2.23c-5.65,5.07-11.58,9.8-18.42,13.17-3.38,1.66-6.94,2.92-10,5.26a10.77,10.77,0,0,1-6.91,1.83,23.79,23.79,0,0,1-15.3,2.88,43.71,43.71,0,0,0-11.2,0c-3.82.44-7.29-.66-10.85-1.44a13,13,0,0,1-6.37-3c-1.21-1.13-3-1.3-4.6-1.45a27,27,0,0,1-11.81-8.44,6,6,0,0,1-3.05-1.54c-3.87-5.76-8.49-11-11.93-17.06-.71-1.25-1.25-2.59-2.5-3.44a1.39,1.39,0,0,1-.67-.91c-.22-3.88-2.72-7.05-3.34-10.8a7.76,7.76,0,0,0-1.36-4,3.56,3.56,0,0,1-.77-2.42c.19-7.68-1.1-15.37.75-23.07,1.08-4.49,1-9.27,3.24-13.48,2.41-4.55,4.31-9.57,8.27-13,3.13-2.68,5.95-5.65,9-8.35,1.1-.83,2.16-1.72,3.23-2.6,2-1.28,3.8-2.8,5.81-4.05A23.58,23.58,0,0,0,58,420a21.11,21.11,0,0,1,2.25-1.28c5.12-2.83,10.75-4.48,16-6.91s10.92-2.18,16.53-2.22c7.07,0,14.15.33,21.19-.5a2.6,2.6,0,0,0,2-2.51c2.46-6.32,5.1-12.58,8-18.73,1.78-3.82,2.82-8,4.94-11.6,3.16-5.38,4.48-11.64,8.28-16.68a4.15,4.15,0,0,0,.8-2.14c.18-2.39,1.39-4.18,2.67-6.15,2-3.1,3.24-6.69,4.79-10.08,2.54-5.55,5.07-11.11,7.41-16.75,3.21-7.77,7.19-15.21,9.87-23.21,1.58-4.72,3.94-9.15,6-13.69,7.28-16.06,14.67-32.06,22.39-47.91q8.37-17.19,15.66-34.87c.45-1.08.56-2.54,2.2-2.68,1-2.26,2.18-4.47,3-6.8a229.9,229.9,0,0,0,9.36-33.16c2-10.46,3.28-21,2.51-31.72A76,76,0,0,0,219,109.22a60.23,60.23,0,0,0-9-16c-5.93-7.59-13.59-12.78-23.25-14.18-7.79-1.13-15.22.67-22.26,4.17a77.61,77.61,0,0,0-19.6,13.92,162.76,162.76,0,0,0-18,20.11q-7.74,10.53-15.79,20.83c-4.77,6.12-9.34,12.42-15.08,17.7-3.81,3.5-7.75,6.92-12.75,8.66-8.94,3.11-17.38,2.45-24.81-3.9-3.54-3-5.41-7.15-6.69-11.54-2-6.82-2-13.75-1.33-20.78a87.87,87.87,0,0,1,4.2-19.63c1.6-4.81,3.55-9.52,5.61-14.15A144.88,144.88,0,0,1,81.91,60.69a133.28,133.28,0,0,1,32.83-28.11A116.54,116.54,0,0,1,145,19.39a113,113,0,0,1,32-4.52c7.59.13,15.14.2,22.58,1.86,8.06,1.81,16,4.13,23.23,8.19,4.26,2.38,8.45,4.89,12.68,7.32C236.21,32.67,237,33,237.75,33.42ZM100.18,458.27c-3.9-.35-7.6.71-11.34,1.56-7.12,1.61-11.87,6.08-14.67,12.59a55.14,55.14,0,0,0-2.46,8.81c-.72,3,.27,5.72,1.59,8.29a6.14,6.14,0,0,0,5.13,3.25,8.84,8.84,0,0,0,7.74-3.07C89,486.48,92,483.2,94,479.49c3.15-5.68,5.59-11.75,8.28-17.67a22.72,22.72,0,0,0,.86-3.21C101.84,458.46,101,458.35,100.18,458.27Z" transform="translate(-24.9 -14.85)"/><path class="cls-1" d="M354.65,42.65c3.83-1.17,7.67-2.32,11.5-3.51,2.09-.65,4.15-1.35,6.27-2a18.57,18.57,0,0,0,.59-2.38,24.93,24.93,0,0,1,5.06-12.62,17.4,17.4,0,0,1,14.27-7.22,23.05,23.05,0,0,1,13.35,3.58A8.2,8.2,0,0,0,407,19c1.95,1.25,3.26,3.19,5.35,4.86,4.2-.18,8.14-2.62,12.53-3.12,3.38-.66,6.79-1.21,10.14-2,5.88-1.42,11.86-1.19,17.75-.72,6.43.51,12.42,2.86,18.1,6.07,8.7,4.92,14.41,12.44,19,21A109.46,109.46,0,0,1,500.33,74.5q2.75,13.06,4.91,26.25c.79,4.9.86,9.91,1.43,14.85,1.35,11.74,1.28,23.53,1,35.3a110.65,110.65,0,0,1-3,22.15,86.39,86.39,0,0,1-9.7,24.8,74.33,74.33,0,0,1-16.17,19.28c-.8.67-1.49,1.47-2.22,2.21-1.19,3.38-3.89,5.21-6.88,6.74s-6.14,3.14-9.21,4.72c-2.38,1.23-2.72,2.71-1.18,4.93,15.15,21.84,24,46.38,30.11,71.94a181.07,181.07,0,0,1,4.28,24.13,22.88,22.88,0,0,0,1.25,6.12c.91,2.32-.09,4.87.27,7.35s.1,4.82.69,7.13c1.4,5.41-1.32,10.68-.51,16,.66,4.36-1.71,8.28-1,12.58.26,1.71-1.28,3.14-1.78,4.78a39.52,39.52,0,0,0-1.5,7.26c-.41,3.85-2.65,7-3.82,10.59a55.39,55.39,0,0,1-3.51,9.51l-.39.76a10.82,10.82,0,0,1-1,1.87l-.44.71c-2.84,4.87-5.71,9.83-9.91,13.57-4.52,4-8.2,8.93-13.19,12.45-3.74,2.57-8.24,3.91-11.49,7.28a6.21,6.21,0,0,1-3.41,1.37c-2.83.58-5.26,2.43-7.85,3.15-4.3,1.2-8.29,3.63-12.88,3.7a20.64,20.64,0,0,0-4.8.75c-5.58,1.43-11.26,1.54-16.94,1.58-3.92,0-7.78.82-11.75.51-2.65-.21-4.59,2.27-5.61,6.35-6.65,6.64-14.71,9.18-24,8.12a29.22,29.22,0,0,1-9.59-4.08,33.81,33.81,0,0,1-9.86-14.83,11,11,0,0,0-5.43-6.05A36.15,36.15,0,0,0,327,447c-5.26-.68-8.58-4.48-12.26-7.68-2.35-2-2.38-5.12-3-7.85-1.37-6.35,1.12-11.25,6.25-15a22.13,22.13,0,0,0,2.58-2.27c2-1.29,4.35-1.9,6.51-2.88a8.48,8.48,0,0,1,4.55-.14c2.77.81,5.25-.73,7.66-.57,2.92-1.93,3.26-4.8,3.2-7.52a48.65,48.65,0,0,1,.73-7.35,16.58,16.58,0,0,0,.13-6c-.5-2.06.89-3.65,1.08-5.54q1.51-14.57,2.91-29.15c.42-4.37,1.33-8.77,1.1-13.11s1.43-8.38,1.53-12.6c.14-5.83,1.3-11.52,1.92-17.29.15-1.38-.41-2.75-.38-4.15.91-3,1.74-6.07,1.16-9.29a4.67,4.67,0,0,1,.3-2c.74-3,1.36-5.95.55-9-.53-2,.89-3.66,1.27-5.51,1.09-5.26.43-10.62,1.1-15.91.59-4.74.6-9.6,1.53-14.26,1.12-5.6-2.28-8.11-7.07-9.34a11.54,11.54,0,0,1-6.95-4.49,28.86,28.86,0,0,0-5-5.1c-2.09-1.69-4.17-3.26-4.84-6.07-.15-.62-.75-1.1-1.06-1.7-4.63-7.31-4.87-15.55-3.89-23.6a32,32,0,0,1,7.77-16.94,33.12,33.12,0,0,1,6.77-6.15,16.87,16.87,0,0,0,5.31-4.72c2.52-.69,5.23-.72,7.13-2.65,2.76.13,5.36-.37,8.26,0,.27-4.31,1.16-8.23.73-12.23a22.55,22.55,0,0,1-.08-3.63c.53-9.75.76-19.52,1.4-29.25,1-14.81,1-29.66,2.14-44.46.36-4.59-.11-9.2.28-13.8a2.69,2.69,0,0,0-.66-2.11c-1.24-1-2.55-.57-3.86-.28a44.47,44.47,0,0,1-11.12,1.1,9.32,9.32,0,0,1-8.87-7.6c-.79-4.33-1.35-8.87,2.56-11.93A22.37,22.37,0,0,1,354.65,42.65ZM420.3,52.73c-.21,3.92-.43,7.84-.58,11.76-.4,10.24-.94,20.47-1.11,30.71-.17,10.06-.7,20.09-1.09,30.14-.4,10.33-.63,20.67-1.21,31-.48,8.6-.44,17.24-.69,25.86-.09,3.15-.34,6.31-.53,9.46a4,4,0,0,0,1.84,3.63c3.5,2.67,6.87,5.51,10.31,8.25,1.11.89,2.28,1.7,3.34,2.49a12.71,12.71,0,0,0,1.62-.37c9.79-3.81,18.54-9.08,25.17-17.47a48.45,48.45,0,0,0,9.69-20.92,133.74,133.74,0,0,0,2-14.19,78,78,0,0,0-.06-10.64c-.21-4.11-.67-8.2-1-12.3-.44-6-.57-12.06-1.33-18-1-8.16-2.34-16.3-3.93-24.37-1.94-9.82-4.87-19.35-10.55-27.78-2.38-3.54-5.25-6.75-9.19-8.47a31,31,0,0,0-22.38-1A21.42,21.42,0,0,0,420.3,52.73Zm-9.2,197.1c-.28,4.2-.43,8.41-.67,12.61-.19,3.25-.42,6.49-.68,9.74-.51,6.39-1.09,12.77-1.55,19.16-.48,6.68-.72,13.38-1.28,20.05-.81,9.62-1.79,19.24-2.74,28.85-.78,7.81-1.58,15.61-2.48,23.4-.84,7.32-1.78,14.63-2.76,21.93-1.24,9.29-2.58,18.58-3.85,27.87-.43,3.19-.78,6.39-1.14,9.44a6,6,0,0,0,1.09.63,3.08,3.08,0,0,0,1.13.1c4.93-.64,9.85-1.1,14.65-2.65,16.19-5.22,27.2-16.05,34.07-31.27,5.13-11.36,6.86-23.51,6.94-35.85,0-7.07-.48-14.15-1.08-21.2s-1.31-14.31-2.57-21.37c-1.78-10-3.95-19.92-6.23-29.82a172,172,0,0,0-10-30.25c-1.41-3.21-2.54-6.62-5.26-9.46-4.9.56-9.55,2.4-14.75,3.21C411.58,246.83,411.2,248.32,411.1,249.82Zm-48.22-48.34a64.25,64.25,0,0,0,.52-10.62c-3.9.82-7.13,6-7.46,11.41-.25,4,2.34,8.6,6.15,10C362.37,208.45,362.54,205,362.88,201.48Z" transform="translate(-24.9 -14.85)"/></svg>