<svg id="Layer_1" data-name="Layer 1" xmlns="http://www.w3.org/2000/svg" xmlns:xlink="http://www.w3.org/1999/xlink" viewBox="0 0 190 188"><defs><style>.cls-1{fill:#fff;}.cls-2{mask:url(#mask);}.cls-3{fill:#43b0c6;}</style><mask id="mask" x="0" y="0" width="190" height="188" maskUnits="userSpaceOnUse"><g transform="translate(0 0)"><g id="mask-2"><polygon id="path-1" class="cls-1" points="190 188 0 188 0 0 190 0 190 188"/></g></g></mask></defs><title>2Betties-logo</title><g id="Symbols"><circle id="background" class="cls-1" cx="94" cy="94" r="87.09"/><g class="cls-2"><path id="Logo" class="cls-3" d="M174.82,173.84l-2.56-4.21h-1v7h1.35v-3.92l1.69,2.77h.94l1.69-2.77v3.92h1.35v-7h-1Zm-10.42-3h1.86v5.84h1.35v-5.84h1.86v-1.21H164.4Zm-86-152.48c.37-.08.51-.2.59-.34a.77.77,0,0,0,.07-.54.78.78,0,0,0-.3-.47.79.79,0,0,0-.69-.06l-1,.24.32,1.41ZM86,16.53l-.62,2.08,1.7-.2Zm20.8,151.16a1.64,1.64,0,0,0-1.4,1.56l3.08-.48a1.5,1.5,0,0,0-1.68-1.08ZM85.13,99.86c.77,0,1.1-.22,1.1-.5,0-.44-.71-.93-1.65-.93a4.16,4.16,0,0,0-2.09.77,4.41,4.41,0,0,0,2,.6,2.6,2.6,0,0,0,.66.06Zm2.64,68.89a2.07,2.07,0,0,0-.23,4.12,2.22,2.22,0,0,0,1.89-.81l.15-2.26a2.33,2.33,0,0,0-1.81-1.06Zm-9.29-1.15A2.06,2.06,0,1,0,80.09,170a2,2,0,0,0-1.61-2.39Zm-9.17-2.15A2.06,2.06,0,1,0,70.65,168a2,2,0,0,0-1.34-2.55Zm-9.19-3.3A2.06,2.06,0,0,0,58.56,166a2.21,2.21,0,0,0,2-.15l.88-2.08a2.34,2.34,0,0,0-1.36-1.59ZM20.75,116.1l-.08,0a3.16,3.16,0,0,0-1.36,2.56c0,.74.38,1.22,1,1.22s1.33-.89,1.79-1.63h0a13.34,13.34,0,0,0,.93-2l.25-.62h-.66a4.83,4.83,0,0,0-1.84.42ZM60.59,26.64l-1.72-1.33.22,2.17ZM40.22,152.57a2,2,0,1,0,2.84-.42,2,2,0,0,0-2.84.42ZM54.11,88.43a1.24,1.24,0,0,0,.62,1.07l.19-2.39a1.4,1.4,0,0,0-.81,1.32ZM60,92.88c-.25,3.26-.56,8.85-1,12.12-.19,1.76-.44,3.58-.69,5.34l-.19,1.44c3.38-.06,5.57-2.45,6-5.78a10.2,10.2,0,0,0,.12-1.95c0-3.08-1-8.79-2.63-11.55a12.34,12.34,0,0,1-1.63.38Zm3-20.59a4.83,4.83,0,0,0-1-.13,6.89,6.89,0,0,0-1.07.13l-.56,15.19A14.77,14.77,0,0,1,62,88.8c3.13-1.13,4.26-3.39,4.07-6.78-.13-2.32-.38-9-3.07-9.73ZM174.21,122a6.65,6.65,0,0,0,.71-2.47,2.44,2.44,0,0,0-1.56-2.48,9.58,9.58,0,0,0-3.42-.76c-1.61,0-4.63.62-9,1.88s-10,2.74-16.41,4.28-13.88,3-22.12,4.23A165,165,0,0,1,96,128.41q-4.61,0-9-.3c-4.07-.24-8-.61-11.72-1.12-6.38-.86-12.26-1.91-17.48-3.11q-2.44-.56-4.7-1.15a3.54,3.54,0,0,0-1.38-.28,3.68,3.68,0,0,0-1.12,7.15h0l.33.08.08,0c6.07,1.52,13.09,2.86,20.9,4A187.29,187.29,0,0,0,97,135.61c5.75.06,11.43-.14,16.88-.59s10.75-1.08,15.83-1.89,10-1.75,14.71-2.76,9.31-2.09,13.68-3.18l.38-.09.35.16c1.16.53,2.35,1,3.52,1.47a10.84,10.84,0,0,0,3.67.62,5.56,5.56,0,0,0,3.34-1.09,12.36,12.36,0,0,0,2.92-2.86,18.09,18.09,0,0,0,2-3.43Zm-15.14,22.61-1.63,0a2.7,2.7,0,0,1-.68,2,2,2,0,0,1-2.7.25l3.61-3.82a3.55,3.55,0,0,0-.38-.43,3.66,3.66,0,0,0-5.26-.06,3.93,3.93,0,0,0,5.88,5.21,4.14,4.14,0,0,0,1.16-3.19Zm-4.74,6.73-5.86-.48.65-5-2.19,1.85-.42,3.55-3.82-4.54L141.12,148l7.11,8.45,1.55-1.31-2.1-2.5,4.55.43Zm-8.64,7.06L141.56,152l-1.64,1.07.33.51a3.46,3.46,0,0,0-2.27.58,3.81,3.81,0,0,0-1,5.33,4,4,0,0,0,2.25,1.68,3.8,3.8,0,0,0,3.09-.5,3.18,3.18,0,0,0,1.35-1.8l.33.51Zm-9.35,3.33c-1.19-2.33-4.28-.3-4.72-1.18-.18-.35.14-.75.64-1a2.58,2.58,0,0,1,1.53-.2l.18-1.74a4.72,4.72,0,0,0-2.63.49c-1.33.68-2.17,2.13-1.52,3.42,1.1,2.16,4.18.13,4.7,1.14.17.33-.08.76-.57,1a3.19,3.19,0,0,1-2.19.28l-.22,1.74a5.26,5.26,0,0,0,3.17-.49c1.41-.73,2.28-2.17,1.62-3.45Zm-10.93,5.1c-.85-2.47-4.19-.9-4.51-1.83-.13-.37.24-.73.78-.91a2.56,2.56,0,0,1,1.54,0l.42-1.69a4.69,4.69,0,0,0-2.67.12c-1.42.49-2.45,1.8-2,3.17.79,2.29,4.13.71,4.5,1.79.12.35-.19.74-.71.92a3.2,3.2,0,0,1-2.21,0l-.45,1.69a5.23,5.23,0,0,0,3.21,0c1.51-.52,2.56-1.82,2.09-3.19Zm-7.11,2.38c-.64-2.53-4.1-1.26-4.34-2.21-.09-.38.31-.7.85-.84a2.55,2.55,0,0,1,1.53.14l.56-1.65a4.71,4.71,0,0,0-2.67-.11c-1.45.37-2.59,1.59-2.24,3,.59,2.35,4,1.06,4.32,2.16.09.36-.25.72-.78.86a3.19,3.19,0,0,1-2.19-.21l-.6,1.64a5.25,5.25,0,0,0,3.2.23c1.54-.39,2.7-1.6,2.35-3Zm-7.37,2.8-1.32-1a2.68,2.68,0,0,1-1.75,1.16,2,2,0,0,1-2.29-1.45l5.18-.81a3.47,3.47,0,0,0,0-.58,3.66,3.66,0,0,0-4.12-3.26,3.73,3.73,0,0,0-3,4.46,3.77,3.77,0,0,0,4.52,3.26,4.11,4.11,0,0,0,2.86-1.82Zm-9,2.51-.19-3.84a3.78,3.78,0,0,0-.91-2.6A3.41,3.41,0,0,0,98.1,167a3.36,3.36,0,0,0-2.1.87l0-.61-2,.1.38,7.54,2-.1-.25-4.9a2.43,2.43,0,0,1,1.79-1,1.61,1.61,0,0,1,1.16.36,1.82,1.82,0,0,1,.52,1.39l.2,4ZM92,163.81l-2-.14-.27,4a3.37,3.37,0,0,0-2.09-.84,3.8,3.8,0,0,0-4,3.68,4.06,4.06,0,0,0,.79,2.71,3.83,3.83,0,0,0,2.77,1.46,3.18,3.18,0,0,0,2.15-.62l0,.6,1.95.13Zm-13.21,2a3.93,3.93,0,1,0,3.28,4.58,3.94,3.94,0,0,0-3.28-4.58Zm-9-2.1a3.93,3.93,0,1,0,2.76,4.92,3.93,3.93,0,0,0-2.76-4.92Zm-5.46-1.56-1.79-.76-.24.56a3.47,3.47,0,0,0-1.74-1.57,3.78,3.78,0,0,0-5,2.17,4,4,0,0,0-.16,2.81,3.86,3.86,0,0,0,2.15,2.3,3.2,3.2,0,0,0,2.13.16l-.1.23c-.38.89-.7,1.26-1.12,1.45a2,2,0,0,1-1.66,0,3.06,3.06,0,0,1-1.74-1.92l-1.69.72a5,5,0,0,0,2.74,2.85,4,4,0,0,0,3.68-.08,4.54,4.54,0,0,0,1.72-2.31Zm-11.64-5.59a4.35,4.35,0,0,0-.55-.42,2.83,2.83,0,0,0-2.35-.39l.4-.65-1.66-1-4,6.41,1.72,1.07,2.5-4a2.25,2.25,0,0,1,2.14.05,2.93,2.93,0,0,1,.58.46ZM45,156.25a4,4,0,1,0-5.58.65,4,4,0,0,0,5.58-.65ZM35.74,147l2.43,2.33L39.46,148,37,145.69l1.56-1.63,3.22,3.08,1.29-1.35-4.74-4.55-7.51,7.88,1.52,1.46Zm-7.07-24.78a28.3,28.3,0,0,0,3.68,1.85c.64.27,1.31.55,2,.83h0c2.64,1.18,5.56,2.41,8.41,1.91a5.42,5.42,0,0,0,2.34-.93,2.68,2.68,0,0,0,1.08-2.71,3.5,3.5,0,0,0-1.57-2.56,56,56,0,0,0-6.85-2.48c-.79-.28-1.15-.48-1.74-.68q-1.85-.75-3.3-1.45l.7-1.15c2.88-6,6.6-13.79,8.86-19.75,2.08-5.42,4.09-12.19,3.74-18.52-.25-4.46-1.62-8.65-5-11.89a12.17,12.17,0,0,0-9.32-3.43c-9.82.55-15.31,10-15,15.2.12,2.07,1.13,3.47,3.2,3.36,3.52-.2,5.72-7.29,10.44-10a5.42,5.42,0,0,1,2.34-.76c3.41-.19,5.5,3.75,5.39,7.4-.24,5-2.57,9.72-4.71,14.1C31,95.57,26.4,106,24.75,110a11.06,11.06,0,0,0-2.6-.17c-4.76.27-8.72,3.61-8.46,8.28a7.94,7.94,0,0,0,8.2,7.55,10.08,10.08,0,0,0,2.87-.68,13.55,13.55,0,0,0,3.92-2.68ZM32.8,45.44l3.62,6.4.82-1.08-.8-1.41,1.64-2.16,1.58.4.82-1.08-7.12-1.79Zm3.42-4.29,5,4.53L44,42.6l-.86-.78-1.91,2.11-4.15-3.75Zm4.09-4.43L45,41.62l3-2.87-.8-.84-2.06,2-3.86-4.05ZM45.93,35l.68.82,2.44-2L48.37,33Zm2.6-5.55L52.41,35l1.07-.75L51,30.67l5.6,1.45.75-.53-3.87-5.54-1.07.75,2.52,3.61L49.29,29Zm8.93-5.8L58.2,31l1.19-.66-.17-1.62,2.37-1.31,1.28,1,1.19-.66-5.79-4.51Zm3.9-2.08.47,1.06,1.62-.73L65.75,27l1.18-.53-2.29-5.1,1.62-.73-.47-1.06Zm5,48a5,5,0,0,0-2.69-.75,12.9,12.9,0,0,0-3.63.75,2.49,2.49,0,0,0-2-1.07,2.26,2.26,0,0,0-2.19,2.39c-1.63.5-3,.75-3,1.82s.44,1.19,1.06,1.19a8.2,8.2,0,0,0,1.69-.38c-.25,5.84-.37,8.72-.56,11.61a4.06,4.06,0,0,0-2.32.75,3.55,3.55,0,0,0-1.5,3,4,4,0,0,0,2,3.45,4.53,4.53,0,0,0,1.25.56l-1.82,17.83a3.15,3.15,0,0,0-.75-.12c-1.25,0-2.44.82-2.44,1.76s.82,1.69,3,2.32a2.55,2.55,0,0,0,2.5,2.58,2.44,2.44,0,0,0,2.25-1.44l.06-.19c4.39.19,8.58-1.25,10.46-5.71a12.61,12.61,0,0,0,1.07-5.15c0-4-1.75-10.11-4.26-13.25,3.88-1.63,5.63-4.83,5.63-9.29,0-3.51-.56-10.74-3.82-12.62Zm1.23-50.74,1.25,3.71a2.83,2.83,0,0,0,1.54,1.85,3.29,3.29,0,0,0,3.83-1.3,2.83,2.83,0,0,0,.1-2.41L73.09,17l-1.23.42,1.28,3.8a1.6,1.6,0,0,1,0,1.33,1.73,1.73,0,0,1-2.17.73,1.59,1.59,0,0,1-.82-1l-1.28-3.8Zm7.87-2.52L77,22.93l1.27-.29-.66-2.92.46-.1,3,2.39,1.57-.36-3.15-2.46a1.72,1.72,0,0,0,.57-.54A1.89,1.89,0,0,0,79.43,16a2,2,0,0,0-1.55-.16Zm7.78,5.2,1.35-.16.46-1.56,2.68-.32.81,1.41,1.35-.16-3.66-6.37-.91.11ZM90.85,14l.2,6.75,4.14-.12,0-1.16-2.84.09-.17-5.6Zm5.46,47.84a4,4,0,0,0-3.9,3.91,6.93,6.93,0,0,0,1,3.35,3.29,3.29,0,0,0,2.92,1.68c2.23,0,4.73-2,4.73-4.47,0-1.4-1-2.93-3.06-4a4.17,4.17,0,0,0-1.67-.42Zm3.08-41,1.3.09.47-6.74L99.87,14ZM75.91,100.41c-2.31,2.37-4.1,7.76-4.1,10.95a11.43,11.43,0,0,0,10.9,11.18c4.55,0,8.38-4.62,8.38-7.87,0-1.76-.66-3.14-2-3.14A1.72,1.72,0,0,0,87.2,113c-.11,1.43-1.47,5.13-4.1,5.56a1.42,1.42,0,0,1-.6-.11C80,117.64,78,113.24,77.72,111l0-.33a11.45,11.45,0,0,1,.2-4,11.52,11.52,0,0,1,1.41-4.26,13.39,13.39,0,0,0,4.5.93,5.47,5.47,0,0,0,4.06-1.48A4.44,4.44,0,0,0,89,99c0-1.71-1.1-3.19-3.62-3.19a12.48,12.48,0,0,0-5.88,2c-1.53-1.1-2.74-5-2.74-7.54,0-1.7.55-3.25,2-3.91a4,4,0,0,1,1.7-.38C83,86,85,88.64,86.72,88.64A1.82,1.82,0,0,0,88,88a1.74,1.74,0,0,0,.6-1.32c0-2.42-5.43-5.12-8.73-5-5.38.33-7.85,4.51-7.85,9,0,3.19,1.32,7.6,3.84,9.69Zm26.23-25.82A39.08,39.08,0,0,0,97.3,75c-5.38.74-10.82,1.47-10.21,3.62.43,1.47,3.84,1.72,6.11,1.72.8,0,1.65,0,2.51-.06-.55,5.89-.79,9.39-1,15.28s-.43,10.37-.43,13.62c0,8.59,1,8.65,2.94,9.14a4.17,4.17,0,0,0,1.16.18c2.45,0,2.94-2.95,2.94-11.54,0-2.88-.06-6.44-.12-10.74l-.67-16.51c2.88-.55,6.42-1.72,5.87-3.68-.24-1.11-2.14-1.41-4.22-1.41ZM102.59,21l1.28.19.66-4.35,3.06,4.91.9.14,1-6.68-1.29-.2-.66,4.35-3.05-4.92-.9-.14ZM110,69a6.93,6.93,0,0,0,1,3.35,3.29,3.29,0,0,0,2.92,1.68c2.23,0,4.73-2,4.73-4.47,0-1.4-1-2.93-3.06-4a4.15,4.15,0,0,0-1.67-.42A4,4,0,0,0,110,69Zm3.27-45.86a3.54,3.54,0,0,0,3.07-.52l.77-2.9L114.18,19l-.3,1.12,1.68.45-.37,1.41a2.36,2.36,0,0,1-1.59.11A2.27,2.27,0,0,1,112,19.21a2.25,2.25,0,0,1,2.77-1.66,2.31,2.31,0,0,1,1.4,1.1l1-.64A3.5,3.5,0,0,0,115,16.44a3.48,3.48,0,1,0-1.77,6.73Zm3.83,60.07c2.88-.51,6.45-1.63,5.93-3.6-.23-1.11-2.12-1.44-4.2-1.47a39,39,0,0,0-4.84.3c-5.39.66-9.14,1.34-8.56,3.5.41,1.48,2.12,1.75,4.38,1.78.8,0,1.18,0,2,0-.56,5.9-.66,9.17-.78,15.24s-.09,9.33-.14,12.59c-.12,8.59.45,9.91,2.35,10.42a2,2,0,0,0,1.14,0c2.54-.63,3-2.9,3.1-11.49,0-2.88,0-6.44,0-10.74Zm.52-58.87,1.21.46,1.07-2.8.44.17,1.18,3.66,1.5.57-1.26-3.8a1.71,1.71,0,0,0,.77-.13,1.89,1.89,0,0,0,1-2.58,2,2,0,0,0-1.2-1L120,18Zm6.12,90.16c0,3.85.6,5.39,2.8,5.72,2.91.39,3.24-3.91,3.24-25.92V88.6c0-3.47-.16-9.58-2.8-9.63-2.36,0-2.47,5.39-2.47,8.47-.05,11.17-.77,22.84-.77,27.08Zm.17-87.63,3.72,1.82.51-1-2.55-1.25.82-1.69,1.86.91.51-1-1.86-.91.61-1.26,2.47,1.2.5-1-3.64-1.77Zm8.52-3.27-3.48,5.78,1.81,1.1a3.69,3.69,0,0,0,2.31.66,3.47,3.47,0,0,0,2.83-4.69,3.71,3.71,0,0,0-1.66-1.75Zm6.49,4.11L135,33.25l1.06.75L140,28.48Zm3,2.14-4.21,5.28,3.24,2.6.72-.91-2.22-1.78,1.18-1.47,1.62,1.3.72-.91-1.62-1.3.87-1.09,2.14,1.72.72-.9Zm4.85,4-4.67,4.88.94.9,3-3.18-.34,5.79.66.64L151,38l-.94-.9-3,3.18.34-5.79Zm-8.18,49.44c.12-1.7.77-3.2,2.24-3.76a4,4,0,0,1,1.72-.27c2.57.17,4.37,2.94,6.12,3.06A1.81,1.81,0,0,0,150,81.8a1.74,1.74,0,0,0,.69-1.28c.16-2.41-5.08-5.47-8.37-5.53-5.39,0-8.13,4-8.43,8.42-.22,3.19.8,7.67,3.18,9.93-2.46,2.21-4,7-4.26,10.19-.45,6.7,4.69,12,9.56,12.35,4.55.31,7.16-4.15,7.37-7.39.12-1.76-.44-3.17-1.81-3.27a1.71,1.71,0,0,0-2,1.36c-.21,1.42-.81,5.52-2.95,5.37a2.27,2.27,0,0,1-.6-.15c-2.46-1-4.08-5.52-4.26-7.79-.15-2.6.84-6.78,2.17-8.46a13.4,13.4,0,0,0,4.43,1.24,5.45,5.45,0,0,0,4.15-1.21,4.43,4.43,0,0,0,1.29-2.73c.11-1.7-.88-3.26-3.4-3.43a12.44,12.44,0,0,0-6,1.58c-1.46-1.2-2.4-5.18-2.23-7.71Zm12.93-43.1,1.17,1.35-4.22,3.68.85,1,4.22-3.68,1.17,1.35.87-.76-3.2-3.69Zm3.6,5.26a1.71,1.71,0,0,0-.66,1.68c.12,1,.78,2.11.09,2.63a.88.88,0,0,1-1.26-.28,2.24,2.24,0,0,1-.36-1.72l-1.22-.15a3.62,3.62,0,0,0,.65,2.56,2.13,2.13,0,0,0,3,.62c1.82-1.36-.31-3.66.56-4.31.42-.31.91,0,1.21.4a1.82,1.82,0,0,1,.34,1.2l1.17,0a3.14,3.14,0,0,0-.66-2,2,2,0,0,0-2.85-.65Zm6.43,21.34c-4.78,0-7.07,6-7.07,12.08a22.27,22.27,0,0,0,.39,4.2,18.61,18.61,0,0,0,3.8,8.14c2.16,2.76,4.91,5.19,4.91,9.06,0,2.49-1.24,6.89-4.13,6.89s-3.21-3.61-3.92-6c-.39-1.31-.85-2.3-1.83-2.3s-1.9,1.9-1.9,4.33c0,3.94,2,9.19,7.66,9.19,6.48,0,10.15-6.1,10.15-11.88,0-7.88-7.33-11.16-9.23-18a12.5,12.5,0,0,1-.46-3.55,15.35,15.35,0,0,1,1.24-6.24c.39-.79.78-1.18,1.11-1.18s.79.72,1,1.71c.33,2.63.07,7.48,2.36,7.48,1.51,0,2.55-2.62,2.55-5.64,0-3.41-1.44-7.35-5.37-8.14a9,9,0,0,0-1.24-.13Zm8.69,89C150.89,175.82,120,188,89.8,188c-20.47,0-40.6-5.61-56.53-18.18C-8,135.33-11.35,76.16,25.85,31.64,43.5,10.54,67.77,0,92.39,0c24.92,0,50.2,10.8,69.36,32.37,28.45,31.1,42.17,90.35,8.46,123.42ZM122,21.37a.79.79,0,0,0,.37-1c-.06-.16-.18-.3-.54-.43l-1-.39-.52,1.35,1,.39a.79.79,0,0,0,.68,0Zm9.48,8.22a2.06,2.06,0,0,0,1.86.25,2.43,2.43,0,0,0,1.51-2.51,2.07,2.07,0,0,0-1.09-1.54l-.83-.5-2.29,3.8ZM153.2,143.68a1.65,1.65,0,0,0-.16,2.09l2.15-2.27a1.5,1.5,0,0,0-2,.18ZM34.75,46.36l1.07,1.89,1-1.37Zm106.56,109,1.23,1.89a2.23,2.23,0,0,1-1,1.78,2.06,2.06,0,0,1-2.29-3.43,2.33,2.33,0,0,1,2.08-.25Z" transform="translate(0 0)"/></g></g></svg>