<?xml version="1.0" encoding="UTF-8"?>
<svg width="35px" height="33px" viewBox="0 0 35 33" version="1.1" xmlns="http://www.w3.org/2000/svg" xmlns:xlink="http://www.w3.org/1999/xlink">
    <title>cart-icon</title>
    <g id="CartIcon" stroke="none" stroke-width="1" fill="none" fill-rule="evenodd">
        <g id="Group-3">
              <path d="M8.23853676,5.5309 C8.19041176,5.71215 8.14202941,5.8934 8.09364706,6.07465 C9.19408824,7.9414 10.1437206,9.91465 11.4394926,11.6434 C12.6274338,13.22865 13.990375,14.8259 16.4069191,14.7154 C18.7084265,14.6099 21.0155956,14.6194 23.3163309,14.50165 C25.1381324,14.40865 27.0363676,14.1709 28.0668088,12.50215 C29.1391985,10.7659 29.9879485,8.8899 30.8204853,7.0269 C31.2945294,5.9669 30.7798235,5.21215 29.6034632,5.08915 C28.8442721,5.01015 28.0662941,5.09015 27.2973235,5.1149 C23.0700441,5.2509 18.8435368,5.41415 14.6154853,5.5214 C12.4910368,5.5754 10.3642721,5.5309 8.23853676,5.5309 M11.4153015,21.84965 C14.1774706,21.84965 16.5204118,21.88115 18.8618088,21.8409 C21.1311471,21.80165 23.4002279,21.6154 25.6659632,21.6604 C26.2287941,21.67165 27.0626176,22.2139 27.2695294,22.71015 C27.6066618,23.51815 26.9807794,24.18865 26.1086103,24.3034 C23.8729853,24.5979 21.6219191,25.0104 19.3819191,24.98365 C16.3989412,24.94815 13.4169926,24.57765 10.44225,24.27815 C9.11713971,24.14465 8.54890441,23.2654 8.56769118,22.00415 C8.59934559,19.89465 9.63081618,18.18315 10.8671397,16.5549 C11.0907794,16.26015 11.3465882,15.98865 11.4932794,15.81665 C9.58577941,13.4139 7.69449265,11.1124 5.91335294,8.73315 C5.44085294,8.1019 5.16059559,7.25065 5.04864706,6.4659 C4.77508088,4.54865 3.41111029,3.1739 1.47324265,3.1059 C0.730007353,3.07965 -0.0973823529,2.9279 0.00916176471,2.1199 C0.0801911765,1.58165 0.723573529,0.89565 1.27636765,0.6844 C2.26872059,0.3054 3.40081618,-0.2516 4.44515441,0.63365 C5.03011765,1.12965 5.74247059,1.6089 6.06081618,2.2529 C6.90750735,3.9639 7.06963971,4.0824 9.10092647,3.93365 C12.1286838,3.71215 15.1654485,3.6029 18.1937206,3.38365 C21.9860735,3.1089 25.7719926,2.75365 29.5638309,2.4714 C30.6681324,2.38915 31.7999706,2.31365 32.8888309,2.45515 C34.5147868,2.6664 35.2001176,3.7749 34.5811838,5.20765 C33.2905588,8.19665 31.9250441,11.15665 30.5276176,14.1004 C29.4863676,16.2939 27.7814044,17.18315 25.1762206,17.10815 C21.5084265,17.00215 17.8267353,17.34465 14.1517353,17.5084 C13.9636103,17.5169 13.684125,17.59615 13.6112941,17.72815 C12.8948235,19.02465 12.2128382,20.33915 11.4153015,21.84965" id="Fill-1" fill="#002E48" mask="url(#mask-2)"></path>
          </g>
          <g id="Group-6" transform="translate(21.000000, 26.000000)">
              <path d="M3.356136,0.031724 C5.516056,0.070924 6.872936,1.422764 6.836536,3.499524 C6.796496,5.767524 5.456696,7.009884 3.060736,7.000084 C1.375696,6.993084 0.095256,5.135004 0.143416,2.766484 C0.182896,0.836164 1.174376,-0.007756 3.356136,0.031724" id="Fill-4" fill="#002E48" mask="url(#mask-4)"></path>
          </g>
          <path d="M13.6121131,31.9999997 C11.6693708,32.000807 9.99213281,30.1961873 10.0000278,28.1138509 C10.0058759,26.6781744 11.0775421,25.9771553 13.2314011,26.0005674 C15.4288286,26.0242487 16.9741917,27.1754809 16.999631,28.8076042 C17.0271171,30.5748184 15.515673,31.9991924 13.6121131,31.9999997" id="Fill-7" fill="#002E48"></path>
    </g>
</svg>
