<?xml version="1.0" encoding="UTF-8"?>
<svg width="98px" height="95px" viewBox="0 0 98 95" version="1.1" xmlns="http://www.w3.org/2000/svg" xmlns:xlink="http://www.w3.org/1999/xlink">
    <title>cc-almonds</title>
    <defs>
        <polygon id="path-1" points="0.58280393 0.651960784 72.7517453 0.651960784 72.7517453 59.0350256 0.58280393 59.0350256 0.58280393 0.651960784"></polygon>
    </defs>
            <g id="cc-almonds">
                <path d="M31.9755925,87.6326569 C30.5036679,87.3122647 29.164366,87.0216765 27.7036491,86.7050098 C27.3973094,86.1256961 27.0629509,85.4960882 26.7454038,84.8962843 C26.9004415,84.547951 26.986366,84.2890294 27.1208566,84.0599118 C27.9987811,82.5585392 28.8953849,81.0702059 29.7658377,79.5651078 C29.8984604,79.3341275 30.0441585,79.0100098 29.9806491,78.7864804 C29.5528943,77.2571667 30.6082717,76.3965784 31.4525736,75.4558922 C32.629366,74.1463824 34.0078943,73.0771667 35.5732151,72.2575588 C39.5761774,70.1638333 43.446517,67.8707941 46.8797623,64.9071667 C47.0889698,64.7264804 47.3168566,64.5644216 47.5559509,64.4284412 C50.4568377,62.7501078 52.8178943,60.4514804 55.0481962,57.9982451 C56.8432717,56.0237353 58.7709698,54.1945196 60.9209509,52.5981471 C64.2570642,50.1206961 67.9779698,48.710598 72.1266302,48.3976569 C74.2336491,48.2393235 76.3369321,48.0083431 78.4458189,47.8891275 C79.0528943,47.855598 79.8056679,47.9226569 80.2670453,48.2542255 C82.0341019,49.5171667 84.0981585,50.0182451 86.1061774,50.5752059 C88.2038566,51.1582451 90.0699132,52.0095196 91.6240264,53.5313824 C92.7391774,54.6248137 93.8935547,55.6791275 94.9918943,56.7911863 C96.9961774,58.8178529 97.4874415,61.2468725 96.6468755,63.9124608 C96.0958377,65.6615784 95.4252528,67.3622647 95.197366,69.2082451 C95.1133094,69.9067745 94.7528,70.6202059 94.3605358,71.225598 C92.3599887,74.3009902 90.4733849,77.4732451 87.8134604,80.0587353 C86.6329321,81.2061863 85.4094415,82.3294216 84.0981585,83.3222647 C82.5608566,84.4846176 80.9338943,85.5370686 79.2938566,86.5559902 C77.1831019,87.8673627 75.0088377,89.0520686 72.5768,89.7133431 C69.5657057,90.5348137 66.6965736,91.8294216 63.6070264,92.4124608 C58.5393472,93.368049 53.4511208,94.2044216 48.2788377,94.0200098 C44.0087623,93.8691275 39.8694415,93.0718725 36.1765547,90.7210882 C35.6385925,90.3783431 35.0595358,90.0281471 34.4524604,89.8828529 C33.1804038,89.5755 32.3174226,88.8713824 31.9755925,87.6326569 M76.7422717,50.1486373 C76.4938377,49.9120686 76.3649509,49.690402 76.2547434,49.6997157 C73.9684038,49.880402 71.6409698,49.8785392 69.4088,50.3311863 C64.5970264,51.3109902 60.9601774,54.2876569 57.7660264,57.8175588 C55.4236491,60.4086373 53.1261019,63.0183431 50.1000642,64.868049 C49.2389509,65.3933431 48.4488189,66.0378529 47.6437434,66.6525588 C46.8461396,67.2616765 46.0298566,67.8149118 45.5666113,68.8040294 C45.3219132,69.3237353 44.6961585,69.7093235 44.1694038,70.0427549 C43.0075547,70.7748137 41.8158189,71.4621667 40.6054038,72.1122647 C39.6621019,72.6207941 38.6739698,73.0436373 37.6036491,73.5540294 C37.1553472,75.4149118 37.1366679,75.3944216 35.4779509,77.0112843 C34.8260453,77.6464804 34.2301774,78.3561863 33.7164981,79.1068725 C33.4026868,79.5651078 33.6735358,79.9618725 34.2208377,80.0941275 C35.0259132,79.6470686 35.7712151,79.0323627 36.6192528,78.8181471 C37.5662906,78.5778529 38.3003849,78.1084412 39.0064604,77.5235392 C40.0693094,76.6424608 41.1078755,75.7334412 42.1669887,74.8467745 C42.8469132,74.2786373 43.5156302,73.6788333 44.8455925,73.3901078 C42.4116868,76.8510882 38.8757057,78.730598 36.6229887,81.9941275 C37.0432717,82.1170686 37.3384038,82.3126569 37.5027811,82.2344216 C38.1640264,81.9214804 38.8009887,81.5489314 39.4155358,81.1521667 C40.8837245,80.2058922 42.3126868,79.1962843 43.8070264,78.2928529 C44.3169698,77.9836373 44.907234,78.0413824 44.9726113,79.0714804 C44.3207057,79.5446176 43.6221019,80.1369706 42.8431774,80.5952059 C41.2386302,81.5396176 39.8358189,82.7056961 38.6366113,84.1251078 C38.4012528,84.4026569 38.1696302,84.7305 37.8595547,84.8906961 C37.4672906,85.095598 37.0021774,85.2241275 36.5594792,85.2557941 C36.0140453,85.293049 35.8814226,84.7826569 35.6199132,84.4063824 C35.0931585,83.6538333 34.7812151,83.6370686 34.0788755,84.248049 C33.8211019,84.4715784 33.6623283,84.8087353 33.421366,85.1458922 C34.6187057,86.1014804 35.8029698,86.5839314 37.2898377,86.3715784 C38.1827057,86.2449118 39.1297434,86.3026569 40.0282151,86.4386373 C42.2921396,86.7832451 44.5429887,87.2209902 46.9096491,87.6401078 C47.1861019,87.3402059 47.5447434,86.9508922 48.0210642,86.4349118 C49.4051962,87.0552059 50.8547057,86.7739314 52.3079509,86.5466765 C55.7654792,86.0083431 59.2211396,85.4662843 62.6786679,84.9372647 C66.0614792,84.4175588 69.2556302,83.5327549 72.2984792,81.7836373 C78.8530264,78.0171667 84.481083,73.2522647 89.2480264,67.4293235 C90.049366,66.4513824 90.6041396,65.2424608 92.0443094,64.9183431 C92.4104226,64.8363824 92.6962151,64.3017745 92.9670642,63.9366765 C93.9047623,62.6849118 94.579083,61.2971667 95.1506679,59.8982451 C93.6488566,57.100402 91.0991396,55.5282451 88.9080642,53.5909902 C87.7275358,52.5478529 86.2406679,52.4137353 84.8621396,51.9461863 C84.3391208,51.7692255 83.7600642,51.7207941 83.2800075,51.473049 C81.6866679,50.6441275 80.0858566,50.7819706 78.4644981,51.3128529 C77.1513472,51.7412843 75.8288566,52.1455 74.5399887,52.635402 C72.4740642,53.4177549 70.4305547,54.2615784 68.3795736,55.083049 C66.6162528,55.7908922 64.7968943,56.2994216 62.9140264,56.6365784 C64.186083,55.3307941 65.9363283,54.9843235 67.4829698,54.2522647 C68.9791774,53.5425588 70.5258189,52.9390294 72.033234,52.247951 C73.5761396,51.5419706 75.2703472,51.1414804 76.7422717,50.1486373 M93.4714038,66.3060882 C93.1669321,66.5296176 92.9128943,66.6544216 92.7410453,66.8518725 C88.6783094,71.540402 83.8571962,75.3795196 78.9314792,79.0994216 C76.884234,80.6455 74.4036302,81.5843235 72.6421774,83.5439314 C72.4665925,83.7395196 72.1845358,83.8531471 71.934234,83.963049 C70.6827245,84.5125588 69.3434226,84.8944216 68.5551585,86.1815784 C68.3963849,86.4423627 67.9219321,86.528049 67.576366,86.6547157 C63.9525925,87.9921667 60.3288189,89.3314804 56.5686868,90.2647157 C54.9024981,90.6763824 53.247517,91.1420686 51.5888,91.5835392 C52.7338377,91.9318725 53.8433849,92.0361863 54.9249132,91.9095196 C56.8414038,91.6859902 58.7298755,91.2035392 60.6501019,91.0396176 C65.2209132,90.6484412 69.4069321,88.8862843 73.6228377,87.3551078 C77.7023849,85.8742255 81.3093472,83.4023627 84.7239132,80.7311863 C85.7979698,79.8910882 86.6516113,78.7715784 87.5874415,77.7619706 C87.6658943,77.6781471 87.5986491,77.4583431 87.5986491,77.2255 C87.3371396,77.2739314 87.0513472,77.2590294 86.8477434,77.3801078 C85.0302528,78.4605 83.220234,79.5557941 81.4214226,80.6678529 C80.248366,81.3943235 79.1220075,82.2027549 77.9265358,82.8882451 C76.6787623,83.6035392 75.373083,84.2107941 73.4734038,84.1511863 C74.0188377,83.6407941 74.2392528,83.3464804 74.5306491,83.1788333 C75.2479321,82.7708922 76.0380642,82.4821667 76.7310642,82.0388333 C80.0615736,79.9041275 83.3117623,77.6353039 86.7057811,75.6049118 C90.051234,73.6024608 91.9789321,70.5699118 93.5031585,67.1685392 C93.5984226,66.958049 93.490083,66.6581471 93.4714038,66.3060882 M47.0291962,89.8344216 C44.2758755,88.4932451 41.3301585,88.3963824 38.4218,88.165402 C37.9828377,88.1300098 37.5121208,88.4876569 36.9648189,88.7000098 C40.0618377,91.577951 44.4514604,92.3975588 48.2190642,91.8759902 C47.8099887,91.1718725 47.4083849,90.4826569 47.0291962,89.8344216 M60.8163472,87.4556961 C59.5723094,87.098049 58.4254038,87.2601078 57.0207245,88.5416765 C58.2498189,88.2641275 58.9316113,88.1374608 59.5984604,87.9511863 C60.0168755,87.8319706 60.4110075,87.6233431 60.8163472,87.4556961 M31.2938,82.9273627 C31.8037434,82.7261863 32.8852717,82.7466765 32.2819321,81.5768725 C31.8915358,82.1114804 31.5926679,82.5194216 31.2938,82.9273627" id="Fill-58" fill="#9E0C40"></path>
                <path d="M85.6334057,61.3141176 C85.0954434,62.8415686 84.1203868,63.8008824 83.0911604,64.7285294 C79.4468396,68.0088235 75.3093868,70.5868627 71.0654623,72.9860784 C68.2691792,74.5656863 65.5737642,76.3632353 62.5066321,77.4119608 C59.0285566,78.5985294 55.528066,79.7254902 52.0294434,80.8487255 C51.4503868,81.035 50.8171604,81.115098 50.3202925,80.6773529 C50.3707264,79.9471569 50.8731981,79.8670588 51.2897453,79.7273529 C53.2958962,79.0586275 55.2815,78.3116667 57.3231415,77.7677451 C61.9929528,76.5215686 66.2630283,74.4017647 70.404217,71.9932353 C73.8243868,70.0038235 77.1885189,67.917549 80.2201604,65.36 C81.6192358,64.1771569 82.9230472,62.882549 84.2679528,61.6345098 C84.5967075,61.3271569 84.9011792,60.9713725 85.6334057,61.3141176" id="Fill-60" fill="#9E0C40"></path>
                <path d="M59.4662113,82.3884706 C67.147117,79.0280784 74.2994,74.9523922 80.6690226,69.5597451 C81.1640226,69.9863137 80.9660226,70.4892549 80.7045132,70.7742549 C79.8975698,71.6516078 79.0663434,72.5289608 78.1286453,73.2572941 C73.8847208,76.5524902 69.2167774,79.1417059 64.2574377,81.1776863 C62.7500226,81.7979804 61.0688906,81.9972941 59.4662113,82.3884706" id="Fill-62" fill="#9E0C40"></path>
                <path d="M63.746934,69.2689706 C64.0364623,68.9411275 64.2792925,68.5555392 64.6211226,68.2947549 C68.2654434,65.5211275 71.9135,62.7530882 75.5858396,60.0148529 C76.5384811,59.3051471 77.5602358,58.6867157 78.5782547,58.0720098 C78.9144811,57.8689706 79.2787264,57.9490686 79.4991415,58.5861275 C78.8024057,59.1598529 78.0925943,59.8509314 77.2819151,60.3911275 C72.8082358,63.3771078 68.894934,67.1640686 63.746934,69.2689706" id="Fill-64" fill="#9E0C40"></path>
                <path d="M62.6878208,62.6998137 C62.9754811,62.3812843 63.2183113,61.9994216 63.5601415,61.7535392 C67.2978585,59.0544216 71.3232358,56.8172647 75.3766321,54.6434412 C76.4114623,54.0883431 77.6293491,53.8592255 78.7781226,53.5369706 C78.9649151,53.4848137 79.2357642,53.7213824 79.4188208,53.8033431 C79.4580472,53.9784412 79.512217,54.0771667 79.487934,54.1498137 C79.461783,54.2261863 79.3702547,54.2969706 79.2918019,54.3360882 C75.7745,56.1448137 72.234783,57.9088333 68.7473679,59.7697157 C66.8103302,60.8035392 64.959217,61.9994216 63.0688774,63.1226569 C62.9418585,62.982951 62.8148396,62.8413824 62.6878208,62.6998137" id="Fill-66" fill="#9E0C40"></path>
                <path d="M47.3615,76.8063824 C48.7082736,75.0423627 50.6191604,73.8986373 52.4030283,72.6692255 C54.4353302,71.2665784 56.6320094,70.1005 58.7782547,68.8673627 C58.9501038,68.7686373 59.2863302,68.9511863 59.6300283,69.0201078 C59.4600472,69.3106961 59.3853302,69.6161863 59.192934,69.7447157 C55.3786321,72.2668725 51.5531226,74.7666765 47.7294811,77.2720686 C47.6061981,77.1174608 47.4829151,76.9609902 47.3615,76.8063824" id="Fill-68" fill="#9E0C40"></path>
                <g id="Group-72">
                    <mask id="mask-2" fill="white">
                        <use xlink:href="#path-1"></use>
                    </mask>
                    <g id="Clip-71"></g>
                    <path d="M56.6049245,0.654009804 C58.8968679,0.754598039 61.4017547,0.383911765 63.8263208,1.16253922 C66.2863774,0.775088235 68.5615094,1.66548039 70.8777358,2.2149902 C72.4953585,2.59871569 72.9716792,3.41459804 72.6634717,5.04822549 C72.5289811,5.76165686 72.2768113,6.4695 71.9835472,7.13636275 C71.3054906,8.67312745 70.924434,10.254598 70.9150943,11.9422451 C70.9076226,12.9499902 70.799283,13.9614608 70.6685283,14.9636176 C70.5639245,15.7813627 70.5041509,16.649402 70.1735283,17.3851863 C68.7034717,20.6487157 68.0216792,24.2289118 66.1630943,27.3322451 C65.3636226,28.6696961 64.5361321,29.9903824 63.6936981,31.3017549 C62.5486604,33.0788137 61.2635283,34.7776373 60.2380377,36.6198922 C57.5388868,41.4686176 53.6610755,45.2108725 49.2770566,48.4818529 C46.9178679,50.2402843 44.4353962,51.8292059 42.0500566,53.5541078 C38.1591698,56.3687157 33.7153774,57.8440098 29.0903962,58.7735196 C26.9310755,59.2075392 24.6951698,59.0585196 22.4947547,58.639402 C20.6922075,58.2947941 18.8672453,58.0451863 17.042283,57.8328333 C15.3798302,57.6409706 13.7790189,57.3373431 12.3295094,56.4301863 C11.0051509,55.6031275 9.60233962,54.8915588 8.30413208,54.0235196 C7.55135849,53.5205784 6.85275472,52.8816569 6.28116981,52.1812647 C5.46115094,51.1791078 4.7270566,50.1452843 3.42884906,49.679598 C2.78254717,49.4486176 2.46873585,48.8618529 2.29688679,48.2061667 C1.82990566,46.4365588 1.41896226,44.6483235 0.858584906,42.9066569 C0.34490566,41.3121471 0.613886792,39.7586176 1.13316981,38.3149902 C2.13064151,35.5488137 3.4400566,32.9037157 5.3285283,30.6088137 C5.90758491,29.9046961 6.61366038,29.2974412 7.30666038,28.6995 C10.2280943,26.1717549 13.1887547,23.6905784 16.0896415,21.1386176 C17.2608302,20.1085196 18.3460943,18.9741078 19.418283,17.8359706 C22.4573962,14.6041078 26.0083208,11.9515588 29.443434,9.1872451 C32.0286415,7.10842157 35.1518113,5.85106863 38.1647736,4.45959804 C43.9609434,1.78469608 50.1157547,0.86077451 56.6049245,0.654009804 M63.3051698,22.4425392 C63.2584717,22.2488137 63.2136415,22.0550882 63.1688113,21.8613627 C63.2080377,22.0606765 63.2472642,22.2599902 63.2864906,22.4593039 C62.9390566,22.5002843 62.4291132,22.4090098 62.2684717,22.6027353 C61.0431132,24.0910686 59.5861321,25.4918529 58.7698491,27.1925392 C57.2213396,30.4188137 54.7089811,33.1216569 53.7059057,36.6310686 C53.5564717,37.147049 53.1922264,37.6034216 52.9195094,38.0821471 C50.7190943,41.9380294 47.3941887,44.7582255 43.8357925,47.2002843 C40.2811321,49.6386176 36.4051887,51.6112647 32.6637358,53.7776373 C32.5161698,53.8633235 32.2696038,53.9396961 32.1463208,53.8745 C31.8642642,53.7273431 31.6289057,53.4907745 31.2198302,53.1666569 C31.769,52.7959706 32.1220377,52.5277353 32.5030943,52.3060686 C35.6075849,50.5029314 38.7438302,48.7538137 41.8146981,46.8985196 C44.5119811,45.2686176 46.7385472,43.0463627 48.920283,40.8092059 C51.914566,37.7375392 53.8179811,33.9077353 55.678434,30.139402 C56.9075283,27.6507745 58.1440943,25.2347941 59.8663208,23.0591078 C60.6060189,22.1240098 61.3008868,21.1348922 61.8780755,20.0954804 C63.2566038,17.6180294 64.9190566,15.2616569 65.3972453,12.3688137 C65.4271321,12.1881275 65.7670943,12.0577353 65.972566,11.8975392 C66.245283,12.3241078 66.469434,12.6743039 66.8934528,13.3355784 C68.1001321,10.0180294 69.9755283,7.29097059 70.9580566,3.96038235 C69.0228868,3.17989216 67.1082642,2.64714706 65.0516792,2.63969608 C64.2297925,2.63597059 63.3892264,2.63783333 62.5897547,2.47577451 C60.9347736,2.14234314 59.2984717,2.09204902 57.6771132,2.56704902 C56.6646981,2.86136275 55.628,2.9172451 54.6809623,2.56891176 C52.7532642,1.86106863 50.8442453,2.13302941 48.9763208,2.59126471 C46.3873774,3.22459804 43.8245849,3.99204902 41.2860755,4.81351961 C38.2077358,5.81008824 35.2881698,7.18665686 32.6170377,9.01959804 C30.9545849,10.1614608 29.3276226,11.3703824 27.7828491,12.6649902 C25.2462075,14.7922451 22.6348491,16.8636176 20.3429057,19.2348922 C17.8510943,21.8147941 15.3630189,24.3704804 12.5200377,26.5685196 C11.3544528,27.4663627 10.2187547,28.4033235 9.0905283,29.3477353 C7.23007547,30.9031275 5.67969811,32.682049 4.87275472,35.0328333 C4.54773585,35.9846961 4.12184906,36.9216569 3.60069811,37.7803824 C2.48554717,39.6151863 2.28941509,41.5412647 2.67981132,43.6051863 C2.92264151,44.8886176 3.16920755,46.0845 4.33479245,46.9395 C4.90637736,47.3586176 5.30424528,48.0385196 5.70584906,48.6495 C6.85462264,50.3948922 8.50026415,50.8289118 10.3270943,50.6482255 C11.251717,49.8491078 10.3401698,47.896951 12.4229057,48.0366569 L12.4229057,50.841951 C11.4347736,51.0673431 10.4522453,51.2703824 9.48279245,51.5218529 C9.18579245,51.5982255 8.92241509,51.8087157 8.39192453,52.0955784 C10.0413019,53.4237157 11.6346415,54.3159706 13.2373208,55.1821471 C14.4720189,55.8490098 15.7963774,56.1433235 17.216,56.1712647 C18.4021321,56.1954804 19.6274906,56.2830294 20.7613208,56.6034216 C26.5145283,58.2221471 31.8698679,56.8437157 37.1075283,54.554402 C39.7413019,53.4032255 41.9435849,51.5423431 44.3233208,49.9757745 C47.5174717,47.874598 50.1960755,45.2816569 52.1704717,41.9734216 C52.8728113,40.7961667 53.821717,39.7697941 54.6043774,38.6372451 C55.280566,37.6611667 55.9604906,36.6739118 56.5021887,35.6214608 C57.9741132,32.7621471 59.3507736,29.8562647 60.8096226,26.9895 C61.5941509,25.4508725 62.4702075,23.9588137 63.3051698,22.4425392 M68.894,13.5646961 C68.3877925,14.4271471 68.0907925,14.8499902 67.8759811,15.3100882 C66.8206038,17.5546961 65.750283,19.7937157 64.7565472,22.0662647 C63.3556038,25.2701863 61.8612642,28.421951 59.8999434,31.3315588 C58.5569057,33.3246961 57.7499623,35.532049 57.0401509,38.3392059 C57.5762453,37.7338137 57.8209434,37.519598 57.9909245,37.2550882 C59.636566,34.7068529 61.2728679,32.1530294 62.903566,29.5954804 C64.439,27.1850882 65.7484151,24.6647941 66.6394151,21.939598 C67.0092642,20.8051863 67.3268113,19.6372451 67.8442264,18.5698922 C68.5428302,17.1262647 68.7258868,15.6193039 68.894,13.5646961" id="Fill-70" fill="#9E0C40" mask="url(#mask-2)"></path>
                </g>
                <path d="M15.7380981,39.2500882 C13.2948528,41.0308725 10.7806264,42.7222451 8.69789057,44.9500882 C8.27947547,45.3990098 7.80502264,45.7976373 7.2689283,46.3024412 C6.75151321,45.2295 6.32562642,44.3502843 5.90347547,43.4692059 C5.86424906,43.3872451 5.80447547,43.2922451 5.81568302,43.2121471 C6.15377736,40.9768529 5.73162642,38.572049 7.24838113,36.5975392 C7.75085283,35.9437157 8.27200377,35.2917549 8.8604,34.7124412 C14.4230792,29.2434216 20.6993057,24.8063627 27.9076264,21.7346961 C28.0701358,21.6657745 28.2644,21.6732255 28.4455887,21.6452843 C28.8546642,21.9526373 28.7164377,22.2823431 28.4213057,22.5338137 C28.1467208,22.7703824 27.8048906,22.9305784 27.4892113,23.1187157 C24.7994,24.7132255 22.1226642,26.331951 19.4141736,27.8966569 C16.1191547,29.8003824 13.3284755,32.3635196 10.4780226,34.8148922 C8.75766415,36.292049 7.40341887,38.2423431 7.75085283,41.0271471 C8.2514566,40.866951 8.70162642,40.8259706 9.02664528,40.6024412 C10.5434,39.5648922 12.0209283,38.469598 13.5246075,37.4096961 C14.7891925,36.5193039 16.0687208,35.6512647 17.5742679,34.6137157 C17.0848717,35.8431275 17.0979472,35.8598922 16.360117,36.4913627 C15.8725887,36.9104804 15.3364943,37.2718529 14.9778528,37.5400882 C15.0992679,37.994598 15.1086075,38.1380294 15.1440981,38.1454804 C15.4074755,38.1976373 15.6764566,38.2237157 16.0108151,38.2665588 C15.9174189,38.6037157 15.8277585,38.9296961 15.7380981,39.2556765 L15.7380981,39.2500882 Z M7.77700377,43.3928333 C7.82370189,43.4468529 7.8629283,43.5362647 7.91896604,43.5455784 C7.97126792,43.5567549 8.04038113,43.4859706 8.10015472,43.4524412 C8.02356981,43.3704804 7.94511698,43.2885196 7.86666415,43.2084216 C7.83677736,43.2698922 7.80689057,43.3313627 7.77700377,43.3928333 L7.77700377,43.3928333 Z" id="Fill-73" fill="#AC8C5D"></path>
                <path d="M25.4625132,50.0214118 C28.7276453,48.6783725 31.753683,47.6035686 34.6134755,46.1934706 C36.2273623,45.3980784 37.6507208,44.1463137 39.0143057,42.9336667 C41.8236642,40.439451 44.5302868,37.8297451 47.2892113,35.2777843 C47.5918151,34.9983725 47.9616642,34.7878824 48.3277774,34.527098 C48.8545321,35.4361176 48.2698717,35.9073922 47.8664,36.3376863 C46.1105509,38.2097451 44.3752491,40.1097451 42.5054566,41.8663137 C40.8355321,43.4328824 39.0367208,44.8690588 37.2285698,46.2791569 C35.0935321,47.944451 32.4821736,48.6411176 30.0090415,49.6097451 C28.611834,50.1573922 27.1922113,50.3771961 25.4625132,50.0214118" id="Fill-75" fill="#AC8C5D"></path>
                <path d="M36.9246585,26.9967647 C36.0971679,28.4627451 34.7391868,29.4313725 33.5063566,30.4894118 C29.3315453,34.0733333 25.2258472,37.7317647 21.3816585,41.6677451 C19.7285453,43.3609804 18.1688283,45.1454902 16.5866962,46.8666667 C15.8320547,46.6785294 15.9254509,46.1141176 16.1290547,45.7806863 C16.6539415,44.9294118 17.2217906,44.0781373 17.9147906,43.3628431 C20.081583,41.1256863 22.2427717,38.8773529 24.5384509,36.7743137 C27.4412057,34.1161765 30.4466962,31.5642157 33.4652623,29.0346078 C34.4963566,28.1721569 35.5143755,27.184902 36.9881679,27.0638235 L36.9246585,26.9967647 Z" id="Fill-77" fill="#AC8C5D"></path>
                <path d="M33.6903472,24.2389706 C32.4874038,25.2094608 31.3386302,26.2544608 30.0740453,27.1318137 C26.6127811,29.5347549 23.1029509,31.8669118 19.6024604,34.2158333 C19.4754415,34.3015196 19.2587623,34.2568137 19.0644981,34.2735784 C18.5751019,33.7780882 19.0271396,33.3906373 19.3260075,33.1577941 C21.270517,31.6322059 23.1926113,30.0675 25.2398566,28.6872059 C27.4384038,27.202598 29.7639698,25.902402 32.0391019,24.5295588 C32.4874038,24.257598 32.9599887,24.0284804 33.421366,23.7788725 C33.5110264,23.9334804 33.6006868,24.0862255 33.6903472,24.2389706" id="Fill-79" fill="#AC8C5D"></path>
                <path d="M52.9917981,6.49148039 C51.3760434,7.10804902 49.7509491,7.62216667 48.2248547,8.33932353 C46.657666,9.07510784 45.1707981,9.99157843 43.6727226,10.8670686 C42.1877226,11.7351078 40.7326094,12.6515784 39.2831,13.5345196 C38.7974396,13.0408922 39.1672887,12.7205 39.3895717,12.5342255 C42.9106094,9.56128431 46.7043642,7.05402941 51.2228736,5.82648039 C51.8878547,5.64393137 52.4818547,5.66628431 52.9917981,6.49148039" id="Fill-81" fill="#AC8C5D"></path>
                <path d="M37.8263057,33.9712549 C38.1756075,34.6567451 37.8935509,35.2025294 37.4433811,35.7129216 C35.5026075,37.9184118 33.4983245,40.0624314 31.0756264,41.7538039 C29.2992302,42.9925294 27.6255698,44.3858627 25.7707208,45.4662549 C25.2981358,44.9111569 25.6791925,44.669 25.8902679,44.4138039 C27.2463811,42.7652745 28.9592679,41.534 30.7169849,40.3604706 C33.3993245,38.5722353 35.9303623,36.6219412 37.8860792,34.021549 C37.8954189,34.029 37.8263057,33.9712549 37.8263057,33.9712549" id="Fill-83" fill="#AC8C5D"></path>
                <path d="M56.4708075,10.5621373 C58.5012415,8.2094902 61.1592981,6.82360784 63.9761283,5.7767451 C64.9119585,5.42841176 66.0177698,5.02419608 67.0395245,5.47498039 C67.2449962,6.08037255 66.8732792,6.38027451 66.5912226,6.45478431 C63.3821283,7.30978431 60.4980528,8.92478431 57.4888264,10.2473333 C57.1656755,10.388902 56.8107698,10.4596863 56.4708075,10.5621373" id="Fill-85" fill="#AC8C5D"></path>
                <path d="M15.7375377,39.2558627 C15.6441415,40.0233137 15.9467453,40.7963529 15.1790283,41.5097843 C14.2525377,42.3722353 13.5651415,43.4898824 12.761934,44.4901765 C12.2445189,45.1328235 11.6411792,45.7195882 11.1947453,46.4069412 C10.7595189,47.0738039 10.4755943,47.8375294 10.1206887,48.5677255 C9.10827358,48.1653725 9.09893396,47.409098 9.38285849,46.7124314 C9.65370755,46.0474314 10.0721226,45.3991961 10.5652547,44.873902 C11.943783,43.4041961 13.4063679,42.0145882 14.8054434,40.5653725 C15.1734245,40.1816471 15.4293302,39.6917451 15.7375377,39.2502745 C15.7375377,39.2502745 15.7375377,39.2558627 15.7375377,39.2558627" id="Fill-87" fill="#AC8C5D"></path>
                <path d="M23.0390679,47.7466275 C22.590766,48.3389804 22.3479358,48.7934902 21.9855585,49.1157451 C20.5622,50.388 19.1052189,51.623 17.6482377,52.8561373 C17.4465019,53.0256471 17.1812566,53.150451 16.9253509,53.2175098 C16.7889925,53.252902 16.5704453,53.1541765 16.4565019,53.0461373 C16.3369547,52.9325098 16.1931245,52.6922157 16.2398226,52.5841765 C16.4471623,52.090549 16.6414264,51.5596667 16.9795208,51.1610392 C17.9713887,49.9893725 20.7658038,48.4228039 23.0390679,47.7466275" id="Fill-89" fill="#AC8C5D"></path>
                <path d="M43.2926,28.2680882 C45.3454491,25.6267157 48.1884302,24.1402451 51.2126,22.8270098 C51.0967887,23.0095588 51.0183358,23.2405392 50.8558264,23.3672059 C48.6348642,25.0939706 46.4045623,26.8095588 44.1630528,28.5121078 C44.0491094,28.5977941 43.8174868,28.5493627 43.6456377,28.5288725 C43.5671849,28.5195588 43.4999396,28.4264216 43.2926,28.2680882" id="Fill-91" fill="#AC8C5D"></path>
                <path d="M39.2410717,33.1073137 C39.1644868,32.2802549 39.6520151,31.7847647 40.2889774,31.3246667 C40.6158642,32.3864314 39.777166,32.637902 39.1756943,33.0439804 L39.2410717,33.1073137 Z" id="Fill-93" fill="#00BBD9"></path>
                <path d="M36.9874208,27.0630784 C37.2265151,26.7613137 37.4674774,26.459549 37.9568736,25.8411176 C37.8765528,26.9121961 37.3946283,26.9457255 36.9239113,26.9960196 C36.9239113,26.9960196 36.9874208,27.0630784 36.9874208,27.0630784" id="Fill-95" fill="#00BBD9"></path>
                <path d="M49.7300283,32.3916471 C49.8626509,32.428902 49.9280283,32.4475294 49.9934057,32.4661569 C49.8813302,32.6617451 49.7748585,32.8610588 49.6497075,33.0491961 C49.6366321,33.0696863 49.515217,33.0193922 49.4442358,33.0007647 C49.5413679,32.794 49.6385,32.5872353 49.7300283,32.3916471" id="Fill-97" fill="#00BBD9"></path>
                <path d="M39.1766283,33.0432353 C39.060817,33.8218627 38.6834962,34.2298039 37.8335906,33.9783333 C37.8261189,33.9708824 37.8952321,34.0304902 37.8858925,34.0230392 C38.3304585,33.7119608 38.7862321,33.4101961 39.2401377,33.1065686 C39.2420057,33.1065686 39.1766283,33.0432353 39.1766283,33.0432353" id="Fill-99" fill="#00BBD9"></path>
            </g>
        </g>
    </g>
</svg>
