<?xml version="1.0" encoding="UTF-8"?>
<svg width="121px" height="130px" viewBox="0 0 121 130" version="1.1" xmlns="http://www.w3.org/2000/svg" xmlns:xlink="http://www.w3.org/1999/xlink">
    <!-- Generator: Sketch 45.1 (43504) - http://www.bohemiancoding.com/sketch -->
    <title>cc-coco</title>
    <desc>Created with Sketch.</desc>
    <defs></defs>
    <g id="Desktop" stroke="none" stroke-width="1" fill="none" fill-rule="evenodd" opacity="0.3">
        <g id="Chocolate-Chunk" transform="translate(-886.000000, -1014.000000)">
            <g id="cc-coco" transform="translate(951.238375, 1081.232751) rotate(-65.000000) translate(-951.238375, -1081.232751) translate(875.738375, 1036.732751)">
                <path d="M100.487186,41.7537273 C101.211047,42.4131512 101.542005,43.4286276 102.356128,43.9681562 C103.131314,44.4822525 104.120649,44.3296586 104.915304,44.8364885 C106.125868,45.6067246 106.256836,47.1617297 105.635625,48.397014 C104.702924,50.2553904 102.683546,50.3226044 101.057071,51.1328056 C100.22879,51.5451726 99.874824,52.0247536 99.6712934,52.9403173 C99.5951907,53.2854703 99.612889,53.6088241 99.4518343,53.9376278 C99.1739708,54.5062219 98.6819577,54.8277592 98.0943737,54.9422046 C96.5953266,55.2383096 94.9246058,54.3772437 94.5706395,52.8040727 C94.4856876,52.4280376 94.5635602,51.9248409 94.4219737,51.5724215 C94.1264118,50.8421505 93.4060905,50.9892946 92.7937288,50.785836 C92.5795793,50.7149888 92.4008263,50.6205259 92.2503906,50.5024473 C92.0450902,50.4334167 91.8574881,50.2917223 91.7282904,50.0519318 C91.4150302,49.4742547 91.1849522,48.8893112 91.3159197,48.2208043 C91.4061811,47.7648391 91.616791,47.6176949 91.8433294,47.2289437 C92.1353516,46.7293801 92.0964153,46.8274762 91.7353697,46.3151965 C90.9761121,45.2379559 90.588519,44.0008549 91.6574971,42.9490466 C93.2184884,41.4176573 95.2874212,43.0253436 96.8448728,41.862723 C98.1085324,40.9180938 99.1881295,40.567491 100.487186,41.7537273 M97.209458,43.8264618 C96.7121354,44.1025842 96.1546386,44.1915974 95.5971417,44.184331 C94.9458438,44.1734314 93.1512348,43.6157369 93.0220371,44.5095014 C92.928236,45.143493 93.5972323,45.528611 93.8396992,46.1062882 C94.0078331,46.505939 94.0768566,46.9310221 93.9706667,47.3597385 C93.7848344,48.1118087 92.949474,48.4460621 93.3919318,49.2762459 C93.4096301,49.3107611 93.4202491,49.3434599 93.4344078,49.3779752 C93.9529684,49.4397394 94.6715199,49.4252066 94.9069075,49.5487351 C95.3405161,49.777626 95.6219193,50.1572943 95.8042119,50.6168927 C96.0006632,51.1200894 95.9351795,51.6832338 96.0997738,52.1846139 C96.2537491,52.6569285 96.8342538,53.4489638 97.4908612,53.2564048 C97.9775648,53.1147104 97.9403984,52.6224132 98.0625167,52.2609109 C98.5616092,50.7803862 99.4022791,49.9156872 100.830533,49.3416433 C101.685361,49.0001235 102.64107,48.8638789 103.416257,48.3316166 C103.789691,48.0754768 104.348958,47.6049788 104.32595,47.0563672 C104.283474,46.0863056 103.357852,46.1626026 102.768498,46.0372576 C101.120785,45.6866548 100.669478,44.5912482 99.6288175,43.3723132 C98.7474415,42.3386708 98.0642866,43.3523306 97.209458,43.8264618" id="Fill-1" fill="#9E0C40"></path>
                <path d="M100.487186,41.7537273 C101.211047,42.4131512 101.542005,43.4286276 102.356128,43.9681562 C103.131314,44.4822525 104.120649,44.3296586 104.915304,44.8364885 C106.125868,45.6067246 106.256836,47.1617297 105.635625,48.397014 C104.702924,50.2553904 102.683546,50.3226044 101.057071,51.1328056 C100.22879,51.5451726 99.874824,52.0247536 99.6712934,52.9403173 C99.5951907,53.2854703 99.612889,53.6088241 99.4518343,53.9376278 C99.1739708,54.5062219 98.6819577,54.8277592 98.0943737,54.9422046 C96.5953266,55.2383096 94.9246058,54.3772437 94.5706395,52.8040727 C94.4856876,52.4280376 94.5635602,51.9248409 94.4219737,51.5724215 C94.1264118,50.8421505 93.4060905,50.9892946 92.7937288,50.785836 C92.5795793,50.7149888 92.4008263,50.6205259 92.2503906,50.5024473 C92.0450902,50.4334167 91.8574881,50.2917223 91.7282904,50.0519318 C91.4150302,49.4742547 91.1849522,48.8893112 91.3159197,48.2208043 C91.4061811,47.7648391 91.616791,47.6176949 91.8433294,47.2289437 C92.1353516,46.7293801 92.0964153,46.8274762 91.7353697,46.3151965 C90.9761121,45.2379559 90.588519,44.0008549 91.6574971,42.9490466 C93.2184884,41.4176573 95.2874212,43.0253436 96.8448728,41.862723 C98.1085324,40.9180938 99.1881295,40.567491 100.487186,41.7537273 Z M97.209458,43.8264618 C96.7121354,44.1025842 96.1546386,44.1915974 95.5971417,44.184331 C94.9458438,44.1734314 93.1512348,43.6157369 93.0220371,44.5095014 C92.928236,45.143493 93.5972323,45.528611 93.8396992,46.1062882 C94.0078331,46.505939 94.0768566,46.9310221 93.9706667,47.3597385 C93.7848344,48.1118087 92.949474,48.4460621 93.3919318,49.2762459 C93.4096301,49.3107611 93.4202491,49.3434599 93.4344078,49.3779752 C93.9529684,49.4397394 94.6715199,49.4252066 94.9069075,49.5487351 C95.3405161,49.777626 95.6219193,50.1572943 95.8042119,50.6168927 C96.0006632,51.1200894 95.9351795,51.6832338 96.0997738,52.1846139 C96.2537491,52.6569285 96.8342538,53.4489638 97.4908612,53.2564048 C97.9775648,53.1147104 97.9403984,52.6224132 98.0625167,52.2609109 C98.5616092,50.7803862 99.4022791,49.9156872 100.830533,49.3416433 C101.685361,49.0001235 102.64107,48.8638789 103.416257,48.3316166 C103.789691,48.0754768 104.348958,47.6049788 104.32595,47.0563672 C104.283474,46.0863056 103.357852,46.1626026 102.768498,46.0372576 C101.120785,45.6866548 100.669478,44.5912482 99.6288175,43.3723132 C98.7474415,42.3386708 98.0642866,43.3523306 97.209458,43.8264618 Z" id="Stroke-3" stroke="#AC8C5D" stroke-width="0.2"></path>
                <path d="M119.215707,75.8421642 C118.594605,78.2926274 117.601206,80.6317059 116.344474,82.8119243 C115.222133,84.7584175 113.772896,87.1376675 111.905959,88.4304603 C110.454906,89.4365745 108.613395,89.1352881 108.024983,87.3220914 C107.71988,86.3798864 107.899673,85.3555124 107.730777,84.3895698 C107.500134,83.0693873 106.810021,81.9062389 105.978253,80.8928208 C103.185113,77.4800669 98.6067591,75.5061841 96.2966973,71.6771071 C94.4896914,76.3223965 91.5022294,80.6061422 87.0110479,82.4394247 C83.8492416,83.7285656 80.3623558,83.5843132 77.0262052,83.6372666 C73.9388585,83.688394 69.6220213,84.5666897 67.1067417,82.2842165 C66.7889266,81.9957119 66.587341,81.557477 66.7616853,81.1210682 C67.638855,78.9298939 69.4803665,77.8050911 71.1965681,76.36622 C72.2008639,75.5244439 73.0489762,74.6096286 73.1960792,73.2419707 C73.3322856,71.9838715 73.0398957,70.6691669 73.0108384,69.4074157 C72.9309306,65.8814511 73.8371576,62.4449595 75.7222553,59.589129 C73.2469296,58.6286643 70.7262018,58.7656127 68.0547388,58.4752821 C65.1962189,58.1648657 62.3722047,57.2500505 59.6099374,56.4867914 C53.417083,54.7740235 47.400389,52.7234496 41.6869814,49.7306708 C36.167895,46.8383207 30.465384,44.6453205 24.5503908,42.7426508 C18.7262019,40.8673708 12.6441288,39.2586837 7.15046769,36.4923262 C2.62659665,34.2153309 -1.98626262,29.1993678 0.894050293,23.7616037 C1.23184235,23.1261631 2.12354074,23.392756 2.38505717,23.9149859 C2.96257262,25.0671783 3.5364559,26.2193708 4.12850004,27.3642594 C4.39183256,27.8718814 4.66969377,28.6314885 5.01838234,29.0788532 C5.59952997,29.8238525 5.90644856,29.7124678 6.6982622,29.8037667 C8.87393362,30.0502738 11.0205477,30.4921606 13.1381043,31.0436062 C17.4567576,32.164757 21.9443069,33.5050253 26.0196046,35.3456117 C28.0136674,36.2458191 29.6935473,37.4874845 31.4351741,38.8040151 C33.4292369,40.3122733 35.6285174,41.3585591 37.9676366,42.1875533 C42.1682443,43.6757258 46.5740697,44.3677717 51.0216651,44.3604678 C51.3612733,43.9021472 51.7480996,43.4785202 52.1512708,43.1005426 C54.0890349,41.2909979 56.6115788,40.2848837 59.014261,39.3025072 C48.1740417,35.4569964 37.6970397,30.7094521 27.5995997,25.1566513 C24.9045276,23.6739567 22.2076394,22.1912621 19.5125673,20.7085675 C17.0208969,19.3372576 14.4002843,18.0882883 12.0484525,16.4741232 C8.71048585,14.1825202 5.11281883,9.13551542 8.88846231,5.46895047 C9.18630047,5.18044586 9.72386202,5.19870564 10.039861,5.43425688 C10.9878581,6.14273656 11.4436958,7.10320128 12.1392568,8.03262437 C13.1344721,9.36193676 14.6236629,9.95172783 16.1291985,10.4611759 C18.8460636,11.381469 21.4975497,12.3328039 24.0872888,13.5835992 C28.9652967,15.9354596 33.5490986,18.8515473 38.2164404,21.5978191 C40.6300191,23.0184304 43.0544944,24.4792133 45.6950839,25.4268961 C48.3665469,26.3873608 51.1360785,27.0465391 53.8075415,28.0216117 C58.8925833,29.8749799 63.7651429,32.2761417 68.5269212,34.8562494 C68.8411042,34.719301 69.1552871,34.5896565 69.46947,34.461838 C67.0232017,33.0010552 64.5987265,31.5621841 62.001723,30.3552123 C59.3593174,29.1281547 56.6933027,27.9595284 54.0599775,26.7105591 C48.7842468,24.2107944 43.6102168,21.4955643 38.4870373,18.6872093 C33.2548926,15.8185969 28.0808626,12.8422519 22.9231774,9.83669119 C21.6573653,9.09899585 20.3915531,8.35947453 19.1257409,7.61812724 C18.0506178,6.98816463 16.770277,6.45132694 15.8731303,5.55659744 C14.6073182,4.29302028 14.8198003,2.26801006 16.2726693,1.23450619 C16.5269214,1.05190834 16.8865065,0.931393751 17.1879768,1.07929801 C23.0793609,3.96434414 28.972561,6.84939026 34.8639451,9.73626236 C37.6534537,11.1020943 40.4756518,12.4241028 43.13077,14.0510497 C45.8966695,15.7455578 48.390156,17.4254581 51.5610427,18.2343666 C54.3759766,18.9501502 56.8331414,19.9708722 59.2775936,21.5704294 C61.8891257,23.2777194 64.3444744,25.1128278 67.2138908,26.3691011 C71.9357153,28.4379348 77.020757,29.606561 81.4629041,32.250578 C80.5512288,29.011292 79.9210468,25.6861851 80.2697354,22.3081247 C80.7473661,17.6683132 83.2499331,13.6529864 84.4921361,9.23229228 C84.7936065,8.15679091 85.0006403,7.0502479 85.0315138,5.93274903 C85.0642033,4.78055655 84.7282274,3.69409931 84.7118826,2.55468869 C84.6810091,0.454813347 86.193809,-0.584168453 88.0552975,0.337950719 C90.4289223,1.51205493 92.0688483,3.75983454 93.5834643,5.88162163 C95.2433672,8.20609233 96.8978218,10.5506488 98.288944,13.0577174 C100.671649,17.3542449 102.346081,22.6605386 101.172889,27.6144184 C102.618494,28.0909988 103.768076,29.2797109 104.167615,30.7952731 C108.720544,29.5937792 113.52046,30.3150407 118.140584,29.4057034 C119.671544,29.1062429 121.175264,28.6862679 122.644478,28.1494302 C123.581578,27.8079722 124.520495,27.395301 125.517526,27.2875683 C127.233728,27.0976665 128.824619,28.0508273 129.00986,29.8987176 C129.222342,32.0040709 127.671405,34.0802085 126.632603,35.7345451 C125.361343,37.7613813 123.979301,39.7097004 122.497375,41.5795025 C127.182877,42.5235334 131.256359,45.2314596 135.860138,46.5224264 C138.497095,47.2601218 141.259363,47.5084548 143.990756,47.5212367 C146.297186,47.5321926 148.741638,47.2655997 150.630368,48.8779388 C151.184274,49.3526932 151.106183,50.1616017 150.459656,50.5121896 C148.358444,51.6516002 146.008428,51.7721148 143.680206,51.7191614 C140.700008,51.6534262 137.717994,51.500044 134.737797,51.3868333 C131.895621,51.2809265 129.175124,51.1658899 126.432834,50.3405476 C123.434475,49.4385142 120.472438,48.4050103 117.501321,47.4171559 C117.363299,47.5595822 117.22346,47.7001826 117.081805,47.838957 C121.211586,49.7032811 125.370423,51.5767351 129.758088,52.7197977 C132.197092,53.3552382 134.69421,53.7186079 137.216754,53.7204339 C139.583115,53.7240859 141.865935,53.0740375 144.210503,53.03204 C145.71059,53.0064763 147.813618,53.5597478 148.064238,55.3765965 C148.343915,57.4034327 145.806843,57.6992412 144.424801,57.9749639 C139.799229,58.8970831 135.088301,59.3207101 130.382822,59.2787126 C127.624186,59.2549749 124.869183,59.0632472 122.135974,58.7090073 C120.810231,58.5373653 119.4972,58.314596 118.187802,58.0425252 C117.819136,57.9658341 117.437758,57.8982728 117.058196,57.8215817 C117.156265,57.9968757 117.25615,58.1739956 117.34877,58.3529415 C120.218186,58.4314586 123.051281,58.6304903 125.773594,59.6384304 C128.788298,60.7541033 131.528772,62.6659029 134.708739,63.3177772 C140.053481,64.4133643 146.723966,62.9032801 149.949336,68.6112891 C150.170898,69.0038744 149.94752,69.4567171 149.678739,69.7397438 C147.944376,71.5693743 145.216615,71.2206124 142.984645,70.8882843 C139.848263,70.4226598 136.771813,69.5589719 133.586398,69.4768029 C129.060711,69.3581143 124.122772,70.3989221 119.940325,68.3501741 C120.062003,70.9101961 119.816831,73.470218 119.215707,75.8421642 M126.521822,48.3593609 C129.115193,49.1682694 131.61776,49.3472153 134.311016,49.4476441 C136.957054,49.5462469 139.604908,49.6448498 142.250946,49.7434526 C144.101538,49.8110138 145.933969,49.8877049 147.704653,49.4859896 C145.953946,49.0641886 143.836389,49.4366882 142.167406,49.3837348 C139.806493,49.3052177 137.461926,48.9984534 135.179106,48.3885765 C130.319259,47.0884798 126.004237,44.0756152 120.960966,43.4529565 C120.308991,44.2253454 119.607981,45.0817293 118.856122,45.9399393 C121.413171,46.7433698 123.964772,47.5595822 126.521822,48.3593609 M75.5025088,64.5119672 C74.7869708,67.0135578 74.9576829,69.4256755 75.106602,71.9802195 C75.2210154,73.9102788 74.7669938,75.5427037 73.4303543,76.959663 C72.0446804,78.4259238 69.9906868,79.3809106 68.9391728,81.1411539 C71.192936,82.4302948 74.8051317,81.7838984 77.2059978,81.7765945 C80.3096893,81.7656386 83.6240469,81.9683222 86.5552102,80.7175269 C92.7952828,78.0552502 94.4279444,71.3520829 96.4674094,65.4888657 C96.2858007,65.3665252 96.1114565,65.2387067 95.9443765,65.1054102 C95.3105624,65.7152871 94.3716458,65.9344045 93.430913,65.5546009 C91.769194,64.8844668 90.9228978,62.5453883 90.1637737,60.9001816 C90.149245,61.119299 90.1310842,61.3311125 90.1129233,61.5283182 C89.9640042,63.1716989 89.4700288,64.7657782 88.7290655,66.232039 C87.2707482,69.1207371 84.3032632,72.8457333 81.1923073,73.9139308 C80.7618948,74.063661 80.3078732,73.6035144 80.6075275,73.1780614 C81.4774328,71.9473519 82.7977276,71.0654042 83.878299,70.0300744 C85.1350307,68.8267545 86.2755329,67.4645745 87.1327256,65.9325785 C87.8664245,64.6196999 88.3967217,63.1297014 88.6073877,61.634225 C88.7544907,60.5861133 88.4947904,59.499656 88.5510891,58.4661522 C88.2568831,58.2981622 87.9318036,58.2360789 87.5994598,58.2032113 C87.5013912,58.5738849 87.4269316,58.9555144 87.2798286,59.3134062 C87.0292087,59.9214571 86.6496467,60.4929884 86.2446594,61.0006104 C85.5890523,61.8223008 84.7645491,62.998231 83.647656,62.9270178 C83.3788752,62.910584 83.2008988,62.651295 83.2154274,62.3920061 C83.2717261,61.2562474 84.5847565,60.5568976 85.2094902,59.6895578 C85.5654431,59.1928916 85.7597644,58.5410173 86.0194647,57.9512262 C85.5636271,57.8051479 85.1441111,57.5805526 84.7954225,57.2171828 C84.6628482,57.0784085 84.5466187,56.9250263 84.446734,56.7606882 C82.9085089,57.5148174 81.2631346,57.8635793 79.586887,57.9128807 C79.5723583,57.9293145 79.5614617,57.9475743 79.545117,57.9621821 C77.6636515,59.7972906 76.2362077,61.9482933 75.5025088,64.5119672 M50.0337141,46.1937503 C45.802233,46.1134072 41.6052575,45.3976236 37.5989711,44.006228 C35.4232996,43.2502728 33.2766856,42.3208498 31.3643467,41.0116231 C29.1015031,39.4668453 27.1655551,37.7650333 24.6085056,36.6931838 C20.1136919,34.808774 15.2629253,33.2457363 10.5065952,32.2213623 C9.28618521,31.9584214 8.05487868,31.7447819 6.81449172,31.5968777 C6.00451722,31.5001008 5.0637845,31.5274905 4.36459127,31.0253464 C3.62544413,30.4903347 3.26949121,29.4312671 2.8717683,28.6442703 C2.53216016,27.9704843 2.18891984,27.3003501 1.84204736,26.632042 C1.31719841,31.6096595 7.43014499,34.6499138 11.4128223,36.1965177 C16.6921853,38.2470916 22.1386282,39.8083033 27.5033472,41.5959363 C33.0569392,43.4456526 38.24913,45.7628193 43.4431369,48.4670936 C48.6026381,51.1531081 54.0944832,52.9772606 59.6607878,54.5749919 C62.8171458,55.4806772 66.0170899,56.6419996 69.3096544,56.8757249 C71.9575083,57.0619747 74.2058232,57.3157857 76.495908,58.5099757 C76.6902293,58.2652945 76.8899988,58.0260913 77.1006648,57.7923661 C75.2646015,57.5659448 73.4430669,57.0656266 71.7359458,56.4429679 C68.8937707,55.4039861 66.1841699,54.0271983 63.3365465,53.0046503 C60.318211,51.920019 57.1890943,51.2791006 53.9891502,51.1129365 C52.0513861,51.0106817 50.157208,50.6546159 49.819416,48.3575349 C49.7104508,47.6070577 49.8030712,46.8803182 50.0337141,46.1937503 M52.576235,29.6722963 C49.8938755,28.7100056 47.0971026,28.081869 44.4438004,27.0447131 C41.9666587,26.0751185 39.6529647,24.670941 37.3628798,23.3178909 C32.423125,20.3999772 27.5887032,17.2574681 22.3765355,14.8526543 C19.8503594,13.68768 17.2224825,12.917117 14.6381916,11.9237847 C13.468632,11.474594 12.3335781,10.9012367 11.4200866,10.019289 C10.6936521,9.31811327 10.2468949,8.37408236 9.59128772,7.62543115 C8.44170507,9.73078443 10.5992156,12.5427914 12.0974868,13.8228024 C13.8427458,15.3164528 15.9312451,16.3718684 17.9198596,17.4765855 C22.681638,20.1242544 27.4416002,22.7792272 32.2269877,25.3830726 C41.5017406,30.4300774 51.355825,33.9998655 60.864853,38.5063805 C62.6863876,37.6865162 64.4697844,36.7899607 66.2677098,35.913491 C61.8164822,33.5780644 57.3107721,31.3704563 52.576235,29.6722963 M65.7537574,27.8937932 C63.2094205,26.6977772 60.9592895,25.0671783 58.6274347,23.5041407 C55.983213,21.7292895 53.3989221,20.7578689 50.3606097,19.9453085 C47.442159,19.1656156 45.0594537,17.5624065 42.5241972,15.9646752 C39.8599985,14.284775 37.0160074,12.9463327 34.1974414,11.5622409 C28.5003786,8.76118981 22.8033158,5.96196468 17.1044369,3.16273955 C16.7357713,4.19624342 19.1747753,5.25165902 19.779532,5.60589886 C20.8637356,6.2413394 21.9479391,6.87677994 23.0321426,7.51222048 C25.2931701,8.83240298 27.5560137,10.1489335 29.8243055,11.4545082 C34.5552104,14.1770422 39.3115405,16.8521008 44.1296175,19.4121228 C48.747925,21.864412 53.4134508,24.2327061 58.1443557,26.4530961 C62.5247559,28.5091479 67.4572464,30.4319034 70.9804539,33.9012626 C73.317757,33.101484 75.7186231,32.6212517 78.1085927,32.7216805 C74.1204671,30.8409226 69.7600438,29.780029 65.7537574,27.8937932 M69.9089629,36.4777184 C67.7260272,37.4144454 65.6266314,38.5392482 63.4818334,39.5617962 C61.4496328,40.5295648 59.3375244,41.2873459 57.2944273,42.2222469 C55.3839045,43.0968906 52.9957509,44.3604678 52.113133,46.4366054 C51.650031,47.5285406 51.6409505,48.7336865 52.9666936,48.9637598 C54.110828,49.1609654 55.3348701,49.0787964 56.4935332,49.2193968 C61.306162,49.8055359 65.5739649,51.6516002 69.9834225,53.5707037 C74.5036613,55.5391086 79.3653244,57.0875384 84.1579762,55.4624175 C84.1634245,55.4277239 84.1634245,55.3930303 84.1706888,55.3565107 C84.2251714,55.0698321 84.363194,54.7594157 84.5248257,54.5165606 C84.7754456,54.140409 85.8269596,53.457493 84.5847565,54.0089385 C83.9818159,54.2773574 83.4406221,53.879294 83.2808065,53.2931549 C82.8503941,51.7027276 79.4107266,52.2194795 78.177604,51.7794187 C76.9245044,51.3320539 75.8257722,50.393501 75.8493813,48.9327181 C75.8748065,47.4299378 77.0988487,46.5972915 78.3900861,46.2576595 C79.7430704,45.9015937 80.8635956,45.5546578 81.6681219,44.5868892 C80.6692744,44.4992422 79.6468178,44.1541322 78.7133494,43.9441447 C77.2804573,43.6245984 75.8457491,43.2703586 74.3674549,43.2612287 C71.2655794,43.2429689 68.2781174,44.4937642 65.1907706,44.5412397 C64.5079222,44.5503696 64.3462905,43.4237408 64.9801046,43.1973195 C66.5383067,42.640396 68.2290831,42.4651021 69.8508482,42.1729455 C71.3127976,41.9100046 72.7765632,41.6397598 74.2639379,41.6324558 C75.6913818,41.6251519 77.0697913,41.961132 78.4482008,42.2934601 C79.6776913,42.5910946 81.1977555,42.7426508 82.385476,43.3379198 C82.4635677,43.1388882 82.5271307,42.9453344 82.574349,42.7572586 C81.838834,42.3482394 81.123296,41.6634975 80.4967462,41.3439512 C79.3635083,40.765116 77.5619507,40.7066847 76.7610566,39.6877887 C76.6484593,39.5453623 76.6575397,39.2933773 76.8155392,39.1838186 C77.9106393,38.4096037 79.5051631,39.1600809 80.5875505,39.6731808 C81.2958242,40.0091609 81.9695922,40.4127022 82.5779811,40.8965865 C82.4236138,40.2410602 82.1275917,39.5946638 81.797064,38.8624464 C81.2540542,37.6646044 81.5682371,36.6329265 82.427246,35.8605376 C78.3410517,34.040037 73.9824446,34.7284309 69.9089629,36.4777184 M95.4213436,12.0479512 C93.8359003,9.56462038 92.1305952,7.0338141 90.2255207,4.7933384 C89.6498213,4.11590036 89.0359841,3.46950395 88.3240783,2.93814419 C87.9354358,2.63685773 87.5213681,2.37756877 87.0818752,2.15845134 C86.6296697,2.18584102 86.5170724,2.44695596 86.7458993,2.93997017 C86.6823362,3.96251816 87.0419213,5.05993127 86.9965192,6.11899884 C86.7967497,10.8537612 84.1597923,15.0005586 82.8631067,19.4522943 C81.3412264,24.667289 82.7505093,29.8512422 84.3577457,34.8325117 C85.2857659,34.5604409 86.277349,34.5275733 87.2198978,34.7704284 C87.7538272,34.9073768 88.2459866,35.2050113 88.7690194,35.2725725 C88.4947904,33.9323043 87.475966,31.1915104 87.328863,30.7258859 C86.8584966,29.2486693 86.172016,27.9248348 86.2700846,26.3435374 C86.2882455,26.0696406 86.6496467,25.8760869 86.865761,26.0678146 C88.5583534,27.568769 89.0432485,30.3917318 89.4409714,32.5682983 C89.5263274,33.0430527 89.8187173,34.0455149 89.8840964,34.9402444 C90.0965785,34.7430387 90.2981641,34.4892277 90.5560484,34.3668872 C90.779427,34.2591544 91.01007,34.213505 91.2443451,34.1879413 C91.6511484,30.5779816 92.3757669,27.0501911 92.1723652,23.3836261 C92.0797448,21.6708582 91.8382053,19.9653943 91.4550111,18.2964499 C91.0990582,16.7407161 90.2509459,15.0973354 90.3363019,13.4776924 C90.3544628,13.1289305 90.8357257,12.8605117 91.1099547,13.1179747 C92.2776982,14.2153878 92.6191224,15.9573713 93.0005006,17.4875413 C93.4781313,19.4121228 93.7650729,21.3860056 93.8576933,23.3726702 C94.0211411,26.8675932 93.6016251,30.4684229 92.7644094,33.8903067 C94.0756237,33.2512143 94.4097836,31.5475763 95.217942,30.1890482 C95.2724246,30.0977493 95.3341715,30.0137543 95.3922863,29.9261073 C95.5248606,29.3125785 95.6047684,28.6862679 95.6701475,28.0362195 C95.7972735,26.7653384 95.6029523,25.3721168 95.9734339,24.156015 C96.1060082,23.7232581 96.7815923,23.6940425 96.9359596,24.1231474 C97.3972456,25.3903766 97.1339131,26.9826299 96.9305114,28.333854 C97.5407164,27.9029231 98.2308292,27.5943327 98.9772407,27.4592103 C99.1751941,27.4245167 99.3731475,27.4044309 99.5674687,27.395301 C100.332041,21.8005027 98.4142539,16.7370642 95.4213436,12.0479512 M102.335184,33.2950377 C102.520425,31.5147086 102.362426,29.6302988 100.215812,29.3144045 C96.2476629,28.7300913 96.5109954,34.2901961 93.725119,35.7217632 C93.2147988,35.9847042 92.7208233,35.9719223 92.1759974,36.0632212 C91.4223216,36.1873878 91.3042759,36.2896426 90.779427,36.6493604 C90.4943014,36.8447401 90.3217732,37.023686 90.0112225,37.1478525 C88.6909277,37.6755603 87.624885,36.7351813 86.3536246,36.5726693 C85.8069826,36.5032821 84.9171003,36.5544095 84.2778379,36.850218 C84.1761371,36.934213 84.0617237,37.0017742 83.941862,37.0474237 C83.8401611,37.1241148 83.7511729,37.2099358 83.6839777,37.3085386 C83.2117953,37.9841507 84.0562754,38.8551425 84.2851023,39.4522374 C84.7100665,40.5624324 84.7518365,41.8022718 84.5012166,42.9617682 C84.2142749,44.2892546 83.5586678,45.5290941 82.5852455,46.4658211 C82.1185113,46.9131858 81.5773176,47.3039452 80.9907217,47.5723641 C80.282448,47.8955623 79.3598762,47.8444349 78.6933725,48.1931968 C76.5285976,49.3253035 78.893142,50.0392611 79.8320586,50.1670796 C80.6347688,50.2766383 81.4356628,50.2455967 82.2329247,50.4208906 C83.31168,50.6582679 84.1652406,51.1293703 84.6955378,51.9638425 C85.5636271,51.752029 86.4952793,51.8086344 87.0201283,52.6485845 C87.350656,53.1781183 87.3252308,53.7533015 87.0746109,54.304747 C86.7004971,55.1319153 85.5854201,56.0430786 87.2362426,56.2786299 C88.8943294,56.5160071 89.9821651,56.8720729 90.9374265,58.3876351 C91.4241376,59.16185 91.8036997,60.016408 92.2177674,60.8344464 C92.462939,61.3183307 92.6972142,61.8131709 92.9532823,62.2897513 C93.0695119,62.5015648 94.5950244,64.7347366 94.8274834,63.6117598 C94.9509773,63.0110128 95.7173657,62.3901801 96.2839847,62.9324957 C97.0412927,63.6592352 98.8119768,65.4961696 99.9452147,64.3512811 C100.479144,63.8126174 100.148616,61.9282075 100.233972,61.2233798 C100.450087,59.3919233 101.243716,57.7302828 102.465943,56.3772327 C102.533138,56.3041936 102.605781,56.2475882 102.682057,56.2001128 C102.738355,55.7436181 102.680241,55.1775648 102.736539,54.8324548 C102.818263,54.3339627 102.939941,53.8281666 103.235963,53.4100175 C103.826191,52.5791973 104.817774,52.3710357 105.754875,52.3053005 C107.160526,52.2048717 108.371855,52.5061582 108.73144,50.7806084 C109.045623,49.2741761 109.797483,48.2370203 110.721871,47.0446563 C111.123226,46.5260784 111.746144,45.8833339 111.816971,45.198592 C111.920488,44.1906518 110.932537,43.6574661 110.264217,43.1334102 C109.732104,42.7152611 109.377967,42.2605925 108.945739,41.7566224 C108.615211,41.3695149 108.807716,41.1339637 108.190247,40.9842335 C107.921466,40.9203242 107.51103,41.1138779 107.224089,41.104748 C106.181655,41.0718804 105.495175,40.4510477 105.110164,39.4942349 C104.923107,39.0322624 104.855912,38.5246403 104.723338,38.046234 C104.421867,36.9524728 103.869777,36.8593479 103.119734,36.1727799 C102.291598,35.4131729 102.222587,34.3632352 102.335184,33.2950377 M124.155462,36.2330372 C125.208792,34.6572177 127.037591,32.506215 127.199222,30.5305062 C127.428049,27.733107 123.045833,29.9827126 121.823607,30.3679941 C119.92398,30.9687411 117.978952,31.397846 116.006682,31.6315713 C112.102097,32.0953698 108.050408,31.569488 104.247523,32.7417662 C104.145822,33.276778 103.978742,33.9250003 104.118581,34.3431494 C104.374649,35.1137124 105.477014,35.405869 105.921955,36.1125227 C106.201632,36.5562354 106.339655,37.0583795 106.472229,37.5623496 C106.559401,37.8946777 106.586642,38.4516012 106.768251,38.7382798 C107.17687,39.3865022 107.609099,39.147299 108.26289,39.1235613 C109.546863,39.0742599 109.901,39.9050801 110.471251,40.7231185 C110.523918,40.7030328 110.582032,40.684773 110.647411,40.6628612 C111.508236,40.3944424 112.354533,40.2063666 113.17722,39.8137812 C113.918183,39.4613673 114.601031,39.0085247 115.256639,38.5118585 C115.812361,38.0900574 116.246406,37.6116511 116.954679,37.5660016 C117.161713,37.5532197 117.312448,37.6883422 117.307,37.9056336 C117.277943,39.4211958 115.122248,40.5021751 113.958137,41.0682285 C113.418759,41.3311694 112.557934,41.7712302 111.731615,41.9739138 C112.721382,42.7682145 113.674827,43.5442554 113.64577,45.025124 C113.61308,46.6758086 112.316395,47.8773025 111.424696,49.117142 C111.272145,49.3289555 111.152283,49.5590288 111.048766,49.798232 C114.593767,48.7099487 117.454103,44.9082614 119.695154,42.218595 C121.286045,40.3086214 122.771604,38.3055229 124.155462,36.2330372 M118.885179,56.3443651 C120.112853,56.5433968 121.345976,56.7259946 122.579099,56.8775508 C125.226952,57.204401 127.894783,57.3796949 130.562614,57.3961287 C133.154169,57.4125626 135.743908,57.2719622 138.320935,56.9962394 C139.737482,56.8446832 141.150397,56.6493035 142.556048,56.4082743 C143.082713,56.3188014 143.609378,56.2220245 144.134227,56.1197697 C144.53195,56.0430786 146.46245,55.9956032 145.639763,55.0552242 C144.995052,54.3157029 142.64322,55.0807879 141.791476,55.2286922 C140.480262,55.4587655 139.159967,55.5975399 137.832408,55.6450153 C135.317128,55.7363142 132.823642,55.4806772 130.368293,54.9420136 C125.127068,53.795299 120.214554,51.5548233 115.322018,49.3946907 C113.983562,50.4354985 112.532509,51.2170173 110.967043,51.4708283 C112.888462,52.5938051 114.49025,54.0947595 115.783304,55.8458729 C116.818473,55.8495249 117.873619,56.180027 118.885179,56.3443651 M109.931873,52.8311823 C109.735736,53.1306428 109.490564,53.3954097 109.154588,53.5999193 C107.979581,54.3175289 106.661102,53.8519044 105.426163,54.1513648 C107.505582,54.7922833 109.94277,56.4502719 110.247872,58.3182479 C110.315068,58.7254411 109.866494,59.1910657 109.461507,58.9810781 C108.491717,58.4771081 107.910569,57.5075134 107.020687,56.8556391 C106.181655,56.2384583 105.291773,55.926216 104.374649,55.586584 C104.321983,55.9043043 104.287477,56.2439363 104.234811,56.5744384 C106.628412,56.6529555 109.096474,60.8234905 109.935506,62.4906089 C110.821756,64.2490263 111.540926,66.1096984 112.178372,67.9776745 C112.630578,69.3069869 113.55315,71.0964459 112.839428,72.4348882 C112.741359,72.617486 112.487107,72.6101821 112.340004,72.5188832 C111.226743,71.8286633 111.108697,70.146937 110.718239,68.960051 C110.211551,67.4134471 109.635851,65.886929 108.98206,64.4005825 C108.359143,62.9891011 107.645421,61.6378769 106.682895,60.4345571 C106.094483,59.6968617 105.467933,58.9646443 104.683384,58.4387625 C104.325615,58.1995593 104.015064,58.057133 103.735387,57.8690572 C103.720858,57.883665 103.709962,57.9037508 103.695433,57.9183586 C103.615525,58.0023536 103.528353,58.058959 103.435733,58.0936526 C103.295894,58.2817283 103.165136,58.4734561 103.041642,58.6724878 C103.922444,59.5489575 104.465454,61.2452915 104.797797,62.1710627 C105.364416,63.7468822 106.16531,66.0074436 105.471565,67.6362165 C105.282692,68.0799293 104.725154,68.0817553 104.50904,67.6709101 C103.737203,66.2046493 103.84072,64.190595 103.29771,62.5928637 C103.039826,61.8332566 102.716562,61.1010392 102.355161,60.3870816 C102.338816,60.352388 102.31884,60.3213464 102.302495,60.2866528 C102.140863,60.8052307 102.039162,61.3457204 102.015553,61.9135997 C101.962887,63.1424833 102.309759,64.3476291 101.481624,65.3957408 C100.468248,66.6794037 99.1406884,66.7232272 97.8839567,66.2466468 C97.6968998,67.1578101 97.469889,68.0854072 97.1992922,69.0166563 C99.1079989,73.6929874 104.031409,75.688782 107.184135,79.3060455 C108.651533,80.9877717 109.614058,82.9433948 109.728472,85.2149121 C109.777506,86.1790288 109.85015,87.2289664 111.025157,86.6537832 C111.566351,86.3890163 112.054878,85.567326 112.428992,85.0980495 C113.240783,84.0828054 113.978114,83.007304 114.639169,81.8825012 C120.294462,72.2468124 118.805271,59.587303 109.931873,52.8311823 M133.292192,67.5576994 C135.883747,67.5796112 138.395394,68.105493 140.928835,68.5875513 C142.855702,68.954573 145.935785,69.8748662 147.851756,68.7738011 C144.680869,64.3293693 137.231283,66.2630806 132.67109,64.8497732 C130.028685,64.0299089 127.656876,62.5326064 125.058056,61.5977054 C122.878753,60.8143606 120.606829,60.5970692 118.320376,60.5075962 C119.044995,62.3792242 119.528074,64.3731928 119.775061,66.3945511 C123.91937,68.6569385 128.786482,67.5175279 133.292192,67.5576994" id="Fill-5" fill="#9E0C40"></path>
                <path d="M119.215707,75.8421642 C118.594605,78.2926274 117.601206,80.6317059 116.344474,82.8119243 C115.222133,84.7584175 113.772896,87.1376675 111.905959,88.4304603 C110.454906,89.4365745 108.613395,89.1352881 108.024983,87.3220914 C107.71988,86.3798864 107.899673,85.3555124 107.730777,84.3895698 C107.500134,83.0693873 106.810021,81.9062389 105.978253,80.8928208 C103.185113,77.4800669 98.6067591,75.5061841 96.2966973,71.6771071 C94.4896914,76.3223965 91.5022294,80.6061422 87.0110479,82.4394247 C83.8492416,83.7285656 80.3623558,83.5843132 77.0262052,83.6372666 C73.9388585,83.688394 69.6220213,84.5666897 67.1067417,82.2842165 C66.7889266,81.9957119 66.587341,81.557477 66.7616853,81.1210682 C67.638855,78.9298939 69.4803665,77.8050911 71.1965681,76.36622 C72.2008639,75.5244439 73.0489762,74.6096286 73.1960792,73.2419707 C73.3322856,71.9838715 73.0398957,70.6691669 73.0108384,69.4074157 C72.9309306,65.8814511 73.8371576,62.4449595 75.7222553,59.589129 C73.2469296,58.6286643 70.7262018,58.7656127 68.0547388,58.4752821 C65.1962189,58.1648657 62.3722047,57.2500505 59.6099374,56.4867914 C53.417083,54.7740235 47.400389,52.7234496 41.6869814,49.7306708 C36.167895,46.8383207 30.465384,44.6453205 24.5503908,42.7426508 C18.7262019,40.8673708 12.6441288,39.2586837 7.15046769,36.4923262 C2.62659665,34.2153309 -1.98626262,29.1993678 0.894050293,23.7616037 C1.23184235,23.1261631 2.12354074,23.392756 2.38505717,23.9149859 C2.96257262,25.0671783 3.5364559,26.2193708 4.12850004,27.3642594 C4.39183256,27.8718814 4.66969377,28.6314885 5.01838234,29.0788532 C5.59952997,29.8238525 5.90644856,29.7124678 6.6982622,29.8037667 C8.87393362,30.0502738 11.0205477,30.4921606 13.1381043,31.0436062 C17.4567576,32.164757 21.9443069,33.5050253 26.0196046,35.3456117 C28.0136674,36.2458191 29.6935473,37.4874845 31.4351741,38.8040151 C33.4292369,40.3122733 35.6285174,41.3585591 37.9676366,42.1875533 C42.1682443,43.6757258 46.5740697,44.3677717 51.0216651,44.3604678 C51.3612733,43.9021472 51.7480996,43.4785202 52.1512708,43.1005426 C54.0890349,41.2909979 56.6115788,40.2848837 59.014261,39.3025072 C48.1740417,35.4569964 37.6970397,30.7094521 27.5995997,25.1566513 C24.9045276,23.6739567 22.2076394,22.1912621 19.5125673,20.7085675 C17.0208969,19.3372576 14.4002843,18.0882883 12.0484525,16.4741232 C8.71048585,14.1825202 5.11281883,9.13551542 8.88846231,5.46895047 C9.18630047,5.18044586 9.72386202,5.19870564 10.039861,5.43425688 C10.9878581,6.14273656 11.4436958,7.10320128 12.1392568,8.03262437 C13.1344721,9.36193676 14.6236629,9.95172783 16.1291985,10.4611759 C18.8460636,11.381469 21.4975497,12.3328039 24.0872888,13.5835992 C28.9652967,15.9354596 33.5490986,18.8515473 38.2164404,21.5978191 C40.6300191,23.0184304 43.0544944,24.4792133 45.6950839,25.4268961 C48.3665469,26.3873608 51.1360785,27.0465391 53.8075415,28.0216117 C58.8925833,29.8749799 63.7651429,32.2761417 68.5269212,34.8562494 C68.8411042,34.719301 69.1552871,34.5896565 69.46947,34.461838 C67.0232017,33.0010552 64.5987265,31.5621841 62.001723,30.3552123 C59.3593174,29.1281547 56.6933027,27.9595284 54.0599775,26.7105591 C48.7842468,24.2107944 43.6102168,21.4955643 38.4870373,18.6872093 C33.2548926,15.8185969 28.0808626,12.8422519 22.9231774,9.83669119 C21.6573653,9.09899585 20.3915531,8.35947453 19.1257409,7.61812724 C18.0506178,6.98816463 16.770277,6.45132694 15.8731303,5.55659744 C14.6073182,4.29302028 14.8198003,2.26801006 16.2726693,1.23450619 C16.5269214,1.05190834 16.8865065,0.931393751 17.1879768,1.07929801 C23.0793609,3.96434414 28.972561,6.84939026 34.8639451,9.73626236 C37.6534537,11.1020943 40.4756518,12.4241028 43.13077,14.0510497 C45.8966695,15.7455578 48.390156,17.4254581 51.5610427,18.2343666 C54.3759766,18.9501502 56.8331414,19.9708722 59.2775936,21.5704294 C61.8891257,23.2777194 64.3444744,25.1128278 67.2138908,26.3691011 C71.9357153,28.4379348 77.020757,29.606561 81.4629041,32.250578 C80.5512288,29.011292 79.9210468,25.6861851 80.2697354,22.3081247 C80.7473661,17.6683132 83.2499331,13.6529864 84.4921361,9.23229228 C84.7936065,8.15679091 85.0006403,7.0502479 85.0315138,5.93274903 C85.0642033,4.78055655 84.7282274,3.69409931 84.7118826,2.55468869 C84.6810091,0.454813347 86.193809,-0.584168453 88.0552975,0.337950719 C90.4289223,1.51205493 92.0688483,3.75983454 93.5834643,5.88162163 C95.2433672,8.20609233 96.8978218,10.5506488 98.288944,13.0577174 C100.671649,17.3542449 102.346081,22.6605386 101.172889,27.6144184 C102.618494,28.0909988 103.768076,29.2797109 104.167615,30.7952731 C108.720544,29.5937792 113.52046,30.3150407 118.140584,29.4057034 C119.671544,29.1062429 121.175264,28.6862679 122.644478,28.1494302 C123.581578,27.8079722 124.520495,27.395301 125.517526,27.2875683 C127.233728,27.0976665 128.824619,28.0508273 129.00986,29.8987176 C129.222342,32.0040709 127.671405,34.0802085 126.632603,35.7345451 C125.361343,37.7613813 123.979301,39.7097004 122.497375,41.5795025 C127.182877,42.5235334 131.256359,45.2314596 135.860138,46.5224264 C138.497095,47.2601218 141.259363,47.5084548 143.990756,47.5212367 C146.297186,47.5321926 148.741638,47.2655997 150.630368,48.8779388 C151.184274,49.3526932 151.106183,50.1616017 150.459656,50.5121896 C148.358444,51.6516002 146.008428,51.7721148 143.680206,51.7191614 C140.700008,51.6534262 137.717994,51.500044 134.737797,51.3868333 C131.895621,51.2809265 129.175124,51.1658899 126.432834,50.3405476 C123.434475,49.4385142 120.472438,48.4050103 117.501321,47.4171559 C117.363299,47.5595822 117.22346,47.7001826 117.081805,47.838957 C121.211586,49.7032811 125.370423,51.5767351 129.758088,52.7197977 C132.197092,53.3552382 134.69421,53.7186079 137.216754,53.7204339 C139.583115,53.7240859 141.865935,53.0740375 144.210503,53.03204 C145.71059,53.0064763 147.813618,53.5597478 148.064238,55.3765965 C148.343915,57.4034327 145.806843,57.6992412 144.424801,57.9749639 C139.799229,58.8970831 135.088301,59.3207101 130.382822,59.2787126 C127.624186,59.2549749 124.869183,59.0632472 122.135974,58.7090073 C120.810231,58.5373653 119.4972,58.314596 118.187802,58.0425252 C117.819136,57.9658341 117.437758,57.8982728 117.058196,57.8215817 C117.156265,57.9968757 117.25615,58.1739956 117.34877,58.3529415 C120.218186,58.4314586 123.051281,58.6304903 125.773594,59.6384304 C128.788298,60.7541033 131.528772,62.6659029 134.708739,63.3177772 C140.053481,64.4133643 146.723966,62.9032801 149.949336,68.6112891 C150.170898,69.0038744 149.94752,69.4567171 149.678739,69.7397438 C147.944376,71.5693743 145.216615,71.2206124 142.984645,70.8882843 C139.848263,70.4226598 136.771813,69.5589719 133.586398,69.4768029 C129.060711,69.3581143 124.122772,70.3989221 119.940325,68.3501741 C120.062003,70.9101961 119.816831,73.470218 119.215707,75.8421642 Z M126.521822,48.3593609 C129.115193,49.1682694 131.61776,49.3472153 134.311016,49.4476441 C136.957054,49.5462469 139.604908,49.6448498 142.250946,49.7434526 C144.101538,49.8110138 145.933969,49.8877049 147.704653,49.4859896 C145.953946,49.0641886 143.836389,49.4366882 142.167406,49.3837348 C139.806493,49.3052177 137.461926,48.9984534 135.179106,48.3885765 C130.319259,47.0884798 126.004237,44.0756152 120.960966,43.4529565 C120.308991,44.2253454 119.607981,45.0817293 118.856122,45.9399393 C121.413171,46.7433698 123.964772,47.5595822 126.521822,48.3593609 Z M75.5025088,64.5119672 C74.7869708,67.0135578 74.9576829,69.4256755 75.106602,71.9802195 C75.2210154,73.9102788 74.7669938,75.5427037 73.4303543,76.959663 C72.0446804,78.4259238 69.9906868,79.3809106 68.9391728,81.1411539 C71.192936,82.4302948 74.8051317,81.7838984 77.2059978,81.7765945 C80.3096893,81.7656386 83.6240469,81.9683222 86.5552102,80.7175269 C92.7952828,78.0552502 94.4279444,71.3520829 96.4674094,65.4888657 C96.2858007,65.3665252 96.1114565,65.2387067 95.9443765,65.1054102 C95.3105624,65.7152871 94.3716458,65.9344045 93.430913,65.5546009 C91.769194,64.8844668 90.9228978,62.5453883 90.1637737,60.9001816 C90.149245,61.119299 90.1310842,61.3311125 90.1129233,61.5283182 C89.9640042,63.1716989 89.4700288,64.7657782 88.7290655,66.232039 C87.2707482,69.1207371 84.3032632,72.8457333 81.1923073,73.9139308 C80.7618948,74.063661 80.3078732,73.6035144 80.6075275,73.1780614 C81.4774328,71.9473519 82.7977276,71.0654042 83.878299,70.0300744 C85.1350307,68.8267545 86.2755329,67.4645745 87.1327256,65.9325785 C87.8664245,64.6196999 88.3967217,63.1297014 88.6073877,61.634225 C88.7544907,60.5861133 88.4947904,59.499656 88.5510891,58.4661522 C88.2568831,58.2981622 87.9318036,58.2360789 87.5994598,58.2032113 C87.5013912,58.5738849 87.4269316,58.9555144 87.2798286,59.3134062 C87.0292087,59.9214571 86.6496467,60.4929884 86.2446594,61.0006104 C85.5890523,61.8223008 84.7645491,62.998231 83.647656,62.9270178 C83.3788752,62.910584 83.2008988,62.651295 83.2154274,62.3920061 C83.2717261,61.2562474 84.5847565,60.5568976 85.2094902,59.6895578 C85.5654431,59.1928916 85.7597644,58.5410173 86.0194647,57.9512262 C85.5636271,57.8051479 85.1441111,57.5805526 84.7954225,57.2171828 C84.6628482,57.0784085 84.5466187,56.9250263 84.446734,56.7606882 C82.9085089,57.5148174 81.2631346,57.8635793 79.586887,57.9128807 C79.5723583,57.9293145 79.5614617,57.9475743 79.545117,57.9621821 C77.6636515,59.7972906 76.2362077,61.9482933 75.5025088,64.5119672 Z M50.0337141,46.1937503 C45.802233,46.1134072 41.6052575,45.3976236 37.5989711,44.006228 C35.4232996,43.2502728 33.2766856,42.3208498 31.3643467,41.0116231 C29.1015031,39.4668453 27.1655551,37.7650333 24.6085056,36.6931838 C20.1136919,34.808774 15.2629253,33.2457363 10.5065952,32.2213623 C9.28618521,31.9584214 8.05487868,31.7447819 6.81449172,31.5968777 C6.00451722,31.5001008 5.0637845,31.5274905 4.36459127,31.0253464 C3.62544413,30.4903347 3.26949121,29.4312671 2.8717683,28.6442703 C2.53216016,27.9704843 2.18891984,27.3003501 1.84204736,26.632042 C1.31719841,31.6096595 7.43014499,34.6499138 11.4128223,36.1965177 C16.6921853,38.2470916 22.1386282,39.8083033 27.5033472,41.5959363 C33.0569392,43.4456526 38.24913,45.7628193 43.4431369,48.4670936 C48.6026381,51.1531081 54.0944832,52.9772606 59.6607878,54.5749919 C62.8171458,55.4806772 66.0170899,56.6419996 69.3096544,56.8757249 C71.9575083,57.0619747 74.2058232,57.3157857 76.495908,58.5099757 C76.6902293,58.2652945 76.8899988,58.0260913 77.1006648,57.7923661 C75.2646015,57.5659448 73.4430669,57.0656266 71.7359458,56.4429679 C68.8937707,55.4039861 66.1841699,54.0271983 63.3365465,53.0046503 C60.318211,51.920019 57.1890943,51.2791006 53.9891502,51.1129365 C52.0513861,51.0106817 50.157208,50.6546159 49.819416,48.3575349 C49.7104508,47.6070577 49.8030712,46.8803182 50.0337141,46.1937503 Z M52.576235,29.6722963 C49.8938755,28.7100056 47.0971026,28.081869 44.4438004,27.0447131 C41.9666587,26.0751185 39.6529647,24.670941 37.3628798,23.3178909 C32.423125,20.3999772 27.5887032,17.2574681 22.3765355,14.8526543 C19.8503594,13.68768 17.2224825,12.917117 14.6381916,11.9237847 C13.468632,11.474594 12.3335781,10.9012367 11.4200866,10.019289 C10.6936521,9.31811327 10.2468949,8.37408236 9.59128772,7.62543115 C8.44170507,9.73078443 10.5992156,12.5427914 12.0974868,13.8228024 C13.8427458,15.3164528 15.9312451,16.3718684 17.9198596,17.4765855 C22.681638,20.1242544 27.4416002,22.7792272 32.2269877,25.3830726 C41.5017406,30.4300774 51.355825,33.9998655 60.864853,38.5063805 C62.6863876,37.6865162 64.4697844,36.7899607 66.2677098,35.913491 C61.8164822,33.5780644 57.3107721,31.3704563 52.576235,29.6722963 Z M65.7537574,27.8937932 C63.2094205,26.6977772 60.9592895,25.0671783 58.6274347,23.5041407 C55.983213,21.7292895 53.3989221,20.7578689 50.3606097,19.9453085 C47.442159,19.1656156 45.0594537,17.5624065 42.5241972,15.9646752 C39.8599985,14.284775 37.0160074,12.9463327 34.1974414,11.5622409 C28.5003786,8.76118981 22.8033158,5.96196468 17.1044369,3.16273955 C16.7357713,4.19624342 19.1747753,5.25165902 19.779532,5.60589886 C20.8637356,6.2413394 21.9479391,6.87677994 23.0321426,7.51222048 C25.2931701,8.83240298 27.5560137,10.1489335 29.8243055,11.4545082 C34.5552104,14.1770422 39.3115405,16.8521008 44.1296175,19.4121228 C48.747925,21.864412 53.4134508,24.2327061 58.1443557,26.4530961 C62.5247559,28.5091479 67.4572464,30.4319034 70.9804539,33.9012626 C73.317757,33.101484 75.7186231,32.6212517 78.1085927,32.7216805 C74.1204671,30.8409226 69.7600438,29.780029 65.7537574,27.8937932 Z M69.9089629,36.4777184 C67.7260272,37.4144454 65.6266314,38.5392482 63.4818334,39.5617962 C61.4496328,40.5295648 59.3375244,41.2873459 57.2944273,42.2222469 C55.3839045,43.0968906 52.9957509,44.3604678 52.113133,46.4366054 C51.650031,47.5285406 51.6409505,48.7336865 52.9666936,48.9637598 C54.110828,49.1609654 55.3348701,49.0787964 56.4935332,49.2193968 C61.306162,49.8055359 65.5739649,51.6516002 69.9834225,53.5707037 C74.5036613,55.5391086 79.3653244,57.0875384 84.1579762,55.4624175 C84.1634245,55.4277239 84.1634245,55.3930303 84.1706888,55.3565107 C84.2251714,55.0698321 84.363194,54.7594157 84.5248257,54.5165606 C84.7754456,54.140409 85.8269596,53.457493 84.5847565,54.0089385 C83.9818159,54.2773574 83.4406221,53.879294 83.2808065,53.2931549 C82.8503941,51.7027276 79.4107266,52.2194795 78.177604,51.7794187 C76.9245044,51.3320539 75.8257722,50.393501 75.8493813,48.9327181 C75.8748065,47.4299378 77.0988487,46.5972915 78.3900861,46.2576595 C79.7430704,45.9015937 80.8635956,45.5546578 81.6681219,44.5868892 C80.6692744,44.4992422 79.6468178,44.1541322 78.7133494,43.9441447 C77.2804573,43.6245984 75.8457491,43.2703586 74.3674549,43.2612287 C71.2655794,43.2429689 68.2781174,44.4937642 65.1907706,44.5412397 C64.5079222,44.5503696 64.3462905,43.4237408 64.9801046,43.1973195 C66.5383067,42.640396 68.2290831,42.4651021 69.8508482,42.1729455 C71.3127976,41.9100046 72.7765632,41.6397598 74.2639379,41.6324558 C75.6913818,41.6251519 77.0697913,41.961132 78.4482008,42.2934601 C79.6776913,42.5910946 81.1977555,42.7426508 82.385476,43.3379198 C82.4635677,43.1388882 82.5271307,42.9453344 82.574349,42.7572586 C81.838834,42.3482394 81.123296,41.6634975 80.4967462,41.3439512 C79.3635083,40.765116 77.5619507,40.7066847 76.7610566,39.6877887 C76.6484593,39.5453623 76.6575397,39.2933773 76.8155392,39.1838186 C77.9106393,38.4096037 79.5051631,39.1600809 80.5875505,39.6731808 C81.2958242,40.0091609 81.9695922,40.4127022 82.5779811,40.8965865 C82.4236138,40.2410602 82.1275917,39.5946638 81.797064,38.8624464 C81.2540542,37.6646044 81.5682371,36.6329265 82.427246,35.8605376 C78.3410517,34.040037 73.9824446,34.7284309 69.9089629,36.4777184 Z M95.4213436,12.0479512 C93.8359003,9.56462038 92.1305952,7.0338141 90.2255207,4.7933384 C89.6498213,4.11590036 89.0359841,3.46950395 88.3240783,2.93814419 C87.9354358,2.63685773 87.5213681,2.37756877 87.0818752,2.15845134 C86.6296697,2.18584102 86.5170724,2.44695596 86.7458993,2.93997017 C86.6823362,3.96251816 87.0419213,5.05993127 86.9965192,6.11899884 C86.7967497,10.8537612 84.1597923,15.0005586 82.8631067,19.4522943 C81.3412264,24.667289 82.7505093,29.8512422 84.3577457,34.8325117 C85.2857659,34.5604409 86.277349,34.5275733 87.2198978,34.7704284 C87.7538272,34.9073768 88.2459866,35.2050113 88.7690194,35.2725725 C88.4947904,33.9323043 87.475966,31.1915104 87.328863,30.7258859 C86.8584966,29.2486693 86.172016,27.9248348 86.2700846,26.3435374 C86.2882455,26.0696406 86.6496467,25.8760869 86.865761,26.0678146 C88.5583534,27.568769 89.0432485,30.3917318 89.4409714,32.5682983 C89.5263274,33.0430527 89.8187173,34.0455149 89.8840964,34.9402444 C90.0965785,34.7430387 90.2981641,34.4892277 90.5560484,34.3668872 C90.779427,34.2591544 91.01007,34.213505 91.2443451,34.1879413 C91.6511484,30.5779816 92.3757669,27.0501911 92.1723652,23.3836261 C92.0797448,21.6708582 91.8382053,19.9653943 91.4550111,18.2964499 C91.0990582,16.7407161 90.2509459,15.0973354 90.3363019,13.4776924 C90.3544628,13.1289305 90.8357257,12.8605117 91.1099547,13.1179747 C92.2776982,14.2153878 92.6191224,15.9573713 93.0005006,17.4875413 C93.4781313,19.4121228 93.7650729,21.3860056 93.8576933,23.3726702 C94.0211411,26.8675932 93.6016251,30.4684229 92.7644094,33.8903067 C94.0756237,33.2512143 94.4097836,31.5475763 95.217942,30.1890482 C95.2724246,30.0977493 95.3341715,30.0137543 95.3922863,29.9261073 C95.5248606,29.3125785 95.6047684,28.6862679 95.6701475,28.0362195 C95.7972735,26.7653384 95.6029523,25.3721168 95.9734339,24.156015 C96.1060082,23.7232581 96.7815923,23.6940425 96.9359596,24.1231474 C97.3972456,25.3903766 97.1339131,26.9826299 96.9305114,28.333854 C97.5407164,27.9029231 98.2308292,27.5943327 98.9772407,27.4592103 C99.1751941,27.4245167 99.3731475,27.4044309 99.5674687,27.395301 C100.332041,21.8005027 98.4142539,16.7370642 95.4213436,12.0479512 Z M102.335184,33.2950377 C102.520425,31.5147086 102.362426,29.6302988 100.215812,29.3144045 C96.2476629,28.7300913 96.5109954,34.2901961 93.725119,35.7217632 C93.2147988,35.9847042 92.7208233,35.9719223 92.1759974,36.0632212 C91.4223216,36.1873878 91.3042759,36.2896426 90.779427,36.6493604 C90.4943014,36.8447401 90.3217732,37.023686 90.0112225,37.1478525 C88.6909277,37.6755603 87.624885,36.7351813 86.3536246,36.5726693 C85.8069826,36.5032821 84.9171003,36.5544095 84.2778379,36.850218 C84.1761371,36.934213 84.0617237,37.0017742 83.941862,37.0474237 C83.8401611,37.1241148 83.7511729,37.2099358 83.6839777,37.3085386 C83.2117953,37.9841507 84.0562754,38.8551425 84.2851023,39.4522374 C84.7100665,40.5624324 84.7518365,41.8022718 84.5012166,42.9617682 C84.2142749,44.2892546 83.5586678,45.5290941 82.5852455,46.4658211 C82.1185113,46.9131858 81.5773176,47.3039452 80.9907217,47.5723641 C80.282448,47.8955623 79.3598762,47.8444349 78.6933725,48.1931968 C76.5285976,49.3253035 78.893142,50.0392611 79.8320586,50.1670796 C80.6347688,50.2766383 81.4356628,50.2455967 82.2329247,50.4208906 C83.31168,50.6582679 84.1652406,51.1293703 84.6955378,51.9638425 C85.5636271,51.752029 86.4952793,51.8086344 87.0201283,52.6485845 C87.350656,53.1781183 87.3252308,53.7533015 87.0746109,54.304747 C86.7004971,55.1319153 85.5854201,56.0430786 87.2362426,56.2786299 C88.8943294,56.5160071 89.9821651,56.8720729 90.9374265,58.3876351 C91.4241376,59.16185 91.8036997,60.016408 92.2177674,60.8344464 C92.462939,61.3183307 92.6972142,61.8131709 92.9532823,62.2897513 C93.0695119,62.5015648 94.5950244,64.7347366 94.8274834,63.6117598 C94.9509773,63.0110128 95.7173657,62.3901801 96.2839847,62.9324957 C97.0412927,63.6592352 98.8119768,65.4961696 99.9452147,64.3512811 C100.479144,63.8126174 100.148616,61.9282075 100.233972,61.2233798 C100.450087,59.3919233 101.243716,57.7302828 102.465943,56.3772327 C102.533138,56.3041936 102.605781,56.2475882 102.682057,56.2001128 C102.738355,55.7436181 102.680241,55.1775648 102.736539,54.8324548 C102.818263,54.3339627 102.939941,53.8281666 103.235963,53.4100175 C103.826191,52.5791973 104.817774,52.3710357 105.754875,52.3053005 C107.160526,52.2048717 108.371855,52.5061582 108.73144,50.7806084 C109.045623,49.2741761 109.797483,48.2370203 110.721871,47.0446563 C111.123226,46.5260784 111.746144,45.8833339 111.816971,45.198592 C111.920488,44.1906518 110.932537,43.6574661 110.264217,43.1334102 C109.732104,42.7152611 109.377967,42.2605925 108.945739,41.7566224 C108.615211,41.3695149 108.807716,41.1339637 108.190247,40.9842335 C107.921466,40.9203242 107.51103,41.1138779 107.224089,41.104748 C106.181655,41.0718804 105.495175,40.4510477 105.110164,39.4942349 C104.923107,39.0322624 104.855912,38.5246403 104.723338,38.046234 C104.421867,36.9524728 103.869777,36.8593479 103.119734,36.1727799 C102.291598,35.4131729 102.222587,34.3632352 102.335184,33.2950377 Z M124.155462,36.2330372 C125.208792,34.6572177 127.037591,32.506215 127.199222,30.5305062 C127.428049,27.733107 123.045833,29.9827126 121.823607,30.3679941 C119.92398,30.9687411 117.978952,31.397846 116.006682,31.6315713 C112.102097,32.0953698 108.050408,31.569488 104.247523,32.7417662 C104.145822,33.276778 103.978742,33.9250003 104.118581,34.3431494 C104.374649,35.1137124 105.477014,35.405869 105.921955,36.1125227 C106.201632,36.5562354 106.339655,37.0583795 106.472229,37.5623496 C106.559401,37.8946777 106.586642,38.4516012 106.768251,38.7382798 C107.17687,39.3865022 107.609099,39.147299 108.26289,39.1235613 C109.546863,39.0742599 109.901,39.9050801 110.471251,40.7231185 C110.523918,40.7030328 110.582032,40.684773 110.647411,40.6628612 C111.508236,40.3944424 112.354533,40.2063666 113.17722,39.8137812 C113.918183,39.4613673 114.601031,39.0085247 115.256639,38.5118585 C115.812361,38.0900574 116.246406,37.6116511 116.954679,37.5660016 C117.161713,37.5532197 117.312448,37.6883422 117.307,37.9056336 C117.277943,39.4211958 115.122248,40.5021751 113.958137,41.0682285 C113.418759,41.3311694 112.557934,41.7712302 111.731615,41.9739138 C112.721382,42.7682145 113.674827,43.5442554 113.64577,45.025124 C113.61308,46.6758086 112.316395,47.8773025 111.424696,49.117142 C111.272145,49.3289555 111.152283,49.5590288 111.048766,49.798232 C114.593767,48.7099487 117.454103,44.9082614 119.695154,42.218595 C121.286045,40.3086214 122.771604,38.3055229 124.155462,36.2330372 Z M118.885179,56.3443651 C120.112853,56.5433968 121.345976,56.7259946 122.579099,56.8775508 C125.226952,57.204401 127.894783,57.3796949 130.562614,57.3961287 C133.154169,57.4125626 135.743908,57.2719622 138.320935,56.9962394 C139.737482,56.8446832 141.150397,56.6493035 142.556048,56.4082743 C143.082713,56.3188014 143.609378,56.2220245 144.134227,56.1197697 C144.53195,56.0430786 146.46245,55.9956032 145.639763,55.0552242 C144.995052,54.3157029 142.64322,55.0807879 141.791476,55.2286922 C140.480262,55.4587655 139.159967,55.5975399 137.832408,55.6450153 C135.317128,55.7363142 132.823642,55.4806772 130.368293,54.9420136 C125.127068,53.795299 120.214554,51.5548233 115.322018,49.3946907 C113.983562,50.4354985 112.532509,51.2170173 110.967043,51.4708283 C112.888462,52.5938051 114.49025,54.0947595 115.783304,55.8458729 C116.818473,55.8495249 117.873619,56.180027 118.885179,56.3443651 Z M109.931873,52.8311823 C109.735736,53.1306428 109.490564,53.3954097 109.154588,53.5999193 C107.979581,54.3175289 106.661102,53.8519044 105.426163,54.1513648 C107.505582,54.7922833 109.94277,56.4502719 110.247872,58.3182479 C110.315068,58.7254411 109.866494,59.1910657 109.461507,58.9810781 C108.491717,58.4771081 107.910569,57.5075134 107.020687,56.8556391 C106.181655,56.2384583 105.291773,55.926216 104.374649,55.586584 C104.321983,55.9043043 104.287477,56.2439363 104.234811,56.5744384 C106.628412,56.6529555 109.096474,60.8234905 109.935506,62.4906089 C110.821756,64.2490263 111.540926,66.1096984 112.178372,67.9776745 C112.630578,69.3069869 113.55315,71.0964459 112.839428,72.4348882 C112.741359,72.617486 112.487107,72.6101821 112.340004,72.5188832 C111.226743,71.8286633 111.108697,70.146937 110.718239,68.960051 C110.211551,67.4134471 109.635851,65.886929 108.98206,64.4005825 C108.359143,62.9891011 107.645421,61.6378769 106.682895,60.4345571 C106.094483,59.6968617 105.467933,58.9646443 104.683384,58.4387625 C104.325615,58.1995593 104.015064,58.057133 103.735387,57.8690572 C103.720858,57.883665 103.709962,57.9037508 103.695433,57.9183586 C103.615525,58.0023536 103.528353,58.058959 103.435733,58.0936526 C103.295894,58.2817283 103.165136,58.4734561 103.041642,58.6724878 C103.922444,59.5489575 104.465454,61.2452915 104.797797,62.1710627 C105.364416,63.7468822 106.16531,66.0074436 105.471565,67.6362165 C105.282692,68.0799293 104.725154,68.0817553 104.50904,67.6709101 C103.737203,66.2046493 103.84072,64.190595 103.29771,62.5928637 C103.039826,61.8332566 102.716562,61.1010392 102.355161,60.3870816 C102.338816,60.352388 102.31884,60.3213464 102.302495,60.2866528 C102.140863,60.8052307 102.039162,61.3457204 102.015553,61.9135997 C101.962887,63.1424833 102.309759,64.3476291 101.481624,65.3957408 C100.468248,66.6794037 99.1406884,66.7232272 97.8839567,66.2466468 C97.6968998,67.1578101 97.469889,68.0854072 97.1992922,69.0166563 C99.1079989,73.6929874 104.031409,75.688782 107.184135,79.3060455 C108.651533,80.9877717 109.614058,82.9433948 109.728472,85.2149121 C109.777506,86.1790288 109.85015,87.2289664 111.025157,86.6537832 C111.566351,86.3890163 112.054878,85.567326 112.428992,85.0980495 C113.240783,84.0828054 113.978114,83.007304 114.639169,81.8825012 C120.294462,72.2468124 118.805271,59.587303 109.931873,52.8311823 Z M133.292192,67.5576994 C135.883747,67.5796112 138.395394,68.105493 140.928835,68.5875513 C142.855702,68.954573 145.935785,69.8748662 147.851756,68.7738011 C144.680869,64.3293693 137.231283,66.2630806 132.67109,64.8497732 C130.028685,64.0299089 127.656876,62.5326064 125.058056,61.5977054 C122.878753,60.8143606 120.606829,60.5970692 118.320376,60.5075962 C119.044995,62.3792242 119.528074,64.3731928 119.775061,66.3945511 C123.91937,68.6569385 128.786482,67.5175279 133.292192,67.5576994 Z" id="Stroke-7" stroke="#AC8C5D" stroke-width="0.2"></path>
            </g>
        </g>
    </g>
</svg>