<?xml version="1.0" encoding="UTF-8"?>
<svg width="64px" height="63px" viewBox="0 0 64 63" version="1.1" xmlns="http://www.w3.org/2000/svg" xmlns:xlink="http://www.w3.org/1999/xlink">
    <!-- Generator: Sketch 45.1 (43504) - http://www.bohemiancoding.com/sketch -->
    <title>instagram</title>
    <desc>Created with Sketch.</desc>
    <defs>
        <polygon id="path-1" points="5.37232788e-15 63 5.37232788e-15 1.28818028e-14 64 0 64 63"></polygon>
    </defs>
    <g id="Symbols" stroke="none" stroke-width="1" fill="none" fill-rule="evenodd">
        <g id="footer" transform="translate(-880.000000, -123.000000)">
            <g id="social" transform="translate(730.000000, 85.000000)">
                <g id="Stacked-Group-7" transform="translate(2.000000, 38.000000)">
                    <g id="instagram" transform="translate(148.000000, 0.000000)">
                        <g id="Page-1-Copy">
                            <mask id="mask-2" fill="white">
                                <use xlink:href="#path-1"></use>
                            </mask>
                            <g id="Clip-2"></g>
                            <path d="M11.2082413,56.9090795 C-2.68925494,45.3506004 -3.8244577,25.5205251 8.70770874,10.6030981 C20.6684157,-3.62404725 41.6540072,-3.52478809 54.4812084,10.846487 C64.0630278,21.2696046 68.6859946,41.1250611 57.3303358,52.2076402 C46.4108745,63.4701549 24.4834413,67.3294777 11.2082413,56.9090795" id="Fill-1" fill="#3DB1C8" mask="url(#mask-2)"></path>
                        </g>
                        <path d="M32.0000318,15.9493671 C36.3453391,15.9493671 36.8902094,15.9677273 38.5967795,16.0453467 C40.299793,16.1227762 41.4628901,16.3924183 42.480608,16.7867199 C43.5327494,17.1942535 44.4250309,17.7396154 45.3145814,18.6262875 C46.2040683,19.513023 46.7511616,20.4024808 47.1600525,21.4512927 C47.5555423,22.46579 47.8260404,23.6252064 47.9037157,25.3228305 C47.9815815,27.0240001 48,27.5671461 48,31.8987658 C48,36.2303222 47.9815815,36.7734682 47.9037157,38.4746378 C47.8260404,40.172262 47.5555423,41.3316784 47.1600525,42.3461757 C46.7511616,43.3949876 46.2040683,44.2844454 45.3145814,45.1711808 C44.4250309,46.0578529 43.5327494,46.6032149 42.480608,47.0108118 C41.4628901,47.4050501 40.299793,47.6746921 38.5967795,47.7521216 C36.8902094,47.829741 36.3453391,47.8481013 32.0000318,47.8481013 C27.6546609,47.8481013 27.1097906,47.829741 25.4032205,47.7521216 C23.700207,47.6746921 22.5371099,47.4050501 21.519392,47.0108118 C20.4672506,46.6032149 19.5749691,46.0578529 18.6854186,45.1711808 C17.7959317,44.2844454 17.2488384,43.3949876 16.840011,42.3461757 C16.4444577,41.3316784 16.1739596,40.172262 16.0962843,38.4746378 C16.0184185,36.7734682 16,36.2303222 16,31.8987658 C16,27.5671461 16.0184185,27.0240001 16.0962843,25.3228305 C16.1739596,23.6252064 16.4444577,22.46579 16.840011,21.4512927 C17.2488384,20.4024808 17.7959317,19.513023 18.6854186,18.6262875 C19.5749691,17.7396154 20.4672506,17.1942535 21.519392,16.7867199 C22.5371099,16.3924183 23.700207,16.1227762 25.4032205,16.0453467 C27.1097906,15.9677273 27.6546609,15.9493671 32.0000318,15.9493671 Z M32.0000318,18.8231218 C27.7278268,18.8231218 27.2217624,18.8393927 25.534627,18.9161258 C23.9746428,18.9870343 23.1274549,19.2468631 22.563658,19.4652864 C21.8168192,19.7546182 21.2838257,20.1002336 20.7239665,20.6583843 C20.1640438,21.2164718 19.8173313,21.7477786 19.527081,22.492254 C19.3079642,23.0542667 19.0473106,23.8987737 18.976177,25.4538212 C18.8992003,27.1356176 18.8828777,27.6400805 18.8828777,31.8987658 C18.8828777,36.1573878 18.8992003,36.6618508 18.976177,38.3436471 C19.0473106,39.8986947 19.3079642,40.7432016 19.527081,41.3052144 C19.8173313,42.0496897 20.1641073,42.5809966 20.7239665,43.139084 C21.2838257,43.6972348 21.8168192,44.0428502 22.563658,44.332182 C23.1274549,44.5506053 23.9746428,44.8104341 25.534627,44.8813425 C27.2215719,44.9580756 27.7275093,44.9743466 32.0000318,44.9743466 C36.2724907,44.9743466 36.7784916,44.9580756 38.465373,44.8813425 C40.0253572,44.8104341 40.8725451,44.5506053 41.436342,44.332182 C42.1831808,44.0428502 42.7161743,43.6972348 43.2760335,43.139084 C43.8359562,42.5809966 44.1826687,42.0496897 44.472919,41.3052144 C44.6920358,40.7432016 44.9526894,39.8986947 45.023823,38.3436471 C45.1007997,36.6618508 45.1171223,36.1573878 45.1171223,31.8987658 C45.1171223,27.6400805 45.1007997,27.1356176 45.023823,25.4538212 C44.9526894,23.8987737 44.6920358,23.0542667 44.472919,22.492254 C44.1826687,21.7477786 43.8359562,21.2164718 43.2760335,20.6583843 C42.7161743,20.1002336 42.1831808,19.7546182 41.436342,19.4652864 C40.8725451,19.2468631 40.0253572,18.9870343 38.465373,18.9161258 C36.7782376,18.8393927 36.2721732,18.8231218 32.0000318,18.8231218 Z M32.0000318,23.7085238 C36.5377173,23.7085238 40.2162111,27.3753768 40.2162111,31.8987658 C40.2162111,36.4220916 36.5377173,40.0889446 32.0000318,40.0889446 C27.4622827,40.0889446 23.7837889,36.4220916 23.7837889,31.8987658 C23.7837889,27.3753768 27.4622827,23.7085238 32.0000318,23.7085238 Z M32.0000318,37.2151899 C34.9455324,37.2151899 37.3333333,34.8349453 37.3333333,31.8987658 C37.3333333,28.9625231 34.9455324,26.5822785 32.0000318,26.5822785 C29.0544676,26.5822785 26.6666667,28.9625231 26.6666667,31.8987658 C26.6666667,34.8349453 29.0544676,37.2151899 32.0000318,37.2151899 Z M42.4608557,23.3849407 C42.4608557,24.441983 41.6012194,25.2988356 40.5408214,25.2988356 C39.4804869,25.2988356 38.6208506,24.441983 38.6208506,23.3849407 C38.6208506,22.3278984 39.4804869,21.4709824 40.5408214,21.4709824 C41.6012194,21.4709824 42.4608557,22.3278984 42.4608557,23.3849407 Z" id="Instagram-Copy" fill="#FFFFFF"></path>
                    </g>
                </g>
            </g>
        </g>
    </g>
</svg>