<?xml version="1.0" encoding="UTF-8"?>
<svg width="162px" height="84px" viewBox="0 0 162 84" version="1.1" xmlns="http://www.w3.org/2000/svg" xmlns:xlink="http://www.w3.org/1999/xlink">
    <title>2 Betties Logo</title>
    <desc>Copyright 2017 2 Betties. Designed by Pretty Sneaky Sis</desc>
    <g id="2BettiesLogo" stroke="none" stroke-width="1" fill="none" fill-rule="evenodd">
        <g id="2BettiesText">
            <path d="M9.36954,56.1494786 C9.10494,56.8131214 8.83629,57.4862643 8.43264,58.1634786 L8.42859,58.1702643 C7.96284,58.91805 7.27434,59.8096929 6.62634,59.8096929 C6.04044,59.8096929 5.66109,59.32655 5.66109,58.5787643 C5.66109,57.5636214 6.19569,56.5498357 7.02459,55.9961214 L7.10559,55.9526929 C7.82919,55.65955 8.39889,55.5292643 8.95239,55.5292643 L9.61659,55.5292643 L9.36954,56.1494786 Z M31.09239,60.53305 C28.99719,59.45955 26.46729,58.8298357 24.20874,58.0359071 C23.41089,57.7549786 23.05044,57.5541214 22.45779,57.35055 C21.21984,56.8443357 20.11689,56.3571214 19.14354,55.8902643 L19.84824,54.7353357 C22.74399,48.7041929 26.47539,40.8436214 28.74879,34.8477643 C30.84264,29.3852643 32.85954,22.5642643 32.50584,16.1924786 C32.25474,11.7003357 30.87369,7.48097857 27.46089,4.21433571 C24.70554,1.54076429 21.31569,0.57855 18.09459,0.760407143 C8.22204,1.31547857 2.70729,10.84805 2.99754,16.0703357 C3.11364,18.1603357 4.13019,19.5704071 6.20919,19.4523357 C9.74214,19.2541929 11.95074,12.1088357 16.70139,9.43119286 C17.50869,8.96705 18.32949,8.71055 19.05579,8.66983571 C22.48479,8.47712143 24.58269,12.4467643 24.47469,16.12055 C24.23439,21.1636929 21.89214,25.9069071 19.74024,30.3244071 C17.41014,35.2766214 12.78369,45.8053357 11.12859,49.7763357 C10.28484,49.6148357 9.34389,49.5619071 8.51364,49.6094071 C3.73329,49.8781214 -0.24921,53.24655 0.01269,57.9476929 C0.23274,61.9173357 3.57669,65.8164071 8.25309,65.5531214 C9.18864,65.5001929 10.11204,65.2382643 11.13399,64.8664071 C12.65274,64.1729071 13.94334,63.2717643 15.06789,62.1656929 C15.84954,62.6542643 17.01729,63.26905 18.76149,64.0276929 C19.40004,64.3031929 20.07909,64.5814071 20.79189,64.8582643 C23.44194,66.0444071 26.38224,67.28755 29.23749,66.7799786 C30.07719,66.6306929 30.91284,66.3619786 31.59459,65.8476214 C32.55984,65.1174786 32.84334,64.1077643 32.67459,63.11705 C32.50989,62.1439786 32.02389,61.0121214 31.09239,60.53305 L31.09239,60.53305 Z M162.00054,59.3726929 C162.00594,59.7296214 161.88714,60.4516214 161.28504,61.8562643 C160.78149,63.0274786 160.11459,64.1891929 159.30999,65.3088357 C158.50944,66.41355 157.52259,67.3852643 156.37644,68.1941214 C155.30589,68.9446214 154.20699,69.3056214 153.01899,69.2947643 C151.64469,69.2771214 150.40134,69.0681214 149.32674,68.66505 C148.14549,68.2212643 146.95614,67.7231929 145.78839,67.1871214 L145.43469,67.0229071 L145.05129,67.1192643 C140.66919,68.2144786 136.04409,69.29205 131.30964,70.3234786 C126.59004,71.3508357 121.61934,72.2859071 116.53524,73.1069786 C111.42954,73.9294071 106.07544,74.5713357 100.62954,75.0151214 C95.15394,75.4643357 89.44479,75.6624786 83.66544,75.6041214 C75.07809,75.5186214 66.60144,74.8753357 58.48119,73.69055 C50.63364,72.5464786 43.57584,71.1906929 37.47924,69.6598357 C37.45089,69.6544071 37.42389,69.6449071 37.39554,69.6394786 C37.28754,69.6123357 37.17819,69.5851929 37.07154,69.55805 L37.07289,69.5499071 C35.62164,69.0654071 34.57269,67.6784071 34.57269,66.0389786 C34.57269,63.9991929 36.19809,62.3448357 38.20014,62.3448357 C38.69424,62.3448357 39.16404,62.4466214 39.59199,62.6271214 C41.10264,63.02205 42.67404,63.4088357 44.31159,63.7847643 C49.56039,64.9926214 55.47204,66.0471214 61.87914,66.9197643 C65.62404,67.43005 69.56064,67.8073357 73.65384,68.04755 C76.59819,68.2212643 79.62084,68.32305 82.71099,68.3542643 C92.04894,68.4492643 100.99404,67.8494071 109.30194,66.57505 C117.57069,65.3034071 125.04834,63.8702643 131.52429,62.3136214 C138.00159,60.7542643 143.54604,59.3034786 148.00509,58.0006214 C152.35479,56.7276214 155.38014,56.0911214 157.00014,56.1074071 C158.05314,56.12505 159.20334,56.3774786 160.43319,56.87555 C161.46459,57.29355 161.97624,58.11055 162.00054,59.3726929 L162.00054,59.3726929 Z M97.75539,11.9161214 C97.05609,10.6512643 96.77664,9.52619286 96.77664,8.54090714 C96.91569,6.29076429 98.59509,4.60247857 100.69299,4.60247857 C101.25459,4.60247857 101.67309,4.74362143 102.37374,5.02455 C104.47164,6.14962143 105.45174,7.69676429 105.45174,9.10276429 C105.45174,11.6351929 102.93264,13.6044071 100.69299,13.6044071 C99.57384,13.6044071 98.59509,13.1823357 97.75539,11.9161214 L97.75539,11.9161214 Z M80.09064,8.59383571 C79.39134,7.32762143 79.11189,6.20255 79.11189,5.21862143 C79.25094,2.96712143 80.93034,1.27883571 83.02959,1.27883571 C83.58849,1.27883571 84.00834,1.41997857 84.70764,1.70226429 C86.80554,2.82597857 87.78564,4.37447857 87.78564,5.78047857 C87.78564,8.31290714 85.26789,10.2821214 83.02959,10.2821214 C81.90909,10.2821214 80.93034,9.86005 80.09064,8.59383571 L80.09064,8.59383571 Z M100.77534,18.0504071 C101.70009,17.9404786 103.73049,17.7233357 105.63669,17.7491214 C107.72649,17.7789786 109.62729,18.1141929 109.85679,19.2297643 C110.38194,21.2152643 106.80174,22.3389786 103.90464,22.8533357 L104.35014,39.4864786 C104.35014,43.8116929 104.36229,47.3986214 104.32179,50.3001929 C104.20164,58.9519786 103.75749,61.2414786 101.20869,61.8779786 C100.85094,61.9661929 100.48779,62.0191214 100.05984,61.8901929 C98.16174,61.36905 97.58124,60.0417643 97.70274,51.3913357 C97.74864,48.1151929 97.72029,44.7779786 97.84179,38.7142643 C97.96464,32.5962643 98.06589,29.3038357 98.62749,23.3636214 C97.76484,23.4124786 97.38009,23.3799071 96.58089,23.36905 C94.30749,23.3364786 92.58894,23.0664071 92.17854,21.5762643 C91.59534,19.4034786 95.35509,18.7167643 100.77534,18.0504071 L100.77534,18.0504071 Z M73.76859,18.1644071 C73.15434,16.0011214 78.61239,15.2601214 84.02184,14.5177643 C84.94389,14.3942643 86.97294,14.1486214 88.87914,14.1486214 C90.96894,14.1486214 92.87379,14.4553357 93.11949,15.56955 C93.67299,17.5469071 90.10764,18.7208357 87.21864,19.2772643 L87.89499,35.9022643 C87.95574,40.2261214 88.01784,43.8116929 88.01784,46.7146214 C88.01784,55.3677643 87.52644,58.3344786 85.06674,58.3344786 C84.69819,58.3344786 84.32829,58.27205 83.89764,58.1499071 C81.99414,57.65455 80.94789,57.5907643 80.94789,48.9403357 C80.94789,45.6641929 81.07074,41.2779071 81.37719,35.2209786 C81.62424,29.28755 81.86994,25.7657643 82.42479,19.8323357 C81.56349,19.8947643 80.70219,19.8947643 79.90299,19.8947643 C77.62959,19.8947643 74.19789,19.6477643 73.76859,18.1644071 L73.76859,18.1644071 Z M119.66589,43.2851214 C119.88189,40.0781929 121.48029,35.2426929 123.95079,33.02105 C121.56264,30.7478357 120.53934,26.2339786 120.75534,23.0243357 C121.05774,18.5444071 123.81714,14.5109786 129.23064,14.5462643 C132.54354,14.6059786 137.80719,17.6866929 137.64249,20.12005 C137.61279,20.5624786 137.41434,21.0483357 136.94859,21.4052643 C136.47879,21.8178357 136.02654,21.9549071 135.58779,21.92505 C133.82604,21.8056214 132.02379,19.0153357 129.43989,18.8389071 C128.88909,18.8009071 128.33154,18.8741929 127.70784,19.1089786 C126.23229,19.6762643 125.57754,21.1867643 125.46279,22.9008357 C125.29134,25.4441214 126.23634,29.4544786 127.70109,30.66505 C129.53304,29.73405 131.79699,28.9441929 133.72344,29.0758357 C136.25334,29.2481929 137.25369,30.8156929 137.13759,32.5311214 C137.07414,33.4702643 136.61784,34.4962643 135.84699,35.2779786 C134.78589,36.26055 133.27119,36.6011929 131.67549,36.4926214 C130.13514,36.3867643 128.51379,35.8316929 127.22724,35.2454071 C125.89749,36.9323357 124.89579,41.1408357 125.04969,43.7628357 C125.22654,46.05505 126.85329,50.6096214 129.32919,51.6111929 C129.54654,51.6817643 129.70719,51.7482643 129.92724,51.76455 C132.07104,51.9097643 132.68124,47.7826929 132.89049,46.3536214 C133.01199,45.3629071 133.98129,44.9286214 134.86149,44.9883357 C136.23579,45.0819786 136.80279,46.5096929 136.68264,48.2794071 C136.46259,51.5419786 133.83954,56.0314071 129.27384,55.7192643 C124.37739,55.3867643 119.21094,50.0328357 119.66589,43.2851214 L119.66589,43.2851214 Z M138.72654,42.9037643 C138.72654,40.4568357 139.51629,38.5391929 140.63544,38.5391929 C141.62094,38.5391929 142.08264,39.5299071 142.47684,40.8544786 C143.19909,43.30005 143.59599,46.87205 146.42289,46.9371929 C149.31729,46.9371929 150.56739,42.5061214 150.56739,39.99405 C150.56739,36.0936214 147.80394,33.6466929 145.63314,30.8699786 C143.72559,28.48955 142.41204,25.7128357 141.81939,22.6714786 C141.55614,21.2831214 141.42384,19.8934071 141.42384,18.4399071 C141.42384,12.3558357 143.72559,6.27312143 148.52754,6.27312143 C148.92174,6.27312143 149.31729,6.33962143 149.77629,6.40612143 C153.72369,7.19869286 155.16954,11.1669786 155.16954,14.6046214 C155.16954,17.6459786 154.11924,20.29105 152.60589,20.29105 C150.30414,20.29105 150.56739,15.39855 150.23799,12.7534786 C150.04089,11.7614071 149.71149,11.0339786 149.24979,11.0339786 C148.92174,11.0339786 148.52754,11.4302643 148.13334,12.2241929 C147.47454,13.54605 146.88459,15.9943357 146.88459,18.5064071 C146.88459,19.7617643 147.01419,20.9519786 147.34359,22.07705 C149.24979,28.9509786 156.61809,32.2583357 156.61809,40.19355 C156.61809,46.0116214 152.93529,52.1608357 146.42289,52.1608357 C140.76639,52.1608357 138.72654,46.87205 138.72654,42.9037643 L138.72654,42.9037643 Z M110.57769,54.3621214 C110.57769,50.0952643 111.29454,38.3424071 111.34989,27.0903357 C111.34989,23.98655 111.46059,18.5539071 113.83254,18.5539071 C116.47854,18.60955 116.64324,24.7628357 116.64324,28.2534071 L116.64324,34.01855 C116.64324,56.19155 116.31384,60.5154071 113.39109,60.1272643 C111.18519,59.7947643 110.57769,58.2421929 110.57769,54.3621214 L110.57769,54.3621214 Z M71.23599,38.16055 C72.17289,38.16055 72.88974,38.6586214 72.88974,39.10105 C72.88974,39.3806214 72.55899,39.6004786 71.78679,39.6004786 C71.56674,39.6004786 71.34534,39.6004786 71.12529,39.5461929 C70.35309,39.49055 69.69159,39.2679786 69.13944,38.9354786 C70.13304,38.3261214 70.79454,38.16055 71.23599,38.16055 L71.23599,38.16055 Z M69.36084,62.4398357 C73.93734,62.4398357 77.78484,57.7821214 77.78484,54.5127643 C77.78484,52.7389786 77.12334,51.3533357 75.74499,51.3533357 C74.86344,51.3533357 73.92654,51.8514071 73.86984,52.8489071 C73.75914,54.2901929 72.39564,58.01555 69.74694,58.4484786 C69.52959,58.4837643 69.36084,58.3928357 69.13944,58.3358357 C66.60414,57.5066214 64.67364,53.0714786 64.34289,50.7982643 C64.32939,50.6937643 64.32804,50.5729786 64.31859,50.46305 C64.13229,49.1724071 64.23354,47.82205 64.52244,46.44455 C64.80459,44.7264071 65.30004,43.0883357 65.94264,42.15055 C67.26564,42.6499786 68.91939,43.0924071 70.46244,43.0924071 C72.06219,43.0924071 73.55124,42.6499786 74.54484,41.5968357 C75.26034,40.7662643 75.64644,39.7117643 75.64644,38.76855 C75.64644,37.0504071 74.54484,35.5548357 72.00819,35.5548357 C70.07769,35.5548357 67.87179,36.4966929 66.10734,37.5484786 C64.56429,36.44105 63.35064,32.5053357 63.35064,29.9552643 C63.35064,28.2384786 63.90144,26.6859071 65.33649,26.01955 C65.94264,25.7426929 66.49344,25.6327643 67.04424,25.6327643 C69.63624,25.6327643 71.62209,28.2941214 73.38654,28.2941214 C73.82799,28.2941214 74.26809,28.1258357 74.70954,27.68205 C75.15099,27.2939071 75.31569,26.7958357 75.31569,26.35205 C75.31569,23.9146214 69.85764,21.1976214 66.54744,21.3631929 C61.14474,21.69705 58.66479,25.9082643 58.66479,30.3976929 C58.66479,33.6154786 59.98644,38.0492643 62.52309,40.1541929 C60.20784,42.5386929 58.40964,47.9672643 58.40964,51.1809786 C58.40964,57.9436214 64.45359,62.4398357 69.36084,62.4398357 L69.36084,62.4398357 Z M40.62879,28.0837643 C40.62879,27.4513357 41.07024,26.8189071 41.44689,26.7564786 L41.25789,29.1599786 C40.81779,28.9061929 40.62879,28.4651214 40.62879,28.0837643 L40.62879,28.0837643 Z M44.84349,50.1522643 C45.09459,48.38255 45.34569,46.54905 45.53469,44.7779786 C45.97479,41.4882643 46.28934,35.86155 46.54044,32.57455 C47.10744,32.5121214 47.67444,32.3207643 48.17664,32.1959071 C49.81284,34.9753357 50.81859,40.7309786 50.81859,43.8293357 C50.81859,44.4617643 50.81859,45.1566214 50.69304,45.78905 C50.25159,49.1398357 48.05109,51.5433357 44.65449,51.6071214 L44.84349,50.1522643 Z M47.48409,11.8333357 C47.86074,11.7709071 48.24009,11.7071214 48.55464,11.7071214 C48.93129,11.7071214 49.24584,11.7709071 49.56039,11.8333357 C52.26579,12.5933357 52.51554,19.2949071 52.64244,21.6359786 C52.83009,25.0491929 51.69879,27.3264786 48.55464,28.4651214 C47.98764,27.9589071 47.48409,27.5137643 46.91709,27.1351214 L47.48409,11.8333357 Z M38.99394,54.5141214 C39.18159,56.28655 40.31424,57.1089786 41.50899,57.1089786 C42.45264,57.1089786 43.33419,56.6014071 43.77294,55.6527643 C43.83639,55.5903357 43.83639,55.52655 43.83639,55.4627643 C48.24009,55.6527643 52.45344,54.1992643 54.34074,49.7098357 C55.09539,48.00255 55.40994,46.2328357 55.40994,44.5241929 C55.40994,40.5409786 53.64819,34.3442643 51.13314,31.1821214 C55.03329,29.5386214 56.79234,26.3154071 56.79234,21.8246214 C56.79234,18.2838357 56.22669,11.0109071 52.95699,9.11497857 C52.01334,8.54633571 51.13314,8.35633571 50.25159,8.35633571 C49.05684,8.35633571 47.86074,8.73497857 46.60389,9.11497857 C46.10034,8.42012143 45.34569,8.04012143 44.59104,8.04012143 C43.52184,8.04012143 42.51474,8.79876429 42.39054,10.4436214 C40.75569,10.9484786 39.37059,11.2009071 39.37059,12.2771214 C39.37059,13.2257643 39.81069,13.4768357 40.43979,13.4768357 C40.94334,13.4768357 41.63454,13.2257643 42.13809,13.0981929 C41.88564,18.9786929 41.76144,21.88705 41.57244,24.7967643 C40.75569,24.7967643 39.99969,25.0491929 39.24504,25.5554071 C38.17584,26.3154071 37.73574,27.4513357 37.73574,28.52755 C37.73574,29.8548357 38.42694,31.24455 39.74724,32.00455 C40.12524,32.2583357 40.56534,32.4469786 41.00544,32.57455 L39.18159,50.5309071 C38.93049,50.4671214 38.67939,50.4046929 38.42694,50.4046929 C37.17009,50.4046929 35.97399,51.2284786 35.97399,52.1757643 C35.97399,52.9968357 36.79209,53.88305 38.99394,54.5141214 L38.99394,54.5141214 Z"
              id="Fill-1" fill="#3DB1C8">
            </path>
        </g>
        <g id="Trademark">
          <polygon id="T" fill="#44B0C6" points="0.03175 1.31628 1.6505 1.31628 1.6505 7.00028 2.8305 7.00028 2.8305 1.31628 4.44925 1.31628 4.44925 0.14168 0.03175 0.14168" transform="translate(149.000000, 77.000000)">></polygon>
          <polygon id="M" fill="#44B0C6" points="158.500714 81.1894264 155.948765 77 155 77 155 84 156.348847 84 156.348847 80.1006328 158.02919 82.8497653 158.97081 82.8497653 160.651153 80.1006328 160.651153 84 162 84 162 77 161.051235 77"></polygon>
        </g>
    </g>
</svg>
