<svg xmlns="http://www.w3.org/2000/svg" id="CircleShape" viewBox="0 0 190 188">
  <title>circle background shape from the logo</title>
  <g id="logoshapebackground">
    <path id="circle_bg" class="background_circle"
      d="m 174.8,173.8 -2.6,-4.2 h -1 v 7 h 1.4 v -3.9 l 1.7,2.8 h 0.9 l 1.7,-2.8 v 3.9 h 1.4 v -7 h -1 z m -10.4,-3 h 1.9 v 5.8 h 1.4 v -5.8 h 1.9 v -1.2 h -5.1 v 1.2 z M 78.4,18.4 c 0.4,-0.1 0.5,-0.2 0.6,-0.3 0.1,-0.1 0.1,-0.4 0.1,-0.5 0,-0.2 -0.2,-0.4 -0.3,-0.5 C 78.7,17 78.5,17 78.1,17 l -1,0.2 0.3,1.4 z m 7.6,-1.9 -0.6,2.1 1.7,-0.2 z m 20.8,151.2 c -0.8,0.1 -1.4,0.9 -1.4,1.6 l 3.1,-0.5 c -0.1,-0.7 -0.8,-1.2 -1.7,-1.1 z M 85.1,99.9 c 0.8,0 1.1,-0.2 1.1,-0.5 0,-0.4 -0.7,-0.9 -1.6,-0.9 -0.4,0 -1.1,0.2 -2.1,0.8 0.5,0.3 1.2,0.5 2,0.6 0.2,0 0.4,0 0.6,0 z m 2.7,68.9 c -1.2,-0.1 -2,0.8 -2.1,1.9 -0.1,1.2 0.7,2.1 1.9,2.2 0.8,0.1 1.5,-0.3 1.9,-0.8 l 0.2,-2.3 c -0.5,-0.6 -1.1,-1 -1.9,-1 z m -9.3,-1.2 c -1.2,-0.2 -2.1,0.6 -2.3,1.7 -0.2,1.1 0.4,2.2 1.6,2.4 1.2,0.2 2.1,-0.6 2.3,-1.7 0.2,-1.1 -0.4,-2.2 -1.6,-2.4 z m -9.2,-2.1 c -1.1,-0.3 -2.2,0.3 -2.5,1.4 -0.3,1.1 0.2,2.2 1.3,2.5 1.1,0.3 2.2,-0.3 2.5,-1.4 0.4,-1.1 -0.1,-2.2 -1.3,-2.5 z m -9.2,-3.3 c -1.1,-0.5 -2.2,0.1 -2.6,1.1 -0.5,1.1 0,2.2 1,2.7 0.7,0.3 1.5,0.2 2,-0.1 l 0.9,-2.1 c -0.1,-0.7 -0.6,-1.3 -1.3,-1.6 z M 20.7,116.1 v 0 c -0.9,0.6 -1.4,1.6 -1.4,2.6 0,0.7 0.4,1.2 1,1.2 0.6,0 1.3,-0.9 1.8,-1.6 v 0 c 0.4,-0.7 0.7,-1.3 0.9,-2 l 0.2,-0.6 h -0.7 c -0.5,0 -1,0.1 -1.8,0.4 z m 39.9,-89.5 -1.7,-1.3 0.2,2.2 z m -20.4,126 c -0.7,0.9 -0.6,2.1 0.3,2.9 0.9,0.7 2.1,0.5 2.8,-0.4 0.7,-0.9 0.6,-2.1 -0.3,-2.9 -0.9,-0.8 -2.1,-0.5 -2.8,0.4 z M 54.1,88.4 c 0,0.4 0.2,0.8 0.6,1.1 l 0.2,-2.4 c -0.3,0.1 -0.8,0.7 -0.8,1.3 z m 5.9,4.5 c -0.3,3.3 -0.6,8.9 -1,12.1 -0.2,1.8 -0.4,3.6 -0.7,5.3 l -0.2,1.4 c 3.4,-0.1 5.6,-2.4 6,-5.8 0.1,-0.6 0.1,-1.3 0.1,-1.9 0,-3.1 -1,-8.8 -2.6,-11.6 -0.5,0.2 -1,0.4 -1.6,0.5 z m 3,-20.6 c -0.3,-0.1 -0.6,-0.1 -1,-0.1 -0.3,0 -0.7,0.1 -1.1,0.1 l -0.6,15.2 c 0.6,0.4 1.1,0.8 1.6,1.3 C 65,87.7 66.2,85.4 66,82 65.9,79.7 65.7,73 63,72.3 Z M 174.2,122 c 0.6,-1.4 0.7,-2.1 0.7,-2.5 0,-1.3 -0.5,-2.1 -1.6,-2.5 -1.2,-0.5 -2.4,-0.7 -3.4,-0.8 -1.6,0 -4.6,0.6 -9,1.9 -4.4,1.3 -10,2.7 -16.4,4.3 -6.4,1.5 -13.9,3 -22.1,4.2 -8.3,1.3 -17.2,1.9 -26.5,1.8 -3.1,0 -6.1,-0.1 -9,-0.3 -4.1,-0.2 -8,-0.6 -11.7,-1.1 -6.4,-0.9 -12.3,-1.9 -17.5,-3.1 -1.6,-0.4 -3.2,-0.8 -4.7,-1.1 -0.4,-0.2 -0.9,-0.3 -1.4,-0.3 -2,0 -3.6,1.6 -3.6,3.7 0,1.6 1,3 2.5,3.5 v 0 l 0.3,0.1 h 0.1 c 6.1,1.5 13.1,2.9 20.9,4 8.1,1.2 16.5,1.8 25.1,1.9 5.8,0.1 11.4,-0.1 16.9,-0.6 5.4,-0.4 10.7,-1.1 15.8,-1.9 5.1,-0.8 10,-1.7 14.7,-2.8 4.7,-1 9.3,-2.1 13.7,-3.2 l 0.4,-0.1 0.4,0.2 c 1.2,0.5 2.3,1 3.5,1.5 1.1,0.4 2.3,0.6 3.7,0.6 1.2,0 2.3,-0.3 3.3,-1.1 1.1,-0.8 2.1,-1.8 2.9,-2.9 0.8,-1.1 1.5,-2.3 2,-3.4 z m -15.1,22.6 h -1.6 c 0,0.5 -0.1,1.4 -0.7,2 -0.7,0.8 -1.9,0.9 -2.7,0.3 l 3.6,-3.8 c -0.1,-0.1 -0.2,-0.3 -0.4,-0.4 -1.5,-1.4 -3.8,-1.6 -5.3,-0.1 -1.5,1.6 -1.2,3.9 0.3,5.4 1.7,1.6 4,1.5 5.6,-0.2 0.8,-0.9 1.3,-2.1 1.2,-3.2 z m -4.8,6.7 -5.9,-0.5 0.6,-5 -2.2,1.8 -0.4,3.6 -3.8,-4.5 -1.6,1.3 7.1,8.4 1.6,-1.3 -2.1,-2.5 4.5,0.4 z m -8.6,7.1 -4.1,-6.3 -1.6,1.1 0.3,0.5 c -0.8,-0.1 -1.6,0.1 -2.3,0.6 -1.7,1.1 -2.2,3.5 -1,5.3 0.6,0.9 1.4,1.4 2.3,1.7 1,0.3 2.1,0.1 3.1,-0.5 0.6,-0.4 1.1,-1 1.4,-1.8 l 0.3,0.5 z m -9.4,3.3 c -1.2,-2.3 -4.3,-0.3 -4.7,-1.2 -0.2,-0.3 0.1,-0.8 0.6,-1 0.5,-0.2 1.1,-0.3 1.5,-0.2 l 0.2,-1.7 c -0.6,-0.1 -1.7,0 -2.6,0.5 -1.3,0.7 -2.2,2.1 -1.5,3.4 1.1,2.2 4.2,0.1 4.7,1.1 0.2,0.3 -0.1,0.8 -0.6,1 -0.7,0.3 -1.5,0.5 -2.2,0.3 l -0.2,1.7 c 1.1,0.2 2.2,0 3.2,-0.5 1.4,-0.7 2.3,-2.1 1.6,-3.4 z m -10.9,5.1 c -0.9,-2.5 -4.2,-0.9 -4.5,-1.8 -0.1,-0.4 0.2,-0.7 0.8,-0.9 0.5,-0.2 1.1,-0.1 1.5,0 l 0.4,-1.7 c -0.6,-0.2 -1.7,-0.2 -2.7,0.1 -1.4,0.5 -2.4,1.8 -2,3.2 0.8,2.3 4.1,0.7 4.5,1.8 0.1,0.4 -0.2,0.7 -0.7,0.9 -0.7,0.3 -1.6,0.2 -2.2,0 l -0.5,1.7 c 1.1,0.3 2.2,0.3 3.2,0 1.6,-0.6 2.7,-1.9 2.2,-3.3 z m -7.1,2.4 c -0.6,-2.5 -4.1,-1.3 -4.3,-2.2 -0.1,-0.4 0.3,-0.7 0.9,-0.8 0.5,-0.1 1.1,0 1.5,0.1 l 0.6,-1.7 c -0.6,-0.3 -1.7,-0.4 -2.7,-0.1 -1.5,0.4 -2.6,1.6 -2.2,3 0.6,2.4 4,1.1 4.3,2.2 0.1,0.4 -0.3,0.7 -0.8,0.9 -0.7,0.2 -1.6,0.1 -2.2,-0.2 l -0.6,1.6 c 1,0.4 2.2,0.5 3.2,0.2 1.5,-0.4 2.6,-1.6 2.3,-3 z m -7.4,2.8 -1.3,-1 c -0.3,0.4 -0.9,1 -1.7,1.2 -1.1,0.2 -2,-0.4 -2.3,-1.5 l 5.2,-0.8 c 0,-0.2 0,-0.4 0,-0.6 -0.3,-2.1 -2.1,-3.6 -4.1,-3.3 -2.2,0.3 -3.4,2.4 -3,4.5 0.4,2.3 2.3,3.6 4.5,3.3 1,-0.2 2.1,-0.8 2.7,-1.8 z m -9,2.5 -0.2,-3.8 c -0.1,-1.3 -0.4,-2 -0.9,-2.6 -0.7,-0.7 -1.6,-1.1 -2.7,-1.1 -0.8,0 -1.5,0.4 -2.1,0.9 v -0.6 l -2,0.1 0.4,7.5 2,-0.1 -0.2,-4.9 c 0.3,-0.4 0.9,-1 1.8,-1 0.5,0 0.9,0.1 1.2,0.4 0.3,0.3 0.5,0.6 0.5,1.4 l 0.2,4 z m -9.9,-10.7 -2,-0.1 -0.3,4 c -0.6,-0.5 -1.3,-0.8 -2.1,-0.8 -2.1,-0.1 -3.8,1.5 -4,3.7 -0.1,1 0.2,2 0.8,2.7 0.6,0.8 1.6,1.4 2.8,1.5 0.8,0.1 1.5,-0.1 2.2,-0.6 v 0.6 l 1.9,0.1 z m -13.2,2 c -2.3,-0.4 -4.3,1 -4.7,3.2 -0.4,2.1 1,4.2 3.3,4.6 2.3,0.4 4.3,-1 4.7,-3.2 0.4,-2.2 -1,-4.2 -3.3,-4.6 z m -9,-2.1 c -2.2,-0.6 -4.4,0.6 -5,2.6 -0.6,2.1 0.6,4.3 2.8,4.9 2.2,0.6 4.4,-0.5 5,-2.6 0.6,-2.1 -0.6,-4.3 -2.8,-4.9 z m -5.4,-1.6 -1.8,-0.8 -0.2,0.6 c -0.4,-0.7 -1,-1.2 -1.7,-1.6 -1.9,-0.8 -4.1,0.1 -5,2.2 -0.4,0.9 -0.4,1.9 -0.2,2.8 0.3,1 1.1,1.9 2.1,2.3 0.7,0.3 1.4,0.4 2.1,0.2 l -0.1,0.2 c -0.4,0.9 -0.7,1.3 -1.1,1.4 -0.5,0.2 -1.1,0.2 -1.7,0 -1.2,-0.5 -1.5,-1.4 -1.7,-1.9 l -1.7,0.7 c 0.3,1.1 1.4,2.3 2.7,2.9 1.3,0.6 2.7,0.5 3.7,-0.1 0.7,-0.4 1.2,-1.1 1.7,-2.3 z m -11.7,-5.6 c -0.2,-0.1 -0.3,-0.3 -0.5,-0.4 -0.8,-0.5 -1.7,-0.6 -2.4,-0.4 l 0.4,-0.6 -1.7,-1 -4,6.4 1.7,1.1 2.5,-4 c 0.5,-0.3 1.4,-0.4 2.1,0.1 0.3,0.2 0.5,0.3 0.6,0.5 z M 45,156.3 c 1.3,-1.7 1,-4.2 -0.8,-5.6 -1.8,-1.4 -4.3,-1.1 -5.6,0.7 -1.3,1.7 -1,4.2 0.8,5.6 1.8,1.3 4.3,1 5.6,-0.7 z m -9.3,-9.3 2.4,2.3 1.3,-1.4 -2.4,-2.3 1.6,-1.6 3.2,3.1 1.3,-1.4 -4.7,-4.5 -7.5,7.9 1.5,1.5 z m -7,-24.7 c 0.8,0.5 1.9,1.1 3.7,1.8 0.6,0.3 1.3,0.5 2,0.8 v 0 c 2.6,1.2 5.6,2.4 8.4,1.9 0.8,-0.1 1.7,-0.4 2.3,-0.9 1,-0.7 1.2,-1.7 1.1,-2.7 -0.2,-1 -0.6,-2.1 -1.6,-2.6 -2.1,-1.1 -4.6,-1.7 -6.9,-2.5 -0.8,-0.3 -1.2,-0.5 -1.7,-0.7 -1.2,-0.5 -2.3,-1 -3.3,-1.5 l 0.7,-1.1 C 36.3,108.8 40,101 42.3,95.1 44.4,89.7 46.4,82.9 46,76.6 45.8,72.1 44.4,68 41,64.7 38.3,62 34.9,61.1 31.7,61.3 c -9.8,0.6 -15.3,10 -15,15.2 0.1,2.1 1.1,3.5 3.2,3.4 3.5,-0.2 5.7,-7.3 10.4,-10 0.8,-0.5 1.6,-0.7 2.3,-0.8 3.4,-0.2 5.5,3.7 5.4,7.4 -0.2,5 -2.6,9.7 -4.7,14.1 -2.3,5 -6.9,15.4 -8.5,19.4 -0.8,-0.2 -1.8,-0.2 -2.6,-0.2 -4.8,0.3 -8.7,3.6 -8.5,8.3 0.2,3.9 3.5,7.8 8.2,7.6 0.9,-0.1 1.9,-0.3 2.9,-0.7 1.5,-0.7 2.8,-1.6 3.9,-2.7 z m 4.1,-76.9 3.6,6.4 0.8,-1.1 -0.8,-1.4 1.6,-2.2 1.6,0.4 0.8,-1.1 -7.1,-1.8 z m 3.4,-4.2 5,4.5 2.8,-3.1 -0.9,-0.8 -1.9,2.1 -4.1,-3.8 z m 4.1,-4.5 4.7,4.9 3,-2.9 -0.8,-0.8 -2.1,2 -3.9,-4.1 z m 5.6,-1.7 0.7,0.8 2.4,-2 -0.6,-0.8 z m 2.6,-5.5 3.9,5.5 1.1,-0.7 -2.5,-3.6 5.6,1.4 0.8,-0.5 -3.9,-5.5 -1.1,0.7 2.5,3.6 -5.6,-1.4 z m 9,-5.8 0.7,7.3 1.2,-0.7 -0.2,-1.6 2.4,-1.3 1.3,1 1.2,-0.7 -5.8,-4.5 z m 3.9,-2.1 0.5,1.1 1.6,-0.7 2.3,5.1 1.2,-0.5 -2.3,-5.1 1.6,-0.7 -0.5,-1.1 z m 5,48 c -0.9,-0.6 -1.8,-0.8 -2.7,-0.8 -1.2,0 -2.4,0.4 -3.6,0.8 -0.5,-0.7 -1.3,-1.1 -2,-1.1 -1.1,0 -2.1,0.8 -2.2,2.4 -1.6,0.5 -3,0.8 -3,1.8 0,0.9 0.4,1.2 1.1,1.2 0.5,0 1.2,-0.3 1.7,-0.4 -0.2,5.8 -0.4,8.7 -0.6,11.6 -0.8,0 -1.6,0.3 -2.3,0.8 -1.1,0.8 -1.5,1.9 -1.5,3 0,1.3 0.7,2.7 2,3.5 0.4,0.3 0.8,0.4 1.3,0.6 l -1.8,17.8 c -0.2,-0.1 -0.5,-0.1 -0.8,-0.1 -1.2,0 -2.4,0.8 -2.4,1.8 0,0.8 0.8,1.7 3,2.3 0.2,1.8 1.3,2.6 2.5,2.6 0.9,0 1.8,-0.5 2.3,-1.4 l 0.1,-0.2 c 4.4,0.2 8.6,-1.3 10.5,-5.7 0.8,-1.7 1.1,-3.5 1.1,-5.1 0,-4 -1.8,-10.1 -4.3,-13.2 3.9,-1.6 5.6,-4.8 5.6,-9.3 -0.2,-3.8 -0.8,-11 -4,-12.9 z m 1.2,-50.7 1.2,3.7 c 0.3,1 0.9,1.6 1.5,1.9 0.6,0.3 1.4,0.3 2.1,0 0.7,-0.2 1.4,-0.7 1.7,-1.3 0.4,-0.7 0.4,-1.4 0.1,-2.4 l -1.1,-3.8 -1.2,0.4 1.3,3.8 c 0.2,0.6 0.2,1 0,1.3 -0.2,0.4 -0.5,0.6 -0.9,0.8 -0.4,0.1 -0.9,0.1 -1.2,0 -0.3,-0.2 -0.6,-0.5 -0.8,-1 L 69,18.5 Z m 7.9,-2.6 1.5,6.6 1.3,-0.3 -0.7,-2.9 0.5,-0.1 3,2.4 1.6,-0.4 -3.1,-2.5 c 0.2,-0.1 0.4,-0.3 0.6,-0.5 0.3,-0.4 0.4,-1 0.3,-1.5 -0.1,-0.5 -0.5,-1 -0.9,-1.2 -0.4,-0.2 -0.9,-0.3 -1.5,-0.2 z m 7.8,5.2 1.3,-0.2 0.5,-1.6 2.7,-0.3 0.8,1.4 1.3,-0.2 -3.7,-6.4 -0.9,0.1 z m 7.6,-7.5 0.2,6.8 4.1,-0.1 V 19.5 L 92.4,19.6 92.2,14 Z m 5.4,47.8 c -2.1,0 -3.8,1.7 -3.9,3.9 0,1 0.3,2.1 1,3.4 0.8,1.3 1.8,1.7 2.9,1.7 2.2,0 4.7,-2 4.7,-4.5 0,-1.4 -1,-2.9 -3.1,-4 -0.6,-0.3 -1,-0.5 -1.6,-0.5 z m 3.1,-41 1.3,0.1 0.5,-6.7 -1.3,-0.2 z m -23.5,79.6 c -2.3,2.4 -4.1,7.8 -4.1,10.9 0,6.7 6,11.2 10.9,11.2 4.6,0 8.4,-4.6 8.4,-7.9 0,-1.8 -0.7,-3.1 -2,-3.1 -0.9,0 -1.8,0.5 -1.9,1.5 -0.1,1.4 -1.5,5.1 -4.1,5.6 -0.2,0 -0.4,-0.1 -0.6,-0.1 -2.5,-0.8 -4.4,-5.2 -4.8,-7.5 v -0.3 c -0.2,-1.3 -0.1,-2.6 0.2,-4 0.3,-1.7 0.8,-3.3 1.4,-4.3 1.3,0.5 3,0.9 4.5,0.9 1.6,0 3.1,-0.4 4.1,-1.5 C 88.6,101 89,100 89,99 c 0,-1.7 -1.1,-3.2 -3.6,-3.2 -1.9,0 -4.1,0.9 -5.9,2 -1.5,-1.1 -2.7,-5 -2.7,-7.5 0,-1.7 0.5,-3.2 2,-3.9 0.6,-0.3 1.2,-0.4 1.7,-0.4 2.6,0 4.6,2.6 6.3,2.6 0.4,0 0.9,-0.2 1.3,-0.6 0.4,-0.4 0.6,-0.9 0.6,-1.3 0,-2.4 -5.4,-5.1 -8.7,-5 -5.4,0.3 -7.8,4.5 -7.8,9 -0.1,3.2 1.2,7.6 3.7,9.7 z m 26.2,-25.8 c -1.9,0 -3.9,0.2 -4.8,0.4 -5.4,0.7 -10.8,1.5 -10.2,3.6 0.4,1.5 3.8,1.7 6.1,1.7 0.8,0 1.7,0 2.5,-0.1 -0.6,5.9 -0.8,9.4 -1,15.3 -0.3,6 -0.4,10.4 -0.4,13.6 0,8.6 1,8.7 2.9,9.1 0.4,0.1 0.8,0.2 1.2,0.2 2.4,0 2.9,-2.9 2.9,-11.5 0,-2.9 -0.1,-6.4 -0.1,-10.7 l -0.7,-16.5 c 2.9,-0.6 6.4,-1.7 5.9,-3.7 -0.3,-1.1 -2.2,-1.4 -4.3,-1.4 z m 0.5,-53.6 1.3,0.2 0.7,-4.3 3.1,4.9 0.9,0.1 1,-6.7 -1.3,-0.2 -0.7,4.4 -3.1,-4.9 -0.9,-0.1 z m 7.4,48 c 0,1 0.3,2.1 1,3.4 0.8,1.3 1.8,1.7 2.9,1.7 2.2,0 4.7,-2 4.7,-4.5 0,-1.4 -1,-2.9 -3.1,-4 -0.7,-0.3 -1.1,-0.4 -1.7,-0.4 -2,-0.1 -3.7,1.6 -3.8,3.8 z m 3.3,-45.8 c 1.2,0.3 2.3,0.1 3.1,-0.5 l 0.8,-2.9 -2.9,-0.8 -0.3,1.1 1.7,0.4 -0.4,1.4 c -0.5,0.2 -1,0.3 -1.6,0.1 -1.3,-0.3 -2,-1.6 -1.6,-2.8 0.3,-1.2 1.5,-2 2.8,-1.7 0.6,0.2 1.1,0.6 1.4,1.1 l 1,-0.6 c -0.4,-0.7 -1.2,-1.3 -2.1,-1.6 -2,-0.5 -3.8,0.6 -4.3,2.4 -0.7,2 0.3,3.8 2.4,4.4 z m 3.8,60 c 2.9,-0.5 6.4,-1.6 5.9,-3.6 -0.2,-1.1 -2.1,-1.4 -4.2,-1.5 -1.9,0 -3.9,0.2 -4.8,0.3 -5.4,0.7 -9.1,1.3 -8.6,3.5 0.4,1.5 2.1,1.7 4.4,1.8 0.8,0 1.2,0 2,0 -0.6,5.9 -0.7,9.2 -0.8,15.2 -0.1,6 -0.1,9.3 -0.1,12.6 -0.1,8.6 0.5,9.9 2.3,10.4 0.4,0.1 0.8,0.1 1.1,0 2.5,-0.6 3,-2.9 3.1,-11.5 0,-2.9 0,-6.4 0,-10.7 z m 0.5,-58.8 1.2,0.5 1.1,-2.8 0.4,0.2 1.2,3.7 1.5,0.6 -1.3,-3.8 c 0.3,0 0.5,0 0.8,-0.1 0.5,-0.2 0.9,-0.6 1.1,-1.1 0.2,-0.5 0.2,-1 -0.1,-1.5 -0.2,-0.4 -0.6,-0.7 -1.2,-1 L 120,18 Z m 6.1,90.1 c 0,3.9 0.6,5.4 2.8,5.7 2.9,0.4 3.2,-3.9 3.2,-25.9 v -5.7 c 0,-3.5 -0.2,-9.6 -2.8,-9.6 -2.4,0 -2.5,5.4 -2.5,8.5 0.1,11.1 -0.7,22.8 -0.7,27 z m 0.2,-87.6 3.7,1.8 0.5,-1 -2.6,-1.2 0.8,-1.7 1.9,0.9 0.5,-1 -1.9,-0.9 0.6,-1.3 2.5,1.2 0.5,-1 -3.6,-1.8 z m 8.5,-3.3 -3.5,5.8 1.8,1.1 c 0.9,0.6 1.6,0.7 2.3,0.7 1,-0.1 2,-0.7 2.6,-1.7 0.6,-1 0.7,-2.1 0.3,-3 -0.3,-0.6 -0.7,-1.2 -1.7,-1.7 z m 6.5,4.1 -3.9,5.5 1.1,0.8 3.9,-5.5 z m 3,2.2 -4.2,5.3 3.2,2.6 0.7,-0.9 -2.2,-1.8 1.2,-1.5 1.6,1.3 0.7,-0.9 -1.6,-1.3 0.9,-1.1 2.1,1.7 0.7,-0.9 z m 4.8,3.9 -4.7,4.9 0.9,0.9 3,-3.2 -0.3,5.8 0.7,0.6 4.7,-4.8 -0.9,-0.9 -3,3.2 0.3,-5.8 z m -8.1,49.5 c 0.1,-1.7 0.8,-3.2 2.2,-3.8 0.6,-0.2 1.2,-0.3 1.7,-0.3 2.6,0.2 4.4,2.9 6.1,3.1 0.4,0 0.9,-0.1 1.4,-0.5 0.5,-0.4 0.7,-0.8 0.7,-1.3 0.2,-2.4 -5.1,-5.5 -8.4,-5.5 -5.4,0 -8.1,4 -8.4,8.4 -0.2,3.2 0.8,7.7 3.2,9.9 -2.5,2.2 -4,7 -4.3,10.2 -0.5,6.7 4.7,12 9.6,12.3 4.5,0.3 7.2,-4.1 7.4,-7.4 0.1,-1.8 -0.4,-3.2 -1.8,-3.3 -0.9,-0.1 -1.8,0.4 -2,1.4 -0.2,1.4 -0.8,5.5 -2.9,5.4 -0.2,0 -0.4,-0.1 -0.6,-0.2 -2.5,-1 -4.1,-5.5 -4.3,-7.8 -0.2,-2.6 0.8,-6.8 2.2,-8.5 1.3,0.6 2.9,1.1 4.4,1.2 1.6,0.1 3.1,-0.2 4.2,-1.2 0.8,-0.8 1.2,-1.8 1.3,-2.7 0.1,-1.7 -0.9,-3.3 -3.4,-3.4 -1.9,-0.1 -4.2,0.7 -6,1.6 -1.6,-1.1 -2.5,-5.1 -2.3,-7.6 z m 12.9,-43.1 1.2,1.4 -4.2,3.7 0.9,1 4.2,-3.7 1.2,1.3 0.9,-0.8 -3.2,-3.7 z m 3.6,5.2 c -0.6,0.5 -0.7,1.1 -0.7,1.7 0.1,1 0.8,2.1 0.1,2.6 -0.4,0.3 -0.9,0.2 -1.3,-0.3 -0.4,-0.5 -0.5,-1.2 -0.4,-1.7 l -1.2,-0.1 c -0.1,0.9 0.1,1.8 0.6,2.6 0.7,1 2,1.3 3,0.6 1.8,-1.4 -0.3,-3.7 0.6,-4.3 0.4,-0.3 0.9,0 1.2,0.4 0.3,0.4 0.4,0.8 0.3,1.2 h 1.2 c 0,-0.8 -0.3,-1.4 -0.7,-2 -0.5,-0.9 -1.8,-1.4 -2.7,-0.7 z m 6.4,21.4 c -4.8,0 -7.1,6 -7.1,12.1 0,1.4 0.1,2.8 0.4,4.2 0.6,3 1.9,5.8 3.8,8.1 2.2,2.8 4.9,5.2 4.9,9.1 0,2.5 -1.2,6.9 -4.1,6.9 -2.8,-0.1 -3.2,-3.6 -3.9,-6 -0.4,-1.3 -0.9,-2.3 -1.8,-2.3 -1.1,0 -1.9,1.9 -1.9,4.3 0,3.9 2,9.2 7.7,9.2 6.5,0 10.1,-6.1 10.1,-11.9 0,-7.9 -7.3,-11.2 -9.2,-18 -0.3,-1.1 -0.5,-2.3 -0.5,-3.5 0,-2.5 0.6,-4.9 1.2,-6.2 0.4,-0.8 0.8,-1.2 1.1,-1.2 0.5,0 0.8,0.7 1,1.7 0.3,2.6 0.1,7.5 2.4,7.5 1.5,0 2.6,-2.6 2.6,-5.6 0,-3.4 -1.4,-7.4 -5.4,-8.1 -0.5,-0.3 -0.9,-0.3 -1.3,-0.3 z m 8.7,89 C 150.9,175.8 120,188 89.8,188 69.3,188 49.2,182.4 33.3,169.8 -8,135.3 -11.4,76.2 25.9,31.6 43.5,10.5 67.8,0 92.4,0 c 24.9,0 50.2,10.8 69.4,32.4 28.4,31.1 42.1,90.3 8.4,123.4 z M 122,21.4 c 0.2,-0.1 0.3,-0.2 0.4,-0.4 0.1,-0.2 0.1,-0.4 0,-0.6 -0.1,-0.2 -0.2,-0.3 -0.5,-0.4 l -1,-0.4 -0.5,1.4 1,0.4 c 0.3,0.1 0.4,0.1 0.6,0 z m 9.5,8.2 c 0.7,0.4 1.3,0.5 1.9,0.2 0.5,-0.2 0.9,-0.5 1.2,-1 0.3,-0.5 0.4,-1 0.3,-1.5 -0.1,-0.6 -0.4,-1.1 -1.1,-1.5 l -0.8,-0.5 -2.3,3.8 z m 21.7,114.1 c -0.6,0.6 -0.6,1.6 -0.2,2.1 l 2.2,-2.3 c -0.5,-0.4 -1.4,-0.4 -2,0.2 z M 34.7,46.4 l 1.1,1.9 1,-1.4 z m 106.6,109 1.2,1.9 c 0,0.7 -0.4,1.4 -1,1.8 -1,0.6 -2.1,0.4 -2.8,-0.6 -0.6,-0.9 -0.5,-2.2 0.5,-2.8 0.7,-0.5 1.4,-0.6 2.1,-0.3 z"
      fill="#43b0c6" />
  </g>
</svg>
