<?xml version="1.0" encoding="UTF-8"?>
<svg width="98px" height="146px" viewBox="0 0 98 146" version="1.1" xmlns="http://www.w3.org/2000/svg" xmlns:xlink="http://www.w3.org/1999/xlink">
    <!-- Generator: Sketch 45.1 (43504) - http://www.bohemiancoding.com/sketch -->
    <title>Maple</title>
    <desc>Created with Sketch.</desc>
    <defs></defs>
    <g id="Desktop" stroke="none" stroke-width="1" fill="none" fill-rule="evenodd" opacity="0.400000006">
        <g id="Maple-Cinnamon" transform="translate(-909.000000, -993.000000)">
            <g id="Maple" transform="translate(961.000000, 1062.500000) rotate(14.000000) translate(-961.000000, -1062.500000) translate(921.000000, 989.000000)">
                <path d="M31.9970233,111.502663 C31.5114419,112.403271 30.968186,113.290853 30.4416744,114.152385 C29.7384186,115.302334 29.0091163,116.49322 28.4044651,117.736208 C28.248186,118.058119 28.2333023,118.406081 28.3635349,118.714967 C28.5123721,119.072233 28.8453953,119.356929 29.2546977,119.474157 C29.5988837,119.572777 29.9635349,119.544866 30.2816744,119.396005 C30.6537674,119.221094 31.048186,119.020132 31.4574884,118.809866 C33.2435349,117.898094 35.2546977,116.872815 37.1765581,117.05703 C36.4956279,119.167132 35.9207442,121.334916 35.3626047,123.435714 C34.5700465,126.416651 33.7514419,129.50179 32.6314419,132.434347 C32.5086512,132.754397 32.519814,133.083752 32.6649302,133.392638 C32.836093,133.757347 33.1970233,134.05879 33.6044651,134.176018 C34.1979535,134.347208 34.7263256,134.101587 34.9477209,133.550803 C36.9402791,128.614208 38.5477209,123.123106 39.6063256,117.650613 C39.7179535,117.834828 39.8816744,117.989271 40.0900465,118.108359 C40.9551628,118.594018 41.7942326,119.146663 42.6072558,119.680701 C43.9114419,120.536651 45.2584186,121.424233 46.756093,122.066195 C47.2193488,122.269018 47.7105116,122.205752 48.0509767,121.919195 C48.3133023,121.697765 48.4584186,121.360967 48.4453953,120.996258 C48.3523721,118.465625 47.4128372,116.061524 46.5049302,113.737435 L46.3672558,113.385752 C49.7942326,112.232081 53.4946977,111.712929 57.076093,111.214246 C59.7309767,110.843954 62.4751628,110.460638 65.1021395,109.820537 C65.5151628,109.720056 65.8053953,109.429777 65.8984186,109.022271 C65.9970233,108.586853 65.8388837,108.103056 65.4965581,107.790448 C63.8333023,106.272068 61.7533023,105.477524 59.744,104.712752 C59.5337674,104.630878 59.3235349,104.550866 59.1151628,104.470853 C60.996093,103.413942 62.8844651,102.072334 65.0072558,100.287866 C65.2900465,100.049689 65.4109767,99.7054481 65.3384186,99.3444608 C65.2435349,98.8625241 64.8156279,98.4103595 64.3170233,98.2652203 C61.7272558,97.5209165 59.128186,97.7907266 56.6146977,98.0493722 C56.2109767,98.0903089 55.8091163,98.1312456 55.4053953,98.1684608 C56.784,96.3393342 57.6993488,94.4190304 58.1309767,92.4559291 C58.2686512,91.8325747 57.8984186,91.2631823 57.2305116,91.0696633 C56.888186,90.971043 56.519814,90.9989544 56.2202791,91.1459544 C54.1626047,92.1656506 52.1905116,93.3677013 50.2835349,94.5269544 C48.9179535,95.3568532 47.5114419,96.2128025 46.0788837,96.998043 C46.7393488,94.9847013 47.5635349,93.0011316 48.3635349,91.0752456 C49.5263256,88.2729418 50.728186,85.3776 51.451907,82.3538658 C51.5988837,81.7398152 51.2528372,81.1797266 50.6128372,80.9955114 C50.1272558,80.8540937 49.4853953,80.9527139 49.1449302,81.4886127 C48.3300465,82.7837013 47.2658605,84.0062203 45.8146977,85.3124734 L45.744,85.0240557 C45.024,81.9947392 44.279814,78.8649418 42.6016744,75.9956506 C42.4546977,75.7463089 42.2277209,75.5695367 41.9412093,75.4876633 C41.3607442,75.3201949 40.7114419,75.5695367 40.4602791,76.0533342 C39.0556279,78.7719038 38.0826047,80.9508532 37.3402791,83.0423468 C36.5384186,82.1287139 35.5728372,81.1369291 34.3914419,80.3461063 C33.8984186,80.0148911 33.1356279,79.992562 32.7170233,80.3051696 C32.4863256,80.4763595 32.3523721,80.7294228 32.3300465,81.0383089 C31.984,85.7683595 32.6537674,90.5970304 33.4779535,95.1465873 C33.079814,94.8172329 32.6816744,94.4804354 32.2872558,94.1454987 C30.1570233,92.3442835 27.956093,90.4816633 25.371907,89.1307519 C24.8249302,88.8479165 24.2091163,88.9818911 23.8444651,89.4228911 C23.5691163,89.7522456 23.4965581,90.1876633 23.6509767,90.5877266 C23.848186,91.0975747 24.0602791,91.6074228 24.2705116,92.1154101 C24.6091163,92.9304228 24.9570233,93.7696253 25.2416744,94.6125494 C24.3616744,94.3892582 23.4779535,94.097119 22.6221395,93.8124228 C21.9877209,93.602157 21.3328372,93.3863089 20.6779535,93.1983722 C20.0026047,93.0029924 19.399814,92.8578532 18.8379535,92.7573722 C18.2909767,92.6587519 17.7905116,92.8652962 17.5300465,93.2969924 C17.291907,93.6914734 17.3086512,94.1994608 17.5746977,94.6218532 C17.8333023,95.0293595 18.0974884,95.4350051 18.359814,95.8425114 C18.7784186,96.4863342 19.2100465,97.1506253 19.6156279,97.818638 C17.8202791,98.0810051 16.0602791,98.5127013 14.2500465,99.1323342 C13.8016744,99.2867772 13.4612093,99.7110304 13.4035349,100.189246 C13.3514419,100.61722 13.5300465,101.00798 13.8928372,101.262904 C15.744,102.548689 17.7979535,103.436271 19.7849302,104.295942 C20.7709767,104.720195 21.7905116,105.161195 22.7765581,105.644992 C25.3830698,106.928916 27.8016744,108.605461 30.1421395,110.226182 C30.7579535,110.654157 31.3756279,111.082132 31.9970233,111.502663 M21.2900465,102.310511 C20.1291163,101.81741 18.9328372,101.311284 17.7942326,100.732587 C19.1467907,100.397651 20.4528372,100.183663 21.768186,100.079461 C22.2202791,100.042246 22.6537674,99.7556886 22.8491163,99.3630684 C23.0016744,99.056043 22.996093,98.7192456 22.8323721,98.4159418 C22.3728372,97.5618532 21.8705116,96.7338152 21.3774884,95.9522962 C21.6267907,96.0323089 21.8742326,96.1141823 22.1235349,96.1960557 C22.7486512,96.4007392 23.3737674,96.6072835 24.0044651,96.789638 C25.0556279,97.0929418 25.9356279,97.2752962 26.7709767,97.3627519 C27.2584186,97.4129924 27.7514419,97.238081 28.0230698,96.9124481 C28.2165581,96.6798532 28.2909767,96.3802709 28.2258605,96.0658025 C28.0230698,95.0833215 27.7105116,94.1268911 27.3867907,93.2579165 C28.5533023,94.1287519 29.6677209,95.087043 30.756093,96.0192835 C31.9653953,97.0594481 33.2174884,98.1349671 34.5346977,99.0895367 C35.0649302,99.4728532 35.9188837,99.4300557 36.3412093,99.0095241 C36.5849302,98.7676253 36.679814,98.4345494 36.6091163,98.0698405 C35.7533023,93.6505367 34.7877209,88.6711443 34.7858605,83.900157 C35.3588837,84.4937392 35.8891163,85.1226759 36.4435349,85.7795241 L36.8509767,86.2633215 C37.0463256,86.4921949 37.291907,86.654081 37.5616744,86.7322329 C38.251907,86.9313342 38.9384186,86.5517392 39.1226047,85.8688405 C39.6658605,83.8480557 40.4751628,81.7249291 41.5914419,79.3989797 C42.3802791,81.3471949 42.8621395,83.4182203 43.3309767,85.4297013 C43.5226047,86.2540177 43.716093,87.0746127 43.9263256,87.8896253 C44.0267907,88.2729418 44.2946977,88.5483342 44.6816744,88.6599797 C45.1207442,88.7865114 45.6695814,88.6785873 46.0156279,88.3976127 C46.4342326,88.0608152 46.8249302,87.7296 47.1970233,87.4002456 C46.7970233,88.4124987 46.3728372,89.4191696 45.9616744,90.4035114 C44.7858605,93.1983722 43.5691163,96.0899924 42.8528372,99.1193089 C42.7058605,99.7389418 43.0686512,100.306473 43.7346977,100.499992 C44.0807442,100.598613 44.4546977,100.576284 44.7579535,100.436727 C47.159814,99.3314354 49.4165581,97.9544734 51.6026047,96.6240304 C52.5607442,96.0378911 53.5449302,95.4387266 54.5402791,94.8618911 C53.8388837,96.1569797 52.8807442,97.4129924 51.6286512,98.6801696 C51.3551628,98.955562 51.2509767,99.3258532 51.3421395,99.6942835 C51.479814,100.256233 52.0528372,100.706537 52.6686512,100.717701 C54.0230698,100.73817 55.399814,100.589309 56.728186,100.447891 C58.1812093,100.291587 59.6770233,100.129701 61.1486512,100.189246 C59.2546977,101.62017 57.5393488,102.647309 55.799814,103.400916 C55.3291163,103.601878 55.0202791,104.042878 55.0128372,104.524815 C55.0053953,104.982562 55.264,105.375182 55.7253953,105.602195 C56.6649302,106.063663 57.6714419,106.439537 58.6426047,106.802385 C59.6751628,107.187562 60.7356279,107.583904 61.716093,108.084448 C59.9021395,108.439853 58.0453953,108.715246 56.2444651,108.983195 C52.3002791,109.569334 48.224,110.175942 44.4528372,111.619891 C44.1328372,111.740841 43.8928372,111.962271 43.7737674,112.243246 C43.6658605,112.496309 43.6658605,112.775423 43.768186,113.048954 C43.9412093,113.514144 44.1216744,113.979334 44.3021395,114.440803 C44.8788837,115.918246 45.4723721,117.438486 45.7979535,118.977334 C45.1579535,118.592157 44.5309767,118.179068 43.9188837,117.775284 C43.0258605,117.187284 42.1012093,116.576954 41.1337674,116.05222 C40.8658605,115.907081 40.5886512,115.858701 40.3356279,115.907081 C40.2202791,115.626106 39.9951628,115.391651 39.6826047,115.239068 C39.3291163,115.067878 38.9626047,114.926461 38.5942326,114.820397 C36.5030698,114.215651 34.4156279,114.764575 32.6984186,115.453056 C32.7244651,115.408397 32.7523721,115.3656 32.7784186,115.320942 C33.4816744,114.169132 34.2091163,112.976385 34.8137674,111.733397 C35.0388837,111.270068 34.9626047,110.557397 34.4472558,110.213157 C33.4723721,109.565613 32.4956279,108.87341 31.5523721,108.201676 C29.5188837,106.761448 27.4184186,105.272841 25.1765581,104.085676 C23.9170233,103.421385 22.5830698,102.855714 21.2900465,102.310511" id="Fill-1" fill="#D97823"></path>
                <path d="M31.9970233,111.502663 C31.5114419,112.403271 30.968186,113.290853 30.4416744,114.152385 C29.7384186,115.302334 29.0091163,116.49322 28.4044651,117.736208 C28.248186,118.058119 28.2333023,118.406081 28.3635349,118.714967 C28.5123721,119.072233 28.8453953,119.356929 29.2546977,119.474157 C29.5988837,119.572777 29.9635349,119.544866 30.2816744,119.396005 C30.6537674,119.221094 31.048186,119.020132 31.4574884,118.809866 C33.2435349,117.898094 35.2546977,116.872815 37.1765581,117.05703 C36.4956279,119.167132 35.9207442,121.334916 35.3626047,123.435714 C34.5700465,126.416651 33.7514419,129.50179 32.6314419,132.434347 C32.5086512,132.754397 32.519814,133.083752 32.6649302,133.392638 C32.836093,133.757347 33.1970233,134.05879 33.6044651,134.176018 C34.1979535,134.347208 34.7263256,134.101587 34.9477209,133.550803 C36.9402791,128.614208 38.5477209,123.123106 39.6063256,117.650613 C39.7179535,117.834828 39.8816744,117.989271 40.0900465,118.108359 C40.9551628,118.594018 41.7942326,119.146663 42.6072558,119.680701 C43.9114419,120.536651 45.2584186,121.424233 46.756093,122.066195 C47.2193488,122.269018 47.7105116,122.205752 48.0509767,121.919195 C48.3133023,121.697765 48.4584186,121.360967 48.4453953,120.996258 C48.3523721,118.465625 47.4128372,116.061524 46.5049302,113.737435 L46.3672558,113.385752 C49.7942326,112.232081 53.4946977,111.712929 57.076093,111.214246 C59.7309767,110.843954 62.4751628,110.460638 65.1021395,109.820537 C65.5151628,109.720056 65.8053953,109.429777 65.8984186,109.022271 C65.9970233,108.586853 65.8388837,108.103056 65.4965581,107.790448 C63.8333023,106.272068 61.7533023,105.477524 59.744,104.712752 C59.5337674,104.630878 59.3235349,104.550866 59.1151628,104.470853 C60.996093,103.413942 62.8844651,102.072334 65.0072558,100.287866 C65.2900465,100.049689 65.4109767,99.7054481 65.3384186,99.3444608 C65.2435349,98.8625241 64.8156279,98.4103595 64.3170233,98.2652203 C61.7272558,97.5209165 59.128186,97.7907266 56.6146977,98.0493722 C56.2109767,98.0903089 55.8091163,98.1312456 55.4053953,98.1684608 C56.784,96.3393342 57.6993488,94.4190304 58.1309767,92.4559291 C58.2686512,91.8325747 57.8984186,91.2631823 57.2305116,91.0696633 C56.888186,90.971043 56.519814,90.9989544 56.2202791,91.1459544 C54.1626047,92.1656506 52.1905116,93.3677013 50.2835349,94.5269544 C48.9179535,95.3568532 47.5114419,96.2128025 46.0788837,96.998043 C46.7393488,94.9847013 47.5635349,93.0011316 48.3635349,91.0752456 C49.5263256,88.2729418 50.728186,85.3776 51.451907,82.3538658 C51.5988837,81.7398152 51.2528372,81.1797266 50.6128372,80.9955114 C50.1272558,80.8540937 49.4853953,80.9527139 49.1449302,81.4886127 C48.3300465,82.7837013 47.2658605,84.0062203 45.8146977,85.3124734 L45.744,85.0240557 C45.024,81.9947392 44.279814,78.8649418 42.6016744,75.9956506 C42.4546977,75.7463089 42.2277209,75.5695367 41.9412093,75.4876633 C41.3607442,75.3201949 40.7114419,75.5695367 40.4602791,76.0533342 C39.0556279,78.7719038 38.0826047,80.9508532 37.3402791,83.0423468 C36.5384186,82.1287139 35.5728372,81.1369291 34.3914419,80.3461063 C33.8984186,80.0148911 33.1356279,79.992562 32.7170233,80.3051696 C32.4863256,80.4763595 32.3523721,80.7294228 32.3300465,81.0383089 C31.984,85.7683595 32.6537674,90.5970304 33.4779535,95.1465873 C33.079814,94.8172329 32.6816744,94.4804354 32.2872558,94.1454987 C30.1570233,92.3442835 27.956093,90.4816633 25.371907,89.1307519 C24.8249302,88.8479165 24.2091163,88.9818911 23.8444651,89.4228911 C23.5691163,89.7522456 23.4965581,90.1876633 23.6509767,90.5877266 C23.848186,91.0975747 24.0602791,91.6074228 24.2705116,92.1154101 C24.6091163,92.9304228 24.9570233,93.7696253 25.2416744,94.6125494 C24.3616744,94.3892582 23.4779535,94.097119 22.6221395,93.8124228 C21.9877209,93.602157 21.3328372,93.3863089 20.6779535,93.1983722 C20.0026047,93.0029924 19.399814,92.8578532 18.8379535,92.7573722 C18.2909767,92.6587519 17.7905116,92.8652962 17.5300465,93.2969924 C17.291907,93.6914734 17.3086512,94.1994608 17.5746977,94.6218532 C17.8333023,95.0293595 18.0974884,95.4350051 18.359814,95.8425114 C18.7784186,96.4863342 19.2100465,97.1506253 19.6156279,97.818638 C17.8202791,98.0810051 16.0602791,98.5127013 14.2500465,99.1323342 C13.8016744,99.2867772 13.4612093,99.7110304 13.4035349,100.189246 C13.3514419,100.61722 13.5300465,101.00798 13.8928372,101.262904 C15.744,102.548689 17.7979535,103.436271 19.7849302,104.295942 C20.7709767,104.720195 21.7905116,105.161195 22.7765581,105.644992 C25.3830698,106.928916 27.8016744,108.605461 30.1421395,110.226182 C30.7579535,110.654157 31.3756279,111.082132 31.9970233,111.502663 Z M21.2900465,102.310511 C20.1291163,101.81741 18.9328372,101.311284 17.7942326,100.732587 C19.1467907,100.397651 20.4528372,100.183663 21.768186,100.079461 C22.2202791,100.042246 22.6537674,99.7556886 22.8491163,99.3630684 C23.0016744,99.056043 22.996093,98.7192456 22.8323721,98.4159418 C22.3728372,97.5618532 21.8705116,96.7338152 21.3774884,95.9522962 C21.6267907,96.0323089 21.8742326,96.1141823 22.1235349,96.1960557 C22.7486512,96.4007392 23.3737674,96.6072835 24.0044651,96.789638 C25.0556279,97.0929418 25.9356279,97.2752962 26.7709767,97.3627519 C27.2584186,97.4129924 27.7514419,97.238081 28.0230698,96.9124481 C28.2165581,96.6798532 28.2909767,96.3802709 28.2258605,96.0658025 C28.0230698,95.0833215 27.7105116,94.1268911 27.3867907,93.2579165 C28.5533023,94.1287519 29.6677209,95.087043 30.756093,96.0192835 C31.9653953,97.0594481 33.2174884,98.1349671 34.5346977,99.0895367 C35.0649302,99.4728532 35.9188837,99.4300557 36.3412093,99.0095241 C36.5849302,98.7676253 36.679814,98.4345494 36.6091163,98.0698405 C35.7533023,93.6505367 34.7877209,88.6711443 34.7858605,83.900157 C35.3588837,84.4937392 35.8891163,85.1226759 36.4435349,85.7795241 L36.8509767,86.2633215 C37.0463256,86.4921949 37.291907,86.654081 37.5616744,86.7322329 C38.251907,86.9313342 38.9384186,86.5517392 39.1226047,85.8688405 C39.6658605,83.8480557 40.4751628,81.7249291 41.5914419,79.3989797 C42.3802791,81.3471949 42.8621395,83.4182203 43.3309767,85.4297013 C43.5226047,86.2540177 43.716093,87.0746127 43.9263256,87.8896253 C44.0267907,88.2729418 44.2946977,88.5483342 44.6816744,88.6599797 C45.1207442,88.7865114 45.6695814,88.6785873 46.0156279,88.3976127 C46.4342326,88.0608152 46.8249302,87.7296 47.1970233,87.4002456 C46.7970233,88.4124987 46.3728372,89.4191696 45.9616744,90.4035114 C44.7858605,93.1983722 43.5691163,96.0899924 42.8528372,99.1193089 C42.7058605,99.7389418 43.0686512,100.306473 43.7346977,100.499992 C44.0807442,100.598613 44.4546977,100.576284 44.7579535,100.436727 C47.159814,99.3314354 49.4165581,97.9544734 51.6026047,96.6240304 C52.5607442,96.0378911 53.5449302,95.4387266 54.5402791,94.8618911 C53.8388837,96.1569797 52.8807442,97.4129924 51.6286512,98.6801696 C51.3551628,98.955562 51.2509767,99.3258532 51.3421395,99.6942835 C51.479814,100.256233 52.0528372,100.706537 52.6686512,100.717701 C54.0230698,100.73817 55.399814,100.589309 56.728186,100.447891 C58.1812093,100.291587 59.6770233,100.129701 61.1486512,100.189246 C59.2546977,101.62017 57.5393488,102.647309 55.799814,103.400916 C55.3291163,103.601878 55.0202791,104.042878 55.0128372,104.524815 C55.0053953,104.982562 55.264,105.375182 55.7253953,105.602195 C56.6649302,106.063663 57.6714419,106.439537 58.6426047,106.802385 C59.6751628,107.187562 60.7356279,107.583904 61.716093,108.084448 C59.9021395,108.439853 58.0453953,108.715246 56.2444651,108.983195 C52.3002791,109.569334 48.224,110.175942 44.4528372,111.619891 C44.1328372,111.740841 43.8928372,111.962271 43.7737674,112.243246 C43.6658605,112.496309 43.6658605,112.775423 43.768186,113.048954 C43.9412093,113.514144 44.1216744,113.979334 44.3021395,114.440803 C44.8788837,115.918246 45.4723721,117.438486 45.7979535,118.977334 C45.1579535,118.592157 44.5309767,118.179068 43.9188837,117.775284 C43.0258605,117.187284 42.1012093,116.576954 41.1337674,116.05222 C40.8658605,115.907081 40.5886512,115.858701 40.3356279,115.907081 C40.2202791,115.626106 39.9951628,115.391651 39.6826047,115.239068 C39.3291163,115.067878 38.9626047,114.926461 38.5942326,114.820397 C36.5030698,114.215651 34.4156279,114.764575 32.6984186,115.453056 C32.7244651,115.408397 32.7523721,115.3656 32.7784186,115.320942 C33.4816744,114.169132 34.2091163,112.976385 34.8137674,111.733397 C35.0388837,111.270068 34.9626047,110.557397 34.4472558,110.213157 C33.4723721,109.565613 32.4956279,108.87341 31.5523721,108.201676 C29.5188837,106.761448 27.4184186,105.272841 25.1765581,104.085676 C23.9170233,103.421385 22.5830698,102.855714 21.2900465,102.310511 Z" id="Stroke-3" stroke="#D97823" stroke-width="0.25"></path>
                <path d="M79.4063256,111.276581 C80.1151628,102.612885 77.7802791,93.288619 72.2714419,82.7678848 C69.7393488,77.9299101 66.6472558,73.6352772 63.6593488,69.4839228 C59.8658605,64.2105304 58.3737674,59.9121759 58.6714419,55.1058342 C59.2909767,45.0558722 60.6230698,34.1890367 62.7421395,21.8856949 C63.1626047,21.6140241 63.4453953,21.2772266 63.6072558,20.8622772 C63.7300465,20.5403658 63.7691163,20.2072899 63.7226047,19.8704924 C64.824,19.7067456 65.8156279,19.4257709 66.7365581,19.0108215 C66.8612093,18.9568595 66.9653953,18.8768468 67.0602791,18.7689228 C67.2444651,18.6256443 67.3709767,18.4321253 67.4286512,18.2051127 C68.2137674,15.0883405 68.7514419,11.8896949 69.2705116,8.7952519 C69.4100465,7.9727962 69.5495814,7.14847975 69.6928372,6.32044177 C69.7877209,5.76965696 69.5346977,5.27469494 69.0286512,5.00860633 C67.5607442,2.76639114 64.3905116,1.8955557 61.1774884,1.2889481 L60.3886512,1.1419481 C56.2658605,0.377175949 51.1365581,-0.573672152 46.2677209,0.754910127 C45.6891163,0.913074684 45.3635349,1.35221392 45.4063256,1.91044177 C44.5746977,4.36292278 43.9588837,6.98101139 43.3616744,9.5116443 C43.0584186,10.8048722 42.7421395,12.1427582 42.4053953,13.4266823 C42.3830698,13.5159987 42.3700465,13.6053152 42.3663256,13.7020747 C42.2063256,14.1765684 42.3495814,14.6585051 42.7514419,14.9692519 C43.6314419,15.6595937 44.688186,16.2662013 45.9737674,16.8244291 C45.968186,16.8542013 45.9626047,16.8783911 45.9626047,16.895138 C45.9495814,17.0477203 45.9365581,17.2189101 45.9495814,17.3901 C45.9774884,17.7138722 46.048186,17.9911253 46.159814,18.2218595 C46.2844651,18.4823658 46.4426047,18.7131 46.6305116,18.9084797 C45.5644651,25.3876443 44.371907,31.6304924 43.0900465,37.4658342 C42.9002791,37.5737582 42.6621395,37.6630747 42.3812093,37.7319228 C42.236093,37.7672772 42.0723721,37.7747203 41.8993488,37.7840241 C41.811907,37.7877456 41.7263256,37.7933278 41.6407442,37.8007709 C41.2612093,37.7114544 40.8742326,37.629581 40.4816744,37.5551506 C36.2416744,36.7531633 31.1905116,36.7847962 26.9653953,37.6388848 C21.2333023,38.7962772 16.8184186,41.591138 14.1951628,45.7220241 C8.6267907,54.4917835 7.91051163,66.039657 12.4109767,74.4651759 C12.4351628,74.5526316 12.4686512,74.6326443 12.5077209,74.7107962 C12.6472558,74.9787456 12.824,75.2653025 13.0546977,75.5983785 C13.2370233,75.8961 13.4379535,76.2049861 13.6779535,76.5566696 C7.5067907,83.0879354 3.63516279,89.6508342 1.83981395,96.6137962 C0.502139535,101.807176 0.905860465,107.488075 1.47516279,112.361404 C2.04074419,117.206822 2.92446512,121.795454 4.0984186,126.002632 C2.77004651,126.612961 1.784,127.867113 1.43237209,129.4041 C1.05097674,131.076923 1.47516279,132.807429 2.56539535,134.029948 C4.76446512,136.495454 7.91051163,137.902189 10.984,139.055859 C14.9709767,140.55191 19.091907,142.098201 23.3188837,143.156973 C24.7793488,143.523543 26.316093,143.860341 27.891907,144.156201 C31.4044651,144.820492 35.2016744,145.324758 40.2026047,145.786227 C40.9970233,145.860657 41.7895814,145.936948 42.5802791,146.013239 C48.7012093,146.606822 55.0305116,147.217151 61.2556279,146.163961 C62.239814,145.998353 67.1849302,145.041923 67.8677209,142.611771 C68.1356279,141.651619 67.7077209,140.622619 66.5933023,139.550822 C69.4807442,135.680442 72.1784186,131.184847 74.6100465,126.184986 C76.7346977,121.823366 78.9653953,116.641151 79.4063256,111.276581 M47.2612093,5.39378354 C47.2816744,5.28585949 47.304,5.17421392 47.3226047,5.06628987 C47.3523721,5.08303671 47.3784186,5.09978354 47.4063256,5.11653038 C47.356093,5.20956835 47.3077209,5.30074557 47.2612093,5.39378354 M48.8723721,2.89478354 C52.4686512,2.39982152 56.0444651,2.95060633 59.4137674,3.56651772 L60.288186,3.7284038 C62.6379535,4.17126456 65.091907,4.73693544 67.0491163,6.2962519 C66.9746977,6.86192278 66.9114419,7.43317595 66.8500465,8.00442911 C66.6658605,9.67539114 66.476093,11.4040367 66.0146977,13.0061506 C65.9365581,13.2796823 65.8453953,13.560657 65.7523721,13.8490747 C65.4026047,14.9320367 65.011907,16.1508342 65.1514419,17.3249734 C64.8370233,17.3603278 64.5244651,17.4049861 64.2100465,17.4459228 C64.0165581,17.4719734 63.8249302,17.4980241 63.6314419,17.5222139 C63.7505116,17.1537835 63.8714419,16.7834924 63.9923721,16.4132013 C64.8779535,13.7132392 65.7914419,10.9221 65.9607442,8.01001139 C65.9979535,7.37921392 65.5384186,6.96054304 65.0677209,6.87122658 C64.608186,6.78377089 64.051907,6.98659367 63.9086512,7.63785949 C63.568186,9.18415063 63.1384186,10.7192772 62.6863256,12.2302139 C62.7142326,12.0255304 62.7384186,11.8208468 62.7551628,11.6161633 C62.8091163,11.0114165 62.3309767,10.5555304 61.8379535,10.4624924 C61.384,10.3768975 60.9858605,10.5871633 60.8016744,11.0095557 C60.0612093,12.6898215 59.464,14.4835937 58.8835349,16.2178215 L58.5337674,17.2617076 C58.5114419,17.3268342 58.4946977,17.3938215 58.4853953,17.4589481 C57.7077209,17.3491633 56.8537674,17.1947203 55.996093,17.0142266 C56.4333023,16.1564165 56.688186,15.1702139 56.9356279,14.2137835 C57.0528372,13.761619 57.168186,13.3168975 57.3002791,12.9019481 C57.9142326,10.9667582 58.451907,9.01668228 58.851907,7.5317962 C58.9207442,7.28245443 58.8816744,7.03683418 58.7421395,6.82284684 C58.584,6.58280886 58.3049302,6.40231519 57.9923721,6.34463165 C57.4974884,6.25159367 57.0695814,6.46372025 56.9021395,6.88611266 L56.4649302,7.9914038 C55.8826047,9.4614038 55.2779535,10.9816443 54.7477209,12.5093278 C54.6323721,12.8424038 54.4965581,13.1829228 54.3588837,13.5327456 C53.9867907,14.4780114 53.6016744,15.4511886 53.5067907,16.4392519 C52.8277209,16.2699228 52.1486512,16.0894291 51.4826047,15.8977709 C52.2770233,14.2212266 52.7644651,12.3530241 53.1588837,10.8309228 C53.2426047,10.5090114 53.3356279,10.1833785 53.4286512,9.85216329 C53.7226047,8.81013797 54.0258605,7.73647975 54.1002791,6.64607468 C54.4946977,6.56606203 54.7923721,6.26089747 54.8593488,5.85711266 C54.9356279,5.40680886 54.7123721,4.98627722 54.291907,4.78345443 C53.6072558,4.45223924 52.8723721,4.28477089 52.1616744,4.12288481 C51.7505116,4.02984684 51.3244651,3.93308734 50.9244651,3.8065557 C50.1877209,3.57396076 49.5421395,3.24646709 48.8723721,2.89478354 M60.8053953,20.0212139 C60.7644651,20.0361 60.7235349,20.0565684 60.6826047,20.0751759 C58.7086512,20.028657 56.4463256,19.6918595 54.0537674,19.0926949 C54.1709767,19.1150241 54.288186,19.1354924 54.4035349,19.1578215 L55.2574884,19.3178468 C56.9579535,19.6304544 58.8909767,19.9560873 60.8053953,20.0212139 M51.596093,6.55117595 C51.331907,7.2377962 51.1495814,7.95977089 50.9728372,8.66127722 C50.8928372,8.97202405 50.8146977,9.28463165 50.7309767,9.59165696 C50.1765581,11.5863911 49.4974884,13.4843658 48.904,15.0864797 C48.4035349,14.9115684 47.8974884,14.7236316 47.3933023,14.5263911 C48.1486512,11.7631633 48.848186,8.93108734 49.5272558,6.19018861 L49.5570233,6.07296076 C50.2137674,6.28322658 50.9133023,6.44697342 51.596093,6.55117595 M67.1477209,133.953657 C66.1002791,135.706492 65.0174884,137.517011 63.999814,139.32567 C63.7467907,139.772252 63.8807442,140.300708 64.3216744,140.635644 C64.3942326,140.793809 64.4965581,140.937087 64.6305116,141.061758 C64.9542326,141.361341 65.3244651,141.787454 65.2463256,142.109366 C65.116093,142.645265 63.7895814,142.982062 63.1514419,143.145809 C61.0007442,143.691011 58.796093,143.890113 56.9226047,144.012923 C52.0388837,144.329252 47.0453953,143.819404 42.2156279,143.324442 C41.356093,143.238847 40.4965581,143.14953 39.6388837,143.065796 C36.1691163,142.728999 32.9263256,142.271252 29.7263256,141.666505 C24.7774884,140.730543 20.048186,139.461505 15.2686512,137.784961 C14.9895814,137.688201 14.6807442,137.582138 14.3514419,137.470492 C10.9579535,136.307518 5.27795349,134.364885 4.37190698,131.473265 C4.0984186,130.60429 4.27888372,129.712986 4.92446512,128.765859 C4.95051163,128.851454 4.97655814,128.937049 5.00632558,129.020784 C5.12725581,129.392935 5.42306977,129.647859 5.81934884,129.72229 C6.19888372,129.794859 6.61190698,129.679492 6.87423256,129.430151 C7.1067907,129.20872 7.20353488,128.905416 7.14586047,128.579784 C6.77934884,126.508758 6.35516279,124.411682 5.944,122.383454 C4.2212093,113.883505 2.44074419,105.093277 4.68818605,96.3942266 C6.23609302,90.4044418 9.66493023,84.7588975 15.4714419,78.6537456 C15.6742326,78.8416823 15.8751628,78.9775177 16.0872558,79.076138 C16.1765581,79.1170747 16.2695814,79.1468468 16.3663256,79.1654544 C16.984,79.2808215 17.5700465,78.8919228 17.6742326,78.3002013 C17.836093,77.3549354 17.1849302,76.5287582 16.6602791,75.8626063 L16.5505116,75.7211886 C16.1374884,75.1927329 15.7114419,74.6679987 15.3077209,74.186062 C10.6156279,66.2368975 11.2574884,54.1605684 16.771907,46.6933405 C19.7263256,42.6927076 24.2267907,40.3053532 29.7877209,39.7917835 C32.2770233,39.5610494 34.7849302,39.5647709 37.248186,39.7992266 C38.0835349,39.8792392 38.9430698,40.0076316 39.7765581,40.1323025 C41.1328372,40.3351253 42.5374884,40.5435304 43.9216744,40.5602772 C44.0128372,40.5602772 44.0853953,40.5435304 44.1486512,40.5249228 C44.3867907,40.5249228 44.9412093,40.5007329 45.2742326,40.0690367 L45.4379535,40.1155557 L45.5030698,39.8196949 L45.596093,39.4307962 C45.6258605,39.3582266 45.6463256,39.2986823 45.648186,39.239138 C45.6612093,39.1740114 45.6705116,39.1070241 45.6686512,39.0493405 C47.0435349,32.7599734 48.1765581,26.3329101 49.2723721,20.1105304 C51.411907,20.8027329 53.5495814,21.266062 55.3746977,21.6326316 C55.6742326,21.6940367 55.9756279,21.7591633 56.2807442,21.8242899 C56.6863256,21.9117456 57.0937674,22.001062 57.5030698,22.0773532 C58.1486512,22.2001633 58.9728372,22.3322772 59.8286512,22.3229734 C58.1263256,32.9088342 56.3756279,43.8501 55.9402791,54.6555304 C55.7486512,59.4079101 56.6379535,63.2913152 58.7384186,66.8769987 C59.9905116,69.0112899 61.5105116,71.0190494 62.9821395,72.9616823 C64.6044651,75.1034165 66.2826047,77.3177203 67.5849302,79.6920494 C72.5077209,88.6720747 77.6872558,99.1611759 76.8053953,110.026151 C76.076093,119.011758 71.5365581,126.607378 67.1477209,133.953657" id="Fill-5" fill="#D97823"></path>
                <path d="M79.4063256,111.276581 C80.1151628,102.612885 77.7802791,93.288619 72.2714419,82.7678848 C69.7393488,77.9299101 66.6472558,73.6352772 63.6593488,69.4839228 C59.8658605,64.2105304 58.3737674,59.9121759 58.6714419,55.1058342 C59.2909767,45.0558722 60.6230698,34.1890367 62.7421395,21.8856949 C63.1626047,21.6140241 63.4453953,21.2772266 63.6072558,20.8622772 C63.7300465,20.5403658 63.7691163,20.2072899 63.7226047,19.8704924 C64.824,19.7067456 65.8156279,19.4257709 66.7365581,19.0108215 C66.8612093,18.9568595 66.9653953,18.8768468 67.0602791,18.7689228 C67.2444651,18.6256443 67.3709767,18.4321253 67.4286512,18.2051127 C68.2137674,15.0883405 68.7514419,11.8896949 69.2705116,8.7952519 C69.4100465,7.9727962 69.5495814,7.14847975 69.6928372,6.32044177 C69.7877209,5.76965696 69.5346977,5.27469494 69.0286512,5.00860633 C67.5607442,2.76639114 64.3905116,1.8955557 61.1774884,1.2889481 L60.3886512,1.1419481 C56.2658605,0.377175949 51.1365581,-0.573672152 46.2677209,0.754910127 C45.6891163,0.913074684 45.3635349,1.35221392 45.4063256,1.91044177 C44.5746977,4.36292278 43.9588837,6.98101139 43.3616744,9.5116443 C43.0584186,10.8048722 42.7421395,12.1427582 42.4053953,13.4266823 C42.3830698,13.5159987 42.3700465,13.6053152 42.3663256,13.7020747 C42.2063256,14.1765684 42.3495814,14.6585051 42.7514419,14.9692519 C43.6314419,15.6595937 44.688186,16.2662013 45.9737674,16.8244291 C45.968186,16.8542013 45.9626047,16.8783911 45.9626047,16.895138 C45.9495814,17.0477203 45.9365581,17.2189101 45.9495814,17.3901 C45.9774884,17.7138722 46.048186,17.9911253 46.159814,18.2218595 C46.2844651,18.4823658 46.4426047,18.7131 46.6305116,18.9084797 C45.5644651,25.3876443 44.371907,31.6304924 43.0900465,37.4658342 C42.9002791,37.5737582 42.6621395,37.6630747 42.3812093,37.7319228 C42.236093,37.7672772 42.0723721,37.7747203 41.8993488,37.7840241 C41.811907,37.7877456 41.7263256,37.7933278 41.6407442,37.8007709 C41.2612093,37.7114544 40.8742326,37.629581 40.4816744,37.5551506 C36.2416744,36.7531633 31.1905116,36.7847962 26.9653953,37.6388848 C21.2333023,38.7962772 16.8184186,41.591138 14.1951628,45.7220241 C8.6267907,54.4917835 7.91051163,66.039657 12.4109767,74.4651759 C12.4351628,74.5526316 12.4686512,74.6326443 12.5077209,74.7107962 C12.6472558,74.9787456 12.824,75.2653025 13.0546977,75.5983785 C13.2370233,75.8961 13.4379535,76.2049861 13.6779535,76.5566696 C7.5067907,83.0879354 3.63516279,89.6508342 1.83981395,96.6137962 C0.502139535,101.807176 0.905860465,107.488075 1.47516279,112.361404 C2.04074419,117.206822 2.92446512,121.795454 4.0984186,126.002632 C2.77004651,126.612961 1.784,127.867113 1.43237209,129.4041 C1.05097674,131.076923 1.47516279,132.807429 2.56539535,134.029948 C4.76446512,136.495454 7.91051163,137.902189 10.984,139.055859 C14.9709767,140.55191 19.091907,142.098201 23.3188837,143.156973 C24.7793488,143.523543 26.316093,143.860341 27.891907,144.156201 C31.4044651,144.820492 35.2016744,145.324758 40.2026047,145.786227 C40.9970233,145.860657 41.7895814,145.936948 42.5802791,146.013239 C48.7012093,146.606822 55.0305116,147.217151 61.2556279,146.163961 C62.239814,145.998353 67.1849302,145.041923 67.8677209,142.611771 C68.1356279,141.651619 67.7077209,140.622619 66.5933023,139.550822 C69.4807442,135.680442 72.1784186,131.184847 74.6100465,126.184986 C76.7346977,121.823366 78.9653953,116.641151 79.4063256,111.276581 Z M47.2612093,5.39378354 C47.2816744,5.28585949 47.304,5.17421392 47.3226047,5.06628987 C47.3523721,5.08303671 47.3784186,5.09978354 47.4063256,5.11653038 C47.356093,5.20956835 47.3077209,5.30074557 47.2612093,5.39378354 Z M48.8723721,2.89478354 C52.4686512,2.39982152 56.0444651,2.95060633 59.4137674,3.56651772 L60.288186,3.7284038 C62.6379535,4.17126456 65.091907,4.73693544 67.0491163,6.2962519 C66.9746977,6.86192278 66.9114419,7.43317595 66.8500465,8.00442911 C66.6658605,9.67539114 66.476093,11.4040367 66.0146977,13.0061506 C65.9365581,13.2796823 65.8453953,13.560657 65.7523721,13.8490747 C65.4026047,14.9320367 65.011907,16.1508342 65.1514419,17.3249734 C64.8370233,17.3603278 64.5244651,17.4049861 64.2100465,17.4459228 C64.0165581,17.4719734 63.8249302,17.4980241 63.6314419,17.5222139 C63.7505116,17.1537835 63.8714419,16.7834924 63.9923721,16.4132013 C64.8779535,13.7132392 65.7914419,10.9221 65.9607442,8.01001139 C65.9979535,7.37921392 65.5384186,6.96054304 65.0677209,6.87122658 C64.608186,6.78377089 64.051907,6.98659367 63.9086512,7.63785949 C63.568186,9.18415063 63.1384186,10.7192772 62.6863256,12.2302139 C62.7142326,12.0255304 62.7384186,11.8208468 62.7551628,11.6161633 C62.8091163,11.0114165 62.3309767,10.5555304 61.8379535,10.4624924 C61.384,10.3768975 60.9858605,10.5871633 60.8016744,11.0095557 C60.0612093,12.6898215 59.464,14.4835937 58.8835349,16.2178215 L58.5337674,17.2617076 C58.5114419,17.3268342 58.4946977,17.3938215 58.4853953,17.4589481 C57.7077209,17.3491633 56.8537674,17.1947203 55.996093,17.0142266 C56.4333023,16.1564165 56.688186,15.1702139 56.9356279,14.2137835 C57.0528372,13.761619 57.168186,13.3168975 57.3002791,12.9019481 C57.9142326,10.9667582 58.451907,9.01668228 58.851907,7.5317962 C58.9207442,7.28245443 58.8816744,7.03683418 58.7421395,6.82284684 C58.584,6.58280886 58.3049302,6.40231519 57.9923721,6.34463165 C57.4974884,6.25159367 57.0695814,6.46372025 56.9021395,6.88611266 L56.4649302,7.9914038 C55.8826047,9.4614038 55.2779535,10.9816443 54.7477209,12.5093278 C54.6323721,12.8424038 54.4965581,13.1829228 54.3588837,13.5327456 C53.9867907,14.4780114 53.6016744,15.4511886 53.5067907,16.4392519 C52.8277209,16.2699228 52.1486512,16.0894291 51.4826047,15.8977709 C52.2770233,14.2212266 52.7644651,12.3530241 53.1588837,10.8309228 C53.2426047,10.5090114 53.3356279,10.1833785 53.4286512,9.85216329 C53.7226047,8.81013797 54.0258605,7.73647975 54.1002791,6.64607468 C54.4946977,6.56606203 54.7923721,6.26089747 54.8593488,5.85711266 C54.9356279,5.40680886 54.7123721,4.98627722 54.291907,4.78345443 C53.6072558,4.45223924 52.8723721,4.28477089 52.1616744,4.12288481 C51.7505116,4.02984684 51.3244651,3.93308734 50.9244651,3.8065557 C50.1877209,3.57396076 49.5421395,3.24646709 48.8723721,2.89478354 Z M60.8053953,20.0212139 C60.7644651,20.0361 60.7235349,20.0565684 60.6826047,20.0751759 C58.7086512,20.028657 56.4463256,19.6918595 54.0537674,19.0926949 C54.1709767,19.1150241 54.288186,19.1354924 54.4035349,19.1578215 L55.2574884,19.3178468 C56.9579535,19.6304544 58.8909767,19.9560873 60.8053953,20.0212139 Z M51.596093,6.55117595 C51.331907,7.2377962 51.1495814,7.95977089 50.9728372,8.66127722 C50.8928372,8.97202405 50.8146977,9.28463165 50.7309767,9.59165696 C50.1765581,11.5863911 49.4974884,13.4843658 48.904,15.0864797 C48.4035349,14.9115684 47.8974884,14.7236316 47.3933023,14.5263911 C48.1486512,11.7631633 48.848186,8.93108734 49.5272558,6.19018861 L49.5570233,6.07296076 C50.2137674,6.28322658 50.9133023,6.44697342 51.596093,6.55117595 Z M67.1477209,133.953657 C66.1002791,135.706492 65.0174884,137.517011 63.999814,139.32567 C63.7467907,139.772252 63.8807442,140.300708 64.3216744,140.635644 C64.3942326,140.793809 64.4965581,140.937087 64.6305116,141.061758 C64.9542326,141.361341 65.3244651,141.787454 65.2463256,142.109366 C65.116093,142.645265 63.7895814,142.982062 63.1514419,143.145809 C61.0007442,143.691011 58.796093,143.890113 56.9226047,144.012923 C52.0388837,144.329252 47.0453953,143.819404 42.2156279,143.324442 C41.356093,143.238847 40.4965581,143.14953 39.6388837,143.065796 C36.1691163,142.728999 32.9263256,142.271252 29.7263256,141.666505 C24.7774884,140.730543 20.048186,139.461505 15.2686512,137.784961 C14.9895814,137.688201 14.6807442,137.582138 14.3514419,137.470492 C10.9579535,136.307518 5.27795349,134.364885 4.37190698,131.473265 C4.0984186,130.60429 4.27888372,129.712986 4.92446512,128.765859 C4.95051163,128.851454 4.97655814,128.937049 5.00632558,129.020784 C5.12725581,129.392935 5.42306977,129.647859 5.81934884,129.72229 C6.19888372,129.794859 6.61190698,129.679492 6.87423256,129.430151 C7.1067907,129.20872 7.20353488,128.905416 7.14586047,128.579784 C6.77934884,126.508758 6.35516279,124.411682 5.944,122.383454 C4.2212093,113.883505 2.44074419,105.093277 4.68818605,96.3942266 C6.23609302,90.4044418 9.66493023,84.7588975 15.4714419,78.6537456 C15.6742326,78.8416823 15.8751628,78.9775177 16.0872558,79.076138 C16.1765581,79.1170747 16.2695814,79.1468468 16.3663256,79.1654544 C16.984,79.2808215 17.5700465,78.8919228 17.6742326,78.3002013 C17.836093,77.3549354 17.1849302,76.5287582 16.6602791,75.8626063 L16.5505116,75.7211886 C16.1374884,75.1927329 15.7114419,74.6679987 15.3077209,74.186062 C10.6156279,66.2368975 11.2574884,54.1605684 16.771907,46.6933405 C19.7263256,42.6927076 24.2267907,40.3053532 29.7877209,39.7917835 C32.2770233,39.5610494 34.7849302,39.5647709 37.248186,39.7992266 C38.0835349,39.8792392 38.9430698,40.0076316 39.7765581,40.1323025 C41.1328372,40.3351253 42.5374884,40.5435304 43.9216744,40.5602772 C44.0128372,40.5602772 44.0853953,40.5435304 44.1486512,40.5249228 C44.3867907,40.5249228 44.9412093,40.5007329 45.2742326,40.0690367 L45.4379535,40.1155557 L45.5030698,39.8196949 L45.596093,39.4307962 C45.6258605,39.3582266 45.6463256,39.2986823 45.648186,39.239138 C45.6612093,39.1740114 45.6705116,39.1070241 45.6686512,39.0493405 C47.0435349,32.7599734 48.1765581,26.3329101 49.2723721,20.1105304 C51.411907,20.8027329 53.5495814,21.266062 55.3746977,21.6326316 C55.6742326,21.6940367 55.9756279,21.7591633 56.2807442,21.8242899 C56.6863256,21.9117456 57.0937674,22.001062 57.5030698,22.0773532 C58.1486512,22.2001633 58.9728372,22.3322772 59.8286512,22.3229734 C58.1263256,32.9088342 56.3756279,43.8501 55.9402791,54.6555304 C55.7486512,59.4079101 56.6379535,63.2913152 58.7384186,66.8769987 C59.9905116,69.0112899 61.5105116,71.0190494 62.9821395,72.9616823 C64.6044651,75.1034165 66.2826047,77.3177203 67.5849302,79.6920494 C72.5077209,88.6720747 77.6872558,99.1611759 76.8053953,110.026151 C76.076093,119.011758 71.5365581,126.607378 67.1477209,133.953657 Z" id="Stroke-7" stroke="#D97823" stroke-width="0.25"></path>
                <path d="M19,73.0651405 C19.1172093,73.2754063 19.2213953,73.5005582 19.3293023,73.7257101 C19.5116279,74.1127481 19.7013953,74.5109506 19.9469767,74.8663557 C20.12,75.119419 20.3823256,75.2887481 20.6837209,75.3445709 C21.0018605,75.4059759 21.3348837,75.3371278 21.5972093,75.1584949 C21.8427907,74.9910266 22.0027907,74.7398241 22.0493023,74.4514063 C22.1423256,73.8447987 21.9432558,73.2195835 21.7051163,72.666938 C22.2148837,72.2091911 22.7265116,71.7570266 23.2381395,71.3104443 C25.2325581,69.5594696 27.5302326,68.0931911 29.7534884,66.6790139 C31.7665116,65.3969506 33.8483721,64.0702291 35.7181395,62.5257987 C38.4288372,60.2873051 40.4046512,57.4310392 41.7404651,53.8304696 C42.4102326,52.6060899 42.9516279,50.9928114 43.2790698,49.254862 C43.3311628,49.2716089 43.3832558,49.2846342 43.4334884,49.2957987 C43.8465116,49.3720899 44.2576744,49.2046215 44.4790698,48.8641025 C44.6948837,48.5347481 44.68,48.1346848 44.44,47.7960266 C42.9832558,45.7380266 39.7051163,44.8523051 37.8818605,44.5062038 C36.1590698,44.1805709 34.3376744,44.0763684 33.0130233,44.2270899 C29.16,44.6625076 24.9944186,46.5325709 22.4009302,48.9887734 C16.6893023,54.399862 14.9386047,64.7698747 18.492093,72.0901025 C18.6074419,72.3636342 18.7581395,72.6297228 18.8883721,72.8660392 L19,73.0651405 Z M23.7181395,51.4821911 C25.8074419,49.2530013 29.08,47.5987861 32.4716279,47.0573051 C33.9693023,46.8172671 35.5655814,46.6349127 37.0911628,46.9233304 L37.1376744,46.6386342 L37.1004651,46.9251911 C37.775814,47.0554443 38.8995349,47.4406215 40.5348837,48.1049127 C40.2390698,49.2436975 39.9376744,50.3769 39.6232558,51.506381 C38.3339535,56.1229253 35.532093,59.6099886 30.252093,63.1677608 C26.5981395,65.6295456 23.5469767,67.7173177 20.5869767,70.1232797 C18.2018605,63.7669253 19.4893023,55.9926722 23.7181395,51.4821911 L23.7181395,51.4821911 Z" id="Fill-9" fill="#D97823"></path>
                <path d="M19,73.0651405 C19.1172093,73.2754063 19.2213953,73.5005582 19.3293023,73.7257101 C19.5116279,74.1127481 19.7013953,74.5109506 19.9469767,74.8663557 C20.12,75.119419 20.3823256,75.2887481 20.6837209,75.3445709 C21.0018605,75.4059759 21.3348837,75.3371278 21.5972093,75.1584949 C21.8427907,74.9910266 22.0027907,74.7398241 22.0493023,74.4514063 C22.1423256,73.8447987 21.9432558,73.2195835 21.7051163,72.666938 C22.2148837,72.2091911 22.7265116,71.7570266 23.2381395,71.3104443 C25.2325581,69.5594696 27.5302326,68.0931911 29.7534884,66.6790139 C31.7665116,65.3969506 33.8483721,64.0702291 35.7181395,62.5257987 C38.4288372,60.2873051 40.4046512,57.4310392 41.7404651,53.8304696 C42.4102326,52.6060899 42.9516279,50.9928114 43.2790698,49.254862 C43.3311628,49.2716089 43.3832558,49.2846342 43.4334884,49.2957987 C43.8465116,49.3720899 44.2576744,49.2046215 44.4790698,48.8641025 C44.6948837,48.5347481 44.68,48.1346848 44.44,47.7960266 C42.9832558,45.7380266 39.7051163,44.8523051 37.8818605,44.5062038 C36.1590698,44.1805709 34.3376744,44.0763684 33.0130233,44.2270899 C29.16,44.6625076 24.9944186,46.5325709 22.4009302,48.9887734 C16.6893023,54.399862 14.9386047,64.7698747 18.492093,72.0901025 C18.6074419,72.3636342 18.7581395,72.6297228 18.8883721,72.8660392 L19,73.0651405 Z M23.7181395,51.4821911 C25.8074419,49.2530013 29.08,47.5987861 32.4716279,47.0573051 C33.9693023,46.8172671 35.5655814,46.6349127 37.0911628,46.9233304 L37.1376744,46.6386342 L37.1004651,46.9251911 C37.775814,47.0554443 38.8995349,47.4406215 40.5348837,48.1049127 C40.2390698,49.2436975 39.9376744,50.3769 39.6232558,51.506381 C38.3339535,56.1229253 35.532093,59.6099886 30.252093,63.1677608 C26.5981395,65.6295456 23.5469767,67.7173177 20.5869767,70.1232797 C18.2018605,63.7669253 19.4893023,55.9926722 23.7181395,51.4821911 Z" id="Stroke-11" stroke="#D97823" stroke-width="0.25"></path>
                <path d="M59.772093,139.570918 C53.6753488,139.775601 47.1618605,139.887247 40.4809302,138.806146 C39.6213953,138.668449 38.7674419,138.517728 37.9134884,138.355842 C32.8418605,137.397551 27.6362791,135.998259 22.44,134.202627 C21.584186,133.901184 20.8586047,134.47988 20.6948837,135.133006 C20.5497674,135.713563 20.8511628,136.240158 21.4446512,136.444842 C27.6065116,138.575411 33.1004651,140.082627 38.2409302,141.053943 C46.3786047,142.592791 53.7032558,142.750956 60.012093,141.526576 C60.52,141.427956 60.864186,141.013006 60.8474419,140.518044 C60.8288372,139.963538 60.3674419,139.55231 59.772093,139.570918" id="Fill-13" fill="#D97823"></path>
                <path d="M59.772093,139.570918 C53.6753488,139.775601 47.1618605,139.887247 40.4809302,138.806146 C39.6213953,138.668449 38.7674419,138.517728 37.9134884,138.355842 C32.8418605,137.397551 27.6362791,135.998259 22.44,134.202627 C21.584186,133.901184 20.8586047,134.47988 20.6948837,135.133006 C20.5497674,135.713563 20.8511628,136.240158 21.4446512,136.444842 C27.6065116,138.575411 33.1004651,140.082627 38.2409302,141.053943 C46.3786047,142.592791 53.7032558,142.750956 60.012093,141.526576 C60.52,141.427956 60.864186,141.013006 60.8474419,140.518044 C60.8288372,139.963538 60.3674419,139.55231 59.772093,139.570918 Z" id="Stroke-15" stroke="#D97823" stroke-width="0.25"></path>
            </g>
        </g>
    </g>
</svg>