<svg xmlns="http://www.w3.org/2000/svg" viewBox="0 0 8.14 30.28"><defs><style>.cls-1{fill:#fefefe;}</style></defs><title>Num1</title><g id="Layer_2" data-name="Layer 2"><g id="CarouselIndicators"><path id="Num1" class="cls-1" d="M8.14,6.88Q7.61,14.7,7.08,22.53C7,24,7,25.53,6.79,27c-.33,2.49-1.34,3.5-3,3.24-1.42-.22-2.12-1.68-2-3.93q.52-7.27,1-14.54c0-.68,0-1.37,0-2.06a1.71,1.71,0,0,0-1.52-2C-.08,7.43-.3,6.82.35,5.59a17.24,17.24,0,0,1,4.4-5A1.65,1.65,0,0,1,7.64,1.66,29.47,29.47,0,0,1,8.14,6.88Z"/></g></g></svg>