<?xml version="1.0" encoding="UTF-8"?>
<svg width="106px" height="147px" viewBox="0 0 106 147" version="1.1" xmlns="http://www.w3.org/2000/svg" xmlns:xlink="http://www.w3.org/1999/xlink">
    <!-- Generator: Sketch 45.1 (43504) - http://www.bohemiancoding.com/sketch -->
    <title>nuts-blue</title>
    <desc>Created with Sketch.</desc>
    <defs></defs>
    <g id="Desktop" stroke="none" stroke-width="1" fill="none" fill-rule="evenodd" opacity="0.400000006">
        <g id="About-Us" transform="translate(-211.000000, -1657.000000)" fill="#00BBD9">
            <g id="Quote" transform="translate(211.000000, 1657.000000)">
                <g id="nuts-blue">
                    <g id="Group-22" transform="translate(0.000000, 110.000000)">
                        <path d="M41.31786,0.242535 C41.79726,0.760535 42.07362,1.152735 42.44022,1.432085 C43.3069,2.090685 43.7863,2.925035 43.90098,4.001735 C43.94234,4.384685 44.06266,4.773185 44.2187,5.126535 C45.0553,7.033885 44.56086,8.856135 43.6923,10.543335 C41.8311,14.154535 39.9793,17.784235 37.8549,21.243735 C36.39038,23.630235 34.56866,25.822485 32.73002,27.951835 C31.35386,29.546535 29.71638,30.924785 28.15598,32.354835 C24.84154,35.392535 20.85782,36.689385 16.4229,36.293485 C14.42258,36.115885 12.36586,35.758835 10.52346,34.778335 C10.17942,34.595185 9.81094,34.313985 9.45562,34.317685 C8.08698,34.332485 7.1357,33.498135 6.03402,32.900585 C4.15966,31.884935 2.8305,30.353135 1.82846,28.595635 C0.70422,26.621685 -0.06282,24.357285 0.15902,22.133585 C0.38838,19.843285 0.77378,17.482685 1.82094,15.342235 C2.63686,13.673535 3.9773,12.435885 5.48882,11.447985 C7.1263,10.380535 8.89162,9.498085 10.62686,8.584185 C11.4597,8.143885 12.36774,7.849735 13.21374,7.435335 C15.42086,6.354935 17.71446,5.561285 20.1547,5.202385 C22.48966,4.856435 24.83402,4.554885 27.15958,4.147885 C29.79534,3.685385 32.43486,3.217335 35.02738,2.573535 C36.61786,2.179485 38.12374,1.448735 39.66722,0.867835 C40.16918,0.679135 40.67114,0.486735 41.31786,0.242535 L41.31786,0.242535 Z M38.59562,5.139485 C38.44898,4.891585 38.30046,4.643685 38.11998,4.342135 C36.77014,4.886035 35.50114,5.324485 34.3017,5.899835 C32.24498,6.882185 30.23714,7.964435 28.19734,8.974535 C27.57506,9.281635 26.87758,9.753385 26.27034,9.686785 C25.47886,9.597985 24.89606,9.860685 24.25498,10.127085 C22.4389,10.881885 20.62282,11.642235 18.80674,12.400735 C14.60306,14.160085 11.30742,16.942485 9.04766,20.897785 C8.9029,21.149385 8.81454,21.508285 8.36898,21.386185 C7.81062,20.918135 8.0475,20.359435 8.3389,19.926535 C10.92954,16.084085 14.15374,12.961285 18.58678,11.238935 C20.0513,10.669135 21.51958,10.093785 22.94838,9.442585 C24.8829,8.563835 26.7817,7.605535 28.69742,6.687935 C29.32722,6.386385 29.91942,6.060785 30.69586,6.097785 C31.56066,6.136635 32.1867,5.587185 32.87854,4.673285 C32.10586,4.754685 31.64338,4.786135 31.18466,4.854585 C28.76886,5.220885 26.36434,5.700035 23.93726,5.949785 C19.97234,6.358635 16.19354,7.355785 12.61966,9.098485 C10.21514,10.271385 7.80498,11.433185 5.71254,13.142585 C4.2029,14.374685 3.11062,15.875035 2.60678,17.741685 C2.26274,19.016335 2.10106,20.340935 1.77582,21.622985 C1.5709,22.431435 1.84538,23.003085 2.42442,23.484085 C3.13506,24.074235 3.93594,24.481235 4.84962,24.599635 C5.23126,23.548835 4.21794,22.688585 4.82518,21.678485 C5.25946,22.052185 5.25194,22.549835 5.37978,22.979035 C5.78774,24.349885 6.84618,25.134285 8.13962,25.200885 C9.8429,25.287835 11.34878,25.779935 12.77382,26.693835 C13.6499,25.979735 14.39626,25.285985 15.23098,24.714335 C16.13526,24.094585 17.11286,23.576585 18.07354,23.036385 C19.71102,22.116935 19.71666,22.126185 20.99882,22.222385 C20.35962,22.677485 19.87646,23.056735 19.36134,23.384185 C18.43262,23.974335 17.48698,24.538585 16.54322,25.106535 C15.38326,25.803985 14.4113,26.688285 13.60666,27.981435 C14.24962,28.477235 14.84746,28.956385 15.46222,29.413335 C17.44186,30.889635 19.66402,31.045035 21.95762,30.451185 C24.26814,29.851785 26.40758,28.889785 28.09206,27.119335 C28.31014,26.889935 28.64102,26.839985 28.91362,27.226635 C28.83842,27.404235 28.78766,27.637335 28.65982,27.814935 C27.36638,29.598335 25.51458,30.545535 23.52742,31.409485 C20.72246,32.630485 18.03782,32.523185 15.3137,31.298485 C14.96026,31.139385 14.5805,30.935885 14.2139,30.935885 C13.84918,30.935885 13.4901,31.183785 13.11974,31.292935 C12.71366,31.413185 12.24366,30.813785 11.81878,31.455735 C12.06318,32.149485 12.69674,32.452885 13.31714,32.789585 C13.86046,33.081885 14.54478,33.261335 14.73842,33.938435 C14.96026,34.717285 15.5863,34.819035 16.20858,34.856035 C19.86894,35.074335 23.2943,34.352835 26.20642,32.038485 C29.91754,29.085885 33.13798,25.665235 35.79254,21.737685 C35.9561,21.493485 36.19298,21.223385 35.72862,20.814535 C34.1043,22.485085 32.47058,24.163035 30.8425,25.844685 C30.5511,26.146235 30.27662,26.388585 29.88182,25.796585 C30.08486,25.511685 30.28414,25.182385 30.5323,24.895635 C32.5345,22.588685 34.49158,20.237335 36.57086,17.998835 C38.78362,15.619735 40.49442,12.920585 42.0755,10.123385 C42.22214,9.860685 42.25786,9.538785 42.32742,9.305685 C42.2071,9.091085 42.16198,8.919035 42.04918,8.828385 C41.01142,7.990335 40.7125,7.041285 41.20694,5.722235 C41.5961,4.686235 41.36298,3.603985 40.68994,2.719685 C39.89846,2.764085 39.52622,3.085985 39.52622,3.751985 C39.52622,4.443885 39.35702,4.995185 38.5411,5.089535 L38.59562,5.139485 Z M6.59426,31.668485 C7.2109,32.040335 7.7749,32.624935 8.40846,32.711885 C9.62106,32.876535 10.63438,33.388985 11.66462,33.955085 C11.9109,34.090135 12.25306,34.058685 12.6629,34.119735 C11.95978,33.372335 11.18898,32.815485 10.78854,32.064385 C10.2189,30.989535 9.43118,30.162585 8.50998,29.442935 C7.04546,28.301485 5.54334,27.206285 4.02806,26.129585 C3.60318,25.828035 3.08242,25.659685 2.5297,25.395135 C2.1349,26.790035 2.7741,27.789035 3.36066,28.775085 C3.84006,29.581685 4.48866,30.234735 5.50198,30.464135 C5.92874,30.094135 6.31226,29.761135 6.68826,29.435535 C7.53802,30.210685 6.58486,30.756435 6.59426,31.668485 L6.59426,31.668485 Z M8.85026,27.494885 C9.37666,28.027685 9.79402,28.595635 10.34674,28.969335 C10.80734,29.280135 11.42962,29.500285 12.01054,29.030385 C10.7077,27.098985 10.44074,26.962085 8.85026,27.494885 L8.85026,27.494885 Z M42.60566,5.620485 C42.22214,6.171785 42.06046,6.656485 42.4045,7.167085 C42.47218,7.268835 42.6583,7.342835 42.78426,7.337285 C42.91022,7.333585 43.11326,7.229985 43.1377,7.133785 C43.27494,6.610235 43.29562,6.092235 42.60566,5.620485 L42.60566,5.620485 Z" id="Fill-18"></path>
                        <path d="M38.5411,5.088795 C38.63886,5.897245 38.11622,6.385645 37.59546,6.866645 C36.33398,8.035845 35.06686,9.197645 33.8035,10.363145 C32.02126,12.007795 30.25218,13.665395 28.45302,15.291545 C28.14658,15.567195 27.72358,15.713345 27.02046,16.105545 C27.18966,15.459895 27.18214,15.128745 27.3457,14.938195 C27.84766,14.346195 28.38722,13.778245 28.9625,13.256545 C31.45162,10.993995 33.94074,8.731445 36.47122,6.513295 C37.09914,5.963845 37.6575,5.246045 38.59562,5.140595 L38.5411,5.088795 Z" id="Fill-20"></path>
                    </g>
                    <g id="Group-27" transform="translate(7.000000, 42.000000)">
                        <path d="M5.17785882,0.359682759 C4.5108,1.09333793 4.12724118,1.65195862 3.61768235,2.04671724 C2.41327059,2.98147586 1.74806471,4.16575172 1.58871176,5.69264828 C1.53312353,6.23451034 1.36450588,6.78568276 1.14956471,7.28844138 C-0.0159352941,9.99216552 0.673358824,12.5767172 1.87962353,14.9694759 C4.46262353,20.0938897 7.03635882,25.2406483 9.98809412,30.1490621 C12.0226235,33.5324414 14.5518882,36.6439586 17.1052412,39.6642345 C19.0174765,41.9247862 21.2910353,43.8799586 23.4589765,45.9096138 C28.0635353,50.2184414 33.5964176,52.0581655 39.7555941,51.4958207 C42.5350059,51.2425793 45.3903882,50.7360966 47.9493,49.3469931 C48.4273588,49.0863034 48.9387706,48.6878207 49.4316529,48.6934069 C51.3327706,48.7157517 52.6539176,47.5314759 54.1844471,46.6842345 C56.7896824,45.241131 58.6352118,43.0699586 60.0267706,40.5766483 C61.5869471,37.7760966 62.6523882,34.5658897 62.3448,31.4115448 C62.0279471,28.1640966 61.4924471,24.8123724 60.0360353,21.7772 C58.9038882,19.4123724 57.0435353,17.6545793 54.9404471,16.2543034 C52.6650353,14.7404414 50.2154471,13.489131 47.8047706,12.191269 C46.6485353,11.5693379 45.3885353,11.1485103 44.2119176,10.5619586 C41.1490059,9.02947586 37.9600941,7.90478621 34.5729176,7.39457931 C31.3265647,6.90485517 28.0709471,6.47657931 24.8412706,5.89933793 C21.1835647,5.24202759 17.5147412,4.5809931 13.9144765,3.66671724 C11.7039176,3.10623448 9.6138,2.07092414 7.46994706,1.24788966 C6.77138824,0.979751724 6.07468235,0.707889655 5.17785882,0.359682759 L5.17785882,0.359682759 Z M8.95785882,7.30706207 C9.16353529,6.95513103 9.36921176,6.6032 9.61750588,6.17492414 C11.4945353,6.94768276 13.2548294,7.56961379 14.9243294,8.38333793 C17.7778588,9.77802759 20.5665353,11.3123724 23.4015353,12.7461655 C24.2631529,13.1818897 25.2322412,13.8522345 26.0790353,13.7554069 C27.1759765,13.6287862 27.9875647,14.0012 28.8769765,14.3792 C31.4006824,15.4498897 33.9206824,16.5280276 36.4425353,17.6061655 C42.2811529,20.0994759 46.8597706,24.0470621 49.9986529,29.6574759 C50.1987706,30.013131 50.3229176,30.5233379 50.9436529,30.3501655 C51.7181824,29.687269 51.3883588,28.8921655 50.9844176,28.2814069 C47.3841529,22.829269 42.9074471,18.3994069 36.7519765,15.9563724 C34.7137412,15.1500966 32.6773588,14.3326483 30.6910059,13.4090621 C28.0042412,12.1614759 25.3675059,10.8040276 22.7066824,9.50244138 C21.8302412,9.07416552 21.0093882,8.61237241 19.9309765,8.66451034 C18.7284176,8.72037241 17.8612412,7.94016552 16.8995647,6.64602759 C17.9724176,6.75961379 18.6153882,6.80244138 19.2528,6.90113103 C22.6066235,7.42251034 25.9456235,8.10030345 29.3179765,8.45409655 C34.8267706,9.0332 40.0724471,10.4483724 45.0364765,12.9230621 C48.3773294,14.5858897 51.7255941,16.2319586 54.6310059,18.6582345 C56.7266824,20.4067172 58.2442412,22.5332 58.9465059,25.1810621 C59.4245647,26.9909931 59.6487706,28.8679586 60.1008882,30.6872 C60.3843882,31.8323724 60.0026824,32.6442345 59.1985059,33.3276138 C58.2108882,34.1636828 57.0991235,34.7409241 55.8298588,34.9085103 C55.3017706,33.4169931 56.7063,32.1973379 55.8632118,30.7654069 C55.2610059,31.2942345 55.2702706,32.0018207 55.0923882,32.6107172 C54.5272412,34.5565793 53.0578588,35.6663724 51.2623588,35.7613379 C48.8924471,35.8842345 46.8023294,36.5825103 44.8233882,37.8785103 C43.6078588,36.8674069 42.5702118,35.8823724 41.4121235,35.0723724 C40.1539765,34.1916138 38.7957706,33.4560966 37.4616529,32.6926483 C35.1880941,31.3873379 35.1806824,31.3985103 33.3981529,31.5363034 C34.2875647,32.1843034 34.9583294,32.7187172 35.6735647,33.1823724 C36.9632118,34.0203034 38.2769471,34.8228552 39.5888294,35.627269 C41.1990353,36.6178897 42.5479765,37.8710621 43.6653,39.7052 C42.7758882,40.4090621 41.9420647,41.0868552 41.0878588,41.7367172 C38.3399471,43.8296828 35.2529471,44.051269 32.0677412,43.2077517 C28.8584471,42.3586483 25.8863294,40.9937517 23.5460647,38.4818207 C23.2440353,38.1559586 22.7826529,38.0870621 22.4065059,38.6345103 C22.5102706,38.8877517 22.5806824,39.2173379 22.7585647,39.4687172 C24.5559176,41.999269 27.1278,43.3418207 29.8886824,44.5689241 C33.7817118,46.2987862 37.5135353,46.1479586 41.2953882,44.4106483 C41.7864176,44.1853379 42.3126529,43.8948552 42.8240647,43.8948552 C43.3280647,43.8948552 43.8283588,44.2467862 44.3416235,44.4032 C44.9067706,44.5726483 45.5590059,43.7235448 46.1500941,44.6340966 C45.8110059,45.619131 44.9308588,46.0474069 44.0692412,46.5240966 C43.3169471,46.9412 42.3645353,47.1944414 42.0958588,48.155269 C41.7864176,49.2576138 40.9173882,49.4047172 40.0520647,49.4568552 C34.9694471,49.7659586 30.2110941,48.7436828 26.1661235,45.4589931 C21.0112412,41.2730621 16.5363882,36.4205103 12.8508882,30.8492 C12.6229765,30.5028552 12.2968588,30.121131 12.9398294,29.5383034 C15.1967118,31.9105793 17.4647118,34.2884414 19.7271529,36.6737517 C20.1310941,37.1020276 20.5109471,37.4465103 21.0594176,36.6048552 C20.7777706,36.2026483 20.5035353,35.737131 20.1570353,35.3293379 C17.3757706,32.0558207 14.6593588,28.7208552 11.7706235,25.5460276 C8.69659412,22.1719586 6.32297647,18.3416828 4.12538824,14.3736138 C3.91971176,14.0030621 3.87153529,13.5449931 3.77518235,13.2154069 C3.94194706,12.9118897 4.00494706,12.6679586 4.16059412,12.5394759 C5.60218235,11.3496138 6.01909412,10.0014759 5.33165294,8.13195862 C4.79059412,6.66278621 5.11300588,5.12844138 6.04874118,3.8734069 C7.14753529,3.93671724 7.66635882,4.39478621 7.66635882,5.3369931 C7.66635882,6.32016552 7.90168235,7.10223448 9.03568235,7.23444138 L8.95785882,7.30706207 Z M53.4062118,44.9338897 C52.5483,45.4627172 51.7682118,46.2913379 50.8880647,46.4142345 C49.2018882,46.6507172 47.7955059,47.3750621 46.3650353,48.1776138 C46.0222412,48.371269 45.5478882,48.3247172 44.9771824,48.4122345 C45.9536824,47.3527172 47.0246824,46.5613379 47.5805647,45.4962345 C48.3736235,43.9730621 49.4650059,42.7980966 50.7453882,41.7795448 C52.7799176,40.1614069 54.8663294,38.6065793 56.9712706,37.0778207 C57.5605059,36.6495448 58.2850059,36.4130621 59.0521235,36.0369241 C59.6005941,38.0163034 58.7130353,39.4333379 57.8977412,40.8298897 C57.2306824,41.9732 56.3301529,42.9005103 54.9237706,43.2263724 C54.3289765,42.701269 53.7971824,42.2301655 53.2765059,41.7683724 C52.0961824,42.8669931 53.4191824,43.6416138 53.4062118,44.9338897 L53.4062118,44.9338897 Z M50.2710353,39.0162345 C49.5428294,39.7703724 48.9610059,40.5766483 48.1938882,41.1054759 C47.5546235,41.5467862 46.6911529,41.8596138 45.8832706,41.1948552 C47.6935941,38.4520276 48.0641824,38.2602345 50.2710353,39.0162345 L50.2710353,39.0162345 Z M3.38977059,7.98857931 C3.91971176,8.77064828 4.14577059,9.45588966 3.66771176,10.1820966 C3.57321176,10.3254759 3.31565294,10.4316138 3.13962353,10.4241655 C2.96544706,10.4167172 2.6838,10.2714759 2.64859412,10.1355448 C2.45959412,9.39071724 2.42994706,8.65706207 3.38977059,7.98857931 L3.38977059,7.98857931 Z" id="Fill-23"></path>
                        <path d="M9.03494118,7.23388276 C8.89782353,8.38091724 9.62232353,9.0736069 10.3468235,9.75698621 C12.0997059,11.4142276 13.86,13.0621586 15.6147353,14.7156759 C18.0902647,17.0488483 20.5472647,19.3987793 23.0468824,21.7058828 C23.4712059,22.0969172 24.0604412,22.305469 25.0369412,22.8622276 C24.7997647,21.9460897 24.8108824,21.4749862 24.5848235,21.2049862 C23.8862647,20.3651931 23.1376765,19.5589172 22.3390588,18.8178138 C18.8814706,15.609469 15.4220294,12.4011241 11.9088529,9.25608966 C11.0379706,8.47588276 10.2615882,7.45733103 8.95897059,7.30650345 L9.03494118,7.23388276 Z" id="Fill-25"></path>
                    </g>
                    <path d="M35,27.4607089 C36.1551463,25.8952524 37.4875767,24.6845576 39.0924649,23.8549031 C39.9490273,23.4100432 40.6357702,22.835667 41.3187807,22.143037 C43.4648522,19.9675405 45.7154279,17.9027896 47.8969562,15.762957 C49.2573788,14.4283771 50.5543524,13.0243466 51.8979798,11.6728733 C52.7713375,10.7962927 53.5775139,9.78644187 54.5908329,9.1332298 C57.4460409,7.29747861 60.2079416,5.22521961 63.6080652,4.51757319 C63.9775627,4.4406143 64.3395956,4.31297516 64.7128254,4.28106537 C70.3691232,3.80992678 75.7902862,2.19566704 81.2730322,0.847947874 C83.536671,0.292342199 85.9197434,0.177842381 88.2598943,0.0201705002 C90.5832499,-0.137501381 92.762912,0.641472792 94.7093055,1.92724944 C98.2755163,4.28106537 101.293079,7.26744587 103.403694,11.1210217 C104.002728,12.2153397 104.445005,13.4673295 104.668943,14.7024259 C105.197063,17.6043393 105.560962,20.5400395 105.960318,23.4644775 C106.025633,23.9393702 106.01257,24.457435 105.904334,24.9191883 C105.044039,28.5493957 103.773191,32.0482098 102.054468,35.2879915 C100.694045,37.8520366 98.3128393,39.3593047 95.5024188,39.8792465 C90.872503,40.7389337 86.1977996,41.0843102 81.4745763,41.0936954 C78.2834614,41.1012036 75.1035434,41.6417929 71.9086962,41.7713091 C67.7807745,41.9383662 63.643522,42.2386936 59.5100018,41.6624404 C59.2300794,41.6230225 58.9258971,41.5404324 58.6683686,41.6136372 C56.4681788,42.2236772 54.6038959,41.2363509 52.7545422,40.2096067 C50.7502981,39.0965183 48.6639434,38.1073149 46.7921959,36.7858744 C45.1630478,35.6389992 43.5842857,34.2725095 42.3451627,32.6957907 C41.0145984,30.998941 39.432104,29.9233935 37.5584904,29.1556816 C36.8586845,28.8666165 36.1700755,28.5437645 35.4926634,28.2002651 C35.3489699,28.1270603 35.2799224,27.8943066 35,27.4607089 M89.1239213,19.3086972 L89.0884645,18.6873949 C89.5363402,18.6179442 89.9823499,18.5015674 90.4320918,18.4884281 C92.9663222,18.4152233 95.5024188,18.3682971 98.0385154,18.3082316 C98.7831089,18.2894612 99.5631592,18.3213709 99.8841368,17.3509381 C99.3242921,16.1027023 98.7663135,14.8525896 98.221398,13.6381407 C94.0860117,12.0313891 94.0860117,12.025758 89.9636884,11.9168893 C89.0212831,11.8924877 88.0751455,11.9750777 87.1383387,11.8943648 C85.5222536,11.7554633 83.8707117,11.7986354 82.3143434,11.1135135 C85.6603486,10.76626 89.0343461,10.9671039 92.3542253,10.3720803 C92.225461,9.7263764 91.7850499,9.73763867 91.4454107,9.64378636 C89.4094421,9.07504136 87.3286859,9.16513958 85.2553943,9.15575435 C82.6371872,9.14261503 80.0973583,8.68836985 77.5388679,7.64660921 C78.4962024,7.01216759 79.3322372,7.43638003 80.1290828,7.62408465 C82.0866732,8.08583802 84.0703896,8.23224762 86.0298462,7.98260048 C89.2937409,7.56777327 92.4083437,8.23600171 95.5061511,9.1782789 C98.221398,10.0060563 100.277894,11.5527423 100.776156,14.7099341 C100.79855,14.8413273 100.9777,14.950196 100.957173,14.9276714 C101.636451,14.7606143 102.214957,14.6179588 102.791597,14.4771803 C102.802794,14.2819675 102.851314,14.0792465 102.813991,13.895296 C102.75614,13.609985 102.664699,13.324674 102.543399,13.0618875 C100.854534,9.40915559 98.2549887,6.56730764 95.1254567,4.25290968 C92.8972747,2.60486312 90.3686427,1.78083983 87.6403328,2.02110175 C85.4905291,2.20880637 83.3276623,2.4415601 81.2245123,2.90519051 C75.9862319,4.06145097 70.8375266,5.64004682 65.459285,6.11681655 C64.1641776,6.23131637 62.8093534,6.53352081 61.6504748,7.10977399 C59.5398602,8.16091987 57.5300176,9.43918833 55.5276397,10.7080716 C54.8241015,11.1548086 54.1989416,11.7873731 53.6577583,12.4443393 C52.0622009,14.3758198 50.3416115,16.1627678 48.4306748,17.754503 C47.2680639,18.7230588 46.2192882,19.7498031 45.6687742,21.3246449 C45.2153,22.6235608 44.1086736,23.5001414 42.912472,24.1420912 C41.9943267,24.6338773 41.0537876,25.0787373 40.1468391,25.5855397 C39.6784357,25.8464492 39.2585522,26.2012109 38.6054,26.6648413 C39.3537258,27.3199304 39.9042397,27.8173477 40.4715491,28.2922403 C41.2814577,28.967977 42.2891782,29.4841647 42.8919444,30.3194502 C44.8215425,32.9998722 47.2008826,35.0270821 50.0934136,36.4311127 C50.3472099,36.5549977 50.5655493,36.7595958 50.8100149,36.9135135 C52.7489437,38.1392247 54.6916049,39.3630588 56.2740993,40.3616474 C58.160776,40.2997049 59.6443645,40.2471476 61.1298192,40.2020985 C65.3659776,40.0744593 69.6207974,40.140156 73.834562,39.7591156 C76.8427943,39.4869439 79.8416959,39.4005998 82.8536604,39.327395 C87.091685,39.2241574 91.3129142,38.884412 95.4520328,37.9177333 C97.4413477,37.4541028 99.2533784,36.4236045 100.27976,34.6272713 C101.419977,32.6300941 102.134713,30.3626223 103.00807,28.2002651 C103.097645,27.9787736 103.004338,27.6765692 102.985677,27.1115783 C102.278406,28.2077733 101.802538,29.1275259 101.158717,29.8933608 C100.54662,30.6216547 99.7591048,31.1866456 99.048102,31.8248413 C98.4080129,32.3992174 96.9953381,33.3321094 96.6109113,33.3940519 C96.881503,32.097013 97.846302,31.4006289 98.6953999,30.6911054 C100.541021,29.1519275 101.623388,27.1847831 102.07313,24.782164 C101.701766,24.0182062 101.5786,23.075929 100.541021,22.6742411 C99.912129,23.2486172 99.3130952,23.8567802 98.6524784,24.3804761 C97.9116172,24.9679915 97.1744884,25.6324659 96.3291228,25.9966128 C93.2798353,27.3086681 90.0439328,27.7197413 86.7371166,27.7403888 C87.2111185,27.4175368 87.7187111,27.2260781 88.2412328,27.0965619 C89.8853101,26.6836118 91.5331197,26.2819239 93.1865278,25.9008835 C95.2448902,25.4241138 97.0755825,24.5250086 98.6263523,23.0027242 C99.2907014,22.3495121 100.081949,21.8352014 100.848936,21.2307925 C100.861999,20.9698831 100.917983,20.6751869 100.878794,20.3917529 C100.843337,20.1177042 100.712707,19.8549177 100.567147,19.4175659 C96.7676679,19.0308944 92.9364638,19.5095412 89.1239213,19.3086972 M103.065921,19.4907707 C102.98381,19.5132953 102.9017,19.5358198 102.821455,19.5583444 C102.825188,19.8342702 102.797195,20.1158271 102.851314,20.3823677 C102.869975,20.478097 103.084582,20.5325314 103.209614,20.6057362 C103.25067,20.5250232 103.340245,20.4311709 103.32345,20.3635972 C103.254402,20.068901 103.15363,19.7817129 103.065921,19.4907707" id="Fill-28"></path>
                </g>
            </g>
        </g>
    </g>
</svg>