<?xml version="1.0" encoding="UTF-8"?>
<svg width="64px" height="63px" viewBox="0 0 64 63" version="1.1" xmlns="http://www.w3.org/2000/svg" xmlns:xlink="http://www.w3.org/1999/xlink">
    <!-- Generator: Sketch 45.1 (43504) - http://www.bohemiancoding.com/sketch -->
    <title>twitter</title>
    <g id="twitter">
        <path d="M11.2082413,56.9090795 C-2.68925494,45.3506004 -3.8244577,25.5205251 8.70770874,10.6030981 C20.6684157,-3.62404725 41.6540072,-3.52478809 54.4812084,10.846487 C64.0630278,21.2696046 68.6859946,41.1250611 57.3303358,52.2076402 C46.4108745,63.4701549 24.4834413,67.3294777 11.2082413,56.9090795"
          id="Fill-1" fill="#3DB1C8"></path>
        <path d="M48,21.4571691 C46.8242061,21.9855891 45.5582556,22.3429379 44.2303222,22.5026043 C45.5864295,21.6814625 46.6269883,20.3794204 47.1172155,18.8283747 C45.8475084,19.5886913 44.4444444,20.1418215 42.945589,20.438345 C41.7510125,19.1477077 40.0436697,18.3417722 38.1541351,18.3417722 C34.530962,18.3417722 31.5914774,21.3165106 31.5914774,24.9850378 C31.5914774,25.5058546 31.6478253,26.0114651 31.7605212,26.4980677 C26.3041615,26.2205521 21.4676293,23.5784522 18.2276222,19.554477 C17.6622645,20.5390869 17.3392029,21.6814625 17.3392029,22.8979689 C17.3392029,25.201728 18.4980924,27.2355747 20.2599049,28.4273708 C19.1855374,28.3950574 18.1712743,28.0928316 17.2847332,27.5986258 L17.2847332,27.6803599 C17.2847332,30.9003003 19.5480425,33.5861185 22.5532664,34.1943717 C22.0029348,34.3502366 21.4225509,34.428169 20.8233844,34.428169 C20.4007748,34.428169 19.9875565,34.3882524 19.5874861,34.31032 C20.423314,36.9486183 22.8462758,38.8703183 25.7200211,38.9216397 C23.4736162,40.7045819 20.6411927,41.7671243 17.566473,41.7671243 C17.0368023,41.7671243 16.5127663,41.7367116 16,41.6758863 C18.9056759,43.5576697 22.3579269,44.6582278 26.0637436,44.6582278 C38.1409873,44.6582278 44.7430886,34.5365141 44.7430886,25.7567591 C44.7430886,25.4678388 44.7374538,25.1789185 44.7261842,24.8957006 C46.0090392,23.9586105 47.1228503,22.7896238 48,21.4571691"
          id="Twitter-Copy" fill="#FFFFFF"></path>
    </g>
</svg>
