<?xml version="1.0" encoding="UTF-8"?>
<svg width="88px" height="87px" viewBox="0 0 88 87" version="1.1" xmlns="http://www.w3.org/2000/svg" xmlns:xlink="http://www.w3.org/1999/xlink">
    <!-- Generator: Sketch 45.1 (43504) - http://www.bohemiancoding.com/sketch -->
    <title>cc-walnut</title>
    <desc>Created with Sketch.</desc>
    <defs></defs>
    <g id="Desktop" stroke="none" stroke-width="1" fill="none" fill-rule="evenodd" opacity="0.400000006">
        <g id="Chocolate-Chunk" transform="translate(-440.000000, -1038.000000)">
            <g id="cc-walnut" transform="translate(486.000000, 1080.500000) rotate(45.000000) translate(-486.000000, -1080.500000) translate(436.000000, 1042.000000)">
                <path d="M2.34114259,37.0308714 C2.24949444,36.7485857 2.17842037,36.4625857 2.06619815,36.1914429 C1.73327222,35.3854429 1.72579074,34.5961571 2.11295741,33.8013 C2.37293889,33.2683 2.55062407,32.7445857 2.31121667,32.1113 C2.21395741,31.8513 2.40099444,31.4260143 2.56558704,31.1363 C4.11051296,28.4230143 5.67414259,25.7505857 7.97469815,23.5275857 C9.53458704,22.0214429 10.7484574,20.1661571 12.1493648,18.4928714 C13.0939019,17.3637286 14.09455,16.2791571 15.0708833,15.1741571 C15.8489574,14.2920143 16.6326426,13.4098714 17.4069759,12.5240143 C17.8352907,12.0355857 18.1962722,11.4765857 18.6788278,11.0550143 C21.61905,8.48844286 24.5873278,5.96644286 28.2177167,4.34887143 C29.8374574,3.62644286 31.401087,2.78144286 32.9740685,1.9643 C34.0981611,1.3793 35.2764944,1.07287143 36.5483463,1.01715714 C38.6188463,0.926157143 40.6893463,0.792442857 42.7579759,0.632728571 C44.3515315,0.5083 45.9394759,0.309585714 47.5311611,0.149871429 C50.7556796,-0.173271429 53.9072537,0.177728571 57.0214204,1.06172857 C58.2109759,1.39972857 59.4547722,1.6003 60.6873463,1.72287143 C62.3014759,1.88444286 63.8333093,2.25401429 65.3127722,2.90772857 C66.124513,3.2643 66.9755315,3.52987143 67.811587,3.83072857 C69.3864389,4.39715714 70.8172722,5.17344286 72.0741611,6.31187143 C73.6527537,7.74001429 75.3978093,8.95644286 77.3579574,9.8553 C78.43155,10.3493 79.4752167,10.9194429 80.4964389,11.5118714 C81.15855,11.8963 81.8038278,12.3364429 82.3780315,12.8397286 C85.0919389,15.2317286 87.4691796,17.9320143 89.4199759,20.9628714 C90.4374574,22.5414429 91.2679019,24.2500143 92.0646796,25.9548714 C92.9493648,27.8435857 94.2548833,29.4500143 95.4406981,31.1288714 C96.0803648,32.0351571 97.0398648,32.6870143 98.2649574,32.7668714 C98.5978833,32.7873 98.9214574,32.9414429 99.2487722,33.0324429 C99.2076241,33.7957286 99.2076241,34.4773 99.1178463,35.1477286 C99.0823093,35.4114429 98.8821796,35.6807286 98.6914019,35.8887286 C98.3322907,36.2787286 97.9170685,36.6167286 97.5411241,36.9918714 C96.9070685,37.6288714 96.3478278,38.3141571 96.2861056,39.2594429 C96.2412167,39.9484429 95.8559204,40.4740143 95.4519204,40.9810143 C94.2492722,42.4964429 93.5778093,44.2681571 93.1438833,46.0955857 C92.7847722,47.6073 92.2704204,49.0298714 91.5166611,50.3670143 C91.0453278,51.2045857 90.789087,52.0904429 90.587087,53.0134429 C90.4767352,53.5241571 90.3682537,54.0701571 90.1026611,54.5047286 C88.9841796,56.3303 88.3613463,58.3638714 87.5458648,60.3157286 C85.7951981,64.5073 83.0794204,67.9114429 79.2376796,70.3944429 C78.6503833,70.7751571 77.9714389,71.0351571 77.3074574,71.2784429 C76.5293833,71.5644429 75.7082907,71.7315857 74.932087,72.0194429 C73.9594944,72.3815857 72.9756796,72.4874429 71.9581981,72.3444429 C70.8902167,72.1921571 69.8334574,72.2218714 68.771087,72.4113 C68.2492537,72.5041571 67.7068463,72.4837286 67.1775315,72.5431571 C66.5921056,72.6081571 65.9879759,72.6323 65.4268648,72.7975857 C63.7098648,73.3027286 61.953587,73.5627286 60.1804759,73.7075857 C58.3381611,73.8598714 56.550087,74.2275857 54.7844574,74.7680143 C53.5986426,75.1301571 52.3810315,75.4644429 51.1521981,75.6037286 C46.9719204,76.0773 42.7822907,76.5750143 38.5646056,76.4301571 C35.592587,76.3280143 32.6673278,75.9157286 29.8916981,74.7327286 C28.9172352,74.3167286 27.8829204,74.0047286 26.8448648,73.7763 C24.49755,73.2600143 22.37655,72.2181571 20.2742537,71.1280143 C19.7524204,70.8568714 19.2829574,70.4798714 18.8209759,70.1140143 C16.0378648,67.9170143 13.2584944,65.7163 10.4884759,63.5044429 C8.07756852,61.5804429 6.02764259,59.2887286 3.94217963,57.0378714 C3.51012407,56.5717286 3.20899444,55.9718714 2.89851296,55.4073 C2.58803148,54.8408714 2.36171667,54.2280143 2.06058704,53.6541571 C1.08986481,51.8025857 0.422142593,49.8841571 0.525012963,47.7540143 C0.549327778,47.2303 0.485735185,46.6917286 0.384735185,46.1735857 C0.0873462963,44.6377286 0.30617963,43.1315857 0.581124074,41.6217286 C0.719531481,40.8547286 0.96455,40.1601571 1.56493889,39.6011571 C2.06058704,39.1424429 2.44027222,38.6298714 1.88851296,37.9167286 C1.81556852,37.8220143 2.12417963,37.4375857 2.34114259,37.0308714 L2.34114259,37.0308714 Z M93.0185685,34.5645857 C93.3963833,33.8217286 94.101513,33.5394429 94.8328278,33.2887286 C95.0834574,33.2014429 95.4481796,33.2720143 95.4706241,32.9358714 C94.6644944,31.7658714 93.9444019,30.6144429 93.1083463,29.5540143 C92.687513,29.0191571 91.8720315,28.7405857 91.5709019,28.1704429 C91.2361056,27.5390143 91.3184019,26.7051571 90.9499389,26.0180143 C90.284087,24.7718714 89.6687352,23.4978714 89.001013,22.2535857 C88.668087,21.6333 88.3407722,20.9814429 87.8787907,20.4595857 C86.1599204,18.5151571 84.6916796,16.3701571 82.7689389,14.5873 C81.4521981,13.3634429 80.0737352,12.2918714 78.446513,11.5378714 C75.5268648,10.1840143 72.82605,8.51072857 70.4712537,6.30815714 C70.1289759,5.99058571 69.7399389,5.68787143 69.3172352,5.49472857 C66.9418648,4.41387143 64.4823278,3.55215714 61.9591981,2.89101429 C61.1044389,2.66815714 60.20105,2.63287143 59.3201056,2.51958571 C56.7932352,2.1983 54.39355,1.26044286 51.8143093,1.13601429 C50.3311056,1.06358571 48.853513,0.933585714 47.3759204,1.06544286 C43.8914204,1.37558571 40.4181426,1.81387143 36.9280315,2.02372857 C34.9473093,2.14258571 33.2621056,2.83344286 31.6105685,3.80658571 C30.5444574,4.43615714 29.4502907,5.03972857 28.3112352,5.52815714 C26.3379944,6.37501429 24.4732352,7.38344286 22.8142167,8.74472857 C20.8054389,10.3920143 18.7480315,11.9854429 17.2984944,14.2010143 C16.8851426,14.8305857 16.2679204,15.3301571 15.7273833,15.8724429 C14.1880685,17.4250143 12.6637167,19.0035857 11.5377537,20.8811571 C10.7091796,22.2628714 9.71040185,23.4941571 8.56386481,24.6028714 C7.3593463,25.7691571 6.39236481,27.0710143 5.73212407,28.6087286 C5.57501296,28.9783 5.37301296,29.4054429 5.06253148,29.6227286 C4.15914259,30.2523 3.82621667,31.1418714 3.62047593,32.1447286 C3.54005,32.5440143 3.38293889,32.9358714 3.20151296,33.3017286 C2.89664259,33.9145857 2.88729074,34.5478714 2.9658463,35.1997286 C3.09303148,36.2527286 3.75701296,37.0123 4.43221667,37.7477286 C4.7707537,38.1154429 5.25517963,38.2008714 5.75082778,38.0727286 C6.03886481,38.0003 6.32690185,37.9278714 6.6018463,37.8201571 C7.07505,37.6363 7.54638333,37.5954429 7.94851296,37.9278714 C8.65551296,38.5091571 9.45416111,38.5407286 10.3051796,38.4330143 C10.5296241,38.4051571 10.7839944,38.4348714 10.8064389,38.8100143 C10.696087,38.8954429 10.5782537,39.0440143 10.4304944,39.0885857 C9.48969815,39.3671571 8.55638333,39.3727286 7.67917963,38.8713 C7.12742037,38.5574429 6.54386481,38.4887286 5.97153148,38.7208714 C5.73960556,38.8155857 5.58997593,39.1090143 5.40293889,39.3114429 C5.56753148,39.4600143 5.70967963,39.6865857 5.90232778,39.7423 C6.63738333,39.9595857 7.37992037,40.1954429 8.13555,40.2864429 C9.09317963,40.4034429 9.80579074,40.8101571 10.3294944,41.6050143 C10.9729019,42.5818714 11.8426241,43.1371571 13.0808093,42.8660143 C13.0396611,43.6423 12.7721981,44.3461571 13.2229574,44.9367286 C13.9393093,45.3694429 14.8314759,45.0537286 15.4318648,45.6424429 C15.2466981,46.0955857 14.8595315,46.0045857 14.5153833,46.0101571 C12.3681981,46.0454429 12.1026056,45.8504429 11.5826426,43.9543 C10.8569389,43.3005857 10.1368463,42.7657286 9.56638333,42.1045857 C8.84816111,41.2781571 7.92232778,41.0088714 6.92167963,40.8454429 C6.57192037,40.7897286 6.21280926,40.7841571 5.85743889,40.7785857 C5.19719815,40.7674429 4.74456852,40.5204429 4.50516111,39.8593 C4.33682778,39.3894429 4.17971667,38.8155857 3.41099444,38.8304429 C2.8143463,39.6587286 2.00447593,40.3774429 1.76319815,41.4657286 C1.46955,42.7898714 1.23014259,44.1084429 1.40221667,45.4827286 C1.52753148,46.4725857 1.53314259,47.4773 1.6023463,48.4745857 C1.81556852,51.5834429 3.33805,54.1593 5.00455,56.6738714 C5.06814259,56.7723 5.16540185,56.8465857 5.24395741,56.9338714 C8.69105,60.6871571 12.52905,64.0077286 16.6101981,67.0571571 C17.1787907,67.4824429 17.7885315,67.8613 18.3066241,68.3385857 C20.81105,70.6470143 23.775587,72.0008714 27.1048463,72.6564429 C28.0306796,72.8365857 28.9789574,73.0520143 29.8224944,73.4513 C32.3979944,74.6714429 35.138087,75.0688714 37.9361611,75.2100143 C41.8003463,75.4013 45.6383463,74.9908714 49.4744759,74.6361571 C50.944587,74.5005857 52.4558463,74.3315857 53.8399204,73.8635857 C56.2826241,73.0390143 58.772087,72.6063 61.3195315,72.3723 C64.0315685,72.1215857 66.6239019,71.1335857 69.3808278,71.0945857 C70.2037907,71.0834429 71.0155315,70.9274429 71.8459759,71.1131571 C72.7325315,71.3118714 73.6116056,71.2283 74.4719759,70.9107286 C74.9152537,70.7454429 75.3753648,70.6247286 75.8336056,70.5021571 C79.1329389,69.6330143 81.6616796,67.6440143 83.6741981,65.0068714 C85.032087,63.2258714 86.1206426,61.2777286 86.9249019,59.1587286 C87.5701796,57.4613 88.1088463,55.7007286 89.1281981,54.1555857 C89.3133648,53.8733 89.425587,53.5055857 89.4592537,53.1675857 C89.5957907,51.7821571 90.1999204,50.5787286 90.8526796,49.3827286 C91.2174019,48.7123 91.5334944,48.0140143 91.8252722,47.3101571 C91.9206611,47.0798714 92.0179204,46.7548714 91.5933463,46.5283 C90.6619019,47.4531571 90.3046611,49.0818714 88.597013,49.2118714 C88.597013,49.0354429 88.5502537,48.8831571 88.6026241,48.8311571 C89.5864389,47.8747286 90.2560315,46.6898714 91.0341056,45.5830143 C91.6756426,44.6693 92.4013463,43.8038714 92.9624574,42.8437286 C93.7947722,41.4211571 94.5447907,39.9484429 95.2667537,38.4683 C95.6333463,37.7198714 96.0130315,37.0030143 96.6283833,36.4254429 C96.677013,36.3827286 96.6246426,36.2341571 96.6134204,36.0335857 C96.0336056,36.3845857 95.5304759,36.7838714 94.960013,37.0178714 C93.1551056,37.7625857 91.3539389,38.5295857 89.4966611,39.1275857 C87.0764019,39.9075857 84.6056426,40.5427286 82.1517167,41.2224429 C81.1828648,41.4917286 80.214013,41.8111571 79.2227167,41.9393 C76.9296426,42.2364429 74.629087,42.5224429 72.3229204,42.6487286 C68.771087,42.8437286 65.2099019,43.0275857 61.6543278,42.9867286 C56.9204204,42.9291571 52.32305,43.6887286 47.7574759,44.7974429 C47.5517352,44.8475857 47.3665685,44.9794429 46.9981056,45.1577286 C47.3815315,45.4734429 47.6059759,45.8170143 47.8753093,45.8560143 C49.5062722,46.0937286 51.1147907,46.6081571 52.8018648,46.2088714 C53.5219574,46.0380143 54.2233463,46.1234429 54.6928093,46.8347286 C54.782587,46.9684429 54.9733648,47.0353 55.2314759,47.2098714 C56.2339944,46.7363 57.3393833,46.8458714 58.4672167,47.0241571 C58.9123648,47.0947286 59.3949204,46.8941571 59.862513,46.8570143 C60.135587,46.8347286 60.4161426,46.8904429 60.9211426,46.9294429 C60.5751241,47.3417286 60.4142722,47.6685857 60.15055,47.8190143 C59.4566426,48.2108714 58.6897907,48.2127286 57.9042352,48.1143 C57.3244204,48.0437286 56.7034574,47.9490143 56.1535685,48.0827286 C55.3792352,48.2721571 54.7489204,48.1904429 54.19155,47.6425857 C53.7707167,47.2284429 53.2769389,47.1225857 52.7195685,47.2451571 C51.1671611,47.5924429 49.6502907,47.2321571 48.1278093,47.0241571 C47.5199389,46.9405857 46.9962352,46.7140143 46.6259019,46.1828714 C46.5024574,46.0064429 46.2724019,45.9043 46.0647907,45.7501571 C45.0042907,46.2330143 43.9924204,46.7103 43.1357907,47.4550143 C42.47555,48.0270143 41.733013,48.2461571 40.8464574,48.2164429 C39.7223648,48.1793 38.5945315,48.2684429 37.4685685,48.2944429 C37.2347722,48.3000143 36.9841426,48.3167286 36.76905,48.2443 C36.6399944,48.1997286 36.4997167,48.0010143 36.4866241,47.8598714 C36.4716611,47.7168714 36.56705,47.4791571 36.6848833,47.4234429 C36.9392537,47.3008714 37.2347722,47.2173 37.5190685,47.2024429 C38.5271981,47.1560143 39.5353278,47.1114429 40.5434574,47.1281571 C41.4019574,47.1430143 42.1501056,46.9814429 42.8589759,46.4391571 C43.4107352,46.0175857 44.0990315,45.7724429 44.7274759,45.4474429 C44.9369574,45.3378714 45.1352167,45.2171571 44.9781056,44.9200143 C43.3434019,44.6340143 41.703087,44.4390143 40.0328463,44.6061571 C39.5035315,44.6600143 38.9592537,44.6841571 38.4336796,44.6247286 C36.4061981,44.3981571 34.410513,44.7268714 32.4036056,44.8958714 C31.5843833,44.9645857 30.744587,44.9571571 29.9291056,44.8587286 C28.6946611,44.7101571 27.4789204,44.4148714 26.2463463,44.2495857 C25.35605,44.1307286 24.5069019,43.9227286 23.6708463,43.5995857 C21.957587,42.9384429 20.2331056,42.3107286 18.422587,41.9374429 C17.2573463,41.6960143 16.1631796,41.2447286 15.1587907,40.5835857 C14.3694944,40.0635857 13.5633648,39.5584429 12.5907722,39.4191571 C12.52905,39.4098714 12.4897722,39.2445857 12.3756796,39.0403 C13.6606241,39.1461571 14.8632722,39.0607286 15.9649204,39.8444429 C16.9337722,40.5315857 18.1121056,40.7990143 19.2679944,41.0998714 C20.8147907,41.4991571 22.3522352,41.9541571 23.8504019,42.5020143 C24.8604019,42.8715857 25.8573093,43.2003 26.9309019,43.3061571 C27.4602167,43.3581571 27.9783093,43.5067286 28.5076241,43.5754429 C29.6204944,43.7221571 30.7614204,44.0545857 31.8462352,43.9301571 C34.2683648,43.6515857 36.6736611,43.4770143 39.1163648,43.4937286 C40.8969574,43.5067286 42.6700685,43.4380143 44.4375685,43.7073 C45.9263833,43.9338714 47.3871426,43.8131571 48.8479019,43.4491571 C51.7282722,42.7285857 54.6404389,42.1677286 57.6143278,42.0247286 C60.1019204,41.9058714 62.5932537,41.8464429 65.0808463,41.7591571 C65.7934574,41.7350143 66.5041981,41.6774429 67.2149389,41.6867286 C69.5903093,41.7183 71.9563278,41.5845857 74.3129944,41.2781571 C75.3716241,41.1407286 76.4339944,40.9661571 77.4963648,40.9494429 C78.5774389,40.9327286 79.6211056,40.7785857 80.6516796,40.4944429 C82.7670685,39.9113 84.8843278,39.3430143 86.9884944,38.7208714 C88.1799204,38.3698714 89.3526426,37.9501571 90.5197537,37.5193 C91.5709019,37.1293 92.6108278,36.7040143 93.6414019,36.2583 C94.2324389,36.0038714 94.8346981,35.7364429 95.3584019,35.3705857 C95.9232537,34.9750143 96.4039389,34.4587286 97.0436056,33.8867286 C96.7424759,33.8198714 96.4843648,33.6731571 96.3553093,33.7474429 C95.3060315,34.3528714 94.1314389,34.3788714 92.9792907,34.5200143 L93.0185685,34.5645857 Z M97.3466056,35.3111571 C97.4270315,35.3817286 97.505587,35.4541571 97.5841426,35.5247286 C97.7356426,35.3873 97.9226796,35.2721571 98.0274204,35.1050143 C98.2069759,34.8227286 98.1714389,34.5664429 97.6982352,34.4290143 C97.5841426,34.7187286 97.4663093,35.0158714 97.3466056,35.3111571 L97.3466056,35.3111571 Z" id="Fill-119" fill="#9E0C40"></path>
                <path d="M2.34114259,37.0308714 C2.24949444,36.7485857 2.17842037,36.4625857 2.06619815,36.1914429 C1.73327222,35.3854429 1.72579074,34.5961571 2.11295741,33.8013 C2.37293889,33.2683 2.55062407,32.7445857 2.31121667,32.1113 C2.21395741,31.8513 2.40099444,31.4260143 2.56558704,31.1363 C4.11051296,28.4230143 5.67414259,25.7505857 7.97469815,23.5275857 C9.53458704,22.0214429 10.7484574,20.1661571 12.1493648,18.4928714 C13.0939019,17.3637286 14.09455,16.2791571 15.0708833,15.1741571 C15.8489574,14.2920143 16.6326426,13.4098714 17.4069759,12.5240143 C17.8352907,12.0355857 18.1962722,11.4765857 18.6788278,11.0550143 C21.61905,8.48844286 24.5873278,5.96644286 28.2177167,4.34887143 C29.8374574,3.62644286 31.401087,2.78144286 32.9740685,1.9643 C34.0981611,1.3793 35.2764944,1.07287143 36.5483463,1.01715714 C38.6188463,0.926157143 40.6893463,0.792442857 42.7579759,0.632728571 C44.3515315,0.5083 45.9394759,0.309585714 47.5311611,0.149871429 C50.7556796,-0.173271429 53.9072537,0.177728571 57.0214204,1.06172857 C58.2109759,1.39972857 59.4547722,1.6003 60.6873463,1.72287143 C62.3014759,1.88444286 63.8333093,2.25401429 65.3127722,2.90772857 C66.124513,3.2643 66.9755315,3.52987143 67.811587,3.83072857 C69.3864389,4.39715714 70.8172722,5.17344286 72.0741611,6.31187143 C73.6527537,7.74001429 75.3978093,8.95644286 77.3579574,9.8553 C78.43155,10.3493 79.4752167,10.9194429 80.4964389,11.5118714 C81.15855,11.8963 81.8038278,12.3364429 82.3780315,12.8397286 C85.0919389,15.2317286 87.4691796,17.9320143 89.4199759,20.9628714 C90.4374574,22.5414429 91.2679019,24.2500143 92.0646796,25.9548714 C92.9493648,27.8435857 94.2548833,29.4500143 95.4406981,31.1288714 C96.0803648,32.0351571 97.0398648,32.6870143 98.2649574,32.7668714 C98.5978833,32.7873 98.9214574,32.9414429 99.2487722,33.0324429 C99.2076241,33.7957286 99.2076241,34.4773 99.1178463,35.1477286 C99.0823093,35.4114429 98.8821796,35.6807286 98.6914019,35.8887286 C98.3322907,36.2787286 97.9170685,36.6167286 97.5411241,36.9918714 C96.9070685,37.6288714 96.3478278,38.3141571 96.2861056,39.2594429 C96.2412167,39.9484429 95.8559204,40.4740143 95.4519204,40.9810143 C94.2492722,42.4964429 93.5778093,44.2681571 93.1438833,46.0955857 C92.7847722,47.6073 92.2704204,49.0298714 91.5166611,50.3670143 C91.0453278,51.2045857 90.789087,52.0904429 90.587087,53.0134429 C90.4767352,53.5241571 90.3682537,54.0701571 90.1026611,54.5047286 C88.9841796,56.3303 88.3613463,58.3638714 87.5458648,60.3157286 C85.7951981,64.5073 83.0794204,67.9114429 79.2376796,70.3944429 C78.6503833,70.7751571 77.9714389,71.0351571 77.3074574,71.2784429 C76.5293833,71.5644429 75.7082907,71.7315857 74.932087,72.0194429 C73.9594944,72.3815857 72.9756796,72.4874429 71.9581981,72.3444429 C70.8902167,72.1921571 69.8334574,72.2218714 68.771087,72.4113 C68.2492537,72.5041571 67.7068463,72.4837286 67.1775315,72.5431571 C66.5921056,72.6081571 65.9879759,72.6323 65.4268648,72.7975857 C63.7098648,73.3027286 61.953587,73.5627286 60.1804759,73.7075857 C58.3381611,73.8598714 56.550087,74.2275857 54.7844574,74.7680143 C53.5986426,75.1301571 52.3810315,75.4644429 51.1521981,75.6037286 C46.9719204,76.0773 42.7822907,76.5750143 38.5646056,76.4301571 C35.592587,76.3280143 32.6673278,75.9157286 29.8916981,74.7327286 C28.9172352,74.3167286 27.8829204,74.0047286 26.8448648,73.7763 C24.49755,73.2600143 22.37655,72.2181571 20.2742537,71.1280143 C19.7524204,70.8568714 19.2829574,70.4798714 18.8209759,70.1140143 C16.0378648,67.9170143 13.2584944,65.7163 10.4884759,63.5044429 C8.07756852,61.5804429 6.02764259,59.2887286 3.94217963,57.0378714 C3.51012407,56.5717286 3.20899444,55.9718714 2.89851296,55.4073 C2.58803148,54.8408714 2.36171667,54.2280143 2.06058704,53.6541571 C1.08986481,51.8025857 0.422142593,49.8841571 0.525012963,47.7540143 C0.549327778,47.2303 0.485735185,46.6917286 0.384735185,46.1735857 C0.0873462963,44.6377286 0.30617963,43.1315857 0.581124074,41.6217286 C0.719531481,40.8547286 0.96455,40.1601571 1.56493889,39.6011571 C2.06058704,39.1424429 2.44027222,38.6298714 1.88851296,37.9167286 C1.81556852,37.8220143 2.12417963,37.4375857 2.34114259,37.0308714 Z M93.0185685,34.5645857 C93.3963833,33.8217286 94.101513,33.5394429 94.8328278,33.2887286 C95.0834574,33.2014429 95.4481796,33.2720143 95.4706241,32.9358714 C94.6644944,31.7658714 93.9444019,30.6144429 93.1083463,29.5540143 C92.687513,29.0191571 91.8720315,28.7405857 91.5709019,28.1704429 C91.2361056,27.5390143 91.3184019,26.7051571 90.9499389,26.0180143 C90.284087,24.7718714 89.6687352,23.4978714 89.001013,22.2535857 C88.668087,21.6333 88.3407722,20.9814429 87.8787907,20.4595857 C86.1599204,18.5151571 84.6916796,16.3701571 82.7689389,14.5873 C81.4521981,13.3634429 80.0737352,12.2918714 78.446513,11.5378714 C75.5268648,10.1840143 72.82605,8.51072857 70.4712537,6.30815714 C70.1289759,5.99058571 69.7399389,5.68787143 69.3172352,5.49472857 C66.9418648,4.41387143 64.4823278,3.55215714 61.9591981,2.89101429 C61.1044389,2.66815714 60.20105,2.63287143 59.3201056,2.51958571 C56.7932352,2.1983 54.39355,1.26044286 51.8143093,1.13601429 C50.3311056,1.06358571 48.853513,0.933585714 47.3759204,1.06544286 C43.8914204,1.37558571 40.4181426,1.81387143 36.9280315,2.02372857 C34.9473093,2.14258571 33.2621056,2.83344286 31.6105685,3.80658571 C30.5444574,4.43615714 29.4502907,5.03972857 28.3112352,5.52815714 C26.3379944,6.37501429 24.4732352,7.38344286 22.8142167,8.74472857 C20.8054389,10.3920143 18.7480315,11.9854429 17.2984944,14.2010143 C16.8851426,14.8305857 16.2679204,15.3301571 15.7273833,15.8724429 C14.1880685,17.4250143 12.6637167,19.0035857 11.5377537,20.8811571 C10.7091796,22.2628714 9.71040185,23.4941571 8.56386481,24.6028714 C7.3593463,25.7691571 6.39236481,27.0710143 5.73212407,28.6087286 C5.57501296,28.9783 5.37301296,29.4054429 5.06253148,29.6227286 C4.15914259,30.2523 3.82621667,31.1418714 3.62047593,32.1447286 C3.54005,32.5440143 3.38293889,32.9358714 3.20151296,33.3017286 C2.89664259,33.9145857 2.88729074,34.5478714 2.9658463,35.1997286 C3.09303148,36.2527286 3.75701296,37.0123 4.43221667,37.7477286 C4.7707537,38.1154429 5.25517963,38.2008714 5.75082778,38.0727286 C6.03886481,38.0003 6.32690185,37.9278714 6.6018463,37.8201571 C7.07505,37.6363 7.54638333,37.5954429 7.94851296,37.9278714 C8.65551296,38.5091571 9.45416111,38.5407286 10.3051796,38.4330143 C10.5296241,38.4051571 10.7839944,38.4348714 10.8064389,38.8100143 C10.696087,38.8954429 10.5782537,39.0440143 10.4304944,39.0885857 C9.48969815,39.3671571 8.55638333,39.3727286 7.67917963,38.8713 C7.12742037,38.5574429 6.54386481,38.4887286 5.97153148,38.7208714 C5.73960556,38.8155857 5.58997593,39.1090143 5.40293889,39.3114429 C5.56753148,39.4600143 5.70967963,39.6865857 5.90232778,39.7423 C6.63738333,39.9595857 7.37992037,40.1954429 8.13555,40.2864429 C9.09317963,40.4034429 9.80579074,40.8101571 10.3294944,41.6050143 C10.9729019,42.5818714 11.8426241,43.1371571 13.0808093,42.8660143 C13.0396611,43.6423 12.7721981,44.3461571 13.2229574,44.9367286 C13.9393093,45.3694429 14.8314759,45.0537286 15.4318648,45.6424429 C15.2466981,46.0955857 14.8595315,46.0045857 14.5153833,46.0101571 C12.3681981,46.0454429 12.1026056,45.8504429 11.5826426,43.9543 C10.8569389,43.3005857 10.1368463,42.7657286 9.56638333,42.1045857 C8.84816111,41.2781571 7.92232778,41.0088714 6.92167963,40.8454429 C6.57192037,40.7897286 6.21280926,40.7841571 5.85743889,40.7785857 C5.19719815,40.7674429 4.74456852,40.5204429 4.50516111,39.8593 C4.33682778,39.3894429 4.17971667,38.8155857 3.41099444,38.8304429 C2.8143463,39.6587286 2.00447593,40.3774429 1.76319815,41.4657286 C1.46955,42.7898714 1.23014259,44.1084429 1.40221667,45.4827286 C1.52753148,46.4725857 1.53314259,47.4773 1.6023463,48.4745857 C1.81556852,51.5834429 3.33805,54.1593 5.00455,56.6738714 C5.06814259,56.7723 5.16540185,56.8465857 5.24395741,56.9338714 C8.69105,60.6871571 12.52905,64.0077286 16.6101981,67.0571571 C17.1787907,67.4824429 17.7885315,67.8613 18.3066241,68.3385857 C20.81105,70.6470143 23.775587,72.0008714 27.1048463,72.6564429 C28.0306796,72.8365857 28.9789574,73.0520143 29.8224944,73.4513 C32.3979944,74.6714429 35.138087,75.0688714 37.9361611,75.2100143 C41.8003463,75.4013 45.6383463,74.9908714 49.4744759,74.6361571 C50.944587,74.5005857 52.4558463,74.3315857 53.8399204,73.8635857 C56.2826241,73.0390143 58.772087,72.6063 61.3195315,72.3723 C64.0315685,72.1215857 66.6239019,71.1335857 69.3808278,71.0945857 C70.2037907,71.0834429 71.0155315,70.9274429 71.8459759,71.1131571 C72.7325315,71.3118714 73.6116056,71.2283 74.4719759,70.9107286 C74.9152537,70.7454429 75.3753648,70.6247286 75.8336056,70.5021571 C79.1329389,69.6330143 81.6616796,67.6440143 83.6741981,65.0068714 C85.032087,63.2258714 86.1206426,61.2777286 86.9249019,59.1587286 C87.5701796,57.4613 88.1088463,55.7007286 89.1281981,54.1555857 C89.3133648,53.8733 89.425587,53.5055857 89.4592537,53.1675857 C89.5957907,51.7821571 90.1999204,50.5787286 90.8526796,49.3827286 C91.2174019,48.7123 91.5334944,48.0140143 91.8252722,47.3101571 C91.9206611,47.0798714 92.0179204,46.7548714 91.5933463,46.5283 C90.6619019,47.4531571 90.3046611,49.0818714 88.597013,49.2118714 C88.597013,49.0354429 88.5502537,48.8831571 88.6026241,48.8311571 C89.5864389,47.8747286 90.2560315,46.6898714 91.0341056,45.5830143 C91.6756426,44.6693 92.4013463,43.8038714 92.9624574,42.8437286 C93.7947722,41.4211571 94.5447907,39.9484429 95.2667537,38.4683 C95.6333463,37.7198714 96.0130315,37.0030143 96.6283833,36.4254429 C96.677013,36.3827286 96.6246426,36.2341571 96.6134204,36.0335857 C96.0336056,36.3845857 95.5304759,36.7838714 94.960013,37.0178714 C93.1551056,37.7625857 91.3539389,38.5295857 89.4966611,39.1275857 C87.0764019,39.9075857 84.6056426,40.5427286 82.1517167,41.2224429 C81.1828648,41.4917286 80.214013,41.8111571 79.2227167,41.9393 C76.9296426,42.2364429 74.629087,42.5224429 72.3229204,42.6487286 C68.771087,42.8437286 65.2099019,43.0275857 61.6543278,42.9867286 C56.9204204,42.9291571 52.32305,43.6887286 47.7574759,44.7974429 C47.5517352,44.8475857 47.3665685,44.9794429 46.9981056,45.1577286 C47.3815315,45.4734429 47.6059759,45.8170143 47.8753093,45.8560143 C49.5062722,46.0937286 51.1147907,46.6081571 52.8018648,46.2088714 C53.5219574,46.0380143 54.2233463,46.1234429 54.6928093,46.8347286 C54.782587,46.9684429 54.9733648,47.0353 55.2314759,47.2098714 C56.2339944,46.7363 57.3393833,46.8458714 58.4672167,47.0241571 C58.9123648,47.0947286 59.3949204,46.8941571 59.862513,46.8570143 C60.135587,46.8347286 60.4161426,46.8904429 60.9211426,46.9294429 C60.5751241,47.3417286 60.4142722,47.6685857 60.15055,47.8190143 C59.4566426,48.2108714 58.6897907,48.2127286 57.9042352,48.1143 C57.3244204,48.0437286 56.7034574,47.9490143 56.1535685,48.0827286 C55.3792352,48.2721571 54.7489204,48.1904429 54.19155,47.6425857 C53.7707167,47.2284429 53.2769389,47.1225857 52.7195685,47.2451571 C51.1671611,47.5924429 49.6502907,47.2321571 48.1278093,47.0241571 C47.5199389,46.9405857 46.9962352,46.7140143 46.6259019,46.1828714 C46.5024574,46.0064429 46.2724019,45.9043 46.0647907,45.7501571 C45.0042907,46.2330143 43.9924204,46.7103 43.1357907,47.4550143 C42.47555,48.0270143 41.733013,48.2461571 40.8464574,48.2164429 C39.7223648,48.1793 38.5945315,48.2684429 37.4685685,48.2944429 C37.2347722,48.3000143 36.9841426,48.3167286 36.76905,48.2443 C36.6399944,48.1997286 36.4997167,48.0010143 36.4866241,47.8598714 C36.4716611,47.7168714 36.56705,47.4791571 36.6848833,47.4234429 C36.9392537,47.3008714 37.2347722,47.2173 37.5190685,47.2024429 C38.5271981,47.1560143 39.5353278,47.1114429 40.5434574,47.1281571 C41.4019574,47.1430143 42.1501056,46.9814429 42.8589759,46.4391571 C43.4107352,46.0175857 44.0990315,45.7724429 44.7274759,45.4474429 C44.9369574,45.3378714 45.1352167,45.2171571 44.9781056,44.9200143 C43.3434019,44.6340143 41.703087,44.4390143 40.0328463,44.6061571 C39.5035315,44.6600143 38.9592537,44.6841571 38.4336796,44.6247286 C36.4061981,44.3981571 34.410513,44.7268714 32.4036056,44.8958714 C31.5843833,44.9645857 30.744587,44.9571571 29.9291056,44.8587286 C28.6946611,44.7101571 27.4789204,44.4148714 26.2463463,44.2495857 C25.35605,44.1307286 24.5069019,43.9227286 23.6708463,43.5995857 C21.957587,42.9384429 20.2331056,42.3107286 18.422587,41.9374429 C17.2573463,41.6960143 16.1631796,41.2447286 15.1587907,40.5835857 C14.3694944,40.0635857 13.5633648,39.5584429 12.5907722,39.4191571 C12.52905,39.4098714 12.4897722,39.2445857 12.3756796,39.0403 C13.6606241,39.1461571 14.8632722,39.0607286 15.9649204,39.8444429 C16.9337722,40.5315857 18.1121056,40.7990143 19.2679944,41.0998714 C20.8147907,41.4991571 22.3522352,41.9541571 23.8504019,42.5020143 C24.8604019,42.8715857 25.8573093,43.2003 26.9309019,43.3061571 C27.4602167,43.3581571 27.9783093,43.5067286 28.5076241,43.5754429 C29.6204944,43.7221571 30.7614204,44.0545857 31.8462352,43.9301571 C34.2683648,43.6515857 36.6736611,43.4770143 39.1163648,43.4937286 C40.8969574,43.5067286 42.6700685,43.4380143 44.4375685,43.7073 C45.9263833,43.9338714 47.3871426,43.8131571 48.8479019,43.4491571 C51.7282722,42.7285857 54.6404389,42.1677286 57.6143278,42.0247286 C60.1019204,41.9058714 62.5932537,41.8464429 65.0808463,41.7591571 C65.7934574,41.7350143 66.5041981,41.6774429 67.2149389,41.6867286 C69.5903093,41.7183 71.9563278,41.5845857 74.3129944,41.2781571 C75.3716241,41.1407286 76.4339944,40.9661571 77.4963648,40.9494429 C78.5774389,40.9327286 79.6211056,40.7785857 80.6516796,40.4944429 C82.7670685,39.9113 84.8843278,39.3430143 86.9884944,38.7208714 C88.1799204,38.3698714 89.3526426,37.9501571 90.5197537,37.5193 C91.5709019,37.1293 92.6108278,36.7040143 93.6414019,36.2583 C94.2324389,36.0038714 94.8346981,35.7364429 95.3584019,35.3705857 C95.9232537,34.9750143 96.4039389,34.4587286 97.0436056,33.8867286 C96.7424759,33.8198714 96.4843648,33.6731571 96.3553093,33.7474429 C95.3060315,34.3528714 94.1314389,34.3788714 92.9792907,34.5200143 L93.0185685,34.5645857 Z M97.3466056,35.3111571 C97.4270315,35.3817286 97.505587,35.4541571 97.5841426,35.5247286 C97.7356426,35.3873 97.9226796,35.2721571 98.0274204,35.1050143 C98.2069759,34.8227286 98.1714389,34.5664429 97.6982352,34.4290143 C97.5841426,34.7187286 97.4663093,35.0158714 97.3466056,35.3111571 Z" id="Stroke-121" stroke="#AD8D5E" stroke-width="0.253"></path>
                <path d="M82.5328981,32.0892 C82.5029722,32.4624857 82.5796574,32.7874857 82.4487315,32.9434857 C81.618287,33.9426286 80.7541759,34.9120571 79.4056389,35.2593429 C78.8370463,35.4060571 78.3283056,35.6567714 77.7073426,35.2964857 C77.1705463,34.9844857 76.5364907,35.1627714 75.992213,35.4134857 C74.548287,36.0820571 73.0763056,36.7042 71.8418611,37.7404857 C70.3661389,38.9773429 68.5874167,39.3822 66.7282685,39.5140571 C65.8716389,39.5753429 65.1721204,39.3339143 63.8946574,38.7154857 C63.8348056,38.3292 64.1228426,38.1862 64.4015278,38.1490571 C64.8036574,38.0952 65.2488056,38.0357714 65.6210093,38.1490571 C67.609213,38.7582 69.3523981,38.1713429 71.0188981,37.1536286 C71.9746574,36.5704857 72.9079722,35.9502 73.8656019,35.3689143 C75.2010463,34.5554857 76.5495833,33.9203429 78.2216944,34.4106286 C78.9511389,34.6260571 79.7684907,34.4236286 80.4044167,33.9092 C81.0833611,33.3594857 81.73425,32.7763429 82.5328981,32.0892" id="Fill-123" fill="#9E0C40"></path>
                <path d="M82.5328981,32.0892 C82.5029722,32.4624857 82.5796574,32.7874857 82.4487315,32.9434857 C81.618287,33.9426286 80.7541759,34.9120571 79.4056389,35.2593429 C78.8370463,35.4060571 78.3283056,35.6567714 77.7073426,35.2964857 C77.1705463,34.9844857 76.5364907,35.1627714 75.992213,35.4134857 C74.548287,36.0820571 73.0763056,36.7042 71.8418611,37.7404857 C70.3661389,38.9773429 68.5874167,39.3822 66.7282685,39.5140571 C65.8716389,39.5753429 65.1721204,39.3339143 63.8946574,38.7154857 C63.8348056,38.3292 64.1228426,38.1862 64.4015278,38.1490571 C64.8036574,38.0952 65.2488056,38.0357714 65.6210093,38.1490571 C67.609213,38.7582 69.3523981,38.1713429 71.0188981,37.1536286 C71.9746574,36.5704857 72.9079722,35.9502 73.8656019,35.3689143 C75.2010463,34.5554857 76.5495833,33.9203429 78.2216944,34.4106286 C78.9511389,34.6260571 79.7684907,34.4236286 80.4044167,33.9092 C81.0833611,33.3594857 81.73425,32.7763429 82.5328981,32.0892 Z" id="Stroke-125" stroke="#AD8D5E" stroke-width="0.253"></path>
                <path d="M73.0699463,62.1071286 C73.4589833,62.4952714 73.2962611,62.8704143 73.0437611,63.0765571 C72.0898722,63.8528429 71.1116685,64.6049857 70.0960574,65.2977 C69.6471685,65.6041286 69.0916685,65.5502714 68.5604833,65.3571286 C67.0398722,64.8055571 65.5940759,64.9207 64.2417981,65.8585571 C63.226187,66.5624143 62.1357611,66.7852714 60.9237611,66.3321286 C61.0172796,66.2151286 61.0752611,66.0702714 61.1482056,66.0628429 C62.4462426,65.9328429 63.4973907,65.3199857 64.3820759,64.4137 C64.7393167,64.0497 65.1133907,63.8825571 65.6352241,63.9252714 C66.2187796,63.9735571 66.811687,63.9141286 67.3989833,63.9308429 C67.9208167,63.9457 68.4632241,63.9197 68.9570019,64.0571286 C69.5966685,64.2372714 70.10915,64.0924143 70.6178907,63.7451286 C71.4352426,63.1898429 72.1833907,62.5305571 73.0699463,62.1071286" id="Fill-127" fill="#9E0C40"></path>
                <path d="M73.0699463,62.1071286 C73.4589833,62.4952714 73.2962611,62.8704143 73.0437611,63.0765571 C72.0898722,63.8528429 71.1116685,64.6049857 70.0960574,65.2977 C69.6471685,65.6041286 69.0916685,65.5502714 68.5604833,65.3571286 C67.0398722,64.8055571 65.5940759,64.9207 64.2417981,65.8585571 C63.226187,66.5624143 62.1357611,66.7852714 60.9237611,66.3321286 C61.0172796,66.2151286 61.0752611,66.0702714 61.1482056,66.0628429 C62.4462426,65.9328429 63.4973907,65.3199857 64.3820759,64.4137 C64.7393167,64.0497 65.1133907,63.8825571 65.6352241,63.9252714 C66.2187796,63.9735571 66.811687,63.9141286 67.3989833,63.9308429 C67.9208167,63.9457 68.4632241,63.9197 68.9570019,64.0571286 C69.5966685,64.2372714 70.10915,64.0924143 70.6178907,63.7451286 C71.4352426,63.1898429 72.1833907,62.5305571 73.0699463,62.1071286 Z" id="Stroke-129" stroke="#AD8D5E" stroke-width="0.253"></path>
                <path d="M22.386837,47.5177857 C22.2690037,46.9606429 22.4261148,46.6115 22.7833556,46.3329286 C23.295837,45.9355 23.780263,45.4396429 24.4741704,45.4377857 C25.9592444,45.4359286 27.4480593,45.4470714 28.5197815,46.7656429 C28.8059481,47.1185 29.2436148,47.3525 29.6158185,47.6366429 C29.8028556,47.7777857 30.0497444,47.8743571 30.1788,48.0545 C30.2928926,48.2160714 30.3340407,48.4705 30.3059852,48.6710714 C30.294763,48.7546429 30.0179481,48.8679286 29.8683185,48.8586429 C28.9275222,48.7955 27.9885963,48.6357857 27.0496704,48.6376429 C25.4205778,48.6432143 23.881263,48.3627857 22.386837,47.5177857 M23.3332444,47.0479286 C24.7771704,47.7425 25.5533741,47.8855 26.7616333,47.6979286 C26.9449296,47.6682143 27.1057815,47.5103571 27.4330963,47.3246429 C26.0546333,46.4945 24.8575963,46.0933571 23.3332444,47.0479286" id="Fill-131" fill="#9E0C40"></path>
                <path d="M22.386837,47.5177857 C22.2690037,46.9606429 22.4261148,46.6115 22.7833556,46.3329286 C23.295837,45.9355 23.780263,45.4396429 24.4741704,45.4377857 C25.9592444,45.4359286 27.4480593,45.4470714 28.5197815,46.7656429 C28.8059481,47.1185 29.2436148,47.3525 29.6158185,47.6366429 C29.8028556,47.7777857 30.0497444,47.8743571 30.1788,48.0545 C30.2928926,48.2160714 30.3340407,48.4705 30.3059852,48.6710714 C30.294763,48.7546429 30.0179481,48.8679286 29.8683185,48.8586429 C28.9275222,48.7955 27.9885963,48.6357857 27.0496704,48.6376429 C25.4205778,48.6432143 23.881263,48.3627857 22.386837,47.5177857 Z M23.3332444,47.0479286 C24.7771704,47.7425 25.5533741,47.8855 26.7616333,47.6979286 C26.9449296,47.6682143 27.1057815,47.5103571 27.4330963,47.3246429 C26.0546333,46.4945 24.8575963,46.0933571 23.3332444,47.0479286 Z" id="Stroke-133" stroke="#AD8D5E" stroke-width="0.253"></path>
                <path d="M29.3679944,36.1784429 C30.0974389,36.9528714 30.6922167,37.6028714 31.3075685,38.2324429 C32.0033463,38.9437286 32.8637167,39.3207286 33.8643648,39.2538714 C34.7789759,39.1925857 35.6299944,39.3987286 36.46605,39.7125857 C37.3825315,40.0561571 38.2971426,40.0728714 39.258513,39.8760143 C40.0646426,39.7107286 40.9006981,39.6698714 41.7255315,39.6067286 C41.8620685,39.5955857 42.1332722,39.7590143 42.1332722,39.8388714 C42.1295315,40.0394429 42.0603278,40.3477286 41.92005,40.4145857 C41.6189204,40.5613 41.2579389,40.6448714 40.9194019,40.6448714 C39.2697352,40.6504429 37.6256796,40.5891571 35.9928463,40.2734429 C35.1867167,40.1155857 34.3394389,40.1731571 33.5108648,40.1230143 C32.4541056,40.0598714 31.5207907,39.7255857 30.9447167,38.7858714 C30.3948278,37.8925857 29.3923093,37.5415857 28.6722167,36.8507286 C28.4608648,36.6483 28.0101056,36.6538714 27.664087,36.6371571 C27.0206796,36.6055857 26.3735315,36.6278714 25.7282537,36.5610143 C26.9327722,36.2861571 28.1167167,35.8088714 29.3679944,36.1784429" id="Fill-135" fill="#9E0C40"></path>
                <path d="M29.3679944,36.1784429 C30.0974389,36.9528714 30.6922167,37.6028714 31.3075685,38.2324429 C32.0033463,38.9437286 32.8637167,39.3207286 33.8643648,39.2538714 C34.7789759,39.1925857 35.6299944,39.3987286 36.46605,39.7125857 C37.3825315,40.0561571 38.2971426,40.0728714 39.258513,39.8760143 C40.0646426,39.7107286 40.9006981,39.6698714 41.7255315,39.6067286 C41.8620685,39.5955857 42.1332722,39.7590143 42.1332722,39.8388714 C42.1295315,40.0394429 42.0603278,40.3477286 41.92005,40.4145857 C41.6189204,40.5613 41.2579389,40.6448714 40.9194019,40.6448714 C39.2697352,40.6504429 37.6256796,40.5891571 35.9928463,40.2734429 C35.1867167,40.1155857 34.3394389,40.1731571 33.5108648,40.1230143 C32.4541056,40.0598714 31.5207907,39.7255857 30.9447167,38.7858714 C30.3948278,37.8925857 29.3923093,37.5415857 28.6722167,36.8507286 C28.4608648,36.6483 28.0101056,36.6538714 27.664087,36.6371571 C27.0206796,36.6055857 26.3735315,36.6278714 25.7282537,36.5610143 C26.9327722,36.2861571 28.1167167,35.8088714 29.3679944,36.1784429 Z" id="Stroke-137" stroke="#AD8D5E" stroke-width="0.253"></path>
                <path d="M82.3853259,50.4232857 C82.2020296,51.9907143 81.4931593,53.1588571 80.3933815,54.1004286 C79.8135667,54.5981429 79.2861222,55.1552857 78.7362333,55.6864286 C77.1557704,57.213 75.2573444,57.759 72.9249926,57.5454286 C73.3346037,56.9232857 73.9181593,56.9715714 74.3595667,56.875 C75.9755667,56.524 77.3091407,55.7124286 78.4856037,54.5981429 C78.5697704,54.5164286 78.653937,54.4347143 78.7399741,54.353 C79.7219185,53.4281429 80.724437,52.5218571 81.6745852,51.5635714 C81.9813259,51.2534286 82.1515296,50.8077143 82.3853259,50.4232857" id="Fill-139" fill="#9E0C40"></path>
                <path d="M82.3853259,50.4232857 C82.2020296,51.9907143 81.4931593,53.1588571 80.3933815,54.1004286 C79.8135667,54.5981429 79.2861222,55.1552857 78.7362333,55.6864286 C77.1557704,57.213 75.2573444,57.759 72.9249926,57.5454286 C73.3346037,56.9232857 73.9181593,56.9715714 74.3595667,56.875 C75.9755667,56.524 77.3091407,55.7124286 78.4856037,54.5981429 C78.5697704,54.5164286 78.653937,54.4347143 78.7399741,54.353 C79.7219185,53.4281429 80.724437,52.5218571 81.6745852,51.5635714 C81.9813259,51.2534286 82.1515296,50.8077143 82.3853259,50.4232857 Z" id="Stroke-141" stroke="#AD8D5E" stroke-width="0.253"></path>
                <path d="M53.5640407,35.2953714 C55.3539852,36.9593714 57.6059111,37.2899429 59.9120778,37.4533714 C60.2038556,37.4738 60.5012444,37.3883714 60.796763,37.3865143 C61.1109852,37.3846571 61.4551333,37.5165143 61.4139852,37.8433714 C61.3859296,38.0588 61.0904111,38.3336571 60.8566148,38.4116571 C60.4731889,38.5379429 60.0430037,38.5676571 59.6333926,38.5676571 C57.6339667,38.5658 55.8197074,37.8099429 53.9960963,37.1302286 C53.4780037,36.9370857 53.1993185,36.4523714 53.0870963,35.9026571 C53.0515593,35.7299429 53.0665222,35.7058 53.5640407,35.2953714" id="Fill-143" fill="#9E0C40"></path>
                <path d="M53.5640407,35.2953714 C55.3539852,36.9593714 57.6059111,37.2899429 59.9120778,37.4533714 C60.2038556,37.4738 60.5012444,37.3883714 60.796763,37.3865143 C61.1109852,37.3846571 61.4551333,37.5165143 61.4139852,37.8433714 C61.3859296,38.0588 61.0904111,38.3336571 60.8566148,38.4116571 C60.4731889,38.5379429 60.0430037,38.5676571 59.6333926,38.5676571 C57.6339667,38.5658 55.8197074,37.8099429 53.9960963,37.1302286 C53.4780037,36.9370857 53.1993185,36.4523714 53.0870963,35.9026571 C53.0515593,35.7299429 53.0665222,35.7058 53.5640407,35.2953714 Z" id="Stroke-145" stroke="#AD8D5E" stroke-width="0.253"></path>
                <path d="M66.7853148,23.3840286 C66.5141111,23.1017429 66.220463,22.8361714 65.9735741,22.5334571 C65.1412593,21.5231714 64.1780185,20.6744571 62.9996852,20.0764571 C62.150537,19.6437429 61.2826852,19.3150286 60.3063519,19.2816 C59.7826481,19.2630286 59.2552037,19.1423143 58.7445926,19.0067429 C58.5669074,18.9584571 58.4397222,18.7281714 58.241463,18.5350286 C61.8250926,17.5767429 66.1306852,19.9316 66.7853148,23.3840286" id="Fill-147" fill="#9E0C40"></path>
                <path d="M66.7853148,23.3840286 C66.5141111,23.1017429 66.220463,22.8361714 65.9735741,22.5334571 C65.1412593,21.5231714 64.1780185,20.6744571 62.9996852,20.0764571 C62.150537,19.6437429 61.2826852,19.3150286 60.3063519,19.2816 C59.7826481,19.2630286 59.2552037,19.1423143 58.7445926,19.0067429 C58.5669074,18.9584571 58.4397222,18.7281714 58.241463,18.5350286 C61.8250926,17.5767429 66.1306852,19.9316 66.7853148,23.3840286 Z" id="Stroke-149" stroke="#AD8D5E" stroke-width="0.253"></path>
                <path d="M38.8627426,20.9197857 C38.3895389,20.8826429 38.208113,20.6226429 38.3259463,20.3292143 C38.9169833,18.8602143 39.7399463,17.6437857 41.5298907,17.4450714 C43.3422796,17.2426429 45.147187,16.9603571 46.9577056,16.7449286 C47.2812796,16.7077857 47.7095944,16.7170714 47.6385204,17.2649286 C47.5487426,17.3373571 47.4739278,17.4506429 47.3785389,17.4673571 C46.4527056,17.6419286 45.5268722,17.8165 44.5954278,17.9557857 C43.7799463,18.0783571 42.9588537,18.1749286 42.1377611,18.2510714 C40.8023167,18.3755 39.7754833,18.9122143 39.2667426,20.2215 C39.1657426,20.4815 38.986187,20.7099286 38.8627426,20.9197857" id="Fill-151" fill="#9E0C40"></path>
                <path d="M38.8627426,20.9197857 C38.3895389,20.8826429 38.208113,20.6226429 38.3259463,20.3292143 C38.9169833,18.8602143 39.7399463,17.6437857 41.5298907,17.4450714 C43.3422796,17.2426429 45.147187,16.9603571 46.9577056,16.7449286 C47.2812796,16.7077857 47.7095944,16.7170714 47.6385204,17.2649286 C47.5487426,17.3373571 47.4739278,17.4506429 47.3785389,17.4673571 C46.4527056,17.6419286 45.5268722,17.8165 44.5954278,17.9557857 C43.7799463,18.0783571 42.9588537,18.1749286 42.1377611,18.2510714 C40.8023167,18.3755 39.7754833,18.9122143 39.2667426,20.2215 C39.1657426,20.4815 38.986187,20.7099286 38.8627426,20.9197857 Z" id="Stroke-153" stroke="#AD8D5E" stroke-width="0.253"></path>
                <path d="M13.518663,56.5678286 C13.3222741,56.5826857 13.0997,56.6625429 12.9313667,56.6012571 C12.2374593,56.3524 11.7193667,55.8491143 11.3097556,55.2696857 C10.7991444,54.5491143 10.2773111,53.8192571 9.90323704,53.0281143 C9.47679259,52.1236857 8.94373704,51.5665429 7.8664037,51.7671143 C7.7972,51.7801143 7.69994074,51.6445429 7.53908889,51.5164 C7.91129259,50.8701143 8.52477407,50.7865429 9.18127407,50.8032571 C9.69188519,50.8144 10.1033667,51.0279714 10.3409037,51.4885429 C10.6644778,52.1162571 10.9656074,52.7551143 11.2798296,53.3865429 C11.8315889,54.4989714 12.4263667,55.5779714 13.6065704,56.2075429 C13.5766444,56.3282571 13.5485889,56.4471143 13.518663,56.5678286" id="Fill-155" fill="#9E0C40"></path>
                <path d="M13.518663,56.5678286 C13.3222741,56.5826857 13.0997,56.6625429 12.9313667,56.6012571 C12.2374593,56.3524 11.7193667,55.8491143 11.3097556,55.2696857 C10.7991444,54.5491143 10.2773111,53.8192571 9.90323704,53.0281143 C9.47679259,52.1236857 8.94373704,51.5665429 7.8664037,51.7671143 C7.7972,51.7801143 7.69994074,51.6445429 7.53908889,51.5164 C7.91129259,50.8701143 8.52477407,50.7865429 9.18127407,50.8032571 C9.69188519,50.8144 10.1033667,51.0279714 10.3409037,51.4885429 C10.6644778,52.1162571 10.9656074,52.7551143 11.2798296,53.3865429 C11.8315889,54.4989714 12.4263667,55.5779714 13.6065704,56.2075429 C13.5766444,56.3282571 13.5485889,56.4471143 13.518663,56.5678286 Z" id="Stroke-157" stroke="#AD8D5E" stroke-width="0.253"></path>
                <path d="M23.2782556,61.0522714 C24.1779037,62.2204143 25.0364037,63.3179857 25.8762,64.4304143 C26.6898111,65.5112714 27.6006815,66.4937 28.7229037,67.2124143 C28.6929778,67.7287 28.4030704,67.6971286 28.1075519,67.6117 C27.9410889,67.5615571 27.7746259,67.4798429 27.6343481,67.3777 C25.7003852,65.9699857 24.2097,64.1704143 22.9846074,62.1442714 C22.7938296,61.8267 22.7227556,61.4887 23.2782556,61.0522714" id="Fill-159" fill="#9E0C40"></path>
                <path d="M23.2782556,61.0522714 C24.1779037,62.2204143 25.0364037,63.3179857 25.8762,64.4304143 C26.6898111,65.5112714 27.6006815,66.4937 28.7229037,67.2124143 C28.6929778,67.7287 28.4030704,67.6971286 28.1075519,67.6117 C27.9410889,67.5615571 27.7746259,67.4798429 27.6343481,67.3777 C25.7003852,65.9699857 24.2097,64.1704143 22.9846074,62.1442714 C22.7938296,61.8267 22.7227556,61.4887 23.2782556,61.0522714 Z" id="Stroke-161" stroke="#AD8D5E" stroke-width="0.253"></path>
                <path d="M46.7332611,59.2411857 C47.4421315,58.6190429 48.0069833,58.4871857 48.6017611,58.4611857 C49.0132426,58.4426143 49.4303352,58.4351857 49.8380759,58.4797571 C51.3418537,58.6413286 52.8418907,58.8270429 54.5457981,59.0276143 C54.3120019,59.3229 54.216613,59.5680429 54.0595019,59.6144714 C53.6760759,59.7277571 53.2608537,59.8150429 52.8624648,59.7983286 C52.0413722,59.7649 51.2165389,59.6906143 50.4010574,59.5736143 C49.4658722,59.4399 48.5400389,59.2894714 47.5898907,59.4491857 C47.3972426,59.4826143 47.1784093,59.3563286 46.7332611,59.2411857" id="Fill-163" fill="#9E0C40"></path>
                <path d="M46.7332611,59.2411857 C47.4421315,58.6190429 48.0069833,58.4871857 48.6017611,58.4611857 C49.0132426,58.4426143 49.4303352,58.4351857 49.8380759,58.4797571 C51.3418537,58.6413286 52.8418907,58.8270429 54.5457981,59.0276143 C54.3120019,59.3229 54.216613,59.5680429 54.0595019,59.6144714 C53.6760759,59.7277571 53.2608537,59.8150429 52.8624648,59.7983286 C52.0413722,59.7649 51.2165389,59.6906143 50.4010574,59.5736143 C49.4658722,59.4399 48.5400389,59.2894714 47.5898907,59.4491857 C47.3972426,59.4826143 47.1784093,59.3563286 46.7332611,59.2411857 Z" id="Stroke-165" stroke="#AD8D5E" stroke-width="0.253"></path>
                <path d="M79.2474056,37.8398429 C79.4961648,37.7079857 79.7430537,37.4628429 79.9936833,37.4609857 C81.506813,37.4517 82.8777944,36.9874143 84.2169796,36.3411286 C85.1390722,35.8954143 86.1079241,35.7375571 87.0861278,36.1127 C87.1964796,36.4395571 87.0356278,36.6382714 86.79435,36.6457 C85.7712574,36.6754143 84.8529056,37.0524143 83.91585,37.4015571 C82.3933685,37.9661286 80.8035537,37.9401286 79.2118685,37.8138429 L79.2474056,37.8398429 Z" id="Fill-167" fill="#9E0C40"></path>
                <path d="M79.2474056,37.8398429 C79.4961648,37.7079857 79.7430537,37.4628429 79.9936833,37.4609857 C81.506813,37.4517 82.8777944,36.9874143 84.2169796,36.3411286 C85.1390722,35.8954143 86.1079241,35.7375571 87.0861278,36.1127 C87.1964796,36.4395571 87.0356278,36.6382714 86.79435,36.6457 C85.7712574,36.6754143 84.8529056,37.0524143 83.91585,37.4015571 C82.3933685,37.9661286 80.8035537,37.9401286 79.2118685,37.8138429 L79.2474056,37.8398429 Z" id="Stroke-169" stroke="#AD8D5E" stroke-width="0.253"></path>
                <path d="M42.2382,67.9586143 C44.374163,67.7803286 46.4427926,67.6057571 48.4871074,67.4349 C48.6442185,67.9214714 48.3561815,68.1034714 48.0943296,68.1461857 C46.5905519,68.3801857 45.0849037,68.6049 43.5717741,68.7590429 C43.0462,68.8129 42.556163,68.5621857 42.2382,67.9586143" id="Fill-171" fill="#9E0C40"></path>
                <path d="M42.2382,67.9586143 C44.374163,67.7803286 46.4427926,67.6057571 48.4871074,67.4349 C48.6442185,67.9214714 48.3561815,68.1034714 48.0943296,68.1461857 C46.5905519,68.3801857 45.0849037,68.6049 43.5717741,68.7590429 C43.0462,68.8129 42.556163,68.5621857 42.2382,67.9586143 Z" id="Stroke-173" stroke="#AD8D5E" stroke-width="0.253"></path>
                <path d="M15.6045,35.0344429 C15.7672222,34.4865857 16.1525185,34.3008714 16.6855741,34.4141571 C17.1475556,34.5107286 17.6001852,34.6463 18.0546852,34.7725857 C19.4237963,35.1570143 20.7891667,35.5005857 22.2405741,35.3575857 C22.5473148,35.3278714 22.8783704,35.5228714 23.4226481,35.6770143 C23.0392222,35.9128714 22.8727593,36.0781571 22.6782407,36.1245857 C21.7374444,36.3400143 20.8022593,36.3047286 19.8932593,35.9481571 C19.0721667,35.6250143 18.2398519,35.3260143 17.4318519,34.9731571 C16.7921852,34.6945857 16.1880556,34.6370143 15.5839259,35.0344429 L15.6045,35.0344429 Z" id="Fill-175" fill="#9E0C40"></path>
                <path d="M15.6045,35.0344429 C15.7672222,34.4865857 16.1525185,34.3008714 16.6855741,34.4141571 C17.1475556,34.5107286 17.6001852,34.6463 18.0546852,34.7725857 C19.4237963,35.1570143 20.7891667,35.5005857 22.2405741,35.3575857 C22.5473148,35.3278714 22.8783704,35.5228714 23.4226481,35.6770143 C23.0392222,35.9128714 22.8727593,36.0781571 22.6782407,36.1245857 C21.7374444,36.3400143 20.8022593,36.3047286 19.8932593,35.9481571 C19.0721667,35.6250143 18.2398519,35.3260143 17.4318519,34.9731571 C16.7921852,34.6945857 16.1880556,34.6370143 15.5839259,35.0344429 L15.6045,35.0344429 Z" id="Stroke-177" stroke="#AD8D5E" stroke-width="0.253"></path>
                <path d="M74.1267056,23.7062429 C74.3062611,23.6561 74.3754648,23.6115286 74.4053907,23.6319571 C75.4939463,24.3339571 76.608687,25.0043857 77.6579648,25.7621 C78.3312981,26.2486714 78.8624833,26.8819571 78.608113,27.8253857 C78.4117241,27.8253857 78.2265574,27.8606714 78.2078537,27.8198143 C77.7365204,26.8021 76.9229093,26.1669571 75.9054278,25.7509571 C74.9608907,25.3646714 74.6017796,24.5233857 74.1267056,23.7062429" id="Fill-179" fill="#9E0C40"></path>
                <path d="M74.1267056,23.7062429 C74.3062611,23.6561 74.3754648,23.6115286 74.4053907,23.6319571 C75.4939463,24.3339571 76.608687,25.0043857 77.6579648,25.7621 C78.3312981,26.2486714 78.8624833,26.8819571 78.608113,27.8253857 C78.4117241,27.8253857 78.2265574,27.8606714 78.2078537,27.8198143 C77.7365204,26.8021 76.9229093,26.1669571 75.9054278,25.7509571 C74.9608907,25.3646714 74.6017796,24.5233857 74.1267056,23.7062429 Z" id="Stroke-181" stroke="#AD8D5E" stroke-width="0.253"></path>
                <path d="M48.0634685,29.6244 C48.0447648,29.6726857 48.035413,29.7562571 48.0092278,29.7618286 C46.6027093,30.0589714 45.1868389,30.0385429 43.7765796,29.8268286 C43.3220796,29.7599714 42.8825426,29.5482571 42.4579685,29.3532571 C42.349487,29.3031143 42.2540981,29.0468286 42.2840241,28.9186857 C42.31395,28.7961143 42.5533574,28.6066857 42.6412648,28.6345429 C44.3545241,29.1731143 46.1407278,29.1434 47.8951352,29.3588286 C47.9605981,29.3662571 48.0073574,29.5315429 48.0634685,29.6244" id="Fill-183" fill="#9E0C40"></path>
                <path d="M48.0634685,29.6244 C48.0447648,29.6726857 48.035413,29.7562571 48.0092278,29.7618286 C46.6027093,30.0589714 45.1868389,30.0385429 43.7765796,29.8268286 C43.3220796,29.7599714 42.8825426,29.5482571 42.4579685,29.3532571 C42.349487,29.3031143 42.2540981,29.0468286 42.2840241,28.9186857 C42.31395,28.7961143 42.5533574,28.6066857 42.6412648,28.6345429 C44.3545241,29.1731143 46.1407278,29.1434 47.8951352,29.3588286 C47.9605981,29.3662571 48.0073574,29.5315429 48.0634685,29.6244 Z" id="Stroke-185" stroke="#AD8D5E" stroke-width="0.253"></path>
                <path d="M37.0237944,55.5361857 C36.5449796,55.9001857 36.4177944,56.0784714 36.2980907,56.0747571 C35.8922204,56.0617571 35.4639056,56.0506143 35.0898315,55.9150429 C33.9133685,55.4934714 32.8435167,54.8750429 31.9644426,53.9780429 C31.8709241,53.8833286 31.8372574,53.5676143 31.9064611,53.5119 C32.0654426,53.3819 32.3572204,53.2333286 32.5012389,53.2983286 C32.8678315,53.4654714 33.1970167,53.7291857 33.51685,53.9817571 C34.4426833,54.7079 35.3722574,55.4154714 37.0237944,55.5361857" id="Fill-187" fill="#9E0C40"></path>
                <path d="M37.0237944,55.5361857 C36.5449796,55.9001857 36.4177944,56.0784714 36.2980907,56.0747571 C35.8922204,56.0617571 35.4639056,56.0506143 35.0898315,55.9150429 C33.9133685,55.4934714 32.8435167,54.8750429 31.9644426,53.9780429 C31.8709241,53.8833286 31.8372574,53.5676143 31.9064611,53.5119 C32.0654426,53.3819 32.3572204,53.2333286 32.5012389,53.2983286 C32.8678315,53.4654714 33.1970167,53.7291857 33.51685,53.9817571 C34.4426833,54.7079 35.3722574,55.4154714 37.0237944,55.5361857 Z" id="Stroke-189" stroke="#AD8D5E" stroke-width="0.253"></path>
                <path d="M15.584487,35.0340714 C15.0327278,35.2253571 14.4697463,35.3906429 13.9310796,35.6135 C13.4316907,35.8215 12.9098574,36.0777857 12.3955056,35.8567857 C11.5295241,35.4853571 10.6598019,35.5819286 9.77511667,35.6413571 C9.55067222,35.6562143 9.32061667,35.5670714 9.04193148,35.5169286 C9.00078333,35.2105 8.96337593,34.9375 8.93157963,34.6867857 C9.10739444,34.6106429 9.21400556,34.5159286 9.30004259,34.5326429 C9.69095,34.6125 10.0706352,34.7592143 10.463413,34.8186429 C12.1635796,35.0786429 13.8787093,35.0322143 15.5975796,35.0322143 C15.6050611,35.0340714 15.584487,35.0340714 15.584487,35.0340714" id="Fill-191" fill="#9E0C40"></path>
                <path d="M15.584487,35.0340714 C15.0327278,35.2253571 14.4697463,35.3906429 13.9310796,35.6135 C13.4316907,35.8215 12.9098574,36.0777857 12.3955056,35.8567857 C11.5295241,35.4853571 10.6598019,35.5819286 9.77511667,35.6413571 C9.55067222,35.6562143 9.32061667,35.5670714 9.04193148,35.5169286 C9.00078333,35.2105 8.96337593,34.9375 8.93157963,34.6867857 C9.10739444,34.6106429 9.21400556,34.5159286 9.30004259,34.5326429 C9.69095,34.6125 10.0706352,34.7592143 10.463413,34.8186429 C12.1635796,35.0786429 13.8787093,35.0322143 15.5975796,35.0322143 C15.6050611,35.0340714 15.584487,35.0340714 15.584487,35.0340714 Z" id="Stroke-193" stroke="#AD8D5E" stroke-width="0.253"></path>
                <path d="M43.6682852,39.6059857 C45.0186926,39.3701286 46.1671,39.5967 47.2762296,39.9198429 C47.3398222,40.3525571 47.1266,40.4547 46.8853222,40.4305571 C45.9538778,40.3321286 45.0224333,40.2188429 44.0966,40.0777 C43.9750259,40.0591286 43.8833778,39.8511286 43.6682852,39.6059857" id="Fill-195" fill="#9E0C40"></path>
                <path d="M43.6682852,39.6059857 C45.0186926,39.3701286 46.1671,39.5967 47.2762296,39.9198429 C47.3398222,40.3525571 47.1266,40.4547 46.8853222,40.4305571 C45.9538778,40.3321286 45.0224333,40.2188429 44.0966,40.0777 C43.9750259,40.0591286 43.8833778,39.8511286 43.6682852,39.6059857 Z" id="Stroke-197" stroke="#AD8D5E" stroke-width="0.253"></path>
                <path d="M40.0695056,61.8993143 C40.7016907,62.0200286 41.4105611,62.0497429 41.8912463,62.5938857 C41.9080796,62.9783143 41.7023389,63.0656 41.4498389,63.0340286 C40.985987,62.9783143 40.49595,62.9597429 40.0695056,62.7944571 C39.63745,62.6254571 39.6692463,62.2707429 40.0695056,61.8993143" id="Fill-199" fill="#9E0C40"></path>
                <path d="M40.0695056,61.8993143 C40.7016907,62.0200286 41.4105611,62.0497429 41.8912463,62.5938857 C41.9080796,62.9783143 41.7023389,63.0656 41.4498389,63.0340286 C40.985987,62.9783143 40.49595,62.9597429 40.0695056,62.7944571 C39.63745,62.6254571 39.6692463,62.2707429 40.0695056,61.8993143 Z" id="Stroke-201" stroke="#AD8D5E" stroke-width="0.253"></path>
                <path d="M92.9796648,34.5205714 C92.7870167,34.7137143 92.6037204,34.9161429 92.3961093,35.0907143 C92.364313,35.1148571 92.1754056,35.0257143 92.1379981,34.9514286 C92.1024611,34.8827143 92.1529611,34.684 92.1941093,34.6747143 C92.4634426,34.6171429 92.7421278,34.5948571 93.0189426,34.5632857 C93.0189426,34.5632857 92.9796648,34.5205714 92.9796648,34.5205714" id="Fill-203" fill="#9E0C40"></path>
                <path d="M92.9796648,34.5205714 C92.7870167,34.7137143 92.6037204,34.9161429 92.3961093,35.0907143 C92.364313,35.1148571 92.1754056,35.0257143 92.1379981,34.9514286 C92.1024611,34.8827143 92.1529611,34.684 92.1941093,34.6747143 C92.4634426,34.6171429 92.7421278,34.5948571 93.0189426,34.5632857 C93.0189426,34.5632857 92.9796648,34.5205714 92.9796648,34.5205714 Z" id="Stroke-205" stroke="#AD8D5E" stroke-width="0.253"></path>
                <path d="M79.2122426,37.8144 C79.0214648,37.8534 78.8325574,37.8942571 78.6417796,37.9332571 C78.6399093,37.8719714 78.6361685,37.8106857 78.6324278,37.7494 C78.8344278,37.7754 79.0364278,37.8032571 79.2421685,37.8348286 C79.2477796,37.8404 79.2122426,37.8144 79.2122426,37.8144" id="Fill-207" fill="#9E0C40"></path>
                <path d="M79.2122426,37.8144 C79.0214648,37.8534 78.8325574,37.8942571 78.6417796,37.9332571 C78.6399093,37.8719714 78.6361685,37.8106857 78.6324278,37.7494 C78.8344278,37.7754 79.0364278,37.8032571 79.2421685,37.8348286 C79.2477796,37.8404 79.2122426,37.8144 79.2122426,37.8144 Z" id="Stroke-209" stroke="#AD8D5E" stroke-width="0.253"></path>
            </g>
        </g>
    </g>
</svg>