<?xml version="1.0" encoding="UTF-8"?>
<svg width="190px" height="188px" viewBox="0 0 190 188" version="1.1" xmlns="http://www.w3.org/2000/svg" xmlns:xlink="http://www.w3.org/1999/xlink">
    <!-- Generator: Sketch 45.1 (43504) - http://www.bohemiancoding.com/sketch -->
    <title>Page 1</title>
    <desc>Created with Sketch.</desc>
    <defs>
        <polygon id="path-1" points="190 188 0 188 0 0 190 0 190 188"></polygon>
    </defs>
    <g id="Symbols" stroke="none" stroke-width="1" fill="none" fill-rule="evenodd">
        <g id="footer" transform="translate(-104.000000, -77.000000)">
            <g id="Page-1" transform="translate(104.000000, 77.000000)">
                <mask id="mask-2" fill="white">
                    <use xlink:href="#path-1"></use>
                </mask>
                <g id="Clip-2"></g>
                <path d="M174.819038,173.843651 L172.258841,169.628945 L171.307009,169.628945 L171.307009,176.671183 L172.658782,176.671183 L172.658782,172.748287 L174.345989,175.514008 L175.28922,175.514008 L176.976427,172.748287 L176.976427,176.671183 L178.3282,176.671183 L178.3282,169.628945 L177.376369,169.628945 L174.819038,173.843651 Z M164.40193,170.834995 L166.258289,170.834995 L166.258289,176.671183 L167.612928,176.671183 L167.612928,170.834995 L169.469286,170.834995 L169.469286,169.628945 L164.40193,169.628945 L164.40193,170.834995 Z M78.3858925,18.3538053 C78.7514302,18.2704312 78.8933448,18.1583073 78.9807872,18.0102464 C79.0639291,17.8621855 79.0983326,17.6566252 79.0524613,17.4683147 C79.0080233,17.2699418 78.8919114,17.0988811 78.7499967,17.0011322 C78.6095156,16.9048207 78.4303304,16.8559462 78.0633592,16.9407578 L77.014051,17.1808177 L77.3322838,18.5938652 L78.3858925,18.3538053 Z M86.037815,16.5267622 L85.4214181,18.611115 L87.1229603,18.4098672 L86.037815,16.5267622 Z M106.83476,167.688341 C106.001907,167.819152 105.422781,168.553707 105.435682,169.245137 L108.517667,168.76358 C108.352816,168.110962 107.653278,167.560405 106.83476,167.688341 L106.83476,167.688341 Z M85.1275545,99.8620629 C85.8973339,99.8620629 86.2241676,99.6421277 86.2241676,99.3646932 C86.2241676,98.9262604 85.5102939,98.4317656 84.5785312,98.4317656 C84.1398859,98.4317656 83.4819181,98.5942014 82.4928161,99.2022574 C83.0404059,99.5314414 83.7012407,99.7513766 84.4695866,99.806001 C84.6874758,99.8620629 84.9067984,99.8620629 85.1275545,99.8620629 L85.1275545,99.8620629 Z M87.7723272,168.756392 C86.5868383,168.674456 85.7582862,169.603071 85.6851787,170.691247 C85.6063372,171.872859 86.4033527,172.800037 87.5415368,172.876223 C88.3041488,172.927973 89.0008206,172.601664 89.427998,172.068357 L89.5785135,169.812944 C89.1972075,169.22645 88.5507075,168.809579 87.7723272,168.756392 L87.7723272,168.756392 Z M78.4833692,167.609279 C77.3136486,167.403719 76.3532162,168.181398 76.1553958,169.299761 C75.9575754,170.419562 76.5954745,171.466051 77.7637617,171.671611 C78.9334823,171.878609 79.8924812,171.115305 80.0917351,169.996942 C80.288122,168.877141 79.6516564,167.81484 78.4833692,167.609279 L78.4833692,167.609279 Z M69.3148236,165.458802 C68.1766396,165.125306 67.1344988,165.790861 66.8148325,166.881912 C66.4965996,167.972963 67.0183868,169.084139 68.1565708,169.419073 C69.2947549,169.754007 70.3311618,169.102826 70.6508281,168.011775 C70.9719279,166.922162 70.4544412,165.793736 69.3148236,165.458802 L69.3148236,165.458802 Z M60.1233423,162.154025 C59.0310297,161.689717 57.9444509,162.294899 57.521574,163.296825 C57.0599931,164.385001 57.5101061,165.523489 58.5579809,165.967672 C59.2632536,166.268106 60.0272991,166.18617 60.604992,165.822486 L61.483716,163.746758 C61.3131317,163.06539 60.8415164,162.458772 60.1233423,162.154025 L60.1233423,162.154025 Z M20.7484814,116.097015 L20.666773,116.138702 C19.8425213,116.690696 19.3092663,117.696936 19.3092663,118.703175 C19.3092663,119.446355 19.6862718,119.926474 20.2711321,119.926474 C20.9161987,119.926474 21.5999692,119.040984 22.0629836,118.297804 L22.0672841,118.292054 C22.4700923,117.620749 22.7381533,116.950881 23.0004803,116.292513 L23.2470391,115.67727 L22.5862042,115.67727 C22.0357475,115.67727 21.4666555,115.806643 20.7484814,116.097015 L20.7484814,116.097015 Z M60.5935241,26.6409046 L58.8776472,25.3069188 L59.0926694,27.4732082 L60.5935241,26.6409046 Z M40.2208897,152.568877 C39.5285183,153.47018 39.6130937,154.694917 40.5534573,155.419409 C41.493821,156.143901 42.6950782,155.911029 43.3874496,155.011164 C44.0812545,154.109861 44.0038465,152.873624 43.0649163,152.149132 C42.1245527,151.421764 40.9132611,151.667574 40.2208897,152.568877 L40.2208897,152.568877 Z M54.1141892,88.4268721 C54.1141892,88.8049306 54.3019753,89.2433634 54.739187,89.4949232 L54.9269731,87.1086986 C54.554268,87.1705105 54.1141892,87.7986913 54.1141892,88.4268721 L54.1141892,88.4268721 Z M59.9986295,92.8845122 C59.7477703,96.1476024 59.4352714,101.735105 58.9966261,105.001071 C58.8074066,106.759115 58.5594144,108.581845 58.3085552,110.337014 L58.1207691,111.781686 C61.5023512,111.718437 63.6927105,109.332212 64.1313557,106.005873 C64.2560686,105.377692 64.2560686,104.689137 64.2560686,104.059518 C64.2560686,100.983301 63.2554987,95.2692993 61.6270641,92.5078912 C61.1253457,92.6329523 60.5619876,92.8227003 59.9986295,92.8845122 L59.9986295,92.8845122 Z M63.0046395,72.2925438 C62.6907071,72.2292945 62.3782082,72.1674826 62.0026361,72.1674826 C61.6901372,72.1674826 61.3116982,72.2292945 60.9375596,72.2925438 L60.3742015,87.4853196 C60.9375596,87.8619406 61.4407115,88.3018109 62.0026361,88.8049306 C65.1319256,87.6736301 66.2586418,85.4139042 66.0722892,82.0243152 C65.9447094,79.6999025 65.6967171,73.0457858 63.0046395,72.2925438 L63.0046395,72.2925438 Z M174.206942,121.95764 C174.806137,120.564718 174.925116,119.847413 174.917948,119.492354 C174.89788,118.238867 174.384693,117.428126 173.359754,117.012693 C172.136995,116.518198 170.988776,116.266638 169.943769,116.250826 C168.331102,116.235014 165.317925,116.866069 160.990245,118.129619 C156.552188,119.423355 151.031852,120.865152 144.584053,122.411885 C138.140555,123.957182 130.699355,125.380291 122.466872,126.642403 C114.198553,127.907389 105.295201,128.502508 96.0005092,128.410509 C92.9242586,128.378884 89.9153816,128.278261 86.9867796,128.105762 C82.9128261,127.86714 78.992255,127.493394 75.265204,126.984524 C68.8890797,126.120596 63.0046395,125.071232 57.7810341,123.87237 C56.151166,123.501499 54.5858045,123.116253 53.0820828,122.72382 C52.6549054,122.542697 52.1875905,122.442073 51.69734,122.442073 C49.7048011,122.442073 48.0878344,124.086555 48.0878344,126.110534 C48.0878344,127.739204 49.1299752,129.117752 50.5734907,129.596434 L50.5720572,129.605059 L50.8974575,129.684121 L50.9791659,129.705683 C57.0485252,131.225104 64.072583,132.57059 71.8821884,133.706203 C79.9641553,134.883503 88.403059,135.524621 96.9509072,135.607995 C102.702034,135.665494 108.384353,135.469996 113.834449,135.022939 C119.254441,134.583068 124.584124,133.943388 129.667248,133.128334 C134.727437,132.31328 139.672947,131.383227 144.373331,130.364051 C149.086618,129.340562 153.688092,128.271073 158.050175,127.182897 L158.431481,127.089461 L158.782684,127.249021 C159.943804,127.782328 161.129293,128.276823 162.306181,128.718131 C163.375558,129.119189 164.614086,129.326187 165.980193,129.341999 C167.161382,129.354937 168.257995,128.997003 169.320204,128.249511 C170.462689,127.447394 171.444623,126.48428 172.240206,125.386041 C173.044388,124.274866 173.706657,123.119128 174.206942,121.95764 L174.206942,121.95764 Z M159.062213,144.570712 L157.432345,144.616712 C157.466749,145.145706 157.343469,145.976572 156.751441,146.603316 C156.010332,147.386745 154.889349,147.508931 154.049329,146.85775 L157.658835,143.041228 C157.557058,142.901792 157.420877,142.750857 157.276096,142.609983 C155.755172,141.165311 153.461602,141.033062 152.020954,142.553921 C150.472794,144.188341 150.812529,146.499817 152.332019,147.944489 C154.045029,149.574596 156.341466,149.409286 157.901093,147.761928 C158.708143,146.910937 159.186926,145.70345 159.062213,144.570712 L159.062213,144.570712 Z M154.31739,151.301016 L148.455886,150.822333 L149.105253,145.835699 L146.919194,147.684304 L146.496317,151.237766 L142.671789,146.695315 L141.119329,148.007738 L148.226529,156.452961 L149.778989,155.1391 L147.677506,152.640751 L152.227375,153.069122 L154.31739,151.301016 Z M145.677799,158.36194 L141.560841,152.045633 L139.925239,153.115121 L140.257807,153.626866 C139.496629,153.547804 138.703913,153.73324 137.985739,154.206172 C136.261262,155.336035 135.808281,157.679135 137.02244,159.540678 C137.581498,160.400294 138.405749,160.976725 139.275872,161.223972 C140.262107,161.505719 141.423227,161.340409 142.362157,160.72229 C143.004357,160.302545 143.478839,159.713176 143.712497,158.926872 L144.042197,159.435741 L145.677799,158.36194 Z M136.331502,161.692592 C135.143146,159.365305 132.053994,161.387846 131.608182,160.515292 C131.431863,160.167421 131.750096,159.760613 132.250381,159.501866 C132.739198,159.254618 133.301123,159.227306 133.777039,159.297743 L133.959091,157.561261 C133.338393,157.443388 132.210244,157.602948 131.332953,158.051444 C129.999816,158.735686 129.159796,160.181796 129.817764,161.469782 C130.920111,163.630322 134.002095,161.594843 134.516715,162.605395 C134.687299,162.937454 134.433573,163.365825 133.946189,163.615947 C133.265286,163.965256 132.429566,164.080255 131.758697,163.899131 L131.543675,165.63705 C132.62882,165.812424 133.778472,165.622676 134.711668,165.146868 C136.126514,164.418063 136.988036,162.979141 136.331502,161.692592 L136.331502,161.692592 Z M125.405509,166.795663 C124.555454,164.324627 121.212576,165.89436 120.894343,164.965745 C120.768197,164.597749 121.138035,164.23694 121.669857,164.052942 C122.18591,163.874694 122.750701,163.927881 123.209415,164.064442 L123.630859,162.371085 C123.034531,162.165525 121.892046,162.164087 120.96315,162.486084 C119.545438,162.976266 118.513331,164.290127 118.984946,165.66005 C119.777661,167.954276 123.113372,166.371605 123.48321,167.446844 C123.605056,167.800465 123.293991,168.185711 122.776504,168.365396 C122.052596,168.615519 121.209709,168.611206 120.568943,168.339522 L120.11453,170.030004 C121.166705,170.356313 122.333558,170.333313 123.319793,169.989754 C124.826382,169.469385 125.878557,168.165586 125.405509,166.795663 L125.405509,166.795663 Z M118.291141,169.177575 C117.653242,166.64329 114.194252,167.921214 113.954861,166.971036 C113.860251,166.594415 114.260192,166.266669 114.804915,166.130108 C115.335303,165.994984 115.890061,166.095608 116.337307,166.270981 L116.902098,164.619311 C116.322972,164.364877 115.187655,164.267128 114.232956,164.508625 C112.782273,164.876621 111.642656,166.097046 111.996726,167.498593 C112.588753,169.853193 116.044876,168.559457 116.321538,169.66057 C116.413281,170.022816 116.069246,170.383625 115.538858,170.517311 C114.799181,170.705622 113.959161,170.629435 113.344198,170.303126 L112.746436,171.947608 C113.768508,172.361604 114.929628,172.436353 115.943099,172.180481 C117.486959,171.789485 118.645211,170.58056 118.291141,169.177575 L118.291141,169.177575 Z M110.925915,171.976358 L109.608546,171.016118 C109.316116,171.457426 108.709753,172.039607 107.862566,172.173293 C106.797489,172.337167 105.838491,171.749235 105.567563,170.718559 L110.749597,169.910692 C110.753897,169.736757 110.736696,169.534072 110.706593,169.332824 C110.384059,167.259971 108.649547,165.749174 106.585334,166.074046 C104.366305,166.42048 103.229555,168.457395 103.550655,170.530248 C103.911892,172.867599 105.831323,174.145522 108.067554,173.794776 C109.22294,173.613653 110.336754,172.950973 110.925915,171.976358 L110.925915,171.976358 Z M101.89355,174.484769 L101.698597,170.646685 C101.63409,169.357261 101.315857,168.608331 100.785469,168.044837 C100.127502,167.331845 99.1513008,166.914974 98.1048596,166.968161 C97.2619726,167.012723 96.5595669,167.343345 96.0076766,167.83784 L95.9775735,167.232658 L94.0266056,167.33472 L94.4036112,174.871452 L96.431987,174.767953 L96.1868617,169.870443 C96.4477553,169.467947 97.1243584,168.888641 97.9801467,168.842641 C98.4503285,168.821079 98.8631711,168.954765 99.139833,169.204888 C99.4351301,169.470822 99.6272166,169.850318 99.6644871,170.594935 L99.8651744,174.591143 L101.89355,174.484769 Z M92.016865,163.811445 L89.9927896,163.676321 L89.7218616,167.715653 C89.1585035,167.211096 88.4603982,166.927912 87.6347131,166.873287 C85.5762341,166.733851 83.8101853,168.332334 83.6596698,170.556123 C83.5908627,171.58105 83.9019281,172.538415 84.4466509,173.262907 C85.0673483,174.083711 86.0922873,174.651517 87.2132696,174.727704 C87.9773151,174.779453 88.7098239,174.594018 89.3677918,174.109585 L89.3262208,174.713329 L91.2757552,174.845577 L92.016865,163.811445 Z M78.807336,165.769299 C76.5496031,165.369678 74.5355621,166.799976 74.1556896,168.947578 C73.775817,171.093742 75.1791951,173.111971 77.4397949,173.513029 C79.6989613,173.91265 81.7087019,172.496727 82.0900079,170.350563 C82.4698804,168.202961 81.0693693,166.16892 78.807336,165.769299 L78.807336,165.769299 Z M69.8423447,163.666259 C67.6376506,163.017953 65.481695,164.216816 64.868165,166.308356 C64.2546351,168.399896 65.4272227,170.564748 67.6304832,171.211616 C69.8337438,171.859922 71.988266,170.675434 72.598929,168.583894 C73.2124589,166.493791 72.0441718,164.314565 69.8423447,163.666259 L69.8423447,163.666259 Z M64.3807814,162.103713 L62.586063,161.341846 L62.3481051,161.89959 C61.9911683,161.22541 61.3962736,160.666228 60.604992,160.332732 C58.7099299,159.526303 56.5195706,160.456356 55.653748,162.504771 C55.2538068,163.450636 55.2194032,164.448251 55.4974986,165.310741 C55.8142979,166.289669 56.6113134,167.167972 57.6448534,167.607842 C58.3486926,167.906839 59.0367636,167.962901 59.7793068,167.771715 L59.6818301,168.001713 C59.3062581,168.888641 58.9808578,169.258074 58.5608478,169.450697 C58.0863656,169.687882 57.5058057,169.662008 56.9008766,169.404698 C55.7497913,168.915953 55.3598844,168.040525 55.15633,167.481343 L53.4633888,168.198648 C53.8131582,169.294012 54.8395307,170.472749 56.2042048,171.053493 C57.5402092,171.619862 58.8790807,171.579612 59.881084,170.974431 C60.5462193,170.564748 61.0766073,169.91213 61.6041284,168.664393 L64.3807814,162.103713 Z M52.7452147,156.517648 C52.5789309,156.378211 52.4470506,156.260338 52.1961914,156.102214 C51.4135107,155.61347 50.5233189,155.481221 49.8424153,155.716969 L50.2437901,155.068663 L48.5881193,154.036549 L44.610209,160.444856 L46.3332534,161.518657 L48.8332446,157.48795 C49.2847912,157.23639 50.2179874,157.068204 50.973432,157.538262 C51.2257247,157.697822 51.4608156,157.880383 51.5554253,157.993944 L52.7452147,156.517648 Z M44.997249,156.251713 C46.3217856,154.523856 46.019321,152.068632 44.2031004,150.667085 C42.3825793,149.265537 39.9384939,149.600471 38.6110903,151.328328 C37.2865537,153.057622 37.5961856,155.498471 39.4181402,156.902893 C41.2357943,158.303004 43.6712789,157.981007 44.997249,156.251713 L44.997249,156.251713 Z M35.7426945,147.040311 L38.1681446,149.366161 L39.4554107,148.014925 L37.0285271,145.687638 L38.5852877,144.056093 L41.8020194,147.140935 L43.087852,145.789699 L38.3501967,141.244373 L30.8387554,149.124664 L32.3625459,150.583711 L35.7426945,147.040311 Z M28.6727653,122.265262 C29.4497121,122.751132 30.6122654,123.362063 32.3482111,124.113867 C32.9846767,124.386989 33.6598463,124.662986 34.367986,124.938984 L34.367986,124.938984 C37.0055914,126.116284 39.93276,127.349645 42.7767866,126.846526 C43.6125061,126.698465 44.4453587,126.431093 45.1205283,125.920786 C46.0809607,125.196293 46.36479,124.194366 46.1956392,123.209689 C46.0322224,122.2437 45.5477057,121.119587 44.6231104,120.645217 C42.5373953,119.578603 40.0202023,118.953297 37.7710703,118.164118 C36.9769218,117.886684 36.6185515,117.685436 36.0279572,117.484188 C34.7951634,116.981068 33.6971168,116.498073 32.7295171,116.033766 L33.4304893,114.888091 C36.31322,108.899529 40.0273697,101.095425 42.2908365,95.1413631 C44.3736846,89.7191708 46.3805583,82.9471804 46.0279219,76.6208102 C45.7784962,72.1602952 44.4037877,67.9714648 41.0064374,64.7284993 C38.2641879,62.073465 34.8926401,61.1175377 31.6830758,61.2972233 C21.8594293,61.8492174 16.3691964,71.3121792 16.6587596,76.5000615 C16.7748716,78.5743519 17.7869093,79.9730246 19.8539891,79.8580258 C23.3717519,79.6596529 25.5692786,72.5656659 30.298333,69.9077567 C31.1010824,69.4463241 31.9181667,69.1918893 32.6420747,69.1516397 C36.0551934,68.9604542 38.142342,72.9005998 38.0362644,76.548936 C37.796873,81.5556952 35.4660326,86.2648951 33.3244117,90.6506609 C31.0036057,95.5668586 26.3992642,106.023122 24.7507608,109.964705 C23.9121743,109.803707 22.9746776,109.751958 22.147559,109.797957 C17.389835,110.065329 13.4262595,113.408919 13.6871531,118.076432 C13.9064757,122.018015 17.235019,125.889161 21.8895324,125.627539 C22.8212952,125.575789 23.7401566,125.315605 24.7564947,124.947608 C26.2702509,124.257616 27.5532165,123.362063 28.6727653,122.265262 L28.6727653,122.265262 Z M32.8011911,45.4403295 L36.4164306,51.8428864 L37.2378153,50.7590229 L36.4364994,49.3459755 L38.0749684,47.185436 L39.6503642,47.5850567 L40.4731824,46.5011932 L33.3545148,44.7100873 L32.8011911,45.4403295 Z M36.2229107,41.1508752 L41.2300604,45.6832644 L44.00528,42.5984223 L43.1480582,41.8221805 L41.2429618,43.9367205 L37.0944672,40.183448 L36.2229107,41.1508752 Z M40.3169329,36.7219848 L44.9786137,41.6151827 L47.9745894,38.7430883 L47.1761403,37.9050347 L45.1190949,39.8743888 L41.2572966,35.8206819 L40.3169329,36.7219848 Z M45.9318787,35.0343778 L46.6127822,35.8494316 L49.0482668,33.8010159 L48.3673632,32.9873995 L45.9318787,35.0343778 Z M48.536514,29.4871243 L52.4069132,35.0271903 L53.4734231,34.2782608 L50.9504963,30.6701742 L56.5496738,32.1162838 L57.3008179,31.5901644 L53.4304187,26.0500984 L52.3639087,26.7975904 L54.8839686,30.4071145 L49.2862246,28.9595674 L48.536514,29.4871243 Z M57.4642347,23.685436 L58.2024775,31.0051081 L59.3908334,30.3438652 L59.2231161,28.7252574 L61.591227,27.4113964 L62.8713257,28.4133232 L64.0582482,27.7535177 L58.2655507,23.2398158 L57.4642347,23.685436 Z M61.3618701,21.6010832 L61.8363523,22.6576345 L63.4576195,21.9259548 L65.7483225,27.0304629 L66.9323779,26.4957186 L64.644542,21.3912104 L66.2658092,20.6595307 L65.7927604,19.6029795 L61.3618701,21.6010832 Z M66.3833546,69.5929475 C65.4472914,69.028016 64.5700009,68.8397055 63.6927105,68.8397055 C62.5014876,68.8397055 61.3116982,69.2163265 60.0617026,69.5929475 C59.5614177,68.9015174 58.8074066,68.5263339 58.0591294,68.5263339 C56.9940529,68.5263339 55.9906161,69.2781384 55.8673367,70.913996 C54.2403356,71.4128031 52.8627602,71.664363 52.8627602,72.7324141 C52.8627602,73.6739666 53.2999719,73.9240889 53.9264032,73.9240889 C54.4281216,73.9240889 55.1147591,73.6739666 55.6164775,73.5489054 C55.3670518,79.3865308 55.2423389,82.2730001 55.0531194,85.1623443 C54.2403356,85.1623443 53.4863245,85.4139042 52.7380473,85.9155863 C51.6729708,86.6688283 51.2343256,87.7986913 51.2343256,88.8667424 C51.2343256,90.1849159 51.9223965,91.5649012 53.2368988,92.3195807 C53.6110373,92.5711405 54.0525495,92.7580135 54.4897613,92.8845122 L52.6735407,110.712197 C52.4255484,110.650386 52.1732557,110.588574 51.9223965,110.588574 C50.6724009,110.588574 49.4797446,111.405065 49.4797446,112.346618 C49.4797446,113.161671 50.2953954,114.041412 52.4871881,114.668155 C52.6735407,116.427637 53.8016903,117.244128 54.9900462,117.244128 C55.9289764,117.244128 56.8077004,116.741008 57.2434786,115.799456 L57.3051183,115.609708 C61.6901372,115.799456 65.8830697,114.354784 67.76093,109.898581 C68.5149411,108.202349 68.82744,106.445743 68.82744,104.750948 C68.82744,100.79499 67.0742925,94.6411185 64.5700009,91.5030894 C68.451868,89.8715442 70.203582,86.6688283 70.203582,82.2111882 C70.203582,78.6965381 69.6387904,71.4760525 66.3833546,69.5929475 L66.3833546,69.5929475 Z M67.6132815,18.8569249 L68.8618436,22.5627605 C69.1929777,23.543125 69.7133314,24.1209939 70.4014024,24.4171157 C71.0436019,24.6902378 71.8191152,24.6715505 72.5401563,24.4271781 C73.2611973,24.1828057 73.8904955,23.7256856 74.234531,23.1176296 C74.6043692,22.463574 74.6688758,21.6873323 74.3377417,20.7084052 L73.0891796,17.0011322 L71.8578192,17.4194402 L73.1364844,21.2172748 C73.3328714,21.8023311 73.3013348,22.2120142 73.1192827,22.5498231 C72.9329301,22.9077568 72.598929,23.1837539 72.1717516,23.3289398 C71.7431407,23.4741258 71.3087959,23.456876 70.9461252,23.2843778 C70.5977893,23.127692 70.3239944,22.8229452 70.1247405,22.2378889 L68.8446418,18.4400543 L67.6132815,18.8569249 Z M75.4873936,16.3398892 L76.9839479,22.9336315 L78.2525788,22.6432596 L77.588877,19.7237282 L78.0490244,19.6187918 L81.050734,22.0050164 L82.6218294,21.6470827 L79.4724712,19.1846714 C79.716163,19.040923 79.9025156,18.8583624 80.0415633,18.6484896 C80.3225256,18.2287441 80.440071,17.6968748 80.3196586,17.1693179 C80.2006797,16.641761 79.8652451,16.2119531 79.4323338,15.9546433 C79.036693,15.7275207 78.5607772,15.6383967 77.8841741,15.7922075 L75.4873936,16.3398892 Z M83.2668959,21.5392714 L84.6143682,21.3797106 L85.0702152,19.8186022 L87.7551255,19.5009181 L88.5607419,20.9110906 L89.9096477,20.7515297 L86.2499702,14.382035 L85.3425767,14.4898464 L83.2668959,21.5392714 Z M90.8514448,13.9781018 L91.0521322,20.7299675 L95.1877254,20.6063438 L95.1547553,19.4477311 L92.3164626,19.5339802 L92.1501788,13.9378523 L90.8514448,13.9781018 Z M96.3158751,61.8132803 C94.2287265,61.8132803 92.5558539,63.4893875 92.4168063,65.7246762 C92.4168063,66.7021658 92.6963351,67.8190914 93.3915735,69.075453 C94.2287265,70.3332521 95.2034937,70.7515602 96.3158751,70.7515602 C98.5449383,70.7515602 101.050663,68.796581 101.050663,66.2824202 C101.050663,64.8866226 100.07733,63.3499514 97.9873141,62.2330258 C97.2920757,61.9527163 96.8734992,61.8132803 96.3158751,61.8132803 L96.3158751,61.8132803 Z M99.3992931,20.773092 L100.69516,20.865091 L101.169642,14.1276002 L99.8737753,14.0356012 L99.3992931,20.773092 Z M75.9074036,100.411182 C73.6023658,102.777282 71.8119478,108.16785 71.8119478,111.360503 C71.8119478,118.073557 77.8297018,122.536947 82.7135722,122.536947 C87.2677419,122.536947 91.0980036,117.913996 91.0980036,114.666718 C91.0980036,112.904362 90.4400357,111.528689 89.0681942,111.528689 C88.1880368,111.528689 87.256274,112.026058 87.2003683,113.015048 C87.0914237,114.445345 85.7324835,118.145431 83.0977451,118.575239 C82.8784225,118.609738 82.7135722,118.520614 82.4928161,118.463115 C79.9698892,117.637999 78.0475909,113.236421 77.7178903,110.978132 L77.6935211,110.647511 C77.5071685,109.365274 77.6089457,108.025539 77.8956419,106.657053 C78.1780377,104.950759 78.6711553,103.323526 79.3104879,102.393473 C80.6264236,102.887968 82.27206,103.327839 83.8101853,103.327839 C85.4027829,103.327839 86.8821354,102.887968 87.8726709,101.844354 C88.5851111,101.017801 88.9678505,99.9698743 88.9678505,99.0355092 C88.9678505,97.3277774 87.8726709,95.8442932 85.3483106,95.8442932 C83.4260123,95.8442932 81.2313526,96.7800957 79.4724712,97.8251471 C77.9386464,96.7240338 76.7287883,92.8169504 76.7287883,90.2841023 C76.7287883,88.580683 77.2778116,87.0382619 78.7069923,86.3770189 C79.3104879,86.1024593 79.8595112,85.9932105 80.4056675,85.9932105 C82.9859336,85.9932105 84.9612707,88.6353074 86.7201521,88.6353074 C87.1587973,88.6353074 87.5960091,88.4685591 88.0375213,88.0286888 C88.4761665,87.6434429 88.6395834,87.1460732 88.6395834,86.7076404 C88.6395834,84.2869161 83.2066897,81.5901948 79.91255,81.7540681 C74.5355621,82.0861271 72.0642405,86.2677701 72.0642405,90.7254101 C72.0642405,93.9180637 73.3801762,98.3210793 75.9074036,100.411182 L75.9074036,100.411182 Z M102.140109,74.5896443 C100.24218,74.5896443 98.222405,74.8354542 97.3049771,74.9576404 C91.9208218,75.6950701 86.4879281,76.4296248 87.0985911,78.5786644 C87.5257685,80.0520862 90.9417541,80.2950211 93.2037874,80.2950211 C94.000803,80.2950211 94.8580247,80.2950211 95.713813,80.2346468 C95.1619227,86.1254591 94.9196644,89.6214219 94.6731056,95.5122342 C94.3677741,101.52667 94.2444948,105.882249 94.2444948,109.135277 C94.2444948,117.724248 95.2866356,117.787497 97.1816977,118.277679 C97.6103086,118.399866 97.9772797,118.461677 98.3442509,118.461677 C100.791203,118.461677 101.282887,115.516271 101.282887,106.924425 C101.282887,104.042268 101.221248,100.483056 101.159608,96.1892895 L100.485872,79.6826526 C103.361435,79.1306585 106.910734,77.9648584 106.358844,76.0012543 C106.115152,74.8958286 104.218657,74.5896443 102.140109,74.5896443 L102.140109,74.5896443 Z M102.588789,20.9844023 L103.873188,21.1784627 L104.528289,16.828634 L107.585904,21.7405192 L108.490431,21.8785178 L109.498168,15.1985263 L108.210902,15.0030284 L107.554367,19.3557321 L104.499619,14.4395344 L103.595092,14.3044109 L102.588789,20.9844023 Z M109.999886,69.0237036 C109.999886,70.0011932 110.279415,71.1181188 110.974654,72.3744804 C111.810373,73.6322795 112.786574,74.0505876 113.898955,74.0505876 C116.128018,74.0505876 118.633743,72.0956084 118.633743,69.5814476 C118.633743,68.18565 117.658976,66.6489788 115.568961,65.5320532 C114.875156,65.2517437 114.458013,65.1123077 113.898955,65.1123077 C111.810373,65.1123077 110.138934,66.7884149 109.999886,69.0237036 L109.999886,69.0237036 Z M113.265356,23.1650666 C114.456579,23.4841882 115.561793,23.2297534 116.33444,22.6475721 L117.10852,19.743853 L114.175617,18.9575488 L113.876019,20.0787869 L115.551759,20.5272821 L115.179054,21.9374546 C114.72464,22.1358275 114.187085,22.2120142 113.590757,22.0510159 C112.333594,21.7146445 111.622587,20.4841576 111.962322,19.2148586 C112.292023,17.9728718 113.490413,17.2239423 114.728941,17.5560013 C115.37114,17.7270619 115.845623,18.1539949 116.133752,18.6513646 L117.170159,18.0088089 C116.735814,17.2828792 116.006172,16.6963854 115.037139,16.4376382 C113.005896,15.8928315 111.204011,17.0011322 110.705159,18.8784872 C110.206308,20.7544047 111.235547,22.6216973 113.265356,23.1650666 L113.265356,23.1650666 Z M117.092751,83.2346773 C119.976915,82.7229328 123.541983,81.6074447 123.020196,79.6366531 C122.792272,78.5283524 120.898644,78.194856 118.818663,78.1661063 C116.920733,78.1387941 114.899525,78.3558543 113.980664,78.4651031 C108.586474,79.1263461 104.842221,79.8091513 105.424214,81.9653784 C105.832757,83.4445501 107.541466,83.7133598 109.804933,83.7449844 C110.600515,83.7564843 110.984688,83.7895464 111.840476,83.740672 C111.282852,89.6386717 111.182508,92.9075119 111.059229,98.9808848 C110.938817,105.002508 110.967486,108.314473 110.923048,111.567501 C110.801202,120.156472 111.377462,121.473208 113.268223,121.99214 C113.692534,122.120076 114.055205,122.066889 114.410708,121.979203 C116.949403,121.348147 117.389482,119.075483 117.509894,110.485075 C117.551465,107.602918 117.539997,104.042268 117.538564,99.7485016 L117.092751,83.2346773 Z M117.615972,24.3610538 L118.828697,24.8253614 L119.893773,22.0265787 L120.335286,22.1947644 L121.512174,25.850288 L123.015895,26.4252819 L121.758732,22.6260098 C122.041128,22.6418221 122.296288,22.5943851 122.528512,22.4966362 C122.995827,22.3025757 123.387167,21.9245173 123.579254,21.4185227 C123.77134,20.9139655 123.731203,20.3705963 123.51188,19.9149137 C123.305459,19.5052305 122.961423,19.1659841 122.31349,18.9187368 L120.017053,18.0404336 L117.615972,24.3610538 Z M123.736936,114.517219 C123.736936,118.369678 124.341866,119.910662 126.536525,120.241284 C129.447925,120.626529 129.774759,116.3342 129.774759,94.3191219 L129.774759,88.5950578 C129.774759,85.1292822 129.609909,79.0199722 126.97517,78.9653478 C124.61566,78.9653478 124.505282,84.3573529 124.505282,87.4393201 C124.45081,98.6114512 123.736936,110.280952 123.736936,114.517219 L123.736936,114.517219 Z M123.904654,26.8895894 L127.625971,28.7065701 L128.133423,27.6658312 L125.57896,26.4195319 L126.401778,24.726175 L128.261003,25.6346653 L128.768455,24.5939264 L126.906363,23.685436 L127.51846,22.4276369 L129.985481,23.6308116 L130.488633,22.5900727 L126.853325,20.8162166 L123.904654,26.8895894 Z M132.420965,23.6221867 L128.940473,29.4066251 L130.753827,30.5048635 C131.666954,31.0582951 132.387995,31.2236058 133.067465,31.1603565 C134.095271,31.06117 135.048536,30.4660514 135.626229,29.5072491 C136.203922,28.5484468 136.284197,27.4243337 135.892857,26.4655314 C135.631963,25.8344757 135.150314,25.2724191 134.234319,24.7189875 L132.420965,23.6221867 Z M138.913202,27.7290805 L135.028468,33.2547717 L136.092111,34.0065762 L139.975411,28.4794475 L138.913202,27.7290805 Z M141.879074,29.8666203 L137.66464,35.1465016 L140.90144,37.7440364 L141.623915,36.8384211 L139.403452,35.0573775 L140.578907,33.5868307 L142.195874,34.8848794 L142.918348,33.979264 L141.301381,32.6812153 L142.174371,31.5872894 L144.318859,33.3079586 L145.041334,32.4037808 L141.879074,29.8666203 Z M146.727108,33.8427029 L142.053959,38.7200885 L142.990022,39.6242664 L146.03617,36.4459877 L145.699302,42.2361761 L146.358703,42.8715444 L151.034719,37.9955962 L150.098655,37.0914184 L147.052508,40.2682596 L147.387942,34.4795087 L146.727108,33.8427029 Z M138.550531,83.2806769 C138.666643,81.5801325 139.317443,80.0779609 140.788195,79.5159044 C141.406025,79.2830319 141.962216,79.2111577 142.511239,79.2485323 C145.084338,79.4224679 146.877623,82.1925009 148.627904,82.3118122 C149.067982,82.3419993 149.518095,82.2068758 149.98541,81.7971926 C150.448425,81.4421339 150.646245,80.9591391 150.676348,80.5192687 C150.838332,78.1042944 145.600391,75.045327 142.301951,74.9863901 C136.914929,74.950453 134.168379,78.9552854 133.867348,83.4028631 C133.650892,86.5897666 134.670097,91.0718439 137.045376,93.3286949 C134.588389,95.5337965 132.998658,100.334995 132.783636,103.519024 C132.329223,110.21914 137.47112,115.533521 142.344956,115.86558 C146.890524,116.174639 149.500894,111.716999 149.718783,108.478346 C149.837762,106.72174 149.275837,105.30438 147.906863,105.210943 C147.029572,105.152007 146.064839,105.581815 145.944427,106.566492 C145.738006,107.986726 145.13021,112.08212 142.99719,111.936934 C142.775,111.92256 142.617317,111.856435 142.400861,111.785999 C139.936707,110.792697 138.318307,106.268932 138.141989,103.993394 C137.988606,101.390109 138.986309,97.2099036 140.309412,95.5366714 C141.589511,96.1202902 143.202177,96.6708469 144.736002,96.7757832 C146.324299,96.8835946 147.832322,96.5443482 148.887364,95.5682961 C149.654276,94.7934918 150.110123,93.7743152 150.173196,92.8413876 C150.287875,91.1394057 149.291605,89.5826098 146.774412,89.4115491 C144.856415,89.280738 142.601549,90.0656047 140.781028,90.9899073 C139.321744,89.7881701 138.382814,85.8063375 138.550531,83.2806769 L138.550531,83.2806769 Z M151.483398,40.177698 L152.653119,41.5289336 L148.435817,45.210332 L149.287305,46.195009 L153.508907,42.5136107 L154.680061,43.8634088 L155.553051,43.1015419 L152.354955,39.4158311 L151.483398,40.177698 Z M155.081436,45.4345796 C154.47364,45.8902622 154.356094,46.5069432 154.424901,47.1178742 C154.542447,48.1614881 155.206149,49.2295392 154.512344,49.7499087 C154.11957,50.0431555 153.593482,49.9324692 153.248013,49.4695992 C152.879609,48.9736669 152.783566,48.312424 152.891077,47.74893 L151.674051,47.5994316 C151.582308,48.5366716 151.781562,49.4350995 152.323418,50.1610293 C153.047326,51.1356439 154.35036,51.4964526 155.305059,50.7805852 C157.124147,49.4192872 154.995427,47.1236241 155.866984,46.4724435 C156.284127,46.1605094 156.780111,46.4753185 157.073975,46.8677518 C157.339169,47.224248 157.455281,47.7029305 157.416577,48.069489 L158.589164,48.0335519 C158.587731,47.2400604 158.338305,46.6320043 157.931196,46.0828852 C157.261761,45.1858947 156.046169,44.7129623 155.081436,45.4345796 L155.081436,45.4345796 Z M161.509165,66.7726025 C156.729939,66.7726025 154.439236,72.8100383 154.439236,78.850349 C154.439236,80.2935836 154.571117,81.673569 154.833444,83.0521168 C155.421171,86.0722721 156.729939,88.8293678 158.629302,91.1925927 C160.789558,93.9496883 163.538975,96.3790375 163.538975,100.253059 C163.538975,102.745657 162.29758,107.145798 159.413416,107.145798 C156.600926,107.081111 156.208152,103.534836 155.488545,101.105487 C155.094337,99.7916262 154.635623,98.8083866 153.653689,98.8083866 C152.541307,98.8083866 151.754326,100.710179 151.754326,103.140966 C151.754326,107.081111 153.784135,112.330805 159.413416,112.330805 C165.897051,112.330805 169.561029,106.225808 169.561029,100.449994 C169.561029,92.569703 162.228773,89.2893629 160.332277,82.4627481 C160.00401,81.3458224 159.873563,80.1656475 159.873563,78.9164733 C159.873563,76.4238748 160.461291,73.9930882 161.117825,72.6806647 C161.509165,71.892923 161.901939,71.4976147 162.228773,71.4976147 C162.687487,71.4976147 163.017188,72.222107 163.212141,73.2053466 C163.538975,75.8316311 163.278081,80.6888919 165.568784,80.6888919 C167.076806,80.6888919 168.120381,78.0640449 168.120381,75.0438895 C168.120381,71.6313008 166.679732,67.6897178 162.751994,66.9034136 C162.29758,66.8387268 161.901939,66.7726025 161.509165,66.7726025 L161.509165,66.7726025 Z M170.198928,155.793155 C150.88707,175.817317 119.969748,188 89.8007031,188 C69.3291584,188 49.2045162,182.392372 33.2742399,169.823006 C-7.98278183,135.331998 -11.3543296,76.1550652 25.8502409,31.6419139 C43.4978276,10.5425134 67.766664,0.00287554333 92.3852697,5.73922606e-07 C117.30634,-0.00287439548 142.58578,10.7955107 161.741389,32.3692811 C190.18739,63.4721376 203.911539,122.722382 170.198928,155.793155 L170.198928,155.793155 Z M121.998124,21.3725231 C122.151506,21.2977739 122.290554,21.1439631 122.360795,20.96284 C122.432469,20.7745295 122.429602,20.5660942 122.365095,20.4079709 C122.302022,20.2484101 122.180176,20.1089741 121.828973,19.975288 L120.821236,19.5886046 L120.305183,20.9427152 L121.314353,21.3293986 C121.665556,21.4630847 121.846175,21.4501473 121.998124,21.3725231 L121.998124,21.3725231 Z M131.473434,29.5877482 C132.157205,30.0017438 132.772168,30.0463058 133.33696,29.8364331 C133.799974,29.6639349 134.225718,29.3131886 134.513848,28.8345062 C134.803411,28.3543863 134.913789,27.8124546 134.849283,27.3222723 C134.770441,26.7228412 134.446474,26.1995968 133.762704,25.7856012 L132.937019,25.286794 L130.649183,29.088941 L131.473434,29.5877482 Z M153.203576,143.680909 C152.623016,144.29184 152.611548,145.233393 153.043026,145.772449 L155.193247,143.501224 C154.664293,143.08579 153.771234,143.078603 153.203576,143.680909 L153.203576,143.680909 Z M34.7478585,46.3560073 L35.8143685,48.2491746 L36.8536424,46.8821267 L34.7478585,46.3560073 Z M141.305682,155.37341 L142.535609,157.26514 C142.514106,157.946507 142.155736,158.626438 141.51497,159.047621 C140.560272,159.674364 139.366182,159.417054 138.719682,158.42519 C138.126221,157.515262 138.233732,156.271838 139.227134,155.620657 C139.880801,155.192287 140.64628,155.136225 141.305682,155.37341 L141.305682,155.37341 Z" id="Fill-1" fill="#43B0C6" mask="url(#mask-2)"></path>
            </g>
        </g>
    </g>
</svg>